<svg width="12" height="12" viewBox="0 0 12 12" fill="none" xmlns="http://www.w3.org/2000/svg">
<path d="M4.45725 1.31476C4.68583 1.08619 4.74297 0.91476 4.85725 0.857617C5.3144 0.457617 6.00011 0.457617 6.5144 0.857617C6.62868 0.91476 6.74297 1.08619 6.9144 1.31476C7.02868 1.42905 7.08583 1.48619 7.08583 1.54333C7.3144 1.7719 7.65725 1.88619 8.00011 1.88619H8.28583C8.62868 1.82905 8.80011 1.82905 8.9144 1.82905C9.54297 1.88619 10.0001 2.40047 10.0573 2.9719C10.0573 3.08619 10.0573 3.25762 10.0001 3.60047V3.88619C10.0001 4.22905 10.1144 4.51476 10.343 4.80047C10.4001 4.85762 10.4573 4.91476 10.5715 4.9719C10.8001 5.20047 10.9715 5.25762 11.0287 5.3719C11.4287 5.82904 11.4287 6.51476 11.0287 7.02905C10.9715 7.14333 10.8001 7.25762 10.5715 7.42905C10.4573 7.54333 10.4001 7.60047 10.343 7.60047C10.1144 7.82905 10.0001 8.1719 10.0001 8.51476V8.80047C10.0573 9.14333 10.0573 9.31476 10.0573 9.42904C10.0001 10.0576 9.48583 10.5148 8.9144 10.5719C8.80011 10.5719 8.62868 10.5719 8.28583 10.5148C8.1144 10.5148 8.05725 10.5148 8.00011 10.5148C7.65725 10.5148 7.37154 10.629 7.08583 10.8576C7.02868 10.9148 6.97154 10.9719 6.9144 11.0862C6.68583 11.3148 6.62868 11.4862 6.5144 11.5433C6.05725 11.9433 5.37154 11.9433 4.85725 11.5433C4.74297 11.4862 4.62868 11.3148 4.45725 11.0862C4.34297 10.9719 4.28583 10.9148 4.28583 10.8576C4.05725 10.629 3.7144 10.5148 3.37154 10.5148C3.3144 10.5148 3.20011 10.5148 3.08583 10.5148C2.74297 10.5719 2.57154 10.5719 2.45725 10.5719C1.82868 10.5148 1.37154 10.0005 1.3144 9.42904C1.3144 9.31476 1.3144 9.14333 1.37154 8.80047C1.37154 8.62904 1.37154 8.5719 1.37154 8.51476C1.37154 8.1719 1.25725 7.88619 1.02868 7.60047C0.97154 7.54333 0.914397 7.48619 0.800112 7.42905C0.57154 7.20047 0.400112 7.14333 0.342969 7.02905C-0.0570313 6.5719 -0.0570313 5.88619 0.342969 5.3719C0.400112 5.25762 0.57154 5.14333 0.800112 4.9719C0.914397 4.85762 0.97154 4.80047 1.02868 4.80047C1.25725 4.5719 1.37154 4.22905 1.37154 3.88619C1.37154 3.82905 1.37154 3.71476 1.37154 3.60047C1.3144 3.31476 1.3144 3.14333 1.3144 3.02905C1.37154 2.40047 1.88583 1.94333 2.45725 1.88619C2.57154 1.88619 2.74297 1.88619 3.08583 1.94333H3.37154C3.7144 1.94333 4.00011 1.82905 4.28583 1.60047C4.34297 1.48619 4.40011 1.42905 4.45725 1.31476Z" fill="#64C59E"/>
<path d="M5.14308 7.88663C5.02879 7.88663 4.91451 7.82949 4.85737 7.77235L3.71451 6.62949C3.54308 6.45806 3.54308 6.17235 3.71451 6.00092C3.88594 5.82949 4.17165 5.82949 4.34308 6.00092L5.20022 6.85806L7.20022 4.85806C7.37165 4.68664 7.65737 4.68664 7.82879 4.85806C8.00022 5.02949 8.00022 5.31521 7.82879 5.48664L5.54308 7.77235C5.37165 7.82949 5.25737 7.88663 5.14308 7.88663Z" fill="white"/>
</svg>
