<svg width="28" height="28" viewBox="0 0 28 28" fill="none" xmlns="http://www.w3.org/2000/svg">
<path d="M13.9998 22.3037L6.00599 14.3099C5.55609 13.8225 5.20659 13.2512 4.97746 12.6288C4.74832 12.0063 4.64403 11.3448 4.67054 10.682C4.72408 9.34353 5.30715 8.08111 6.29148 7.1725C7.27582 6.26388 8.58078 5.78351 9.91929 5.83705C11.2578 5.89059 12.5202 6.47366 13.4288 7.45799C13.5979 7.57092 13.7966 7.63119 13.9998 7.63119C14.2031 7.63119 14.4018 7.57092 14.5708 7.45799C15.4794 6.47366 16.7419 5.89059 18.0804 5.83705C19.4189 5.78351 20.7239 6.26388 21.7082 7.1725C22.6925 8.08111 23.2756 9.34353 23.3291 10.682C23.3827 12.0206 22.9023 13.3255 21.9937 14.3099L13.9998 22.3037Z" stroke="#92929D" stroke-width="1.6" stroke-linecap="round" stroke-linejoin="round"/>
</svg>
