<svg width="28" height="28" viewBox="0 0 28 28" fill="none" xmlns="http://www.w3.org/2000/svg">
<path d="M13.9993 22.3037L6.0055 14.3099C5.5556 13.8225 5.2061 13.2512 4.97697 12.6288C4.74783 12.0063 4.64354 11.3448 4.67005 10.682C4.72359 9.34353 5.30666 8.08111 6.291 7.1725C7.27533 6.26388 8.58029 5.78351 9.9188 5.83705C11.2573 5.89059 12.5197 6.47366 13.4284 7.45799C13.5974 7.57092 13.7961 7.63119 13.9993 7.63119C14.2026 7.63119 14.4013 7.57092 14.5703 7.45799C15.4789 6.47366 16.7414 5.89059 18.0799 5.83705C19.4184 5.78351 20.7234 6.26388 21.7077 7.1725C22.692 8.08111 23.2751 9.34353 23.3286 10.682C23.3822 12.0206 22.9018 13.3255 21.9932 14.3099L13.9993 22.3037Z" fill="#EA5930" stroke="#EA5930" stroke-width="1.6" stroke-linecap="round" stroke-linejoin="round"/>
</svg>
