<svg width="28" height="28" viewBox="0 0 28 28" fill="none" xmlns="http://www.w3.org/2000/svg">
<path d="M25.206 19.6051C25.1666 19.6445 25.1131 19.6667 25.0573 19.6667C25.0016 19.6667 24.9481 19.6445 24.9086 19.6051C24.8692 19.5656 24.8471 19.5122 24.8471 19.4564C24.8471 19.4006 24.8692 19.3472 24.9086 19.3077L25.0573 19.4564L24.9086 19.3077C24.9087 19.3077 24.9087 19.3077 24.9087 19.3077C24.9481 19.2683 25.0016 19.2461 25.0573 19.2461C25.1131 19.2461 25.1666 19.2683 25.206 19.3077C25.2454 19.3472 25.2676 19.4006 25.2676 19.4564C25.2676 19.5122 25.2454 19.5656 25.206 19.6051Z" fill="#EA5930" stroke="#EA5930" stroke-width="2"/>
<path d="M22.1086 21.5134V19.6667H24.5097L24.607 19.819C24.4757 20.0125 24.2919 20.2473 24.0489 20.482C23.6167 20.8994 22.9919 21.324 22.1086 21.5134Z" fill="#EA5930" stroke="#EA5930" stroke-width="2"/>
<path d="M20.1074 19.6667V21.5134C19.2241 21.324 18.5993 20.8994 18.1671 20.482C17.9241 20.2473 17.7402 20.0125 17.609 19.819L17.7063 19.6667H20.1074Z" fill="#EA5930" stroke="#EA5930" stroke-width="2"/>
<path d="M13.0575 4.89052C13.3076 4.64048 13.6467 4.5 14.0003 4.5C14.3539 4.5 14.6931 4.64048 14.9431 4.89052C15.1932 5.14057 15.3337 5.47971 15.3337 5.83333C15.3337 6.18696 15.1932 6.52609 14.9431 6.77614C14.6931 7.02619 14.3539 7.16667 14.0003 7.16667C13.6467 7.16667 13.3076 7.02619 13.0575 6.77614C12.8075 6.52609 12.667 6.18695 12.667 5.83333C12.667 5.47971 12.8075 5.14057 13.0575 4.89052Z" fill="#EA5930" stroke="#EA5930" stroke-width="2"/>
<path d="M14 6.03842C17.9487 6.03842 17.9487 9.19187 22.6872 9.19187L14 6.03842Z" fill="#EA5930"/>
<path d="M14 6.03842C17.9487 6.03842 17.9487 9.19187 22.6872 9.19187" stroke="#EA5930" stroke-width="2" stroke-miterlimit="10" stroke-linecap="round" stroke-linejoin="round"/>
<path d="M5.89353 19.6667V21.5134C5.01022 21.324 4.38542 20.8994 3.95322 20.482C3.71022 20.2473 3.52637 20.0125 3.39511 19.819L3.49246 19.6667H5.89353ZM10.9909 19.6051C10.9515 19.6445 10.898 19.6667 10.8422 19.6667C10.7865 19.6667 10.733 19.6445 10.6936 19.6051C10.6541 19.5656 10.632 19.5122 10.632 19.4564C10.632 19.4006 10.6541 19.3472 10.6936 19.3077C10.733 19.2683 10.7865 19.2461 10.8422 19.2461C10.898 19.2461 10.9515 19.2683 10.9909 19.3077C11.0304 19.3472 11.0525 19.4006 11.0525 19.4564C11.0525 19.5122 11.0304 19.5656 10.9909 19.6051Z" fill="#EA5930" stroke="#EA5930" stroke-width="2"/>
<path d="M7.89062 21.5134V19.6667H10.2917L10.389 19.819C10.2578 20.0125 10.0739 20.2473 9.83094 20.482C9.39873 20.8994 8.77394 21.324 7.89062 21.5134Z" fill="#EA5930" stroke="#EA5930" stroke-width="2"/>
<path d="M14.0007 6.03842C10.0519 6.03842 10.0519 9.19187 5.31348 9.19187L14.0007 6.03842Z" fill="#EA5930"/>
<path d="M14.0007 6.03842C10.0519 6.03842 10.0519 9.19187 5.31348 9.19187" stroke="#EA5930" stroke-width="2" stroke-miterlimit="10" stroke-linecap="round" stroke-linejoin="round"/>
<mask id="path-11-inside-1_3988_11113" fill="white">
<path fill-rule="evenodd" clip-rule="evenodd" d="M21.1091 11.4996L19.0771 17.0863H17.3973L20.3676 8.91873C20.4805 8.60678 20.7766 8.39908 21.1091 8.39908C21.4416 8.39908 21.7378 8.60678 21.8507 8.91873L24.8209 17.0863H23.1411L21.1091 11.4996ZM2.38658 18.8971C2.53469 18.7489 2.73556 18.6657 2.94502 18.6657C3.15447 18.6657 3.35534 18.7489 3.50345 18.8971C3.65156 19.0452 3.73476 19.246 3.73476 19.4555C3.73476 19.6649 3.65156 19.8658 3.50345 20.0139C3.35534 20.162 3.15447 20.2452 2.94502 20.2452C2.73556 20.2452 2.53469 20.162 2.38658 20.0139C2.23848 19.8658 2.15527 19.6649 2.15527 19.4555C2.15527 19.246 2.23848 19.0452 2.38658 18.8971ZM6.89246 11.4996L8.92447 17.0863H10.6043L7.63403 8.91873C7.52109 8.60678 7.22494 8.39908 6.89246 8.39908C6.55998 8.39908 6.26382 8.60678 6.15089 8.91873L3.18066 17.0863H4.86045L6.89246 11.4996Z"/>
</mask>
<path fill-rule="evenodd" clip-rule="evenodd" d="M21.1091 11.4996L19.0771 17.0863H17.3973L20.3676 8.91873C20.4805 8.60678 20.7766 8.39908 21.1091 8.39908C21.4416 8.39908 21.7378 8.60678 21.8507 8.91873L24.8209 17.0863H23.1411L21.1091 11.4996ZM2.38658 18.8971C2.53469 18.7489 2.73556 18.6657 2.94502 18.6657C3.15447 18.6657 3.35534 18.7489 3.50345 18.8971C3.65156 19.0452 3.73476 19.246 3.73476 19.4555C3.73476 19.6649 3.65156 19.8658 3.50345 20.0139C3.35534 20.162 3.15447 20.2452 2.94502 20.2452C2.73556 20.2452 2.53469 20.162 2.38658 20.0139C2.23848 19.8658 2.15527 19.6649 2.15527 19.4555C2.15527 19.246 2.23848 19.0452 2.38658 18.8971ZM6.89246 11.4996L8.92447 17.0863H10.6043L7.63403 8.91873C7.52109 8.60678 7.22494 8.39908 6.89246 8.39908C6.55998 8.39908 6.26382 8.60678 6.15089 8.91873L3.18066 17.0863H4.86045L6.89246 11.4996Z" fill="#EA5930"/>
<path d="M19.0771 17.0863V19.0863H20.4778L20.9566 17.7699L19.0771 17.0863ZM21.1091 11.4996L22.9887 10.816L21.1091 5.64854L19.2296 10.816L21.1091 11.4996ZM17.3973 17.0863L15.5178 16.4027L14.5419 19.0863H17.3973V17.0863ZM20.3676 8.91873L22.2471 9.60226L22.2481 9.59954L20.3676 8.91873ZM21.8507 8.91873L19.9701 9.59953L19.9711 9.60226L21.8507 8.91873ZM24.8209 17.0863V19.0863H27.6764L26.7005 16.4027L24.8209 17.0863ZM23.1411 17.0863L21.2616 17.7699L21.7404 19.0863H23.1411V17.0863ZM2.38658 18.8971L0.972371 17.4828L0.972366 17.4828L2.38658 18.8971ZM3.50345 18.8971L4.91767 17.4828L4.91766 17.4828L3.50345 18.8971ZM3.50345 20.0139L4.91766 21.4281L4.91766 21.4281L3.50345 20.0139ZM2.38658 20.0139L3.8008 18.5997L2.38658 20.0139ZM8.92447 17.0863L7.04493 17.7699L7.52373 19.0863H8.92447V17.0863ZM6.89246 11.4996L8.77199 10.816L6.89246 5.64854L5.01293 10.816L6.89246 11.4996ZM10.6043 17.0863V19.0863H13.4597L12.4838 16.4027L10.6043 17.0863ZM7.63403 8.91873L5.75347 9.59954L5.75446 9.60226L7.63403 8.91873ZM6.15089 8.91873L8.03046 9.60226L8.03145 9.59954L6.15089 8.91873ZM3.18066 17.0863L1.30109 16.4027L0.325194 19.0863H3.18066V17.0863ZM4.86045 17.0863V19.0863H6.26118L6.73998 17.7699L4.86045 17.0863ZM20.9566 17.7699L22.9887 12.1832L19.2296 10.816L17.1976 16.4026L20.9566 17.7699ZM17.3973 19.0863H19.0771V15.0863H17.3973V19.0863ZM18.488 8.2352L15.5178 16.4027L19.2769 17.7698L22.2471 9.60226L18.488 8.2352ZM21.1091 6.39908C19.9358 6.39908 18.887 7.13303 18.487 8.23792L22.2481 9.59954C22.074 10.0805 21.6174 10.3991 21.1091 10.3991V6.39908ZM23.7313 8.23793C23.3313 7.13302 22.2824 6.39908 21.1091 6.39908V10.3991C20.6008 10.3991 20.1443 10.0805 19.9701 9.59953L23.7313 8.23793ZM26.7005 16.4027L23.7303 8.2352L19.9711 9.60226L22.9413 17.7698L26.7005 16.4027ZM23.1411 19.0863H24.8209V15.0863H23.1411V19.0863ZM19.2296 12.1832L21.2616 17.7699L25.0207 16.4026L22.9887 10.816L19.2296 12.1832ZM2.94502 16.6657C2.20514 16.6657 1.49555 16.9597 0.972371 17.4828L3.8008 20.3113C3.57383 20.5382 3.26599 20.6657 2.94502 20.6657V16.6657ZM4.91766 17.4828C4.39448 16.9597 3.6849 16.6657 2.94502 16.6657V20.6657C2.62404 20.6657 2.31621 20.5382 2.08924 20.3113L4.91766 17.4828ZM5.73476 19.4555C5.73476 18.7156 5.44084 18.006 4.91767 17.4828L2.08923 20.3113C1.86227 20.0843 1.73476 19.7765 1.73476 19.4555H5.73476ZM4.91766 21.4281C5.44084 20.905 5.73476 20.1954 5.73476 19.4555H1.73476C1.73476 19.1345 1.86227 18.8267 2.08924 18.5997L4.91766 21.4281ZM2.94502 22.2452C3.6849 22.2452 4.39448 21.9513 4.91766 21.4281L2.08924 18.5997C2.31621 18.3727 2.62404 18.2452 2.94502 18.2452V22.2452ZM0.972371 21.4281C1.49555 21.9513 2.20514 22.2452 2.94502 22.2452V18.2452C3.26599 18.2452 3.57383 18.3727 3.8008 18.5997L0.972371 21.4281ZM0.155273 19.4555C0.155273 20.1954 0.449191 20.905 0.972371 21.4281L3.8008 18.5997C4.02777 18.8267 4.15527 19.1345 4.15527 19.4555H0.155273ZM0.972366 17.4828C0.449192 18.006 0.155273 18.7156 0.155273 19.4555H4.15527C4.15527 19.7765 4.02776 20.0843 3.8008 20.3113L0.972366 17.4828ZM10.804 16.4026L8.77199 10.816L5.01293 12.1832L7.04493 17.7699L10.804 16.4026ZM10.6043 15.0863H8.92447V19.0863H10.6043V15.0863ZM5.75446 9.60226L8.72468 17.7698L12.4838 16.4027L9.5136 8.2352L5.75446 9.60226ZM6.89246 10.3991C6.38414 10.3991 5.9276 10.0805 5.75347 9.59954L9.51459 8.23792C9.11458 7.13302 8.06574 6.39908 6.89246 6.39908V10.3991ZM8.03145 9.59954C7.85731 10.0805 7.40078 10.3991 6.89246 10.3991V6.39908C5.71918 6.39908 4.67033 7.13302 4.27033 8.23792L8.03145 9.59954ZM5.06024 17.7698L8.03046 9.60226L4.27132 8.2352L1.30109 16.4027L5.06024 17.7698ZM4.86045 15.0863H3.18066V19.0863H4.86045V15.0863ZM5.01293 10.816L2.98092 16.4026L6.73998 17.7699L8.77199 12.1832L5.01293 10.816Z" fill="#EA5930" mask="url(#path-11-inside-1_3988_11113)"/>
</svg>
