<svg width="20" height="20" viewBox="0 0 20 20" fill="none" xmlns="http://www.w3.org/2000/svg">
<g clip-path="url(#clip0_1985_59694)">
<path d="M8.83333 15.9167C12.055 15.9167 14.6667 13.305 14.6667 10.0833C14.6667 6.86167 12.055 4.25 8.83333 4.25C5.61167 4.25 3 6.86167 3 10.0833C3 13.305 5.61167 15.9167 8.83333 15.9167Z" stroke="#EA5930" stroke-width="2" stroke-linecap="round" stroke-linejoin="round"/>
<path d="M16.5 17.75L13.5 14.75" stroke="#EA5930" stroke-width="2" stroke-linecap="round" stroke-linejoin="round"/>
<path d="M10.1961 10.5726C10.4774 10.8539 10.8589 11.012 11.2567 11.012C11.6546 11.012 12.0361 10.8539 12.3174 10.5726L15.9632 6.92678C15.9774 6.91265 15.9912 6.89823 16.0048 6.88354C16.689 6.14229 17.0508 5.15958 17.0105 4.1516C16.9701 3.14362 16.531 2.19295 15.7898 1.50871C15.0485 0.824472 14.0658 0.462722 13.0578 0.503041C12.4163 0.528703 11.798 0.715907 11.2567 1.03975C10.7155 0.715907 10.0972 0.528703 9.45564 0.503041C8.44767 0.462722 7.46496 0.824472 6.7237 1.50871C5.98244 2.19295 5.54336 3.14362 5.50304 4.1516C5.48308 4.6507 5.56161 5.14884 5.73416 5.61759C5.90672 6.08634 6.16991 6.51651 6.50871 6.88354C6.52227 6.89823 6.53612 6.91265 6.55025 6.92678L10.1961 10.5726Z" stroke="white" stroke-width="3" stroke-linecap="round" stroke-linejoin="round"/>
<path d="M11.2567 9.51196L7.61091 5.86612C7.40572 5.64383 7.24632 5.38331 7.14182 5.09941C7.03731 4.81552 6.98975 4.51383 7.00184 4.21155C7.02626 3.60108 7.29219 3.02532 7.74112 2.61091C8.19005 2.19651 8.78522 1.97742 9.39569 2.00184C10.0062 2.02626 10.5819 2.29219 10.9963 2.74112C11.0734 2.79263 11.164 2.82012 11.2567 2.82012C11.3495 2.82012 11.4401 2.79263 11.5172 2.74112C11.9316 2.29219 12.5073 2.02626 13.1178 2.00184C13.7283 1.97742 14.3234 2.19651 14.7724 2.61091C15.2213 3.02532 15.4872 3.60108 15.5117 4.21155C15.5361 4.82202 15.317 5.41719 14.9026 5.86612L11.2567 9.51196Z" fill="white"/>
<path d="M11.2567 9.51196L10.5496 10.2191C10.7372 10.4066 10.9915 10.512 11.2567 10.512C11.522 10.512 11.7763 10.4066 11.9639 10.2191L11.2567 9.51196ZM7.61091 5.86612L6.87611 6.5444C6.88515 6.5542 6.89438 6.56381 6.90381 6.57323L7.61091 5.86612ZM7.00184 4.21155L6.00264 4.17158L7.00184 4.21155ZM10.9963 2.74112L10.2615 3.4194C10.315 3.47736 10.3752 3.52878 10.4408 3.5726L10.9963 2.74112ZM11.5172 2.74112L12.0727 3.5726C12.1383 3.52878 12.1985 3.47736 12.252 3.4194L11.5172 2.74112ZM14.9026 5.86612L15.6097 6.57323C15.6191 6.56381 15.6283 6.5542 15.6374 6.5444L14.9026 5.86612ZM11.9639 8.80485L8.31802 5.15902L6.90381 6.57323L10.5496 10.2191L11.9639 8.80485ZM8.34572 5.18784C8.2296 5.06205 8.1394 4.91462 8.08026 4.75396L6.20338 5.44487C6.35325 5.85199 6.58185 6.22562 6.87611 6.5444L8.34572 5.18784ZM8.08026 4.75396C8.02112 4.59331 7.9942 4.42258 8.00104 4.25152L6.00264 4.17158C5.9853 4.60507 6.05351 5.03774 6.20338 5.44487L8.08026 4.75396ZM8.00104 4.25152C8.01486 3.90605 8.16535 3.58023 8.4194 3.34572L7.06284 1.87611C6.41902 2.4704 6.03766 3.29611 6.00264 4.17158L8.00104 4.25152ZM8.4194 3.34572C8.67345 3.11121 9.01026 2.98722 9.35572 3.00104L9.43566 1.00264C8.56019 0.967623 7.70666 1.28182 7.06284 1.87611L8.4194 3.34572ZM9.35572 3.00104C9.70119 3.01486 10.027 3.16535 10.2615 3.4194L11.7311 2.06284C11.1368 1.41903 10.3111 1.03766 9.43566 1.00264L9.35572 3.00104ZM10.4408 3.5726C10.6823 3.73398 10.9663 3.82012 11.2567 3.82012V1.82012C11.3618 1.82012 11.4645 1.85127 11.5519 1.90964L10.4408 3.5726ZM11.2567 3.82012C11.5472 3.82012 11.8312 3.73398 12.0727 3.5726L10.9616 1.90964C11.049 1.85127 11.1517 1.82012 11.2567 1.82012V3.82012ZM12.252 3.4194C12.4865 3.16535 12.8123 3.01486 13.1578 3.00104L13.0778 1.00264C12.2024 1.03766 11.3767 1.41903 10.7824 2.06284L12.252 3.4194ZM13.1578 3.00104C13.5032 2.98722 13.84 3.11121 14.0941 3.34572L15.4507 1.87611C14.8068 1.28182 13.9533 0.967623 13.0778 1.00264L13.1578 3.00104ZM14.0941 3.34572C14.3481 3.58023 14.4986 3.90605 14.5124 4.25152L16.5109 4.17158C16.4758 3.29611 16.0945 2.4704 15.4507 1.87611L14.0941 3.34572ZM14.5124 4.25152C14.5263 4.59698 14.4023 4.93379 14.1678 5.18784L15.6374 6.5444C16.2317 5.90059 16.5459 5.04706 16.5109 4.17158L14.5124 4.25152ZM14.1955 5.15902L10.5496 8.80485L11.9639 10.2191L15.6097 6.57323L14.1955 5.15902Z" fill="#EA5930"/>
</g>
<defs>
<clipPath id="clip0_1985_59694">
<rect width="20" height="20" fill="white"/>
</clipPath>
</defs>
</svg>
