<svg width="14" height="14" viewBox="0 0 14 14" fill="none" xmlns="http://www.w3.org/2000/svg">
<path d="M2.91686 11.0833H11.0835C11.2739 11.082 11.461 11.0341 11.6286 10.9438C11.7962 10.8535 11.9391 10.7236 12.045 10.5654C12.1508 10.4072 12.2164 10.2255 12.2359 10.0362C12.2554 9.84684 12.2282 9.65559 12.1569 9.47914L8.01519 2.3333C7.9143 2.15095 7.7664 1.99895 7.58688 1.89311C7.40736 1.78727 7.20276 1.73145 6.99436 1.73145C6.78596 1.73145 6.58136 1.78727 6.40184 1.89311C6.22231 1.99895 6.07442 2.15095 5.97352 2.3333L1.83186 9.47914C1.76182 9.65155 1.73405 9.83823 1.75086 10.0236C1.76767 10.2089 1.82858 10.3875 1.92849 10.5445C2.0284 10.7015 2.16442 10.8324 2.3252 10.9261C2.48598 11.0198 2.66684 11.0737 2.85269 11.0833M7.00019 5.24997V6.41664V5.24997ZM7.00019 8.74997V8.7558V8.74997Z" stroke="white" stroke-width="1.4" stroke-linecap="round" stroke-linejoin="round"/>
</svg>
