<svg width="20" height="20" viewBox="0 0 20 20" fill="none" xmlns="http://www.w3.org/2000/svg">
<path d="M5.83333 10.8337V4.16699C5.83333 3.94598 5.74554 3.73402 5.58926 3.57774C5.43298 3.42145 5.22101 3.33366 5 3.33366H3.33333C3.11232 3.33366 2.90036 3.42145 2.74408 3.57774C2.5878 3.73402 2.5 3.94598 2.5 4.16699V10.0003C2.5 10.2213 2.5878 10.4333 2.74408 10.5896C2.90036 10.7459 3.11232 10.8337 3.33333 10.8337H5.83333ZM5.83333 10.8337C6.71739 10.8337 7.56523 11.1848 8.19036 11.81C8.81548 12.4351 9.16667 13.2829 9.16667 14.167V15.0003C9.16667 15.4424 9.34226 15.8663 9.65482 16.1788C9.96738 16.4914 10.3913 16.667 10.8333 16.667C11.2754 16.667 11.6993 16.4914 12.0118 16.1788C12.3244 15.8663 12.5 15.4424 12.5 15.0003V10.8337H15C15.442 10.8337 15.866 10.6581 16.1785 10.3455C16.4911 10.0329 16.6667 9.60902 16.6667 9.16699L15.8333 5.00032C15.7135 4.4891 15.4861 4.05012 15.1855 3.74952C14.8849 3.44892 14.5274 3.30297 14.1667 3.33366H8.33333C7.67029 3.33366 7.03441 3.59705 6.56557 4.06589C6.09673 4.53473 5.83333 5.17062 5.83333 5.83366" stroke="#B5B5BE" stroke-width="1.6" stroke-linecap="round" stroke-linejoin="round"/>
</svg>
