<svg width="28" height="28" viewBox="0 0 28 28" fill="none" xmlns="http://www.w3.org/2000/svg">
<g clip-path="url(#clip0_1119_32966)">
<path opacity="0.4" d="M11.025 18.2002C10.7454 19.2801 10.1496 20.2519 9.31392 20.9909C8.47824 21.7298 7.44082 22.2022 6.33478 22.3474C5.22875 22.4926 4.10455 22.304 3.10644 21.8058C2.10834 21.3076 1.28185 20.5226 0.733043 19.5514C0.184231 18.5802 -0.0618737 17.4672 0.0263085 16.3552C0.114491 15.2431 0.532937 14.1828 1.22795 13.3102C1.92297 12.4377 2.86285 11.7927 3.927 11.4581C4.99115 11.1234 6.13102 11.1144 7.20034 11.4321L6.15034 13.3435C5.50401 13.2404 4.84173 13.3207 4.23871 13.5751C3.63568 13.8295 3.11607 14.2479 2.73888 14.7828C2.36169 15.3176 2.14203 15.9476 2.10485 16.601C2.06767 17.2544 2.21445 17.9052 2.52853 18.4794C2.84261 19.0536 3.3114 19.5283 3.88168 19.8495C4.45195 20.1706 5.10086 20.3255 5.75471 20.2964C6.40856 20.2673 7.04115 20.0555 7.58066 19.6849C8.12017 19.3144 8.54498 18.8 8.80684 18.2002H11.025ZM22.4 11.2002C21.7829 11.1996 21.17 11.3012 20.5861 11.5008L21.7065 13.3693C22.5282 13.2012 23.383 13.3328 24.116 13.7405C24.849 14.1482 25.4118 14.8049 25.7024 15.5917C25.993 16.3785 25.9923 17.2433 25.7002 18.0296C25.4082 18.8159 24.8443 19.4716 24.1105 19.8779C23.3768 20.2843 22.5218 20.4144 21.7004 20.2448C20.8789 20.0751 20.1454 19.6169 19.6327 18.9531C19.12 18.2894 18.8619 17.4639 18.9053 16.6263C18.9486 15.7887 19.2905 14.9942 19.869 14.3869L18.7639 12.542C17.7644 13.3957 17.097 14.5739 16.8787 15.8701C16.6604 17.1664 16.905 18.4981 17.5698 19.6322C18.2345 20.7662 19.277 21.6302 20.5147 22.073C21.7524 22.5157 23.1065 22.509 24.3397 22.0539C25.5729 21.5988 26.6067 20.7244 27.2601 19.5838C27.9135 18.4431 28.1448 17.109 27.9136 15.815C27.6823 14.521 27.0032 13.3496 25.9952 12.5059C24.9872 11.6622 23.7145 11.2 22.4 11.2002Z" fill="#EA5930"/>
<path d="M7.69238 10.5346C7.29426 9.92649 6.67301 9.44961 5.60113 9.44961H3.14982C2.87509 9.44967 2.61128 9.34206 2.41498 9.14985C2.21869 8.95764 2.10554 8.69616 2.09982 8.42149C2.088 7.83086 2.58107 7.34961 3.173 7.34961H5.59982C8.00607 7.34961 9.19607 8.08899 9.97044 9.09961H16.6948L15.8548 7.69961H12.9498C12.7642 7.69961 12.5861 7.62586 12.4548 7.49459C12.3236 7.36331 12.2498 7.18526 12.2498 6.99961V6.29961C12.2498 6.11396 12.3236 5.93591 12.4548 5.80464C12.5861 5.67336 12.7642 5.59961 12.9498 5.59961H16.4498C16.6309 5.5999 16.8089 5.64673 16.9668 5.73559C17.1246 5.82446 17.2569 5.95239 17.3511 6.10711L18.3486 7.76961L19.9892 5.94524C20.0876 5.83641 20.2078 5.74942 20.3419 5.68989C20.4761 5.63036 20.6212 5.5996 20.7679 5.59961H22.7498C22.8878 5.59927 23.0245 5.62619 23.152 5.67883C23.2796 5.73148 23.3955 5.80881 23.4931 5.90638C23.5906 6.00395 23.668 6.11984 23.7206 6.24739C23.7732 6.37493 23.8002 6.51163 23.7998 6.64961V8.04961C23.8002 8.1876 23.7732 8.32429 23.7206 8.45184C23.668 8.57939 23.5906 8.69528 23.4931 8.79285C23.3955 8.89042 23.2796 8.96775 23.152 9.02039C23.0245 9.07304 22.8878 9.09996 22.7498 9.09961H19.1448L23.8304 16.9134C23.9258 17.073 23.954 17.2639 23.9089 17.4443C23.8638 17.6247 23.7491 17.7799 23.5898 17.8759L22.9904 18.2346C22.8308 18.3299 22.6399 18.3581 22.4595 18.313C22.2791 18.2679 22.124 18.1532 22.0279 17.994L18.2173 11.6327C17.4065 12.2869 16.7613 13.123 16.3341 14.0731C15.9069 15.0233 15.7097 16.0608 15.7586 17.1015C15.7651 17.2434 15.7427 17.3851 15.6929 17.5181C15.643 17.6511 15.5667 17.7726 15.4686 17.8753C15.3704 17.9779 15.2525 18.0596 15.1218 18.1153C14.9912 18.1711 14.8506 18.1998 14.7086 18.1996H5.24982C5.06725 18.1995 4.88785 18.1519 4.72933 18.0613C4.57082 17.9707 4.43866 17.8403 4.3459 17.6831C4.25314 17.5258 4.20298 17.3471 4.20038 17.1646C4.19778 16.982 4.24283 16.8019 4.33107 16.6421L7.69238 10.5346Z" fill="#EA5930"/>
</g>
<defs>
<clipPath id="clip0_1119_32966">
<rect width="28" height="28" fill="white"/>
</clipPath>
</defs>
</svg>
