<svg width="8" height="12" viewBox="0 0 8 12" fill="none" xmlns="http://www.w3.org/2000/svg">
<path fill-rule="evenodd" clip-rule="evenodd" d="M4 0.078125C4.27614 0.078125 4.5 0.301983 4.5 0.578125V7.57812C4.5 7.85427 4.27614 8.07812 4 8.07812C3.72386 8.07812 3.5 7.85427 3.5 7.57812V0.578125C3.5 0.301983 3.72386 0.078125 4 0.078125Z" fill="#64C59E"/>
<path fill-rule="evenodd" clip-rule="evenodd" d="M0 4.07812C0 3.80198 0.223858 3.57812 0.5 3.57812H7.5C7.77614 3.57812 8 3.80198 8 4.07812C8 4.35427 7.77614 4.57812 7.5 4.57812H0.5C0.223858 4.57812 0 4.35427 0 4.07812Z" fill="#64C59E"/>
<path fill-rule="evenodd" clip-rule="evenodd" d="M0 11.4229C0 11.1467 0.223858 10.9229 0.5 10.9229H7.5C7.77614 10.9229 8 11.1467 8 11.4229C8 11.699 7.77614 11.9229 7.5 11.9229H0.5C0.223858 11.9229 0 11.699 0 11.4229Z" fill="#C8534D"/>
</svg>
