<svg width="28" height="28" viewBox="0 0 28 28" fill="none" xmlns="http://www.w3.org/2000/svg">
<path d="M6 9H22" stroke="#C8534D" stroke-width="2" stroke-linecap="round" stroke-linejoin="round"/>
<path d="M12 13V19" stroke="#C8534D" stroke-width="2" stroke-linecap="round" stroke-linejoin="round"/>
<path d="M16 13V19" stroke="#C8534D" stroke-width="2" stroke-linecap="round" stroke-linejoin="round"/>
<path d="M11 9V6C11 5.73478 11.1054 5.48043 11.2929 5.29289C11.4804 5.10536 11.7348 5 12 5H16C16.2652 5 16.5196 5.10536 16.7071 5.29289C16.8946 5.48043 17 5.73478 17 6V9M7 9L8 21C8 21.5304 8.21071 22.0391 8.58579 22.4142C8.96086 22.7893 9.46957 23 10 23H18C18.5304 23 19.0391 22.7893 19.4142 22.4142C19.7893 22.0391 20 21.5304 20 21L21 9H7Z" stroke="#C8534D" stroke-width="2" stroke-linecap="round" stroke-linejoin="round"/>
</svg>
