<svg width="183" height="28" viewBox="0 0 183 28" fill="none" xmlns="http://www.w3.org/2000/svg">
<path d="M26.8906 0.597019H21.9029C21.4149 0.597019 21.1438 0.922663 21.0896 1.41113L20.927 3.90775C18.921 1.62823 16.2103 0 12.849 0C5.4215 0 0 6.18726 0 13.9485C0 21.7097 5.4215 27.897 12.849 27.897C16.3187 27.897 18.9752 26.323 20.8728 24.0978L21.0896 26.3773C21.1438 26.8657 21.4149 27.1914 21.9029 27.1914H26.8906C27.3786 27.1914 27.7039 26.8657 27.7039 26.3773V1.41113C27.7039 0.922663 27.3786 0.597019 26.8906 0.597019ZM13.7164 21.3841C9.7587 21.3841 6.8853 18.1819 6.8853 13.8942C6.8853 9.66081 9.7587 6.51291 13.7164 6.51291C17.6199 6.51291 20.4933 9.87791 20.4933 13.8942C20.4933 17.9105 17.6199 21.3841 13.7164 21.3841Z" fill="#171725"/>
<path d="M56.6511 0.59668H51.1212C50.6333 0.59668 50.308 0.922324 50.308 1.41079V16.1191C50.308 18.0187 48.4104 21.2752 44.5612 21.2752C42.0131 21.2752 39.465 19.7555 39.465 15.3593V1.41079C39.465 0.922324 39.1397 0.59668 38.6517 0.59668H33.1218C32.6339 0.59668 32.3086 0.922324 32.3086 1.41079V16.6618C32.3086 23.7718 36.4289 27.8966 42.3926 27.8966C45.7539 27.8966 48.4647 25.997 50.308 23.3919L50.5248 26.3769C50.579 26.8654 50.8501 27.1911 51.3381 27.1911H56.6511C57.1391 27.1911 57.4643 26.8654 57.4643 26.3769V1.41079C57.4643 0.922324 57.1391 0.59668 56.6511 0.59668Z" fill="#171725"/>
<path d="M97.0011 27.897C104.645 27.897 110.772 21.764 110.772 13.9485C110.772 6.13299 104.645 0 97.0011 0C89.3568 0 83.2305 6.13299 83.2305 13.9485C83.2305 21.764 89.3568 27.897 97.0011 27.897ZM97.0011 21.2755C93.1518 21.2755 90.1158 18.2361 90.1158 13.9485C90.1158 9.66082 93.1518 6.62146 97.0011 6.62146C100.796 6.62146 103.886 9.66082 103.886 13.9485C103.886 18.2361 100.796 21.2755 97.0011 21.2755Z" fill="#171725"/>
<path d="M81.0487 0.59668H75.1341H62.0632C61.5753 0.59668 61.25 0.922324 61.25 1.41079V5.64418C61.25 6.13265 61.5753 6.4583 62.0632 6.4583H67.9778V26.3769C67.9778 26.8654 68.303 27.1911 68.791 27.1911H74.3209C74.8088 27.1911 75.1341 26.8654 75.1341 26.3769V6.4583H81.0487C81.5366 6.4583 81.8619 6.13265 81.8619 5.64418V1.41079C81.8619 0.922324 81.5366 0.59668 81.0487 0.59668Z" fill="#171725"/>
<ellipse cx="118.892" cy="23.7246" rx="4.18685" ry="4.19143" fill="#EA5930"/>
<path d="M153.839 0.59668H148.309C147.821 0.59668 147.495 0.922323 147.495 1.41079V16.1191C147.495 18.0187 145.598 21.2751 141.749 21.2751C139.201 21.2751 136.652 19.7554 136.652 15.3592V1.41079C136.652 0.922323 136.327 0.59668 135.839 0.59668H130.309C129.821 0.59668 129.496 0.922323 129.496 1.41079V16.6618C129.496 23.7717 133.616 27.8965 139.58 27.8965C142.941 27.8965 145.652 25.997 147.495 23.3918L147.712 26.3769C147.766 26.8653 148.038 27.191 148.526 27.191H153.839C154.326 27.191 154.652 26.8653 154.652 26.3769V1.41079C154.652 0.922323 154.326 0.59668 153.839 0.59668Z" fill="#EA5930"/>
<path d="M180.882 1.41079C180.882 0.922323 180.557 0.59668 180.069 0.59668H159.251C158.763 0.59668 158.438 0.922323 158.438 1.41079V5.64417C158.438 6.13264 158.763 6.45828 159.251 6.45828H172.317L158.817 20.8952C158.546 21.1666 158.438 21.5465 158.438 21.9264V26.3769C158.438 26.8653 158.763 27.191 159.251 27.191H180.069C180.557 27.191 180.882 26.8653 180.882 26.3769V22.1435C180.882 21.655 180.557 21.3294 180.069 21.3294H167.058L180.503 6.89247C180.774 6.6211 180.882 6.24118 180.882 5.86127V1.41079Z" fill="#EA5930"/>
</svg>
