<svg width="183" height="28" viewBox="0 0 183 28" fill="none" xmlns="http://www.w3.org/2000/svg">
<path d="M26.8906 0.597019H21.9029C21.4149 0.597019 21.1438 0.922663 21.0896 1.41113L20.927 3.90775C18.921 1.62823 16.2103 0 12.849 0C5.4215 0 0 6.18726 0 13.9485C0 21.7097 5.4215 27.897 12.849 27.897C16.3187 27.897 18.9752 26.323 20.8728 24.0978L21.0896 26.3773C21.1438 26.8657 21.4149 27.1914 21.9029 27.1914H26.8906C27.3786 27.1914 27.7039 26.8657 27.7039 26.3773V1.41113C27.7039 0.922663 27.3786 0.597019 26.8906 0.597019ZM13.7164 21.3841C9.7587 21.3841 6.8853 18.1819 6.8853 13.8942C6.8853 9.66081 9.7587 6.51291 13.7164 6.51291C17.6199 6.51291 20.4933 9.87791 20.4933 13.8942C20.4933 17.9105 17.6199 21.3841 13.7164 21.3841Z" fill="white"/>
<path d="M56.6511 0.597046H51.1212C50.6333 0.597046 50.308 0.92269 50.308 1.41116V16.1195C50.308 18.0191 48.4104 21.2755 44.5612 21.2755C42.0131 21.2755 39.465 19.7558 39.465 15.3596V1.41116C39.465 0.92269 39.1397 0.597046 38.6517 0.597046H33.1218C32.6339 0.597046 32.3086 0.92269 32.3086 1.41116V16.6622C32.3086 23.7721 36.4289 27.897 42.3926 27.897C45.7539 27.897 48.4647 25.9974 50.308 23.3922L50.5248 26.3773C50.579 26.8658 50.8501 27.1914 51.3381 27.1914H56.6511C57.1391 27.1914 57.4643 26.8658 57.4643 26.3773V1.41116C57.4643 0.92269 57.1391 0.597046 56.6511 0.597046Z" fill="white"/>
<path d="M97.0011 27.897C104.645 27.897 110.772 21.764 110.772 13.9485C110.772 6.13299 104.645 0 97.0011 0C89.3568 0 83.2305 6.13299 83.2305 13.9485C83.2305 21.764 89.3568 27.897 97.0011 27.897ZM97.0011 21.2755C93.1518 21.2755 90.1158 18.2361 90.1158 13.9485C90.1158 9.66082 93.1518 6.62146 97.0011 6.62146C100.796 6.62146 103.886 9.66082 103.886 13.9485C103.886 18.2361 100.796 21.2755 97.0011 21.2755Z" fill="white"/>
<path d="M81.0487 0.597168H75.1341H62.0632C61.5753 0.597168 61.25 0.922812 61.25 1.41128V5.64467C61.25 6.13314 61.5753 6.45878 62.0632 6.45878H67.9778V26.3774C67.9778 26.8659 68.303 27.1915 68.791 27.1915H74.3209C74.8088 27.1915 75.1341 26.8659 75.1341 26.3774V6.45878H81.0487C81.5366 6.45878 81.8619 6.13314 81.8619 5.64467V1.41128C81.8619 0.922812 81.5366 0.597168 81.0487 0.597168Z" fill="white"/>
<ellipse cx="118.894" cy="23.7248" rx="4.18685" ry="4.19143" fill="#EA5930"/>
<path d="M153.839 0.597046H148.309C147.821 0.597046 147.495 0.922689 147.495 1.41116V16.1194C147.495 18.019 145.598 21.2755 141.749 21.2755C139.201 21.2755 136.652 19.7558 136.652 15.3596V1.41116C136.652 0.922689 136.327 0.597046 135.839 0.597046H130.309C129.821 0.597046 129.496 0.922689 129.496 1.41116V16.6622C129.496 23.7721 133.616 27.8969 139.58 27.8969C142.941 27.8969 145.652 25.9973 147.495 23.3922L147.712 26.3772C147.766 26.8657 148.038 27.1913 148.526 27.1913H153.839C154.326 27.1913 154.652 26.8657 154.652 26.3772V1.41116C154.652 0.922689 154.326 0.597046 153.839 0.597046Z" fill="#EA5930"/>
<path d="M180.882 1.41116C180.882 0.922689 180.557 0.597046 180.069 0.597046H159.251C158.763 0.597046 158.438 0.922689 158.438 1.41116V5.64454C158.438 6.133 158.763 6.45865 159.251 6.45865H172.317L158.817 20.8956C158.546 21.1669 158.438 21.5468 158.438 21.9268V26.3772C158.438 26.8657 158.763 27.1913 159.251 27.1913H180.069C180.557 27.1913 180.882 26.8657 180.882 26.3772V22.1439C180.882 21.6554 180.557 21.3297 180.069 21.3297H167.058L180.503 6.89284C180.774 6.62147 180.882 6.24155 180.882 5.86163V1.41116Z" fill="#EA5930"/>
</svg>
