<svg width="24" height="24" viewBox="0 0 24 24" fill="none" xmlns="http://www.w3.org/2000/svg">
    <g clip-path="url(#clip0_14112_4861)">
        <path d="M10 5C10 4.46957 10.2107 3.96086 10.5858 3.58579C10.9609 3.21071 11.4696 3 12 3C12.5304 3 13.0391 3.21071 13.4142 3.58579C13.7893 3.96086 14 4.46957 14 5C15.1484 5.54303 16.1274 6.38833 16.8321 7.4453C17.5367 8.50227 17.9404 9.73107 18 11V14C18.0753 14.6217 18.2954 15.2171 18.6428 15.7381C18.9902 16.2592 19.4551 16.6914 20 17H4C4.54494 16.6914 5.00981 16.2592 5.35719 15.7381C5.70457 15.2171 5.92474 14.6217 6 14V11C6.05956 9.73107 6.4633 8.50227 7.16795 7.4453C7.8726 6.38833 8.85159 5.54303 10 5" stroke="#696974" stroke-width="2" stroke-linecap="round" stroke-linejoin="round"/>
        <path d="M9.41943 17V17.8602C9.41943 18.5447 9.69133 19.2011 10.1753 19.6851C10.6593 20.169 11.3157 20.4409 12.0001 20.4409C12.6846 20.4409 13.341 20.169 13.825 19.6851C14.3089 19.2011 14.5808 18.5447 14.5808 17.8602V17" stroke="#696974" stroke-width="1.72047" stroke-linecap="round" stroke-linejoin="round"/>
        <circle cx="17" cy="5" r="3.75" fill="#EA3630" stroke="#121212" stroke-width="1.5" stroke-linecap="round" stroke-linejoin="round"/>
    </g>
    <defs>
        <clipPath id="clip0_14112_4861">
            <rect width="24" height="24" fill="white"/>
        </clipPath>
    </defs>
</svg>
