<svg width="24" height="24" viewBox="0 0 24 24" fill="none" xmlns="http://www.w3.org/2000/svg">
<path d="M23 8.76471V8.11765C23 5.71296 21.1162 3.73995 18.7469 3.59656L16.1504 1H5.85294L3.91176 3.58824H3.0661C1.9268 3.58824 1 4.51504 1 5.65434V8.76471H3.58824C3.58824 9.23598 3.71545 9.67784 3.93644 10.0588H1V17.8235H3.92035L7.42827 22.2981C7.77829 22.7442 8.30456 23 8.87212 23C9.74414 23 10.4718 22.394 10.6591 21.576C11.4767 21.6215 12.2294 21.1186 12.4963 20.3393C13.4072 20.4991 14.2764 19.9604 14.5567 19.105C14.7269 19.1328 14.8884 19.1356 15.052 19.1176H18.0195L19.9606 17.8235H23V10.0588H20.0636C20.2846 9.67784 20.4118 9.23598 20.4118 8.76471H23ZM16.9085 3.58824H12.6471V2.29412H15.6143L16.9085 3.58824ZM6.5 2.29412H11.3529V3.58824H5.52941L6.5 2.29412ZM4.88235 8.76471C4.88235 8.05113 5.46289 7.47059 6.17647 7.47059C6.89005 7.47059 7.47059 8.05113 7.47059 8.76471C7.47059 9.47828 6.89005 10.0588 6.17647 10.0588C5.46289 10.0588 4.88235 9.47828 4.88235 8.76471ZM8.76471 8.76471H15.2353C15.2353 9.23598 15.3625 9.67784 15.5835 10.0588H8.4165C8.63749 9.67784 8.76471 9.23598 8.76471 8.76471V8.76471ZM14.4302 17.6329C14.3707 17.5534 14.3286 17.4977 14.3209 17.4865L14.3206 17.4866L13.3217 16.1529L12.2859 16.9287L13.2656 18.2367C13.405 18.4494 13.3778 18.7316 13.1978 18.9132C12.9687 19.1444 12.5933 19.1214 12.3925 18.8712C12.3893 18.8668 11.3898 17.5317 11.2841 17.3912L10.2483 18.167L11.234 19.483C11.441 19.8574 11.151 20.3086 10.73 20.2839C10.5134 20.2714 10.4041 20.1421 10.3743 20.1216C10.327 20.0729 10.3995 20.1588 9.23124 18.6027L8.19542 19.3785C9.44973 21.0529 9.30004 20.8553 9.34991 20.9155C9.53755 21.2743 9.27756 21.7058 8.87216 21.7058C8.70462 21.7058 8.54949 21.6305 8.44661 21.4994L4.55024 16.5294H2.29412V11.3529H10.7718L6.9287 14.3634L7.16509 14.8362C8.01973 16.5457 10.2136 17.062 11.7414 15.9162L13.51 14.5882H13.5371L15.2993 16.9918C15.5161 17.3124 15.3334 17.7483 14.9605 17.8235C14.9316 17.8202 14.6441 17.8996 14.4302 17.6329V17.6329ZM21.7059 16.5294H19.5688L17.6276 17.8235H16.608C16.7648 17.302 16.6866 16.7207 16.3584 16.2481L15.1416 14.5882H17.1765V13.2941H13.0782L10.9647 14.8811C10.2365 15.4273 9.22774 15.3256 8.61981 14.6826L12.8703 11.3529H21.7059V16.5294ZM16.5294 8.76471C16.5294 8.05113 17.11 7.47059 17.8235 7.47059C18.5371 7.47059 19.1176 8.05113 19.1176 8.76471C19.1176 9.47828 18.5371 10.0588 17.8235 10.0588C17.11 10.0588 16.5294 9.47828 16.5294 8.76471ZM17.8235 6.17647C16.8677 6.17647 16.0317 6.69774 15.5835 7.47059H8.4165C7.96826 6.69774 7.13235 6.17647 6.17647 6.17647C5.22059 6.17647 4.38468 6.69774 3.93644 7.47059H2.29412V5.65434C2.29412 5.22866 2.64042 4.88235 3.0661 4.88235H18.2026H18.4706C20.033 4.88235 21.3402 5.99573 21.6409 7.47059H20.0636C19.6153 6.69774 18.7794 6.17647 17.8235 6.17647Z" fill="#695CEA"/>
</svg>
