<svg width="20" height="20" viewBox="0 0 20 20" fill="none" xmlns="http://www.w3.org/2000/svg">
<path d="M9.16406 3.33398H3.33073C2.8887 3.33398 2.46478 3.50958 2.15222 3.82214C1.83966 4.1347 1.66406 4.55862 1.66406 5.00065V16.6673C1.66406 17.1093 1.83966 17.5333 2.15222 17.8458C2.46478 18.1584 2.8887 18.334 3.33073 18.334H14.9974C15.4394 18.334 15.8633 18.1584 16.1759 17.8458C16.4885 17.5333 16.6641 17.1093 16.6641 16.6673V10.834" stroke="#9E9EA9" stroke-width="1.6" stroke-linecap="round" stroke-linejoin="round"/>
<path d="M15.4141 2.08417C15.7456 1.75265 16.1952 1.56641 16.6641 1.56641C17.1329 1.56641 17.5825 1.75265 17.9141 2.08417C18.2456 2.41569 18.4318 2.86533 18.4318 3.33417C18.4318 3.80301 18.2456 4.25265 17.9141 4.58417L9.9974 12.5008L6.66406 13.3342L7.4974 10.0008L15.4141 2.08417Z" stroke="#9E9EA9" stroke-width="1.6" stroke-linecap="round" stroke-linejoin="round"/>
</svg>
