<svg width="92" height="92" viewBox="0 0 92 92" fill="none" xmlns="http://www.w3.org/2000/svg">
<circle cx="46" cy="46" r="46" fill="#F1F1F5"/>
<path fill-rule="evenodd" clip-rule="evenodd" d="M65.4062 31.0889H29.125C27.7269 31.0889 26.5938 32.222 26.5938 33.6201V38.6826H65.4062V31.0889Z" fill="#6156CC"/>
<path fill-rule="evenodd" clip-rule="evenodd" d="M65.4062 29.665C65.4062 28.2669 64.2731 27.1338 62.875 27.1338C59.3068 27.1338 52.874 27.1338 49.6458 27.1338C48.4351 27.1338 47.3162 27.7826 46.7155 28.8339C45.719 30.5788 44.3125 33.04 44.3125 33.04H65.4062V29.665Z" fill="#6156CC"/>
<path fill-rule="evenodd" clip-rule="evenodd" d="M26.5938 33.46H65.4062V35.0319H26.5938V33.46Z" fill="#AEA6FF"/>
<path fill-rule="evenodd" clip-rule="evenodd" d="M68.2468 38.3311C68.381 37.3642 68.0899 36.3863 67.4495 35.6505C66.8082 34.9139 65.8801 34.4912 64.9039 34.4912C56.301 34.4912 35.6966 34.4912 27.0937 34.4912C26.1175 34.4912 25.1894 34.9139 24.5481 35.6505C23.9077 36.3863 23.6166 37.3642 23.7508 38.3311C24.6064 44.4905 26.2669 56.4447 27.0321 61.9561C27.2642 63.6242 28.6901 64.8662 30.3751 64.8662H61.6225C63.3075 64.8662 64.7334 63.6242 64.9655 61.9561C65.7307 56.4447 67.3912 44.4905 68.2468 38.3311Z" fill="#AEA6FF"/>
<path fill-rule="evenodd" clip-rule="evenodd" d="M24.0343 40.373C24.0976 39.6701 24.3794 38.9985 24.851 38.4568C25.4915 37.7211 26.4196 37.2984 27.3958 37.2984H64.6018C65.578 37.2984 66.5061 37.7211 67.1465 38.4568C67.6182 38.9985 67.9 39.6701 67.9633 40.373L68.2468 38.3311C68.381 37.3642 68.0899 36.3863 67.4495 35.6505C66.8082 34.9139 65.8801 34.4912 64.9039 34.4912C56.301 34.4912 35.6966 34.4912 27.0937 34.4912C26.1175 34.4912 25.1894 34.9139 24.5481 35.6505C23.9077 36.3863 23.6166 37.3642 23.7508 38.3311L24.0343 40.373Z" fill="#E9F3FC"/>
<path fill-rule="evenodd" clip-rule="evenodd" d="M42.2031 56.4502C42.2031 55.5187 41.448 54.7627 40.5156 54.7627C38.6433 54.7627 35.6387 54.7627 33.7656 54.7627C32.8341 54.7627 32.0781 55.5187 32.0781 56.4502V58.1377C32.0781 59.07 32.8341 59.8252 33.7656 59.8252H40.5156C41.448 59.8252 42.2031 59.07 42.2031 58.1377C42.2031 57.5952 42.2031 56.9936 42.2031 56.4502Z" fill="url(#paint0_linear_9710_28790)"/>
<path fill-rule="evenodd" clip-rule="evenodd" d="M54.8594 40.5996C49.9698 40.5996 46 44.5695 46 49.459C46 54.3485 49.9698 58.3184 54.8594 58.3184C59.7489 58.3184 63.7188 54.3485 63.7188 49.459C63.7188 44.5695 59.7489 40.5996 54.8594 40.5996ZM54.8594 43.1309C58.3517 43.1309 61.1875 45.9667 61.1875 49.459C61.1875 52.9513 58.3517 55.7871 54.8594 55.7871C51.3671 55.7871 48.5312 52.9513 48.5312 49.459C48.5312 45.9667 51.3671 43.1309 54.8594 43.1309Z" fill="#171725"/>
<path fill-rule="evenodd" clip-rule="evenodd" d="M59.4718 55.5768L67.3423 63.4473C67.8367 63.9417 68.6383 63.9417 69.1327 63.4473C69.6263 62.9537 69.6263 62.1513 69.1327 61.6577L61.2622 53.7872C60.7678 53.2936 59.9662 53.2936 59.4718 53.7872C58.9782 54.2808 58.9782 55.0832 59.4718 55.5768V55.5768Z" fill="#171725"/>
<defs>
<linearGradient id="paint0_linear_9710_28790" x1="37.5022" y1="39.5" x2="38.3108" y2="60.4688" gradientUnits="userSpaceOnUse">
<stop stop-color="#7062FF"/>
<stop offset="1" stop-color="#9489FF"/>
</linearGradient>
</defs>
</svg>
