<svg width="20" height="15" viewBox="0 0 20 15" fill="none" xmlns="http://www.w3.org/2000/svg">
<path fill-rule="evenodd" clip-rule="evenodd" d="M10 0C12.4381 0 14.7695 1.27882 16.9422 3.37994C17.6835 4.09675 18.354 4.86202 18.9444 5.62761C19.3006 6.08959 19.5535 6.453 19.692 6.66951L20 7.15114L19.692 7.63276C19.5535 7.84927 19.3006 8.21269 18.9444 8.67466C18.354 9.44025 17.6835 10.2055 16.9422 10.9223C14.7695 13.0234 12.4381 14.3023 10 14.3023C7.56187 14.3023 5.23048 13.0234 3.05778 10.9223C2.31654 10.2055 1.64596 9.44025 1.05564 8.67466C0.699418 8.21269 0.446507 7.84927 0.308035 7.63276L0 7.15114L0.308035 6.66951C0.446507 6.453 0.699418 6.08959 1.05564 5.62761C1.64596 4.86202 2.31654 4.09675 3.05778 3.37994C5.23048 1.27882 7.56187 0 10 0ZM17.5286 6.71927C16.9881 6.01832 16.3736 5.31705 15.6994 4.66509C13.8281 2.85543 11.8817 1.78778 10 1.78778C8.11829 1.78778 6.1719 2.85543 4.30058 4.66509C3.62641 5.31705 3.0119 6.01832 2.47142 6.71927C2.35468 6.87066 2.24682 7.01511 2.1482 7.15114C2.24682 7.28717 2.35468 7.43161 2.47142 7.583C3.0119 8.28395 3.62641 8.98522 4.30058 9.63718C6.1719 11.4468 8.11829 12.5145 10 12.5145C11.8817 12.5145 13.8281 11.4468 15.6994 9.63718C16.3736 8.98522 16.9881 8.28395 17.5286 7.583C17.6453 7.43161 17.7532 7.28717 17.8518 7.15114C17.7532 7.01511 17.6453 6.87066 17.5286 6.71927ZM10 10.7267C8.02527 10.7267 6.42443 9.12587 6.42443 7.15114C6.42443 5.1764 8.02527 3.57557 10 3.57557C11.9747 3.57557 13.5756 5.1764 13.5756 7.15114C13.5756 9.12587 11.9747 10.7267 10 10.7267ZM10 8.93892C10.9874 8.93892 11.7878 8.1385 11.7878 7.15114C11.7878 6.16377 10.9874 5.36335 10 5.36335C9.01263 5.36335 8.21222 6.16377 8.21222 7.15114C8.21222 8.1385 9.01263 8.93892 10 8.93892Z" fill="#92929D"/>
</svg>
