<svg width="28" height="28" viewBox="0 0 28 28" fill="none" xmlns="http://www.w3.org/2000/svg">
<path d="M16.334 3.5V8.16667C16.334 8.47609 16.4569 8.77283 16.6757 8.99162C16.8945 9.21042 17.1912 9.33333 17.5007 9.33333H22.1673" stroke="#1F211C" stroke-width="2" stroke-linecap="round" stroke-linejoin="round"/>
<path d="M19.834 24.5H8.16732C7.54848 24.5 6.95499 24.2542 6.5174 23.8166C6.07982 23.379 5.83398 22.7855 5.83398 22.1667V5.83333C5.83398 5.21449 6.07982 4.621 6.5174 4.18342C6.95499 3.74583 7.54848 3.5 8.16732 3.5H16.334L22.1673 9.33333V22.1667C22.1673 22.7855 21.9215 23.379 21.4839 23.8166C21.0463 24.2542 20.4528 24.5 19.834 24.5Z" stroke="#1F211C" stroke-width="2" stroke-linecap="round" stroke-linejoin="round"/>
<path d="M10.5 10.5H11.6667" stroke="#1F211C" stroke-width="2" stroke-linecap="round" stroke-linejoin="round"/>
<path d="M10.5 15.167H17.5" stroke="#1F211C" stroke-width="2" stroke-linecap="round" stroke-linejoin="round"/>
<path d="M10.5 19.833H17.5" stroke="#1F211C" stroke-width="2" stroke-linecap="round" stroke-linejoin="round"/>
</svg>
