<svg width="20" height="20" viewBox="0 0 20 20" fill="none" xmlns="http://www.w3.org/2000/svg">
<g clip-path="url(#clip0_6979_57348)">
<path d="M8.33333 6.66634V4.99967C8.33333 4.55765 8.50893 4.13372 8.82149 3.82116C9.13405 3.5086 9.55797 3.33301 10 3.33301H15.8333C16.2754 3.33301 16.6993 3.5086 17.0118 3.82116C17.3244 4.13372 17.5 4.55765 17.5 4.99967V14.9997C17.5 15.4417 17.3244 15.8656 17.0118 16.1782C16.6993 16.4907 16.2754 16.6663 15.8333 16.6663H10C9.55797 16.6663 9.13405 16.4907 8.82149 16.1782C8.50893 15.8656 8.33333 15.4417 8.33333 14.9997V13.333" stroke="#C8534D" stroke-width="1.6" stroke-linecap="round" stroke-linejoin="round"/>
<path d="M14.166 10H2.49935L4.99935 7.5M4.99935 12.5L2.49935 10" stroke="#C8534D" stroke-width="1.6" stroke-linecap="round" stroke-linejoin="round"/>
</g>
<defs>
<clipPath id="clip0_6979_57348">
<rect width="20" height="20" fill="white" transform="matrix(-1 0 0 1 20 0)"/>
</clipPath>
</defs>
</svg>
