<svg width="24" height="24" viewBox="0 0 24 24" fill="none" xmlns="http://www.w3.org/2000/svg">
<path d="M8 5H6C5.46957 5 4.96086 5.21071 4.58579 5.58579C4.21071 5.96086 4 6.46957 4 7V19C4 19.5304 4.21071 20.0391 4.58579 20.4142C4.96086 20.7893 5.46957 21 6 21H11.697M18 12V7C18 6.46957 17.7893 5.96086 17.4142 5.58579C17.0391 5.21071 16.5304 5 16 5H14" stroke="#695CEA" stroke-width="2" stroke-linecap="round" stroke-linejoin="round"/>
<path d="M12 3H10C8.89543 3 8 3.89543 8 5C8 6.10457 8.89543 7 10 7H12C13.1046 7 14 6.10457 14 5C14 3.89543 13.1046 3 12 3Z" stroke="#695CEA" stroke-width="2" stroke-linecap="round" stroke-linejoin="round"/>
<path d="M8 15H11M8 11H12H8Z" stroke="#695CEA" stroke-width="2" stroke-linecap="round" stroke-linejoin="round"/>
<path d="M16.5 20C17.8807 20 19 18.8807 19 17.5C19 16.1193 17.8807 15 16.5 15C15.1193 15 14 16.1193 14 17.5C14 18.8807 15.1193 20 16.5 20Z" stroke="#695CEA" stroke-width="2" stroke-linecap="round" stroke-linejoin="round"/>
<path d="M18.5 19.5L21 22" stroke="#695CEA" stroke-width="2" stroke-linecap="round" stroke-linejoin="round"/>
</svg>
