<svg width="24" height="24" viewBox="0 0 24 24" fill="none" xmlns="http://www.w3.org/2000/svg">
<path d="M14.9987 7.00045L8.49873 13.5005C8.1009 13.8983 7.87741 14.4378 7.87741 15.0005C7.87741 15.5631 8.1009 16.1026 8.49873 16.5005C8.89655 16.8983 9.43612 17.1218 9.99873 17.1218C10.5613 17.1218 11.1009 16.8983 11.4987 16.5005L17.9987 10.0005C18.7944 9.2048 19.2414 8.12567 19.2414 7.00045C19.2414 5.87523 18.7944 4.7961 17.9987 4.00045C17.2031 3.2048 16.1239 2.75781 14.9987 2.75781C13.8735 2.75781 12.7944 3.2048 11.9987 4.00045L5.49873 10.5005C4.30525 11.6939 3.63477 13.3126 3.63477 15.0005C3.63477 16.6883 4.30525 18.307 5.49873 19.5005C6.6922 20.6939 8.3109 21.3644 9.99873 21.3644C11.6866 21.3644 13.3053 20.6939 14.4987 19.5005L20.9987 13.0005" stroke="#171725" stroke-width="1.6" stroke-linecap="round" stroke-linejoin="round"/>
</svg>
