<svg width="28" height="28" viewBox="0 0 28 28" fill="none" xmlns="http://www.w3.org/2000/svg">
<path d="M17.5 9.33301H17.5117" stroke="#695CEA" stroke-width="2" stroke-linecap="round" stroke-linejoin="round"/>
<path d="M19.8327 4.66699H8.16602C6.23302 4.66699 4.66602 6.234 4.66602 8.16699V19.8337C4.66602 21.7667 6.23302 23.3337 8.16602 23.3337H19.8327C21.7657 23.3337 23.3327 21.7667 23.3327 19.8337V8.16699C23.3327 6.234 21.7657 4.66699 19.8327 4.66699Z" stroke="#695CEA" stroke-width="2" stroke-linecap="round" stroke-linejoin="round"/>
<path d="M4.66602 17.4999L9.33268 12.8333C9.86475 12.3213 10.4683 12.0518 11.0827 12.0518C11.6971 12.0518 12.3006 12.3213 12.8327 12.8333L18.666 18.6666" stroke="#695CEA" stroke-width="2" stroke-linecap="round" stroke-linejoin="round"/>
<path d="M16.334 16.333L17.5007 15.1663C18.0327 14.6543 18.6363 14.3848 19.2507 14.3848C19.865 14.3848 20.4686 14.6543 21.0007 15.1663L23.334 17.4996" stroke="#695CEA" stroke-width="2" stroke-linecap="round" stroke-linejoin="round"/>
</svg>
