<svg width="20" height="20" viewBox="0 0 20 20" fill="none" xmlns="http://www.w3.org/2000/svg">
<g clip-path="url(#clip0_1872_39479)">
<path d="M16.6673 9.16634C16.4635 7.69986 15.7832 6.34106 14.7312 5.29925C13.6792 4.25745 12.3138 3.59044 10.8454 3.40097C9.37697 3.2115 7.887 3.51008 6.60499 4.25071C5.32297 4.99135 4.32003 6.13295 3.75065 7.49967M3.33398 3.33301V7.49967H7.50065M3.33398 10.833C3.53778 12.2995 4.21809 13.6583 5.27012 14.7001C6.32214 15.7419 7.68752 16.4089 9.15593 16.5984C10.6243 16.7879 12.1143 16.4893 13.3963 15.7486C14.6783 15.008 15.6813 13.8664 16.2507 12.4997M16.6673 16.6663V12.4997H12.5007" stroke="#F4A937" stroke-width="2" stroke-linecap="round" stroke-linejoin="round"/>
</g>
<defs>
<clipPath id="clip0_1872_39479">
<rect width="20" height="20" fill="white"/>
</clipPath>
</defs>
</svg>
