<svg fill="none" height="16" viewBox="0 0 14 16" width="14" xmlns="http://www.w3.org/2000/svg">
    <path
        d="M4.65528 0.810244C4.27434 0.586417 3.78408 0.713781 3.56025 1.09472C3.33643 1.47566 3.46379 1.96591 3.84473 2.18974L4.65528 0.810244ZM6.75 2.96891L7.41843 3.40846C7.53885 3.22533 7.57887 3.00081 7.52913 2.78735C7.47938 2.5739 7.34424 2.39019 7.15527 2.27916L6.75 2.96891ZM4.58157 4.81044C4.33882 5.1796 4.44129 5.67566 4.81045 5.91841C5.17961 6.16117 5.67567 6.0587 5.91843 5.68953L4.58157 4.81044ZM11.1621 3.87777C10.8356 3.58008 10.3296 3.60341 10.0319 3.9299C9.7342 4.25638 9.75754 4.76237 10.084 5.06006L11.1621 3.87777ZM3.84473 2.18974L6.34473 3.65866L7.15527 2.27916L4.65528 0.810244L3.84473 2.18974ZM6.08157 2.52936L4.58157 4.81044L5.91843 5.68953L7.41843 3.40846L6.08157 2.52936ZM11.7 8.71892C11.7 11.4527 9.48381 13.6689 6.75 13.6689V15.2689C10.3675 15.2689 13.3 12.3364 13.3 8.71892H11.7ZM6.75 13.6689C4.01619 13.6689 1.8 11.4527 1.8 8.71892H0.2C0.2 12.3364 3.13253 15.2689 6.75 15.2689V13.6689ZM1.8 8.71892C1.8 5.98511 4.01619 3.76891 6.75 3.76891V2.16891C3.13253 2.16891 0.2 5.10145 0.2 8.71892H1.8ZM10.084 5.06006C11.0781 5.96645 11.7 7.26948 11.7 8.71892H13.3C13.3 6.80092 12.4746 5.07457 11.1621 3.87777L10.084 5.06006Z"
        fill="#506277" />
</svg>
