<svg width="20" height="20" viewBox="0 0 20 20" fill="none" xmlns="http://www.w3.org/2000/svg">
<path opacity="0.4" d="M16.9966 8.18374C17.3278 8.83754 17.5001 9.56025 17.4994 10.2931C17.4994 12.878 15.3967 14.9807 12.8118 14.9807H7.48183L8.49287 15.9305C8.56155 15.995 8.61657 16.0726 8.65467 16.1588C8.69276 16.2449 8.71315 16.3379 8.71463 16.4321C8.7161 16.5263 8.69863 16.6198 8.66326 16.7071C8.62788 16.7944 8.57532 16.8737 8.50869 16.9403L8.19287 17.2559C8.061 17.3877 7.88217 17.4618 7.69569 17.4618C7.50922 17.4618 7.33038 17.3877 7.19852 17.2559L4.48327 14.5415C4.35142 14.4096 4.27734 14.2308 4.27734 14.0443C4.27734 13.8579 4.35142 13.679 4.48327 13.5472L7.19852 10.8307C7.33038 10.6989 7.50922 10.6248 7.69569 10.6248C7.88217 10.6248 8.061 10.6989 8.19287 10.8307L8.50869 11.1463C8.57532 11.2129 8.62788 11.2922 8.66326 11.3795C8.69863 11.4668 8.7161 11.5603 8.71463 11.6545C8.71315 11.7487 8.69276 11.8417 8.65467 11.9279C8.61657 12.014 8.56155 12.0916 8.49287 12.1561L7.48183 13.1057H12.8118C13.281 13.1056 13.7427 12.9882 14.1548 12.7641C14.567 12.54 14.9166 12.2164 15.1717 11.8227C15.4268 11.429 15.5795 10.9778 15.6156 10.51C15.6518 10.0423 15.5704 9.57293 15.3789 9.14469C15.3199 9.01597 15.3016 8.87235 15.3264 8.73297C15.3511 8.59358 15.4178 8.46505 15.5174 8.36451L15.8743 8.00738C15.9526 7.92912 16.0484 7.87048 16.1537 7.83623C16.259 7.80198 16.3709 7.79309 16.4803 7.81028C16.5897 7.82747 16.6935 7.87026 16.7832 7.93516C16.8729 8.00006 16.9461 8.08523 16.9966 8.18374Z" fill="#64C59E"/>
<path d="M4.48195 12.2232L4.12511 12.5803C4.0468 12.6586 3.9511 12.7172 3.84582 12.7515C3.74054 12.7858 3.62864 12.7948 3.51925 12.7776C3.40986 12.7605 3.30606 12.7178 3.2163 12.6529C3.12655 12.5881 3.05337 12.503 3.00274 12.4045C2.67142 11.7505 2.49917 11.0274 2.5 10.2942C2.5 7.70966 4.60265 5.60672 7.18753 5.60672H12.5175L11.5065 4.6572C11.4378 4.59272 11.3828 4.51509 11.3447 4.42892C11.3066 4.34276 11.2862 4.24982 11.2847 4.15562C11.2833 4.06142 11.3007 3.96789 11.3361 3.88057C11.3715 3.79325 11.4241 3.71394 11.4907 3.64733L11.8065 3.33093C11.9384 3.19907 12.1172 3.125 12.3037 3.125C12.4901 3.125 12.669 3.19907 12.8008 3.33093L15.5161 6.04647C15.6479 6.17833 15.722 6.35717 15.722 6.54364C15.722 6.73011 15.6479 6.90895 15.5161 7.04081L12.8008 9.75694C12.669 9.88879 12.4901 9.96287 12.3037 9.96287C12.1172 9.96287 11.9384 9.88879 11.8065 9.75694L11.4907 9.44141C11.4241 9.37481 11.3715 9.29549 11.3361 9.20817C11.3007 9.12086 11.2833 9.02732 11.2847 8.93313C11.2862 8.83893 11.3066 8.74599 11.3447 8.65982C11.3828 8.57366 11.4378 8.49603 11.5065 8.43154L12.5175 7.48173H7.18753C6.71835 7.48177 6.25664 7.59918 5.84444 7.82326C5.43223 8.04735 5.08264 8.371 4.82749 8.76473C4.57234 9.15846 4.41974 9.60977 4.38359 10.0776C4.34744 10.5453 4.42889 11.0147 4.62052 11.443C4.67942 11.5717 4.69771 11.7153 4.67295 11.8547C4.6482 11.9941 4.58157 12.1226 4.48195 12.2232Z" fill="#64C59E"/>
</svg>
