<svg width="20" height="20" viewBox="0 0 20 20" fill="none" xmlns="http://www.w3.org/2000/svg">
<path d="M18.9396 14.4356C18.9396 14.4356 18.035 16.5824 15.3984 16.5824V13.585H18.3958L18.9396 14.4356Z" fill="#695CEA"/>
<path d="M12.3964 13.585C12.3055 13.585 12.2167 13.6056 12.1363 13.6442C12.0761 13.6732 12.0207 13.7124 11.9725 13.7605C11.86 13.873 11.7969 14.0255 11.7969 14.1844C11.7969 14.2719 11.8159 14.3577 11.8518 14.4356C11.8518 14.4356 12.7564 16.5824 15.3929 16.5824V13.585H12.3964Z" fill="#695CEA"/>
<path d="M18.9941 14.1844C18.9941 14.0255 18.9309 13.873 18.8185 13.7605C18.7061 13.6481 18.5536 13.585 18.3945 13.585L18.9383 14.4356C18.9587 14.379 18.9985 14.2495 18.9941 14.1844Z" fill="#695CEA"/>
<path d="M8.74532 2.59055C9.0775 2.25838 9.52801 2.07178 9.99774 2.07178C10.4675 2.07178 10.9181 2.25838 11.2502 2.59055C11.5823 2.92271 11.769 3.37322 11.769 3.84297C11.769 4.31273 11.5823 4.76324 11.2502 5.09541C10.9181 5.42757 10.4675 5.61418 9.99774 5.61418C9.52801 5.61418 9.0775 5.42757 8.74532 5.09541C8.41315 4.76324 8.22656 4.31273 8.22656 3.84297C8.22656 3.37322 8.41315 2.92271 8.74532 2.59055Z" fill="#695CEA"/>
<path fill-rule="evenodd" clip-rule="evenodd" d="M9.11719 3.99766C9.11719 3.50856 9.51373 3.11206 10.0028 3.11206C11.7249 3.11206 12.6739 3.80508 13.4731 4.38871C13.5143 4.41876 13.555 4.44852 13.5954 4.47788C13.9997 4.77135 14.3575 5.01551 14.804 5.19684C15.2421 5.37472 15.8022 5.5058 16.5971 5.5058C17.0862 5.5058 17.4827 5.90229 17.4827 6.39139C17.4827 6.8805 17.0862 7.27697 16.5971 7.27697C15.5936 7.27697 14.8049 7.10883 14.1376 6.8379C13.4789 6.57042 12.9749 6.21614 12.5549 5.91118C12.5222 5.88747 12.49 5.86403 12.4582 5.84087C11.6881 5.2804 11.1424 4.88327 10.0028 4.88327C9.51373 4.88327 9.11719 4.48676 9.11719 3.99766Z" fill="#695CEA"/>
<path d="M13.8532 12.386L15.3957 8.14518L16.9382 12.386H18.2133L15.9586 6.18609C15.8729 5.94929 15.6481 5.79163 15.3957 5.79163C15.1433 5.79163 14.9185 5.94929 14.8328 6.18609L12.5781 12.386H13.8532Z" fill="#695CEA"/>
<path d="M1.1834 13.7605C1.29582 13.6481 1.4483 13.585 1.60729 13.585C1.76629 13.585 1.91877 13.6481 2.0312 13.7605C2.14362 13.873 2.20678 14.0255 2.20678 14.1845C2.20678 14.3434 2.14362 14.4959 2.0312 14.6084C1.91877 14.7208 1.76629 14.7839 1.60729 14.7839C1.4483 14.7839 1.29582 14.7208 1.1834 14.6084C1.07097 14.4959 1.00781 14.3434 1.00781 14.1845C1.00781 14.0255 1.07097 13.873 1.1834 13.7605Z" fill="#695CEA"/>
<path d="M1.06641 14.4356C1.06641 14.4356 1.97102 16.5824 4.60755 16.5824V13.585H1.61013L1.06641 14.4356ZM7.60493 13.585C7.44597 13.585 7.29347 13.6481 7.18105 13.7605C7.06863 13.873 7.00548 14.0255 7.00548 14.1844C7.00548 14.3434 7.06863 14.4959 7.18105 14.6084C7.29347 14.7208 7.44597 14.7839 7.60493 14.7839C7.76395 14.7839 7.91645 14.7208 8.02888 14.6084C8.1413 14.4959 8.20445 14.3434 8.20445 14.1844C8.20445 14.0255 8.1413 13.873 8.02888 13.7605C7.91645 13.6481 7.76395 13.585 7.60493 13.585Z" fill="#695CEA"/>
<path d="M8.14268 14.4356C8.14268 14.4356 7.23808 16.5824 4.60156 16.5824V13.585H7.59895L8.14268 14.4356Z" fill="#695CEA"/>
<path fill-rule="evenodd" clip-rule="evenodd" d="M6.52915 4.38871C7.32844 3.80508 8.27692 3.11206 9.99898 3.11206C10.4881 3.11206 10.8851 3.50856 10.8851 3.99766C10.8851 4.48676 10.4881 4.88327 9.99898 4.88327C8.85936 4.88327 8.31419 5.2804 7.54409 5.84087C7.51229 5.86403 7.48003 5.88747 7.44739 5.91118C7.02738 6.21614 6.52333 6.57042 5.86462 6.8379C5.19737 7.10883 4.40871 7.27697 3.40513 7.27697C2.91602 7.27697 2.51953 6.8805 2.51953 6.39139C2.51953 5.90229 2.91602 5.5058 3.40513 5.5058C4.2 5.5058 4.76018 5.37472 5.19823 5.19684C5.64481 5.01551 6.00257 4.77135 6.40681 4.47788C6.44725 4.44852 6.488 4.41876 6.52915 4.38871Z" fill="#695CEA"/>
<path d="M6.14911 12.386L4.60664 8.14518L3.06417 12.386H1.78906L4.04372 6.18609C4.12944 5.94929 4.35426 5.79163 4.60664 5.79163C4.85902 5.79163 5.08382 5.94929 5.16955 6.18609L7.42424 12.386H6.14911Z" fill="#695CEA"/>
</svg>
