<svg width="20" height="20" viewBox="0 0 20 20" fill="none" xmlns="http://www.w3.org/2000/svg">
<mask id="path-1-inside-1_1985_62368" fill="white">
<path d="M17.8961 13.3337C17.7465 13.3337 17.603 13.3932 17.4973 13.499C17.3915 13.6048 17.332 13.7482 17.332 13.8978C17.332 14.0475 17.3915 14.1909 17.4973 14.2967C17.603 14.4025 17.7465 14.4619 17.8961 14.4619C18.0457 14.4619 18.1892 14.4025 18.295 14.2967C18.4008 14.1909 18.4602 14.0475 18.4602 13.8978C18.4602 13.7482 18.4008 13.6048 18.295 13.499C18.1892 13.3932 18.0457 13.3337 17.8961 13.3337Z"/>
</mask>
<path d="M17.8961 13.3337C17.7465 13.3337 17.603 13.3932 17.4973 13.499C17.3915 13.6048 17.332 13.7482 17.332 13.8978C17.332 14.0475 17.3915 14.1909 17.4973 14.2967C17.603 14.4025 17.7465 14.4619 17.8961 14.4619C18.0457 14.4619 18.1892 14.4025 18.295 14.2967C18.4008 14.1909 18.4602 14.0475 18.4602 13.8978C18.4602 13.7482 18.4008 13.6048 18.295 13.499C18.1892 13.3932 18.0457 13.3337 17.8961 13.3337Z" fill="#695CEA"/>
<path d="M17.8961 11.3337C17.2161 11.3337 16.5639 11.6039 16.083 12.0848L18.9115 14.9132C18.6422 15.1825 18.277 15.3337 17.8961 15.3337V11.3337ZM16.083 12.0848C15.6022 12.5656 15.332 13.2178 15.332 13.8978H19.332C19.332 14.2787 19.1808 14.6439 18.9115 14.9132L16.083 12.0848ZM15.332 13.8978C15.332 14.5779 15.6022 15.2301 16.083 15.7109L18.9115 12.8825C19.1808 13.1518 19.332 13.517 19.332 13.8978H15.332ZM16.083 15.7109C16.5639 16.1918 17.2161 16.4619 17.8961 16.4619V12.4619C18.277 12.4619 18.6422 12.6132 18.9115 12.8825L16.083 15.7109ZM17.8961 16.4619C18.5762 16.4619 19.2284 16.1918 19.7092 15.7109L16.8808 12.8825C17.1501 12.6132 17.5153 12.4619 17.8961 12.4619V16.4619ZM19.7092 15.7109C20.1901 15.2301 20.4602 14.5779 20.4602 13.8978H16.4602C16.4602 13.517 16.6115 13.1518 16.8808 12.8825L19.7092 15.7109ZM20.4602 13.8978C20.4602 13.2178 20.1901 12.5656 19.7092 12.0848L16.8808 14.9132C16.6115 14.6439 16.4602 14.2787 16.4602 13.8978H20.4602ZM19.7092 12.0848C19.2284 11.6039 18.5762 11.3337 17.8961 11.3337V15.3337C17.5153 15.3337 17.1501 15.1825 16.8808 14.9132L19.7092 12.0848Z" fill="#695CEA" mask="url(#path-1-inside-1_1985_62368)"/>
<path d="M12.2555 13.8978L11.9473 13.5896C11.9473 13.5896 11.9473 13.5896 11.9473 13.5896C12.029 13.5079 12.1399 13.4619 12.2555 13.4619C12.3711 13.4619 12.482 13.5079 12.5637 13.5896C12.5637 13.5896 12.5637 13.5896 12.5637 13.5896C12.6455 13.6714 12.6914 13.7822 12.6914 13.8978C12.6914 14.0134 12.6455 14.1243 12.5637 14.2061C12.5637 14.2061 12.5637 14.2061 12.5637 14.2061L12.2555 13.8978ZM12.2555 13.8978L11.9473 14.2061C11.8655 14.1243 11.8196 14.0134 11.8196 13.8978C11.8196 13.7822 11.8655 13.6714 11.9473 13.5896L12.2555 13.8978ZM16.076 14.9892V14.3337H17.0678C17.0393 14.364 17.0093 14.3945 16.9778 14.4249C16.7612 14.6341 16.4686 14.8477 16.076 14.9892Z" fill="#695CEA" stroke="#695CEA" stroke-width="2"/>
<path d="M14.0762 14.3337V14.9892C13.6837 14.8477 13.3911 14.6341 13.1745 14.4249C13.1429 14.3945 13.1129 14.364 13.0845 14.3337H14.0762ZM9.90864 4.22139C9.93269 4.19735 9.9653 4.18384 9.9993 4.18384C10.0333 4.18384 10.0659 4.19735 10.09 4.22139C10.114 4.24543 10.1275 4.27804 10.1275 4.31204C10.1275 4.34605 10.114 4.37865 10.09 4.4027C10.0659 4.42674 10.0333 4.44025 9.9993 4.44025C9.9653 4.44025 9.93269 4.42674 9.90864 4.4027C9.8846 4.37865 9.87109 4.34605 9.87109 4.31204C9.87109 4.27804 9.8846 4.24543 9.90864 4.22139Z" fill="#695CEA" stroke="#695CEA" stroke-width="2"/>
<path d="M10 4.31201C12.8205 4.31201 12.8205 6.56447 16.2051 6.56447L10 4.31201Z" fill="#695CEA"/>
<path d="M10 4.31201C12.8205 4.31201 12.8205 6.56447 16.2051 6.56447" stroke="#695CEA" stroke-width="2" stroke-miterlimit="10" stroke-linecap="round" stroke-linejoin="round"/>
<path d="M2.41139 14.206C2.32964 14.2878 2.21877 14.3337 2.10317 14.3337M2.41139 14.206L2.10317 14.3337M2.41139 14.206C2.49314 14.1243 2.53906 14.0134 2.53906 13.8978C2.53906 13.7822 2.49314 13.6713 2.41139 13.5896C2.32965 13.5078 2.21877 13.4619 2.10317 13.4619C1.98756 13.4619 1.87668 13.5078 1.79494 13.5896C1.71319 13.6713 1.66727 13.7822 1.66727 13.8978C1.66727 14.0134 1.71319 14.1243 1.79494 14.206M2.41139 14.206L1.79494 14.206M2.10317 14.3337C1.98756 14.3337 1.87669 14.2878 1.79494 14.206M2.10317 14.3337L1.79494 14.206" fill="#695CEA" stroke="#695CEA" stroke-width="2"/>
<path d="M3.922 14.3337V14.9892C3.52943 14.8477 3.23684 14.6341 3.02026 14.4249C2.98872 14.3945 2.95872 14.364 2.93023 14.3337H3.922ZM8.05074 14.2061C7.96899 14.2878 7.85812 14.3337 7.74251 14.3337C7.6269 14.3337 7.51603 14.2878 7.43428 14.2061C7.35254 14.1243 7.30661 14.0135 7.30661 13.8978C7.30661 13.7822 7.35254 13.6714 7.43428 13.5896C7.51603 13.5079 7.6269 13.4619 7.74251 13.4619C7.85812 13.4619 7.96899 13.5079 8.05074 13.5896C8.13248 13.6714 8.17841 13.7822 8.17841 13.8978C8.17841 14.0134 8.13248 14.1243 8.05074 14.2061Z" fill="#695CEA" stroke="#695CEA" stroke-width="2"/>
<path d="M5.92188 14.9892V14.3337H6.91364C6.88515 14.364 6.85515 14.3945 6.82362 14.4249C6.60703 14.6341 6.31445 14.8477 5.92188 14.9892Z" fill="#695CEA" stroke="#695CEA" stroke-width="2"/>
<path d="M9.9981 4.31201C7.17758 4.31201 7.17758 6.56447 3.79297 6.56447L9.9981 4.31201Z" fill="#695CEA"/>
<path d="M9.9981 4.31201C7.17758 4.31201 7.17758 6.56447 3.79297 6.56447" stroke="#695CEA" stroke-width="2" stroke-miterlimit="10" stroke-linecap="round" stroke-linejoin="round"/>
<mask id="path-12-inside-2_1985_62368" fill="white">
<path d="M6.37615 12.2055L4.92472 8.21503L3.47328 12.2055H2.27344L4.39503 6.37155C4.47569 6.14873 4.68723 6.00037 4.92472 6.00037C5.16221 6.00037 5.37374 6.14873 5.45441 6.37155L7.576 12.2055H6.37615Z"/>
</mask>
<path d="M6.37615 12.2055L4.92472 8.21503L3.47328 12.2055H2.27344L4.39503 6.37155C4.47569 6.14873 4.68723 6.00037 4.92472 6.00037C5.16221 6.00037 5.37374 6.14873 5.45441 6.37155L7.576 12.2055H6.37615Z" fill="#695CEA"/>
<path d="M6.37615 12.2055L4.49662 12.8891L4.97542 14.2055H6.37615V12.2055ZM4.92472 8.21503L6.80425 7.5314L4.92472 2.36396L3.04519 7.5314L4.92472 8.21503ZM3.47328 12.2055V14.2055H4.87402L5.35282 12.8891L3.47328 12.2055ZM2.27344 12.2055L0.393867 11.522L-0.582033 14.2055H2.27344V12.2055ZM4.39503 6.37155L6.2746 7.05508L6.27559 7.05236L4.39503 6.37155ZM5.45441 6.37155L3.57385 7.05236L3.57484 7.05508L5.45441 6.37155ZM7.576 12.2055V14.2055H10.4315L9.45557 11.522L7.576 12.2055ZM8.25569 11.5219L6.80425 7.5314L3.04519 8.89867L4.49662 12.8891L8.25569 11.5219ZM3.04519 7.5314L1.59375 11.5219L5.35282 12.8891L6.80425 8.89867L3.04519 7.5314ZM3.47328 10.2055H2.27344V14.2055H3.47328V10.2055ZM4.15301 12.889L6.2746 7.05508L2.51546 5.68802L0.393867 11.522L4.15301 12.889ZM6.27559 7.05236C6.06918 7.62248 5.52803 8.00037 4.92472 8.00037V4.00037C3.84643 4.00037 2.8822 4.67497 2.51447 5.69074L6.27559 7.05236ZM4.92472 8.00037C4.32141 8.00037 3.78025 7.62248 3.57385 7.05236L7.33497 5.69074C6.96724 4.67497 6.00301 4.00037 4.92472 4.00037V8.00037ZM3.57484 7.05508L5.69643 12.889L9.45557 11.522L7.33398 5.68802L3.57484 7.05508ZM7.576 10.2055H6.37615V14.2055H7.576V10.2055Z" fill="#695CEA" mask="url(#path-12-inside-2_1985_62368)"/>
</svg>
