<svg width="20" height="20" viewBox="0 0 20 20" fill="none" xmlns="http://www.w3.org/2000/svg">
<path d="M5.54501 12.2287C6.77583 12.2287 7.77361 11.2309 7.77361 10.0001C7.77361 8.76926 6.77583 7.77148 5.54501 7.77148C4.31418 7.77148 3.31641 8.76926 3.31641 10.0001C3.31641 11.2309 4.31418 12.2287 5.54501 12.2287Z" stroke="#695CEA" stroke-width="1.6" stroke-linecap="round" stroke-linejoin="round"/>
<path d="M14.4552 7.77165C15.686 7.77165 16.6838 6.77388 16.6838 5.54305C16.6838 4.31223 15.686 3.31445 14.4552 3.31445C13.2243 3.31445 12.2266 4.31223 12.2266 5.54305C12.2266 6.77388 13.2243 7.77165 14.4552 7.77165Z" stroke="#695CEA" stroke-width="1.6" stroke-linecap="round" stroke-linejoin="round"/>
<path d="M14.4552 16.6857C15.686 16.6857 16.6838 15.6879 16.6838 14.4571C16.6838 13.2263 15.686 12.2285 14.4552 12.2285C13.2243 12.2285 12.2266 13.2263 12.2266 14.4571C12.2266 15.6879 13.2243 16.6857 14.4552 16.6857Z" stroke="#695CEA" stroke-width="1.6" stroke-linecap="round" stroke-linejoin="round"/>
<path d="M7.54883 9.03356L12.4517 6.50781" stroke="#695CEA" stroke-width="1.6" stroke-linecap="round" stroke-linejoin="round"/>
<path d="M7.54883 10.9648L12.4517 13.4906" stroke="#695CEA" stroke-width="1.6" stroke-linecap="round" stroke-linejoin="round"/>
</svg>
