<svg width="24" height="24" viewBox="0 0 24 24" fill="none" xmlns="http://www.w3.org/2000/svg">
<path d="M18 6V6.29289C18 6.29289 18 6.73478 18 7C18 7.26522 18 18 18 18M18 18V19.4142V20H9C8.20435 20 7.44129 19.6839 6.87868 19.1213C6.31607 18.5587 6 17.7956 6 17V5C6 4.73478 6.10536 4.48043 6.29289 4.29289C6.48043 4.10536 6.73478 4 7 4H17C17.2652 4 17.5196 4.10536 17.7071 4.29289C17.8946 4.48043 18 4.73478 18 5V18ZM12 7.99902H12.0105M11 12H12V16H13" stroke="#695CEA" stroke-width="2" stroke-linecap="round" stroke-linejoin="round"/>
</svg>
