<svg width="285" height="313" viewBox="0 0 285 313" fill="none" xmlns="http://www.w3.org/2000/svg">
<g clip-path="url(#clip0_10626_29053)">
<path d="M285 87.8672H0V88.1812H285V87.8672Z" fill="#92929D"/>
<path d="M225.782 32.2617H225.469V93.0703H225.782V32.2617Z" fill="#92929D"/>
<path d="M65.4696 39.4307H65.1562V93.7053H65.4696V39.4307Z" fill="#92929D"/>
<path d="M256.537 67.1074H191.954V67.4214H256.537V67.1074Z" fill="#92929D"/>
<path d="M98.9085 67.1084H34.3252V67.4224H98.9085V67.1084Z" fill="#92929D"/>
<path d="M225.628 88.3989C213.964 88.3989 204.469 78.9149 204.469 67.2634C204.469 55.6119 213.964 46.1279 225.628 46.1279C237.293 46.1279 246.788 55.6119 246.788 67.2634C246.788 78.9149 237.293 88.3989 225.628 88.3989ZM225.628 46.9104C214.394 46.9104 205.252 56.0423 205.252 67.2634C205.252 78.4846 214.394 87.6164 225.628 87.6164C236.862 87.6164 246.004 78.4846 246.004 67.2634C246.004 56.0423 236.862 46.9104 225.628 46.9104Z" fill="#92929D"/>
<path d="M225.626 82.263C217.345 82.263 210.608 75.5335 210.608 67.2624C210.608 58.9913 217.345 52.2617 225.626 52.2617C233.906 52.2617 240.643 58.9913 240.643 67.2624C240.643 75.5335 233.906 82.263 225.626 82.263ZM225.626 52.5747C217.517 52.5747 210.921 59.1634 210.921 67.2624C210.921 75.3613 217.517 81.95 225.626 81.95C233.734 81.95 240.33 75.3613 240.33 67.2624C240.33 59.1634 233.734 52.5747 225.626 52.5747ZM224.263 79.3443L224.082 79.3208C221.936 79.0469 219.891 78.2018 218.176 76.8715L218.035 76.762L222.57 72.2313L222.672 72.2939C223.134 72.5599 223.628 72.7634 224.145 72.9042L224.263 72.9355V79.3443ZM218.512 76.7385C220.111 77.9358 221.983 78.7104 223.949 78.9921V73.1859C223.487 73.0529 223.04 72.8729 222.617 72.6382L218.512 76.7385ZM226.989 79.3443V72.9434L227.106 72.9121C227.623 72.779 228.117 72.5756 228.579 72.3017L228.681 72.2391L233.217 76.7698L233.076 76.8794C231.36 78.2096 229.315 79.0547 227.169 79.3286L226.989 79.3443ZM227.302 73.1781V78.9843C229.268 78.7026 231.141 77.9279 232.739 76.7307L228.626 72.6225C228.211 72.8651 227.764 73.0529 227.302 73.1781ZM216.107 74.8449L215.998 74.704C214.666 72.9903 213.82 70.948 213.546 68.8039L213.522 68.6239H219.93L219.962 68.7413C220.095 69.2578 220.299 69.7507 220.573 70.2124L220.635 70.3141L216.107 74.8449ZM213.883 68.9369C214.165 70.901 214.94 72.7712 216.139 74.3675L220.252 70.2594C220.017 69.8446 219.836 69.3986 219.703 68.9291H213.883V68.9369ZM235.144 74.8449L230.608 70.3141L230.671 70.2124C230.937 69.7507 231.149 69.2578 231.282 68.7413L231.313 68.6239H237.721L237.698 68.8039C237.424 70.948 236.578 72.9903 235.246 74.704L235.144 74.8449ZM231 70.2672L235.113 74.3753C236.311 72.779 237.087 70.9088 237.369 68.9448H231.556C231.423 69.3986 231.235 69.8446 231 70.2672ZM219.938 65.9008H213.53L213.553 65.7208C213.828 63.5768 214.674 61.5344 216.006 59.8207L216.115 59.6799L220.651 64.2106L220.588 64.3123C220.322 64.774 220.118 65.267 219.977 65.7834L219.938 65.9008ZM213.883 65.5878H219.695C219.828 65.1261 220.009 64.6801 220.244 64.2576L216.131 60.1494C214.94 61.7535 214.165 63.6237 213.883 65.5878ZM237.721 65.9008H231.313L231.282 65.7834C231.149 65.267 230.945 64.774 230.671 64.3123L230.608 64.2106L235.144 59.6799L235.254 59.8207C236.585 61.5344 237.431 63.5768 237.706 65.7208L237.721 65.9008ZM231.548 65.5878H237.369C237.087 63.6237 236.311 61.7457 235.113 60.1572L231 64.2654C231.235 64.6801 231.423 65.1261 231.548 65.5878ZM228.681 62.2856L228.579 62.223C228.125 61.957 227.623 61.7457 227.106 61.6127L226.989 61.5814V55.1805L227.169 55.2039C229.315 55.4778 231.36 56.3229 233.076 57.6532L233.217 57.7628L228.681 62.2856ZM227.302 61.3388C227.764 61.4718 228.211 61.6518 228.634 61.8866L232.747 57.7784C231.149 56.5812 229.276 55.8065 227.31 55.5248V61.3388H227.302ZM222.57 62.2856L218.035 57.7549L218.176 57.6454C219.891 56.3151 221.936 55.47 224.082 55.1961L224.263 55.1726V61.5736L224.145 61.6048C223.628 61.7379 223.134 61.9413 222.672 62.2152L222.57 62.2856ZM218.512 57.7862L222.625 61.8944C223.04 61.6596 223.487 61.4718 223.957 61.3466V55.5404C221.975 55.8143 220.103 56.589 218.512 57.7862Z" fill="#92929D"/>
<path d="M225.629 79.463C218.891 79.463 213.416 73.9854 213.416 67.2637C213.416 60.5342 218.899 55.0645 225.629 55.0645C232.366 55.0645 237.842 60.542 237.842 67.2637C237.842 73.9933 232.366 79.463 225.629 79.463ZM225.629 55.3775C219.064 55.3775 213.729 60.7141 213.729 67.2637C213.729 73.8211 219.072 79.15 225.629 79.15C232.194 79.15 237.529 73.8133 237.529 67.2637C237.529 60.7063 232.194 55.3775 225.629 55.3775Z" fill="#92929D"/>
<path d="M225.628 71.9428C223.042 71.9428 220.943 69.8457 220.943 67.2634C220.943 64.6811 223.042 62.584 225.628 62.584C228.213 62.584 230.312 64.6811 230.312 67.2634C230.312 69.8457 228.205 71.9428 225.628 71.9428ZM225.628 62.897C223.215 62.897 221.256 64.8533 221.256 67.2634C221.256 69.6735 223.215 71.6298 225.628 71.6298C228.04 71.6298 229.999 69.6735 229.999 67.2634C229.999 64.8533 228.033 62.897 225.628 62.897Z" fill="#92929D"/>
<path d="M225.629 86.8813C214.795 86.8813 205.989 78.0781 205.989 67.2639C205.989 56.4497 214.802 47.6465 225.629 47.6465C236.456 47.6465 245.269 56.4497 245.269 67.2639C245.269 78.0781 236.456 86.8813 225.629 86.8813ZM225.629 48.429C215.233 48.429 206.773 56.8801 206.773 67.2639C206.773 77.6478 215.233 86.0988 225.629 86.0988C236.025 86.0988 244.485 77.6478 244.485 67.2639C244.485 56.8722 236.025 48.429 225.629 48.429Z" fill="#92929D"/>
<path d="M65.3002 88.3989C53.6354 88.3989 44.1406 78.9149 44.1406 67.2634C44.1406 55.6119 53.6354 46.1279 65.3002 46.1279C76.965 46.1279 86.4598 55.6119 86.4598 67.2634C86.4598 78.9149 76.9728 88.3989 65.3002 88.3989ZM65.3002 46.9104C54.0663 46.9104 44.924 56.0423 44.924 67.2634C44.924 78.4846 54.0663 87.6164 65.3002 87.6164C76.5341 87.6164 85.6764 78.4846 85.6764 67.2634C85.6764 56.0423 76.5341 46.9104 65.3002 46.9104Z" fill="#92929D"/>
<path d="M65.297 82.264C57.0165 82.264 50.2793 75.5344 50.2793 67.2633C50.2793 58.9923 57.0165 52.2627 65.297 52.2627C73.5775 52.2627 80.3148 58.9923 80.3148 67.2633C80.3226 75.5344 73.5854 82.264 65.297 82.264ZM65.297 52.5757C57.1889 52.5757 50.5927 59.1644 50.5927 67.2633C50.5927 75.3623 57.1889 81.951 65.297 81.951C73.4052 81.951 80.0014 75.3623 80.0014 67.2633C80.0092 59.1644 73.413 52.5757 65.297 52.5757ZM66.6601 79.3452V72.9443L66.7777 72.913C67.2947 72.78 67.7882 72.5766 68.2504 72.3027L68.3523 72.2401L72.8882 76.7708L72.7471 76.8804C71.0315 78.2106 68.9868 79.0557 66.8403 79.3296L66.6601 79.3452ZM66.9735 73.1791V78.9853C68.9398 78.7036 70.8121 77.9289 72.4103 76.7317L68.2974 72.6235C67.8901 72.8661 67.4435 73.0539 66.9735 73.1791ZM63.9339 79.3452L63.7537 79.3218C61.6072 79.0479 59.5626 78.2028 57.8469 76.8725L57.7059 76.763L62.2418 72.2323L62.3436 72.2949C62.798 72.5609 63.2994 72.7644 63.8164 72.9052L63.9339 72.9365V79.3452ZM58.1838 76.7395C59.7819 77.9367 61.6542 78.7114 63.6206 78.9931V73.1869C63.1584 73.0539 62.7118 72.8739 62.2888 72.6392L58.1838 76.7395ZM55.7866 74.8458L55.6769 74.705C54.3451 72.9913 53.4991 70.9489 53.2249 68.8049L53.2014 68.6249H59.6096L59.6409 68.7423C59.7741 69.2587 59.9778 69.7517 60.252 70.2134L60.3146 70.3151L55.7866 74.8458ZM53.5617 68.9379C53.8438 70.902 54.6193 72.78 55.8179 74.3685L59.9308 70.2603C59.6957 69.8456 59.5156 69.3996 59.3824 68.9301H53.5617V68.9379ZM74.8153 74.8458L70.2794 70.3151L70.3421 70.2134C70.6085 69.7517 70.8121 69.2587 70.9532 68.7423L70.9845 68.6249H77.4005L77.377 68.8049C77.1028 70.9489 76.2568 72.9913 74.925 74.705L74.8153 74.8458ZM70.679 70.2682L74.7918 74.3763C75.9904 72.78 76.766 70.9098 77.048 68.9457H71.2352C71.0942 69.3996 70.914 69.8456 70.679 70.2682ZM59.6174 65.9018H53.2092L53.2327 65.7218C53.5069 63.5777 54.353 61.5354 55.6847 59.8217L55.7944 59.6809L60.3303 64.2116L60.2676 64.3133C60.0013 64.775 59.7976 65.268 59.6566 65.7844L59.6174 65.9018ZM53.5617 65.5888H59.3745C59.5077 65.1271 59.6879 64.6811 59.9229 64.2585L55.8101 60.1504C54.6193 61.7467 53.8438 63.6247 53.5617 65.5888ZM77.4005 65.9018H70.9923L70.961 65.7844C70.8278 65.268 70.6241 64.775 70.3499 64.3133L70.2873 64.2116L74.8231 59.6809L74.9328 59.8217C76.2646 61.5354 77.1107 63.5777 77.3849 65.7218L77.4005 65.9018ZM71.2273 65.5888H77.0402C76.7581 63.6247 75.9826 61.7467 74.784 60.1582L70.6711 64.2664C70.914 64.6811 71.0942 65.1271 71.2273 65.5888ZM68.3601 62.2866L68.2583 62.224C67.8039 61.958 67.3025 61.7467 66.7855 61.6137L66.668 61.5823V55.1815L66.8482 55.2049C68.9947 55.4788 71.0393 56.3239 72.755 57.6542L72.896 57.7637L68.3601 62.2866ZM66.9735 61.3398C67.4357 61.4728 67.8822 61.6528 68.3053 61.8875L72.4181 57.7794C70.82 56.5821 68.9477 55.8075 66.9813 55.5258V61.3398H66.9735ZM62.2418 62.2866L57.7059 57.7559L57.8469 57.6463C59.5626 56.3161 61.6072 55.471 63.7537 55.1971L63.9339 55.1736V61.5745L63.8164 61.6058C63.2994 61.7388 62.8058 61.9423 62.3436 62.2162L62.2418 62.2866ZM58.1838 57.7872L62.2966 61.8954C62.7118 61.6606 63.1584 61.4806 63.6284 61.3476V55.5414C61.6542 55.8153 59.7819 56.59 58.1838 57.7872Z" fill="#92929D"/>
<path d="M65.2967 79.463C58.5594 79.463 53.0835 73.9854 53.0835 67.2637C53.0835 60.5342 58.5673 55.0645 65.2967 55.0645C72.0339 55.0645 77.5098 60.542 77.5098 67.2637C77.5177 73.9933 72.0339 79.463 65.2967 79.463ZM65.2967 55.3775C58.7318 55.3775 53.3969 60.7141 53.3969 67.2637C53.3969 73.8211 58.7396 79.15 65.2967 79.15C71.8615 79.15 77.1965 73.8133 77.1965 67.2637C77.2043 60.7063 71.8615 55.3775 65.2967 55.3775Z" fill="#92929D"/>
<path d="M65.2995 71.9428C62.7142 71.9428 60.6147 69.8457 60.6147 67.2634C60.6147 64.6811 62.7142 62.584 65.2995 62.584C67.8847 62.584 69.9842 64.6811 69.9842 67.2634C69.9842 69.8457 67.8847 71.9428 65.2995 71.9428ZM65.2995 62.897C62.8866 62.897 60.9281 64.8533 60.9281 67.2634C60.9281 69.6735 62.8866 71.6298 65.2995 71.6298C67.7123 71.6298 69.6708 69.6735 69.6708 67.2634C69.6708 64.8533 67.7123 62.897 65.2995 62.897Z" fill="#92929D"/>
<path d="M65.3009 86.8813C54.4665 86.8813 45.6611 78.0781 45.6611 67.2639C45.6611 56.4497 54.4744 47.6465 65.3009 47.6465C76.1275 47.6465 84.9407 56.4497 84.9407 67.2639C84.9407 78.0781 76.1353 86.8813 65.3009 86.8813ZM65.3009 48.429C54.9052 48.429 46.4445 56.8801 46.4445 67.2639C46.4445 77.6478 54.9052 86.0988 65.3009 86.0988C75.6966 86.0988 84.1573 77.6478 84.1573 67.2639C84.1651 56.8722 75.7044 48.429 65.3009 48.429Z" fill="#92929D"/>
<path d="M202.556 73.5868H88.6656L88.7204 67.2642C88.7204 54.3685 78.2151 43.8673 65.2969 43.8673C52.3786 43.8673 41.8733 54.3607 41.8733 67.2642L41.8498 73.5868H18.0893C12.77 73.5868 7.59962 72.4757 5.82914 64.3846C4.39553 57.8115 4.29368 54.525 5.48445 53.0539C6.119 52.2714 7.04341 52.0914 7.85814 52.0601C8.28901 50.3777 10.6079 42.1692 14.9636 40.2286C20.698 37.6698 37.1964 32.341 83.3463 25.3688C85.6417 25.0245 90.1384 22.5988 95.8259 19.5235C106.253 13.8973 120.542 6.18963 136.469 2.4023C142.415 0.985963 156.014 0 169.544 0C180.041 0 188.384 0.586868 193.053 1.65108C204.436 4.24899 221.35 11.3698 231.455 15.6266C236.023 17.5516 239.634 19.0697 240.629 19.2809C241.209 19.4061 242.807 19.6018 245.008 19.8756C260.88 21.8319 275.71 24.2186 276.728 28.4128C278.068 33.906 279.642 47.5294 279.721 49.3605C279.854 49.4231 280.159 49.4935 280.387 49.5483C281.303 49.7674 282.69 50.096 282.69 51.348C282.69 51.8097 282.698 52.3027 282.698 52.827C282.745 57.655 282.807 64.9558 279.376 70.003C277.895 72.1862 254.15 73.2425 249.403 73.4303L249.019 73.446L248.682 67.2877C248.682 54.5641 238.334 44.2272 225.611 44.2272C212.889 44.2272 202.548 54.5641 202.548 67.2642V73.5868H202.556ZM89.4568 72.8043H201.773V67.2642C201.773 54.1259 212.474 43.4447 225.619 43.4447C238.765 43.4447 249.466 54.1337 249.466 67.2642L249.763 72.6322C263.238 72.0766 277.872 70.8246 278.734 69.5569C282.032 64.7132 281.961 57.5611 281.922 52.827C281.914 52.3027 281.914 51.8097 281.914 51.3402C281.914 50.7533 281.146 50.5186 280.214 50.2995C279.533 50.1351 278.945 49.9943 278.945 49.47C278.945 48.531 277.339 34.2346 275.968 28.5927C274.934 24.3516 253.124 21.6597 244.914 20.6503C242.689 20.3764 241.083 20.1808 240.465 20.0478C239.399 19.8209 235.944 18.3654 231.158 16.3465C221.075 12.0975 204.193 4.99238 192.881 2.41011C188.275 1.36155 179.986 0.774673 169.551 0.774673C156.077 0.774673 142.548 1.75281 136.657 3.1535C120.824 6.92518 106.59 14.6016 96.2019 20.2043C90.2167 23.4361 85.8924 25.7679 83.4638 26.1357C37.4079 33.0922 20.9801 38.3897 15.2848 40.9329C11.5166 42.6153 9.09591 50.0491 8.54753 52.5218L8.47703 52.827H8.16367C7.11392 52.827 6.49503 53.0382 6.0955 53.539C5.10058 54.7754 5.25726 58.0698 6.59687 64.2124C8.32818 72.1392 13.4359 72.7965 18.0893 72.7965H41.0664L41.0899 67.2564C41.0899 53.9225 51.9478 43.0769 65.2969 43.0769C78.646 43.0769 89.5038 53.9225 89.5038 67.2564L89.4568 72.8043Z" fill="#92929D"/>
<path d="M198.853 67.2631H198.54C198.54 52.3408 210.69 40.2041 225.629 40.2041C234.529 40.2041 242.911 44.6096 248.058 51.9964L247.8 52.1764C242.715 44.8757 234.427 40.5171 225.629 40.5171C210.862 40.5171 198.853 52.5129 198.853 67.2631Z" fill="#92929D"/>
<path d="M92.7465 67.2627H92.4332C92.4332 52.3169 80.2592 40.1646 65.3041 40.1646C56.2637 40.1646 47.5053 44.8987 42.4367 52.5203L42.1782 52.3482C47.3016 44.6405 56.1619 39.8516 65.3041 39.8516C80.4315 39.8516 92.7465 52.1447 92.7465 67.2627Z" fill="#92929D"/>
<path d="M196.076 66.9507H195.763C195.865 57.2477 200.338 48.3897 207.725 43.2408C211.454 40.6507 213.593 32.0901 213.593 19.7734H213.906C213.906 32.1996 211.721 40.8463 207.905 43.499C200.596 48.5853 196.178 57.3494 196.076 66.9507Z" fill="#92929D"/>
<path d="M8.625 50.9251V50.6121C14.6728 50.6121 29.479 48.4133 29.479 46.4883C29.479 42.2236 24.9197 40.7134 23.7524 40.7134H15.1037V40.4004H23.7446C25.0215 40.4004 29.7846 41.9263 29.7846 46.4883C29.7846 48.9297 13.8111 50.9251 8.625 50.9251Z" fill="#92929D"/>
<path d="M92.7498 67.2634H92.4364C92.4364 36.331 96.0322 30.0553 97.3797 28.7876C84.3674 29.0693 29.1301 39.2419 23.7951 40.713C19.4629 42.1293 17.9823 50.1187 17.9667 50.197L17.6611 50.1422C17.7238 49.8057 19.1888 41.8946 23.7011 40.4157C29.1144 38.9211 85.9186 28.4746 97.8967 28.4746L97.928 28.7876C97.8889 28.7954 92.7498 30.5639 92.7498 67.2634Z" fill="#92929D"/>
<path d="M19.8887 67.3342H7.00185V67.0212H19.5754C19.4657 64.525 16.716 61.4028 13.8017 61.4028H5.61523V61.0898H13.7939C16.9353 61.0898 19.8887 64.5172 19.8887 67.1777V67.3342Z" fill="#92929D"/>
<path d="M97.5811 28.7881L100.777 24.5782C100.793 21.19 102.665 19.6484 104.397 19.6484C107.695 19.6484 109.998 21.7534 109.998 23.6392C109.998 26.1198 106.825 28.7646 100.934 28.7646L97.5811 28.7881ZM104.404 19.9614C102.814 19.9614 101.099 21.4247 101.099 24.633V24.6878L98.2234 28.4751L100.942 28.4595C106.629 28.4595 109.692 25.9789 109.692 23.6471C109.685 21.9021 107.515 19.9614 104.404 19.9614Z" fill="#92929D"/>
<path d="M279.314 49.3147L243.762 52.2725L243.788 52.5854L279.34 49.6276L279.314 49.3147Z" fill="#92929D"/>
<path d="M243.754 53.1167V52.3342C260.926 52.3342 282.078 50.9727 282.289 50.957L282.336 51.7395C282.125 51.7474 260.949 53.1167 243.754 53.1167Z" fill="#92929D"/>
<path d="M202.163 66.8721H89.1108V67.6546H202.163V66.8721Z" fill="#92929D"/>
<path d="M46.6827 52.043H8.16309V52.8255H46.6827V52.043Z" fill="#92929D"/>
<path d="M104.562 28.381L104.554 28.068C105.29 28.0445 178.295 25.6031 193.015 25.6031C208.236 25.6031 213.595 20.7985 213.595 19.7734C213.595 15.8844 193.986 5.68833 184.045 4.39719C173.085 2.98086 154.205 3.44254 145.486 4.39719C127.922 6.32216 108.674 21.0646 108.479 21.2132L108.283 20.9628C108.479 20.8142 127.789 6.01698 145.447 4.07636C154.174 3.12171 173.101 2.6522 184.076 4.07636C193.32 5.2736 213.9 15.4775 213.9 19.7578C213.9 21.0098 208.448 25.9005 193.007 25.9005C178.303 25.9161 105.298 28.3575 104.562 28.381Z" fill="#92929D"/>
<path d="M267.439 42.1456C267.188 42.1456 266.977 41.9656 266.812 41.6213C265.88 39.6181 266.601 31.9809 269.335 28.7413L269.382 28.6865H276.409V28.9995H269.531C266.758 32.3565 266.295 39.759 267.102 41.4883C267.173 41.6448 267.298 41.8326 267.447 41.8326C270.016 41.8326 278.399 41.8013 278.399 41.8013V42.1143C278.399 42.1222 270.009 42.1456 267.439 42.1456Z" fill="#92929D"/>
<path d="M277.495 34.4834H267.186V34.7974H277.495V34.4834Z" fill="#92929D"/>
<path d="M277.943 37.4492H266.631V37.7632H277.943V37.4492Z" fill="#92929D"/>
<path d="M23.7691 40.7282L23.73 40.4152C107.397 29.1393 257.316 28.7011 268.769 28.6855C265.392 27.1283 247.907 19.9214 213.751 19.9214V19.6084C251.941 19.6084 269.356 28.6072 269.529 28.7011L270.085 28.9985H269.458C267.891 29.0063 110.35 29.0611 23.7691 40.7282Z" fill="#92929D"/>
<path d="M154.081 26.7154L158.883 3.24805L165.111 3.33411L165.096 3.49845L163.419 26.5589L154.081 26.7154ZM159.142 3.56104L154.473 26.3946L163.145 26.2537L164.782 3.64713L159.142 3.56104Z" fill="#92929D"/>
<path d="M156.756 67.2655H156.442C156.442 50.3712 161.77 3.90603 161.824 3.43652L162.138 3.46783C162.083 3.93733 156.756 50.3869 156.756 67.2655Z" fill="#92929D"/>
<path d="M194.635 7.3774L193.75 25.541L194.063 25.5562L194.948 7.39261L194.635 7.3774Z" fill="#92929D"/>
<path d="M209.315 34.7982H200.056C199.202 34.7982 198.512 34.1096 198.512 33.2567V33.0689C198.512 32.2159 199.202 31.5273 200.056 31.5273H209.315C210.169 31.5273 210.859 32.2159 210.859 33.0689V33.2567C210.866 34.1096 210.169 34.7982 209.315 34.7982ZM200.056 31.8325C199.374 31.8325 198.826 32.3881 198.826 33.0611V33.2489C198.826 33.9296 199.382 34.4774 200.056 34.4774H209.315C209.997 34.4774 210.545 33.9296 210.545 33.2489V33.0611C210.545 32.3803 209.989 31.8325 209.315 31.8325H200.056Z" fill="#92929D"/>
<path d="M206.712 36.0412H201.448C200.594 36.0412 199.904 35.3526 199.904 34.4996V31.6826H200.218V34.4996C200.218 35.1804 200.774 35.7282 201.448 35.7282H206.712C207.394 35.7282 207.942 35.1726 207.942 34.4996V31.6826H208.255V34.4996C208.255 35.3447 207.566 36.0412 206.712 36.0412Z" fill="#92929D"/>
<path d="M155.755 34.7963H146.495C145.641 34.7963 144.952 34.1077 144.952 33.2547V33.0669C144.952 32.214 145.649 31.5254 146.495 31.5254H155.755C156.609 31.5254 157.298 32.214 157.298 33.0669V33.2547C157.306 34.1077 156.609 34.7963 155.755 34.7963ZM146.495 31.8306C145.813 31.8306 145.265 32.3862 145.265 33.0591V33.2469C145.265 33.9277 145.821 34.4755 146.495 34.4755H155.755C156.436 34.4755 156.985 33.9277 156.985 33.2469V33.0591C156.985 32.3783 156.428 31.8306 155.755 31.8306H146.495Z" fill="#92929D"/>
<path d="M153.155 36.0392H147.891C147.037 36.0392 146.348 35.3506 146.348 34.4977V31.6807H146.661V34.4977C146.661 35.1785 147.217 35.7262 147.891 35.7262H153.155C153.837 35.7262 154.385 35.1706 154.385 34.4977V31.6807H154.699V34.4977C154.699 35.3428 154.009 36.0392 153.155 36.0392Z" fill="#92929D"/>
<path d="M97.2741 28.9051C91.1166 28.9051 86.048 25.0629 85.9932 25.0238L86.1812 24.7734C86.236 24.8126 91.6415 28.9129 98.0183 28.5686L98.034 28.8816C97.7911 28.8972 97.5326 28.9051 97.2741 28.9051Z" fill="#92929D"/>
<path d="M91.2339 27.6988L91.0459 27.4484C91.3201 27.2371 119.005 6.38334 146.581 1.1875L146.636 1.49269C119.131 6.6807 91.5081 27.4875 91.2339 27.6988Z" fill="#92929D"/>
</g>
<g clip-path="url(#clip1_10626_29053)">
<path d="M64.6552 112.351H64.3457V206.349H64.6552V112.351Z" fill="#92929D"/>
<path d="M129 203.265H0V203.575H129V203.265Z" fill="#92929D"/>
<path d="M117.216 189.155H11.7277C9.19786 189.155 5.47656 175.486 5.47656 171.187V156.536C5.47656 153.846 6.97746 152.346 9.46865 149.872C10.7993 148.55 12.4472 146.903 14.3195 144.622C18.5746 132.677 29.8546 118.993 32.1059 118.088C34.6667 117.06 49.5752 116.696 61.5669 116.696H67.4544C79.4462 116.696 94.3546 117.06 96.9154 118.088C99.1667 118.993 110.447 132.677 114.702 144.622C116.574 146.903 118.222 148.542 119.545 149.864C122.036 152.346 123.537 153.838 123.537 156.528V171.18C123.545 175.378 119.7 189.155 117.216 189.155ZM61.5669 117.477C46.1092 117.477 34.3882 118.011 32.3922 118.815C30.2801 119.665 19.1084 133.427 15.0235 144.955L14.9616 145.071C13.0507 147.405 11.3718 149.083 10.0179 150.428C7.58865 152.848 6.25022 154.178 6.25022 156.544V171.195C6.25022 176.429 10.3274 188.39 11.7277 188.39H117.216C118.632 188.39 122.771 176.429 122.771 171.195V156.544C122.771 154.178 121.433 152.841 119.003 150.421C117.649 149.075 115.971 147.405 114.06 145.063L113.998 144.947C109.913 133.419 98.7412 119.657 96.6291 118.807C94.6331 118.011 82.9121 117.469 67.4544 117.469H61.5669V117.477Z" fill="#92929D"/>
<path d="M64.4994 171.575C26.7912 171.575 6.01072 168.668 5.80957 168.644L5.91788 167.879C6.11903 167.902 26.8531 170.801 64.4994 170.801C102.146 170.801 122.903 167.902 123.112 167.879L123.22 168.644C123.011 168.675 102.2 171.575 64.4994 171.575Z" fill="#92929D"/>
<path d="M14.7447 145.218L14.4043 144.522C14.6519 144.398 20.934 141.499 64.4988 141.499C108.064 141.499 114.377 144.398 114.624 144.522L114.276 145.21C114.028 145.094 107.599 142.272 64.4988 142.272C21.3982 142.28 14.9923 145.102 14.7447 145.218Z" fill="#92929D"/>
<path d="M31.0792 123.037L30.6924 122.372C30.8626 122.271 35.1254 119.937 64.509 119.937C93.8926 119.937 98.171 122.271 98.3412 122.372L97.9466 123.037C97.7764 122.944 93.3898 120.71 64.509 120.71C35.6283 120.702 31.2494 122.944 31.0792 123.037Z" fill="#92929D"/>
<path d="M52.4603 171.328L43.718 159.777C42.7664 159.305 42.1088 158.919 18.0479 144.848L17.1118 144.299L17.2201 143.997C22.3727 129.88 34.7822 117.772 34.906 117.648L35.4475 118.205C35.3238 118.321 23.2237 130.142 18.0634 143.958L18.4425 144.175C43.1609 158.625 43.1609 158.625 44.1512 159.12L44.2286 159.158L44.2827 159.228L53.0793 170.856L52.4603 171.328Z" fill="#92929D"/>
<path d="M17.4383 156.576C15.8368 149.355 17.4306 144.337 17.446 144.291L17.74 144.384C17.7246 144.43 16.1618 149.371 17.74 156.507L17.4383 156.576Z" fill="#92929D"/>
<path d="M50.6263 168.413C22.7746 168.413 10.249 164.895 10.249 162.398C10.249 158.463 12.7866 156.383 17.5911 156.383H38.8358V156.692H17.5833C12.9182 156.692 10.5585 158.609 10.5585 162.398C10.5585 164.184 20.647 168.104 50.6263 168.104V168.413Z" fill="#92929D"/>
<path d="M17.8165 165.7H17.5071C17.5071 163.164 17.4297 156.615 17.4297 156.546H17.7392C17.7469 156.608 17.8165 163.164 17.8165 165.7Z" fill="#92929D"/>
<path d="M35.3023 167.942L35.0625 167.749C35.0934 167.71 37.956 164.115 37.956 156.546H38.2655C38.2655 164.231 35.3255 167.903 35.3023 167.942Z" fill="#92929D"/>
<path d="M43.9693 159.312H37.958V159.623H43.9693V159.312Z" fill="#92929D"/>
<path d="M46.2566 162.228H37.4756V162.538H46.2566V162.228Z" fill="#92929D"/>
<path d="M48.4123 165.144H36.583V165.454H48.4123V165.144Z" fill="#92929D"/>
<path d="M64.4986 183.064H37.9312L37.9544 182.886C37.9621 182.825 38.8905 176.895 43.9734 176.895H64.4986V177.204H43.9734C39.6487 177.204 38.4882 181.789 38.2948 182.755H64.4986V183.064Z" fill="#92929D"/>
<path d="M32.4025 183.064H14.5V182.91C14.5 180.281 17.4167 176.895 20.5191 176.895H29.3156C32.3638 176.895 32.4025 182.662 32.4025 182.91V183.064ZM14.8172 182.755H32.093C32.0698 181.843 31.8068 177.204 29.3156 177.204H20.5191C17.6411 177.204 14.9255 180.289 14.8172 182.755Z" fill="#92929D"/>
<path d="M26.3804 183.064C24.6783 183.064 23.2935 181.68 23.2935 179.979C23.2935 178.278 24.6783 176.895 26.3804 176.895C28.0824 176.895 29.4673 178.278 29.4673 179.979C29.4673 181.68 28.0824 183.064 26.3804 183.064ZM26.3804 177.204C24.8485 177.204 23.6029 178.449 23.6029 179.979C23.6029 181.51 24.8485 182.755 26.3804 182.755C27.9122 182.755 29.1578 181.51 29.1578 179.979C29.1578 178.449 27.9122 177.204 26.3804 177.204Z" fill="#92929D"/>
<path d="M18.6514 203.806H10.7523C7.88975 203.806 5.56104 201.479 5.56104 198.619V172.695H6.33469V198.619C6.33469 201.054 8.31526 203.033 10.7523 203.033H18.6514C21.0884 203.033 23.069 201.054 23.069 198.619V188.769H23.8426V198.619C23.8349 201.479 21.5139 203.806 18.6514 203.806Z" fill="#92929D"/>
<path d="M14.5963 144.841C10.7744 144.841 5.69922 144.23 5.69922 138.965C5.69922 136.027 8.93312 135.88 14.6505 135.88C15.4473 135.88 15.9812 136.537 16.2519 137.828C16.4608 138.841 16.4608 140.016 16.4608 140.72V140.805H16.1514V140.72C16.1514 140.032 16.1514 138.88 15.9502 137.898C15.7181 136.769 15.2771 136.197 14.6505 136.197C8.63913 136.197 6.00868 136.46 6.00868 138.972C6.00868 142.769 8.7397 144.539 14.5963 144.539V144.841Z" fill="#92929D"/>
<path d="M76.531 171.328L75.9121 170.864L84.7628 159.166L84.8401 159.128C85.8304 158.633 85.8304 158.633 110.549 144.183L110.92 143.966C105.76 130.142 93.6599 118.329 93.5361 118.213L94.0776 117.656C94.2014 117.78 106.611 129.887 111.763 144.005L111.872 144.306L110.936 144.855C86.8671 158.926 86.2095 159.313 85.2579 159.785L76.531 171.328Z" fill="#92929D"/>
<path d="M111.56 156.575L111.258 156.506C112.844 149.37 111.274 144.429 111.258 144.383L111.552 144.29C111.568 144.336 113.162 149.354 111.56 156.575Z" fill="#92929D"/>
<path d="M78.3711 168.412V168.103C108.35 168.103 118.439 164.183 118.439 162.397C118.439 158.608 116.072 156.691 111.406 156.691H90.1617V156.382H111.406C116.211 156.382 118.748 158.462 118.748 162.397C118.748 164.894 106.223 168.412 78.3711 168.412Z" fill="#92929D"/>
<path d="M111.491 165.7H111.182C111.182 163.164 111.259 156.608 111.259 156.546H111.568C111.561 156.608 111.491 163.164 111.491 165.7Z" fill="#92929D"/>
<path d="M93.7004 167.942C93.6695 167.903 90.7373 164.231 90.7373 156.538H91.0468C91.0468 164.123 93.9171 167.71 93.9403 167.741L93.7004 167.942Z" fill="#92929D"/>
<path d="M91.027 159.312H85.0156V159.623H91.027V159.312Z" fill="#92929D"/>
<path d="M91.5257 162.228H82.7446V162.538H91.5257V162.228Z" fill="#92929D"/>
<path d="M92.4137 165.142H80.5845V165.452H92.4137V165.142Z" fill="#92929D"/>
<path d="M91.0665 183.062H64.499V182.753H90.7029C90.5095 181.787 89.349 177.202 85.0242 177.202H64.499V176.893H85.0242C90.1072 176.893 91.0355 182.823 91.0433 182.884L91.0665 183.062Z" fill="#92929D"/>
<path d="M114.492 183.063H96.5898V182.909C96.5898 182.661 96.6285 176.894 99.6767 176.894H108.473C111.576 176.894 114.492 180.28 114.492 182.909V183.063ZM96.907 182.754H114.183C114.075 180.288 111.359 177.203 108.481 177.203H99.6845C97.1933 177.203 96.9302 181.842 96.907 182.754Z" fill="#92929D"/>
<path d="M102.61 183.063C100.908 183.063 99.5234 181.679 99.5234 179.978C99.5234 178.277 100.908 176.894 102.61 176.894C104.312 176.894 105.697 178.277 105.697 179.978C105.697 181.679 104.312 183.063 102.61 183.063ZM102.61 177.203C101.078 177.203 99.8329 178.448 99.8329 179.978C99.8329 181.509 101.078 182.754 102.61 182.754C104.142 182.754 105.388 181.509 105.388 179.978C105.388 178.448 104.142 177.203 102.61 177.203Z" fill="#92929D"/>
<path d="M114.394 144.839V144.529C120.251 144.529 122.982 142.759 122.982 138.963C122.982 136.45 120.351 136.187 114.34 136.187C113.713 136.187 113.28 136.759 113.04 137.888C112.839 138.87 112.839 140.022 112.839 140.71V140.795H112.53V140.71C112.53 140.006 112.53 138.839 112.739 137.818C113.009 136.527 113.543 135.87 114.34 135.87C120.057 135.87 123.291 136.017 123.291 138.955C123.291 144.228 118.216 144.839 114.394 144.839Z" fill="#92929D"/>
<path d="M8.9496 183.882H8.64014V202.94H8.9496V183.882Z" fill="#92929D"/>
<path d="M7.47499 179.243H7.16553V201.966H7.47499V179.243Z" fill="#92929D"/>
<path d="M11.8754 188.77H11.5659V203.421H11.8754V188.77Z" fill="#92929D"/>
<path d="M14.7631 188.77H14.4536V203.421H14.7631V188.77Z" fill="#92929D"/>
<path d="M13.3158 188.77H13.0063V203.421H13.3158V188.77Z" fill="#92929D"/>
<path d="M10.4662 187.3H10.1567V203.42H10.4662V187.3Z" fill="#92929D"/>
<path d="M20.516 188.77H20.2065V203.421H20.516V188.77Z" fill="#92929D"/>
<path d="M22.0477 188.77H21.7383V202.16H22.0477V188.77Z" fill="#92929D"/>
<path d="M19.0795 188.769H18.77V203.42H19.0795V188.769Z" fill="#92929D"/>
<path d="M16.161 188.77H15.8516V203.421H16.161V188.77Z" fill="#92929D"/>
<path d="M17.5858 188.769H17.2764V203.42H17.5858V188.769Z" fill="#92929D"/>
<path d="M118.24 203.806H110.341C107.478 203.806 105.149 201.478 105.149 198.618V188.768H105.923V198.618C105.923 201.053 107.904 203.032 110.341 203.032H118.24C120.677 203.032 122.657 201.053 122.657 198.618V172.694H123.431V198.618C123.431 201.478 121.102 203.806 118.24 203.806Z" fill="#92929D"/>
<path d="M120.357 183.882H120.048V202.94H120.357V183.882Z" fill="#92929D"/>
<path d="M121.84 179.243H121.53V201.966H121.84V179.243Z" fill="#92929D"/>
<path d="M117.428 188.77H117.118V203.421H117.428V188.77Z" fill="#92929D"/>
<path d="M114.547 188.77H114.238V203.421H114.547V188.77Z" fill="#92929D"/>
<path d="M115.995 188.77H115.686V203.421H115.995V188.77Z" fill="#92929D"/>
<path d="M118.833 187.3H118.523V203.42H118.833V187.3Z" fill="#92929D"/>
<path d="M108.784 188.77H108.474V203.421H108.784V188.77Z" fill="#92929D"/>
<path d="M107.259 188.77H106.95V202.16H107.259V188.77Z" fill="#92929D"/>
<path d="M110.231 188.77H109.921V203.421H110.231V188.77Z" fill="#92929D"/>
<path d="M113.145 188.77H112.836V203.421H113.145V188.77Z" fill="#92929D"/>
<path d="M111.717 188.77H111.408V203.421H111.717V188.77Z" fill="#92929D"/>
</g>
<g clip-path="url(#clip2_10626_29053)">
<path d="M283.289 203.038H157.115V203.37H283.289V203.038Z" fill="#92929D"/>
<path d="M220.369 105.667H220.036V206.35H220.369V105.667Z" fill="#92929D"/>
<path d="M163.676 140.136C159.189 139.655 157 137.637 157 133.976C157 130.821 160.479 130.663 166.631 130.663C167.488 130.663 168.063 131.228 168.354 132.348C168.579 133.237 168.579 134.316 168.579 135.03V135.121H168.246V135.03C168.246 134.333 168.246 133.278 168.029 132.423C167.779 131.46 167.33 130.987 166.631 130.987C160.163 130.987 157.333 131.269 157.333 133.967C157.333 137.471 159.356 139.331 163.709 139.796L163.676 140.136Z" fill="#92929D"/>
<path d="M276.731 140.155L276.698 139.823C281.118 139.317 283.182 137.465 283.182 133.978C283.182 131.28 280.352 130.998 273.884 130.998C273.193 130.998 272.736 131.471 272.486 132.434C272.269 133.281 272.269 134.343 272.269 135.041V135.132H271.937V135.041C271.937 134.327 271.937 133.248 272.161 132.359C272.444 131.238 273.027 130.674 273.884 130.674C280.036 130.674 283.515 130.832 283.515 133.986C283.515 137.615 281.293 139.632 276.731 140.155Z" fill="#92929D"/>
<path d="M166.573 187.886C163.71 187.886 161.404 170.451 161.404 156.005C161.404 149.529 161.92 142.098 163.06 140.073C163.834 138.703 166.315 136.428 167.955 134.917C168.512 134.402 169.087 133.879 169.178 133.755C174.922 124.232 183.329 112.467 185.56 111.571C188.015 110.591 204.838 110.076 220.196 110.076V110.906C202.674 110.906 187.916 111.521 185.868 112.343C184.203 113.007 176.495 123.227 169.878 134.195C169.778 134.369 169.445 134.668 168.512 135.523C167.006 136.901 164.484 139.218 163.776 140.471C162.869 142.082 162.228 148.466 162.228 155.997C162.228 172.992 165.1 187.047 166.565 187.047C170.51 187.047 172.699 186.051 174.622 185.171C176.054 184.515 177.411 183.901 179.175 183.901H220.396V184.731H179.175C177.586 184.731 176.37 185.287 174.963 185.927C173.074 186.807 170.702 187.886 166.573 187.886Z" fill="#92929D"/>
<path d="M176.036 133.15C175.903 133.15 175.786 133.092 175.703 132.984C175.62 132.868 175.595 132.719 175.645 132.586C178.841 123.91 183.669 116.687 185.417 114.918C186.965 113.358 197.162 113.274 213.785 113.316C215.916 113.324 218.064 113.324 220.194 113.324V114.155C218.064 114.155 215.916 114.146 213.777 114.146C201.424 114.105 187.423 114.072 186.008 115.5C184.235 117.285 179.665 124.342 176.652 132.262C180.481 131.955 200.458 130.419 220.194 130.419V131.249C198.386 131.249 176.286 133.125 176.069 133.142C176.061 133.15 176.053 133.15 176.036 133.15Z" fill="#92929D"/>
<path d="M174.008 203.527H168.539C165.46 203.527 162.954 201.028 162.954 197.957V177.541H163.786V197.957C163.786 200.572 165.917 202.697 168.539 202.697H174.008C176.63 202.697 178.761 200.572 178.761 197.957V184.532H179.594V197.957C179.594 201.028 177.088 203.527 174.008 203.527Z" fill="#92929D"/>
<path d="M220.202 159.319H194.964C193.84 159.319 192.891 157.376 192.009 154.354C190.594 154.354 168.419 154.387 165.78 154.387C165.514 154.387 165.289 154.196 165.114 153.831C164.124 151.705 164.89 143.602 167.795 140.165C170.392 137.093 175.877 132.643 175.936 132.602L176.21 132.386V132.734C176.21 132.809 176.243 140.115 178.732 140.115H188.663C189.112 140.115 189.412 141.278 190.361 145.877C191.451 151.099 193.091 158.995 194.972 158.995H220.211V159.319H220.202ZM175.877 133.083C174.745 134.013 170.3 137.724 168.044 140.389C165.056 143.918 164.557 151.855 165.414 153.698C165.489 153.864 165.622 154.063 165.78 154.063C168.369 154.063 189.811 154.038 191.917 154.03C191.277 151.772 190.661 148.966 190.036 145.944C189.495 143.337 188.929 140.647 188.629 140.439L178.732 140.447C176.219 140.447 175.911 134.602 175.877 133.083Z" fill="#92929D"/>
<path d="M179.4 140.105H167.754V140.438H179.4V140.105Z" fill="#92929D"/>
<path d="M191 149.631H165.055V149.963H191V149.631Z" fill="#92929D"/>
<path d="M190.385 146.374H165.297V146.706H190.385V146.374Z" fill="#92929D"/>
<path d="M220.205 139.867H188.658V140.697H220.205V139.867Z" fill="#92929D"/>
<path d="M162.286 165.444H161.953C161.953 164.206 162.552 162.131 166.581 162.131H220.204V162.463H166.581C163.809 162.463 162.286 163.526 162.286 165.444Z" fill="#92929D"/>
<path d="M273.825 187.886C269.696 187.886 267.324 186.806 265.418 185.934C264.011 185.295 262.796 184.739 261.206 184.739H219.986V183.909H261.206C262.971 183.909 264.327 184.523 265.759 185.179C267.69 186.059 269.879 187.055 273.817 187.055C275.282 187.055 278.153 172.999 278.153 156.004C278.153 148.474 277.521 142.09 276.605 140.479C275.898 139.217 273.376 136.909 271.869 135.531C270.937 134.676 270.604 134.368 270.504 134.202C263.886 123.235 256.178 113.015 254.513 112.351C252.474 111.537 237.716 110.914 220.186 110.914V110.084C235.543 110.084 252.374 110.599 254.821 111.578C257.052 112.475 265.468 124.24 271.211 133.771C271.295 133.879 271.869 134.41 272.427 134.916C274.066 136.419 276.547 138.694 277.321 140.072C278.461 142.098 278.978 149.537 278.978 156.004C278.994 170.442 276.688 187.886 273.825 187.886Z" fill="#92929D"/>
<path d="M264.359 133.151C264.35 133.151 264.334 133.151 264.325 133.151C264.109 133.134 242.009 131.258 220.2 131.258V130.428C239.936 130.428 259.914 131.964 263.743 132.271C260.721 124.351 256.16 117.294 254.387 115.509C252.972 114.081 238.971 114.122 226.618 114.155C224.487 114.164 222.331 114.164 220.2 114.164V113.333C222.331 113.333 224.479 113.325 226.61 113.325C243.216 113.275 253.429 113.367 254.978 114.927C256.734 116.696 261.554 123.919 264.75 132.595C264.8 132.728 264.775 132.877 264.692 132.993C264.608 133.093 264.492 133.151 264.359 133.151Z" fill="#92929D"/>
<path d="M245.432 159.319H220.193V158.987H245.432C247.313 158.987 248.953 151.091 250.043 145.869C251 141.278 251.292 140.107 251.741 140.107H261.672C263.736 140.107 264.194 134.786 264.194 132.727V132.378L264.468 132.594C264.527 132.635 270.012 137.085 272.609 140.157C275.514 143.586 276.28 151.689 275.289 153.823C275.115 154.197 274.89 154.379 274.624 154.379C271.985 154.379 249.81 154.346 248.395 154.346C247.504 157.376 246.564 159.319 245.432 159.319ZM248.486 154.031C250.592 154.031 272.026 154.064 274.615 154.064C274.773 154.064 274.898 153.864 274.981 153.698C275.839 151.855 275.339 143.918 272.351 140.39C270.095 137.733 265.65 134.013 264.518 133.084C264.485 134.603 264.177 140.448 261.672 140.448H251.741C251.466 140.639 250.909 143.337 250.368 145.944C249.735 148.958 249.127 151.772 248.486 154.031Z" fill="#92929D"/>
<path d="M272.645 140.105H261.008V140.438H272.645V140.105Z" fill="#92929D"/>
<path d="M275.341 149.63H249.395V149.962H275.341V149.63Z" fill="#92929D"/>
<path d="M275.108 146.375H250.02V146.707H275.108V146.375Z" fill="#92929D"/>
<path d="M251.748 139.867H220.2V140.697H251.748V139.867Z" fill="#92929D"/>
<path d="M278.451 165.444H278.118C278.118 163.518 276.595 162.464 273.823 162.464H220.2V162.132H273.823C277.852 162.132 278.451 164.207 278.451 165.444Z" fill="#92929D"/>
<path d="M176.205 185.014H175.872V202.689H176.205V185.014Z" fill="#92929D"/>
<path d="M174.588 185.735H174.255V203.096H174.588V185.735Z" fill="#92929D"/>
<path d="M173.048 186.375H172.715V203.088H173.048V186.375Z" fill="#92929D"/>
<path d="M171.432 186.897H171.099V203.087H171.432V186.897Z" fill="#92929D"/>
<path d="M169.93 187.225H169.597V203.099H169.93V187.225Z" fill="#92929D"/>
<path d="M168.274 187.224H167.941V203.098H168.274V187.224Z" fill="#92929D"/>
<path d="M164.969 184.323H164.636V201.592H164.969V184.323Z" fill="#92929D"/>
<path d="M166.697 187.225H166.364V202.709H166.697V187.225Z" fill="#92929D"/>
<path d="M177.743 184.516H177.41V201.652H177.743V184.516Z" fill="#92929D"/>
<path d="M271.865 203.527H266.396C263.317 203.527 260.811 201.028 260.811 197.957V184.532H261.643V197.957C261.643 200.572 263.774 202.697 266.396 202.697H271.865C274.487 202.697 276.618 200.572 276.618 197.957V177.541H277.451V197.957C277.442 201.028 274.945 203.527 271.865 203.527Z" fill="#92929D"/>
<path d="M264.531 185.014H264.198V202.689H264.531V185.014Z" fill="#92929D"/>
<path d="M266.147 185.738H265.814V203.099H266.147V185.738Z" fill="#92929D"/>
<path d="M267.683 186.375H267.35V203.088H267.683V186.375Z" fill="#92929D"/>
<path d="M269.307 186.9H268.974V203.09H269.307V186.9Z" fill="#92929D"/>
<path d="M270.806 187.224H270.473V203.098H270.806V187.224Z" fill="#92929D"/>
<path d="M272.463 187.225H272.13V203.099H272.463V187.225Z" fill="#92929D"/>
<path d="M275.765 184.323H275.432V201.592H275.765V184.323Z" fill="#92929D"/>
<path d="M274.038 187.225H273.705V202.709H274.038V187.225Z" fill="#92929D"/>
<path d="M262.991 184.517H262.658V201.653H262.991V184.517Z" fill="#92929D"/>
</g>
<g clip-path="url(#clip3_10626_29053)">
<path d="M285 307.405H0V307.719H285V307.405Z" fill="#92929D"/>
<path d="M59.5321 251.631H59.2188V312.625H59.5321V251.631Z" fill="#92929D"/>
<path d="M219.845 258.82H219.532V313.261H219.845V258.82Z" fill="#92929D"/>
<path d="M93.0447 286.583H28.4614V286.897H93.0447V286.583Z" fill="#92929D"/>
<path d="M250.682 286.583H186.099V286.897H250.682V286.583Z" fill="#92929D"/>
<path d="M59.3744 307.938C47.7096 307.938 38.2148 298.425 38.2148 286.738C38.2148 275.051 47.7096 265.538 59.3744 265.538C71.0392 265.538 80.534 275.051 80.534 286.738C80.534 298.425 71.0392 307.938 59.3744 307.938ZM59.3744 266.323C48.1405 266.323 38.9982 275.483 38.9982 286.738C38.9982 297.994 48.1405 307.153 59.3744 307.153C70.6083 307.153 79.7506 297.994 79.7506 286.738C79.7506 275.483 70.6083 266.323 59.3744 266.323Z" fill="#92929D"/>
<path d="M59.3712 301.785C51.0907 301.785 44.3535 295.035 44.3535 286.739C44.3535 278.443 51.0907 271.692 59.3712 271.692C67.6518 271.692 74.389 278.443 74.389 286.739C74.389 295.035 67.6518 301.785 59.3712 301.785ZM59.3712 272.006C51.2631 272.006 44.6669 278.615 44.6669 286.739C44.6669 294.863 51.2631 301.471 59.3712 301.471C67.4794 301.471 74.0756 294.863 74.0756 286.739C74.0756 278.615 67.4794 272.006 59.3712 272.006ZM60.7344 298.858V292.437L60.8519 292.406C61.3689 292.272 61.8624 292.068 62.3247 291.794L62.4265 291.731L66.9624 296.275L66.8214 296.385C65.1057 297.72 63.061 298.567 60.9145 298.842L60.7344 298.858ZM61.0477 292.673V298.497C63.014 298.214 64.8942 297.437 66.4845 296.236L62.3717 292.115C61.9565 292.359 61.5099 292.547 61.0477 292.673ZM58.0081 298.858L57.828 298.834C55.6814 298.559 53.6368 297.712 51.9211 296.377L51.7801 296.268L56.316 291.723L56.4178 291.786C56.8722 292.053 57.3736 292.257 57.8906 292.398L58.0081 292.429V298.858ZM52.258 296.244C53.8561 297.445 55.7284 298.222 57.6948 298.504V292.681C57.2326 292.547 56.786 292.367 56.363 292.131L52.258 296.244ZM49.853 294.345L49.7433 294.203C48.4115 292.484 47.5654 290.436 47.2913 288.285L47.2678 288.105H53.6759L53.7073 288.222C53.8405 288.74 54.0441 289.235 54.3183 289.698L54.381 289.8L49.853 294.345ZM47.636 288.419C47.918 290.389 48.6935 292.272 49.8921 293.866L54.005 289.745C53.77 289.329 53.5898 288.882 53.4566 288.411H47.636V288.419ZM68.8895 294.345L64.3537 289.8L64.4163 289.698C64.6827 289.243 64.8864 288.74 65.0274 288.222L65.0587 288.105H71.4669L71.4434 288.285C71.1692 290.436 70.3231 292.484 68.9914 294.203L68.8895 294.345ZM64.7454 289.753L68.8582 293.874C70.0568 292.272 70.8323 290.396 71.1144 288.426H65.3016C65.1684 288.882 64.9804 289.329 64.7454 289.753ZM71.4669 285.373H65.0587L65.0274 285.255C64.8942 284.737 64.6905 284.243 64.4163 283.78L64.3537 283.678L68.8895 279.133L68.9992 279.274C70.331 280.993 71.177 283.042 71.4512 285.193L71.4669 285.373ZM65.3016 285.059H71.1144C70.8323 283.089 70.0568 281.213 68.8582 279.612L64.7454 283.733C64.9804 284.149 65.1684 284.596 65.3016 285.059ZM53.6838 285.373H47.2756L47.2991 285.193C47.5733 283.042 48.4193 280.993 49.7511 279.274L49.8608 279.133L54.3967 283.678L54.334 283.78C54.0676 284.243 53.864 284.737 53.723 285.255L53.6838 285.373ZM47.636 285.059H53.4488C53.5819 284.596 53.7621 284.149 53.9971 283.725L49.8843 279.604C48.6857 281.205 47.9101 283.081 47.636 285.059ZM56.316 281.747L51.7801 277.202L51.9211 277.092C53.6368 275.758 55.6814 274.91 57.828 274.636L58.0081 274.612V281.033L57.8906 281.064C57.3736 281.197 56.88 281.402 56.4178 281.676L56.316 281.747ZM52.258 277.234L56.3708 281.354C56.786 281.119 57.2326 280.938 57.7026 280.805V274.981C55.7284 275.256 53.8561 276.033 52.258 277.234ZM62.4265 281.747L62.3247 281.684C61.8624 281.417 61.3689 281.213 60.8519 281.072L60.7344 281.041V274.62L60.9145 274.644C63.061 274.918 65.1057 275.766 66.8214 277.1L66.9624 277.21L62.4265 281.747ZM61.0477 280.797C61.5099 280.931 61.9565 281.111 62.3795 281.347L66.4923 277.226C64.8942 276.025 63.0219 275.248 61.0556 274.965V280.797H61.0477Z" fill="#92929D"/>
<path d="M59.3748 298.976C52.6376 298.976 47.1616 293.482 47.1616 286.739C47.1616 279.989 52.6454 274.503 59.3748 274.503C66.112 274.503 71.588 279.997 71.588 286.739C71.5958 293.49 66.112 298.976 59.3748 298.976ZM59.3748 274.817C52.8099 274.817 47.475 280.17 47.475 286.739C47.475 293.317 52.8178 298.662 59.3748 298.662C65.9397 298.662 71.2746 293.309 71.2746 286.739C71.2746 280.162 65.9397 274.817 59.3748 274.817Z" fill="#92929D"/>
<path d="M59.3698 291.433C56.7846 291.433 54.6851 289.33 54.6851 286.74C54.6851 284.149 56.7846 282.046 59.3698 282.046C61.955 282.046 64.0545 284.149 64.0545 286.74C64.0545 289.322 61.955 291.433 59.3698 291.433ZM59.3698 282.36C56.9569 282.36 54.9984 284.322 54.9984 286.74C54.9984 289.157 56.9569 291.119 59.3698 291.119C61.7826 291.119 63.7411 289.157 63.7411 286.74C63.7411 284.322 61.7826 282.36 59.3698 282.36Z" fill="#92929D"/>
<path d="M59.3712 306.416C48.5368 306.416 39.7314 297.586 39.7314 286.739C39.7314 275.892 48.5447 267.062 59.3712 267.062C70.1978 267.062 79.011 275.892 79.011 286.739C79.011 297.586 70.2056 306.416 59.3712 306.416ZM59.3712 267.846C48.9755 267.846 40.5148 276.323 40.5148 286.739C40.5148 297.154 48.9755 305.631 59.3712 305.631C69.7669 305.631 78.2276 297.154 78.2276 286.739C78.2354 276.323 69.7747 267.846 59.3712 267.846Z" fill="#92929D"/>
<path d="M219.703 307.939C208.038 307.939 198.543 298.426 198.543 286.739C198.543 275.052 208.038 265.539 219.703 265.539C231.367 265.539 240.862 275.052 240.862 286.739C240.854 298.426 231.367 307.939 219.703 307.939ZM219.703 266.324C208.469 266.324 199.326 275.484 199.326 286.739C199.326 297.995 208.469 307.154 219.703 307.154C230.936 307.154 240.079 297.995 240.079 286.739C240.071 275.484 230.936 266.324 219.703 266.324Z" fill="#92929D"/>
<path d="M219.704 301.785C211.423 301.785 204.686 295.035 204.686 286.739C204.686 278.443 211.423 271.692 219.704 271.692C227.984 271.692 234.721 278.443 234.721 286.739C234.721 295.035 227.984 301.785 219.704 301.785ZM219.704 272.006C211.596 272.006 204.999 278.615 204.999 286.739C204.999 294.863 211.596 301.471 219.704 301.471C227.812 301.471 234.408 294.863 234.408 286.739C234.408 278.615 227.812 272.006 219.704 272.006ZM218.341 298.858L218.16 298.834C216.014 298.559 213.969 297.712 212.254 296.377L212.113 296.268L216.649 291.723L216.75 291.786C217.213 292.053 217.706 292.257 218.223 292.398L218.341 292.429V298.858ZM212.583 296.244C214.181 297.445 216.053 298.222 218.019 298.504V292.681C217.557 292.547 217.111 292.367 216.688 292.131L212.583 296.244ZM221.067 298.858V292.437L221.184 292.406C221.701 292.272 222.195 292.068 222.657 291.794L222.759 291.731L227.295 296.275L227.154 296.385C225.438 297.72 223.394 298.567 221.247 298.842L221.067 298.858ZM221.38 292.673V298.497C223.347 298.214 225.227 297.437 226.817 296.236L222.704 292.115C222.289 292.359 221.842 292.547 221.38 292.673ZM210.185 294.345L210.076 294.203C208.744 292.484 207.898 290.436 207.624 288.285L207.6 288.105H214.008L214.04 288.222C214.173 288.74 214.377 289.235 214.651 289.698L214.714 289.8L210.185 294.345ZM207.961 288.419C208.243 290.389 209.018 292.272 210.217 293.866L214.33 289.745C214.095 289.329 213.914 288.882 213.781 288.411H207.961V288.419ZM229.214 294.345L224.678 289.8L224.741 289.698C225.007 289.243 225.219 288.74 225.352 288.222L225.383 288.105H231.792L231.768 288.285C231.494 290.436 230.648 292.484 229.316 294.203L229.214 294.345ZM225.078 289.753L229.191 293.874C230.389 292.272 231.165 290.396 231.447 288.426H225.634C225.493 288.882 225.313 289.329 225.078 289.753ZM231.799 285.373H225.391L225.36 285.255C225.227 284.737 225.023 284.243 224.749 283.78L224.686 283.678L229.222 279.133L229.332 279.274C230.663 280.993 231.51 283.042 231.784 285.193L231.799 285.373ZM225.626 285.059H231.439C231.157 283.089 230.381 281.205 229.183 279.612L225.07 283.733C225.313 284.149 225.493 284.596 225.626 285.059ZM214.016 285.373H207.6L207.624 285.193C207.898 283.042 208.744 280.993 210.076 279.274L210.185 279.133L214.721 283.678L214.659 283.78C214.392 284.243 214.189 284.737 214.048 285.255L214.016 285.373ZM207.961 285.059H213.773C213.907 284.596 214.087 284.149 214.322 283.725L210.209 279.604C209.018 281.205 208.243 283.081 207.961 285.059ZM222.759 281.747L222.657 281.684C222.203 281.417 221.701 281.213 221.184 281.072L221.067 281.041V274.62L221.247 274.644C223.394 274.918 225.438 275.766 227.154 277.1L227.295 277.21L222.759 281.747ZM221.38 280.797C221.842 280.931 222.289 281.111 222.712 281.347L226.825 277.226C225.227 276.025 223.354 275.248 221.388 274.965V280.797H221.38ZM216.641 281.747L212.105 277.202L212.246 277.092C213.961 275.758 216.006 274.91 218.153 274.636L218.333 274.612V281.033L218.215 281.064C217.698 281.197 217.205 281.402 216.743 281.676L216.641 281.747ZM212.583 277.234L216.696 281.354C217.111 281.119 217.557 280.938 218.027 280.805V274.981C216.053 275.256 214.181 276.033 212.583 277.234Z" fill="#92929D"/>
<path d="M219.703 298.976C212.966 298.976 207.49 293.482 207.49 286.739C207.49 279.989 212.974 274.503 219.703 274.503C226.44 274.503 231.916 279.997 231.916 286.739C231.916 293.49 226.432 298.976 219.703 298.976ZM219.703 274.817C213.138 274.817 207.803 280.17 207.803 286.739C207.803 293.317 213.146 298.662 219.703 298.662C226.268 298.662 231.603 293.309 231.603 286.739C231.603 280.162 226.26 274.817 219.703 274.817Z" fill="#92929D"/>
<path d="M219.702 291.432C217.117 291.432 215.017 289.329 215.017 286.739C215.017 284.148 217.117 282.045 219.702 282.045C222.287 282.045 224.387 284.148 224.387 286.739C224.379 289.321 222.279 291.432 219.702 291.432ZM219.702 282.359C217.289 282.359 215.33 284.321 215.33 286.739C215.33 289.156 217.289 291.118 219.702 291.118C222.115 291.118 224.073 289.156 224.073 286.739C224.073 284.321 222.107 282.359 219.702 282.359Z" fill="#92929D"/>
<path d="M219.703 306.416C208.869 306.416 200.063 297.586 200.063 286.739C200.063 275.892 208.877 267.062 219.703 267.062C230.53 267.062 239.343 275.892 239.343 286.739C239.343 297.586 230.53 306.416 219.703 306.416ZM219.703 267.846C209.308 267.846 200.847 276.323 200.847 286.739C200.847 297.154 209.308 305.631 219.703 305.631C230.099 305.631 238.56 297.154 238.56 286.739C238.56 276.323 230.099 267.846 219.703 267.846Z" fill="#92929D"/>
<path d="M266.912 293.08H243.152L243.128 286.738C243.128 273.795 232.623 263.27 219.704 263.27C206.786 263.27 196.281 273.795 196.281 286.738L196.336 293.08H82.4454V286.738C82.4454 273.992 72.0967 263.631 59.3822 263.631C46.6598 263.631 36.319 273.999 36.319 286.738L35.9821 292.939L35.5982 292.923C30.8508 292.735 7.11389 291.668 5.62543 289.486C2.18632 284.423 2.25683 277.1 2.30383 272.257C2.31166 271.731 2.31166 271.237 2.31166 270.774C2.31166 269.518 3.69828 269.188 4.61485 268.968C4.84204 268.913 5.14756 268.843 5.28074 268.78C5.35908 266.943 6.94154 253.278 8.27332 247.768C9.29174 243.569 24.1215 241.167 39.9931 239.213C42.1944 238.938 43.7926 238.742 44.3723 238.616C45.3672 238.404 48.9708 236.874 53.5459 234.951C63.6517 230.681 80.5731 223.538 91.948 220.933C96.6092 219.849 104.96 219.261 115.458 219.261C128.987 219.261 142.587 220.25 148.533 221.67C164.467 225.477 178.748 233.201 189.175 238.844C194.863 241.921 199.36 244.354 201.655 244.707C247.805 251.701 264.311 257.046 270.038 259.612C274.401 261.567 276.712 269.792 277.143 271.48C277.95 271.511 278.882 271.692 279.517 272.477C280.708 273.96 280.606 277.249 279.172 283.842C277.402 291.958 272.231 293.08 266.912 293.08ZM243.935 292.295H266.912C271.565 292.295 276.673 291.628 278.404 283.677C279.744 277.508 279.901 274.204 278.906 272.971C278.506 272.469 277.887 272.257 276.838 272.257H276.524L276.454 271.951C275.905 269.471 273.485 262.014 269.717 260.327C264.021 257.776 247.593 252.462 201.537 245.484C199.109 245.115 194.785 242.776 188.799 239.535C178.412 233.915 164.177 226.207 148.345 222.432C142.454 221.027 128.932 220.046 115.458 220.046C105.023 220.046 96.7346 220.626 92.1204 221.686C80.8081 224.276 63.9259 231.403 53.8436 235.665C49.057 237.69 45.5944 239.15 44.5368 239.378C43.9179 239.511 42.3119 239.707 40.0871 239.982C31.8771 240.995 10.0595 243.695 9.03321 247.949C7.66227 253.608 6.0563 267.948 6.0563 268.89C6.0563 269.424 5.46876 269.565 4.7872 269.722C3.85496 269.942 3.08723 270.177 3.08723 270.766C3.08723 271.229 3.07939 271.731 3.07939 272.257C3.03239 277.006 2.96188 284.18 6.25999 289.038C7.12172 290.302 21.7478 291.565 35.23 292.123L35.5277 286.715C35.5277 273.56 46.2289 262.838 59.3743 262.838C72.5276 262.838 83.221 273.56 83.221 286.731V292.288H195.537L195.49 286.738C195.49 273.364 206.348 262.485 219.697 262.485C233.046 262.485 243.904 273.364 243.904 286.738L243.935 292.295Z" fill="#92929D"/>
<path d="M86.4653 286.738H86.152C86.152 271.951 74.1425 259.911 59.3754 259.911C50.5779 259.911 42.2895 264.283 37.2053 271.606L36.9468 271.425C42.0937 264.016 50.4761 259.597 59.3754 259.597C74.3148 259.597 86.4653 271.77 86.4653 286.738Z" fill="#92929D"/>
<path d="M192.566 286.738H192.253C192.253 271.574 204.568 259.243 219.695 259.243C228.838 259.243 237.698 264.047 242.821 271.778L242.563 271.951C237.494 264.306 228.736 259.549 219.695 259.549C204.74 259.557 192.566 271.747 192.566 286.738Z" fill="#92929D"/>
<path d="M88.9195 286.426C88.8176 276.795 84.3993 268.004 77.0902 262.903C73.275 260.242 71.0894 251.569 71.0894 239.104H71.4027C71.4027 251.467 73.5414 260.046 77.2704 262.644C84.6578 267.8 89.131 276.693 89.2328 286.426H88.9195Z" fill="#92929D"/>
<path d="M276.373 270.349C271.187 270.349 255.206 268.347 255.206 265.898C255.206 261.323 259.969 259.792 261.246 259.792H269.887V260.106H261.246C260.079 260.106 255.519 261.621 255.519 265.898C255.519 267.821 270.318 270.035 276.373 270.035V270.349Z" fill="#92929D"/>
<path d="M192.568 286.739H192.254C192.254 249.928 187.115 248.154 187.06 248.138L185.885 247.832H187.092C199.078 247.832 255.874 258.31 261.279 259.81C265.8 261.293 267.272 269.228 267.327 269.566L267.022 269.621C267.006 269.542 265.525 261.536 261.193 260.108C255.874 258.632 200.629 248.429 187.617 248.146C188.98 249.418 192.568 255.712 192.568 286.739Z" fill="#92929D"/>
<path d="M277.994 286.809H265.107V286.652C265.107 283.984 268.06 280.546 271.202 280.546H279.38V280.86H271.202C268.288 280.86 265.538 283.992 265.42 286.495H277.994V286.809Z" fill="#92929D"/>
<path d="M187.42 248.145L184.059 248.129C178.176 248.129 174.995 245.484 174.995 242.988C174.995 241.097 177.298 238.985 180.596 238.985C182.328 238.985 184.2 240.532 184.216 243.93L187.42 248.145ZM180.596 239.291C177.478 239.291 175.308 241.238 175.308 242.98C175.308 245.319 178.372 247.808 184.059 247.808L186.777 247.823L183.902 244.024V243.969C183.902 240.759 182.195 239.291 180.596 239.291Z" fill="#92929D"/>
<path d="M5.67256 268.731L5.64648 269.044L41.1975 272.018L41.2236 271.705L5.67256 268.731Z" fill="#92929D"/>
<path d="M41.2464 272.547C24.043 272.547 2.87558 271.174 2.66406 271.166L2.7189 270.381C2.93042 270.397 24.0743 271.762 41.2542 271.762V272.547H41.2464Z" fill="#92929D"/>
<path d="M195.888 286.347H82.8359V287.132H195.888V286.347Z" fill="#92929D"/>
<path d="M276.837 271.473H238.317V272.258H276.837V271.473Z" fill="#92929D"/>
<path opacity="0.3" d="M180.44 247.737C179.703 247.714 106.706 245.265 91.9943 245.265C76.5535 245.265 71.1011 240.351 71.1011 239.103C71.1011 234.81 91.6809 224.567 100.925 223.374C111.9 221.946 130.827 222.416 139.554 223.374C157.204 225.313 176.523 240.155 176.719 240.304L176.531 240.555C176.335 240.406 157.087 225.619 139.523 223.688C130.804 222.73 111.924 222.267 100.964 223.688C91.0229 224.975 71.4144 235.21 71.4144 239.111C71.4144 240.147 76.7729 244.959 91.9943 244.959C106.714 244.959 179.719 247.408 180.456 247.431L180.44 247.737Z" fill="#92929D"/>
<path d="M17.5642 261.543C15.0025 261.543 6.60449 261.512 6.60449 261.512V261.198C6.60449 261.198 14.9947 261.229 17.5564 261.229C17.7052 261.229 17.8306 261.041 17.9011 260.884C18.708 259.149 18.2379 251.724 15.4726 248.357H8.59432V248.043H15.6214L15.6684 248.106C18.4025 251.347 19.1232 259.008 18.1909 261.025C18.0264 261.371 17.8227 261.543 17.5642 261.543Z" fill="#92929D"/>
<path d="M17.8061 253.859H7.49658V254.173H17.8061V253.859Z" fill="#92929D"/>
<path d="M18.3704 256.834H7.05811V257.148H18.3704V256.834Z" fill="#92929D"/>
<path d="M261.231 260.123C175.041 248.475 18.5108 248.357 15.5809 248.357C15.5652 248.357 15.5574 248.357 15.5496 248.357H14.9229L15.4791 248.059C15.6514 247.965 33.0585 238.938 71.257 238.938V239.252C37.1008 239.252 19.6232 246.481 16.239 248.043C27.6922 248.059 177.611 248.499 261.278 259.809L261.231 260.123Z" fill="#92929D"/>
<path d="M130.918 246.065L121.572 245.908L121.564 245.767L119.888 222.613L126.116 222.526L130.918 246.065ZM121.862 245.602L130.534 245.744L125.865 222.84L120.225 222.919L121.862 245.602Z" fill="#92929D"/>
<path d="M128.562 286.739H128.248C128.248 269.809 122.921 223.217 122.866 222.746L123.18 222.707C123.227 223.178 128.562 269.793 128.562 286.739Z" fill="#92929D"/>
<path d="M90.3667 226.683L90.0537 226.698L90.9256 244.919L91.2386 244.904L90.3667 226.683Z" fill="#92929D"/>
<path d="M84.9447 254.172H75.6849C74.831 254.172 74.1416 253.474 74.1416 252.626V252.438C74.1416 251.582 74.8388 250.892 75.6849 250.892H84.9447C85.7986 250.892 86.4879 251.59 86.4879 252.438V252.626C86.4879 253.482 85.7986 254.172 84.9447 254.172ZM75.6849 251.198C75.0033 251.198 74.455 251.755 74.455 252.43V252.618C74.455 253.301 75.0112 253.851 75.6849 253.851H84.9447C85.6262 253.851 86.1746 253.293 86.1746 252.618V252.43C86.1746 251.747 85.6184 251.198 84.9447 251.198H75.6849Z" fill="#92929D"/>
<path d="M83.5592 255.421H78.2948C77.4409 255.421 76.7515 254.722 76.7515 253.874V251.049H77.0648V253.874C77.0648 254.557 77.621 255.107 78.2948 255.107H83.5592C84.2407 255.107 84.7891 254.549 84.7891 253.874V251.049H85.1025V253.874C85.1025 254.722 84.4053 255.421 83.5592 255.421Z" fill="#92929D"/>
<path d="M138.505 254.172H129.245C128.392 254.172 127.702 253.474 127.702 252.626V252.438C127.702 251.582 128.399 250.892 129.245 250.892H138.505C139.359 250.892 140.049 251.59 140.049 252.438V252.626C140.049 253.482 139.351 254.172 138.505 254.172ZM129.245 251.198C128.564 251.198 128.016 251.755 128.016 252.43V252.618C128.016 253.301 128.572 253.851 129.245 253.851H138.505C139.187 253.851 139.735 253.293 139.735 252.618V252.43C139.735 251.747 139.179 251.198 138.505 251.198H129.245Z" fill="#92929D"/>
<path d="M137.112 255.422H131.847C130.994 255.422 130.304 254.723 130.304 253.875V251.05H130.618V253.875C130.618 254.558 131.174 255.108 131.847 255.108H137.112C137.793 255.108 138.342 254.55 138.342 253.875V251.05H138.655V253.875C138.663 254.723 137.966 255.422 137.112 255.422Z" fill="#92929D"/>
<path d="M187.723 248.262C187.465 248.262 187.214 248.255 186.956 248.239L186.971 247.925C193.34 248.262 198.761 244.157 198.808 244.118L198.996 244.369C198.949 244.409 193.881 248.262 187.723 248.262Z" fill="#92929D"/>
<path d="M193.765 247.054C193.49 246.842 165.86 225.972 138.355 220.776L138.41 220.47C165.993 225.681 193.671 246.599 193.953 246.811L193.765 247.054Z" fill="#92929D"/>
</g>
<defs>
<clipPath id="clip0_10626_29053">
<rect width="285" height="93.6269" fill="white"/>
</clipPath>
<clipPath id="clip1_10626_29053">
<rect width="129" height="100.599" fill="white" transform="translate(0 105.579)"/>
</clipPath>
<clipPath id="clip2_10626_29053">
<rect width="126.516" height="100.599" fill="white" transform="translate(157 105.579)"/>
</clipPath>
<clipPath id="clip3_10626_29053">
<rect width="285" height="93.9218" fill="white" transform="translate(0 219.078)"/>
</clipPath>
</defs>
</svg>
