<svg width="41" height="28" viewBox="0 0 41 28" fill="none" xmlns="http://www.w3.org/2000/svg">
<path d="M22.8311 3.5V8.16667C22.8311 8.47609 22.954 8.77283 23.1728 8.99162C23.3916 9.21042 23.6883 9.33333 23.9977 9.33333H28.6644M22.8311 3.5H14.6644C14.0455 3.5 13.4521 3.74583 13.0145 4.18342C12.5769 4.621 12.3311 5.21449 12.3311 5.83333V22.1667C12.3311 22.7855 12.5769 23.379 13.0145 23.8166C13.4521 24.2542 14.0455 24.5 14.6644 24.5H26.3311C26.9499 24.5 27.5434 24.2542 27.981 23.8166C28.4186 23.379 28.6644 22.7855 28.6644 22.1667V9.33333M22.8311 3.5L28.6644 9.33333" stroke="#695CEA" stroke-width="2" stroke-linecap="round" stroke-linejoin="round"/>
<path d="M17 10.5H18.1667" stroke="#695CEA" stroke-width="2" stroke-linecap="round" stroke-linejoin="round"/>
<path d="M17 15.168H24" stroke="#695CEA" stroke-width="2" stroke-linecap="round" stroke-linejoin="round"/>
<path d="M17 19.832H24" stroke="#695CEA" stroke-width="2" stroke-linecap="round" stroke-linejoin="round"/>
<rect y="8" width="41" height="15" rx="3" fill="#EA5930"/>
<path d="M6.59608 19.096C7.86808 19.096 8.62408 18.64 9.11608 18.004L8.19208 17.188C7.89208 17.584 7.36408 17.872 6.71608 17.872C5.68408 17.872 4.97608 17.152 4.97608 16.072C4.97608 15.004 5.67208 14.272 6.71608 14.272C7.35208 14.272 7.85608 14.548 8.19208 14.944L9.10408 14.152C8.51608 13.432 7.55608 13.06 6.64408 13.06C4.86808 13.06 3.60808 14.284 3.60808 16.084C3.60808 17.872 4.86808 19.096 6.59608 19.096ZM10.3428 19H11.6868V17.392L12.5268 16.456L14.3028 19H15.8748L13.4868 15.664L15.7428 13.144H14.0988L11.7108 15.904H11.6868V13.144H10.3428V19ZM19.6762 19.096C21.4762 19.096 22.7482 17.86 22.7482 16.084C22.7482 14.284 21.4762 13.06 19.6762 13.06C17.8282 13.06 16.6042 14.356 16.6042 16.084C16.6042 17.8 17.8282 19.096 19.6762 19.096ZM19.6762 17.872C18.6682 17.872 17.9722 17.08 17.9722 16.084C17.9722 15.064 18.6562 14.272 19.6762 14.272C20.6362 14.272 21.3802 15.004 21.3802 16.084C21.3802 17.14 20.6242 17.872 19.6762 17.872ZM24.1475 21.376H25.4915V18.292L25.5155 18.28C25.9475 18.808 26.5595 19.096 27.3515 19.096C28.9835 19.096 30.1955 17.908 30.1955 16.096C30.1955 14.332 28.9835 13.06 27.3635 13.06C26.5955 13.06 25.9475 13.336 25.5155 13.84H25.4915V13.144H24.1475V21.376ZM27.1475 17.872C26.1875 17.872 25.4315 17.164 25.4315 16.108C25.4315 15.064 26.1275 14.272 27.1355 14.272C28.0715 14.272 28.8275 14.98 28.8275 16.108C28.8275 17.14 28.1315 17.872 27.1475 17.872ZM34.3246 19.096C36.1246 19.096 37.3966 17.86 37.3966 16.084C37.3966 14.284 36.1246 13.06 34.3246 13.06C32.4766 13.06 31.2526 14.356 31.2526 16.084C31.2526 17.8 32.4766 19.096 34.3246 19.096ZM34.3246 17.872C33.3166 17.872 32.6206 17.08 32.6206 16.084C32.6206 15.064 33.3046 14.272 34.3246 14.272C35.2846 14.272 36.0286 15.004 36.0286 16.084C36.0286 17.14 35.2726 17.872 34.3246 17.872Z" fill="white"/>
</svg>
