<svg width="60" height="29" viewBox="0 0 60 29" fill="none" xmlns="http://www.w3.org/2000/svg">
<path d="M32.3311 4.22852V8.89518C32.3311 9.2046 32.454 9.50135 32.6728 9.72014C32.8916 9.93893 33.1883 10.0618 33.4977 10.0618H38.1644M32.3311 4.22852H24.1644C23.5455 4.22852 22.9521 4.47435 22.5145 4.91193C22.0769 5.34952 21.8311 5.94301 21.8311 6.56185V22.8952C21.8311 23.514 22.0769 24.1075 22.5145 24.5451C22.9521 24.9827 23.5455 25.2285 24.1644 25.2285H35.8311C36.4499 25.2285 37.0434 24.9827 37.481 24.5451C37.9186 24.1075 38.1644 23.514 38.1644 22.8952V10.0618M32.3311 4.22852L38.1644 10.0618" stroke="#695CEA" stroke-width="2" stroke-linecap="round" stroke-linejoin="round"/>
<path d="M26.5 11.2285H27.6667" stroke="#695CEA" stroke-width="2" stroke-linecap="round" stroke-linejoin="round"/>
<path d="M26.5 15.8965H33.5" stroke="#695CEA" stroke-width="2" stroke-linecap="round" stroke-linejoin="round"/>
<path d="M26.5 20.5605H33.5" stroke="#695CEA" stroke-width="2" stroke-linecap="round" stroke-linejoin="round"/>
<rect y="8.72852" width="60" height="15" rx="3" fill="#EA5930"/>
<path d="M5.62772 19.8245C6.39572 19.8245 6.76772 19.6685 7.11572 19.4765L6.76772 18.3125C6.45572 18.4805 6.13172 18.5645 5.90372 18.5645C5.51972 18.5645 5.33972 18.3485 5.33972 17.7485V15.0125H7.05572V13.8725H5.33972V11.7845L3.99572 11.9285V13.8725H3.27572V15.0125H3.99572V17.8805C3.99572 19.1885 4.61972 19.8245 5.62772 19.8245ZM13.6225 16.7285C13.6225 15.0245 12.5065 13.7885 10.8625 13.7885C9.14653 13.7885 7.92253 15.0005 7.92253 16.8005C7.92253 18.6365 9.18253 19.8245 10.9585 19.8245C12.2185 19.8245 12.9505 19.3565 13.4425 18.7205L12.5065 17.9165C12.2065 18.2885 11.7265 18.6005 11.0305 18.6005C10.1185 18.6005 9.48253 18.0965 9.31453 17.2445H13.5865C13.5985 17.1485 13.6225 16.9445 13.6225 16.7285ZM10.8505 15.0005C11.6185 15.0005 12.0985 15.4805 12.2665 16.1885H9.33853C9.53053 15.4205 10.1065 15.0005 10.8505 15.0005ZM14.6128 19.7285H19.4248V18.5885H16.4488L16.4368 18.5645L19.4728 14.7965V13.8725H14.8168V15.0125H17.6128L17.6248 15.0485L14.6128 18.7805V19.7285ZM26.8148 19.8245C28.6148 19.8245 29.8868 18.5885 29.8868 16.8125C29.8868 15.0125 28.6148 13.7885 26.8148 13.7885C24.9668 13.7885 23.7428 15.0845 23.7428 16.8125C23.7428 18.5285 24.9668 19.8245 26.8148 19.8245ZM26.8148 18.6005C25.8068 18.6005 25.1108 17.8085 25.1108 16.8125C25.1108 15.7925 25.7948 15.0005 26.8148 15.0005C27.7748 15.0005 28.5188 15.7325 28.5188 16.8125C28.5188 17.8685 27.7628 18.6005 26.8148 18.6005ZM31.2862 19.7285H32.6302V16.9565C32.6302 15.9965 33.2062 15.2645 34.2262 15.2645C34.3222 15.2645 34.4782 15.2765 34.6342 15.2885V13.7885H34.4662C33.7582 13.7885 33.1102 14.1365 32.6542 14.7485H32.6302V13.8725H31.2862V19.7285ZM38.223 19.8245C39.039 19.8245 39.663 19.5125 40.083 18.9485L40.107 18.9605V19.7285H41.391V13.8725H40.047V14.5805L40.023 14.5925C39.603 14.0645 38.955 13.7885 38.211 13.7885C36.603 13.7885 35.391 15.0605 35.391 16.8245C35.391 18.6365 36.603 19.8245 38.223 19.8245ZM38.439 18.6005C37.443 18.6005 36.759 17.8685 36.759 16.8365C36.759 15.7085 37.503 15.0005 38.439 15.0005C39.399 15.0005 40.107 15.7925 40.107 16.8365C40.107 17.8925 39.351 18.6005 38.439 18.6005ZM45.5709 19.8245C46.4109 19.8245 47.0469 19.5005 47.4789 18.9365H47.4909V19.7285H48.7749V10.8965H47.4429V14.5925H47.4309C46.9869 14.0645 46.3269 13.7885 45.5589 13.7885C43.9509 13.7885 42.7269 15.0605 42.7269 16.8245C42.7269 18.6365 43.9509 19.8245 45.5709 19.8245ZM45.7749 18.6005C44.7909 18.6005 44.0949 17.8685 44.0949 16.8365C44.0949 15.7085 44.8509 15.0005 45.7869 15.0005C46.7949 15.0005 47.4909 15.7925 47.4909 16.8365C47.4909 17.8925 46.7349 18.6005 45.7749 18.6005ZM53.0003 19.8245C53.8163 19.8245 54.4403 19.5125 54.8603 18.9485L54.8843 18.9605V19.7285H56.1683V13.8725H54.8243V14.5805L54.8003 14.5925C54.3803 14.0645 53.7323 13.7885 52.9883 13.7885C51.3803 13.7885 50.1683 15.0605 50.1683 16.8245C50.1683 18.6365 51.3803 19.8245 53.0003 19.8245ZM53.2163 18.6005C52.2203 18.6005 51.5363 17.8685 51.5363 16.8365C51.5363 15.7085 52.2803 15.0005 53.2163 15.0005C54.1763 15.0005 54.8843 15.7925 54.8843 16.8365C54.8843 17.8925 54.1283 18.6005 53.2163 18.6005Z" fill="white"/>
</svg>
