<svg width="33" height="29" viewBox="0 0 33 29" fill="none" xmlns="http://www.w3.org/2000/svg">
<path d="M18.8311 4.22852V8.89518C18.8311 9.2046 18.954 9.50135 19.1728 9.72014C19.3916 9.93893 19.6883 10.0618 19.9977 10.0618H24.6644M18.8311 4.22852H10.6644C10.0455 4.22852 9.45206 4.47435 9.01447 4.91193C8.57689 5.34952 8.33105 5.94301 8.33105 6.56185V22.8952C8.33105 23.514 8.57689 24.1075 9.01447 24.5451C9.45206 24.9827 10.0455 25.2285 10.6644 25.2285H22.3311C22.9499 25.2285 23.5434 24.9827 23.981 24.5451C24.4186 24.1075 24.6644 23.514 24.6644 22.8952V10.0618M18.8311 4.22852L24.6644 10.0618" stroke="#695CEA" stroke-width="2" stroke-linecap="round" stroke-linejoin="round"/>
<path d="M13 11.2285H14.1667" stroke="#695CEA" stroke-width="2" stroke-linecap="round" stroke-linejoin="round"/>
<path d="M13 15.8965H20" stroke="#695CEA" stroke-width="2" stroke-linecap="round" stroke-linejoin="round"/>
<path d="M13 20.5605H20" stroke="#695CEA" stroke-width="2" stroke-linecap="round" stroke-linejoin="round"/>
<rect y="8.72852" width="33" height="15" rx="3" fill="#EA5930"/>
<path d="M5.80073 19.8245C7.28873 19.8245 7.98473 19.0325 7.98473 18.0485C7.98473 16.8845 7.20473 16.6565 5.95673 16.1645C5.39273 15.9485 5.03273 15.7445 5.03273 15.4565C5.03273 15.0965 5.40473 14.9525 5.66873 14.9525C6.12473 14.9525 6.66473 15.1325 7.13273 15.5765L7.80473 14.5205C7.15673 13.9925 6.48473 13.7885 5.74073 13.7885C4.54073 13.7885 3.67673 14.4845 3.67673 15.4445C3.67673 16.5965 4.50473 17.0285 5.46473 17.3645C6.23273 17.6285 6.61673 17.7725 6.61673 18.0725C6.61673 18.4205 6.31673 18.6485 5.80073 18.6485C5.08073 18.6485 4.57673 18.4205 4.10873 17.9645L3.43673 18.9725C4.04873 19.5125 4.85273 19.8245 5.80073 19.8245ZM12.0434 19.8245C13.8434 19.8245 15.1154 18.5885 15.1154 16.8125C15.1154 15.0125 13.8434 13.7885 12.0434 13.7885C10.1954 13.7885 8.97136 15.0845 8.97136 16.8125C8.97136 18.5285 10.1954 19.8245 12.0434 19.8245ZM12.0434 18.6005C11.0354 18.6005 10.3394 17.8085 10.3394 16.8125C10.3394 15.7925 11.0234 15.0005 12.0434 15.0005C13.0034 15.0005 13.7474 15.7325 13.7474 16.8125C13.7474 17.8685 12.9914 18.6005 12.0434 18.6005ZM19.2387 19.8245C21.0387 19.8245 22.3107 18.5885 22.3107 16.8125C22.3107 15.0125 21.0387 13.7885 19.2387 13.7885C17.3907 13.7885 16.1667 15.0845 16.1667 16.8125C16.1667 18.5285 17.3907 19.8245 19.2387 19.8245ZM19.2387 18.6005C18.2307 18.6005 17.5347 17.8085 17.5347 16.8125C17.5347 15.7925 18.2187 15.0005 19.2387 15.0005C20.1987 15.0005 20.9427 15.7325 20.9427 16.8125C20.9427 17.8685 20.1867 18.6005 19.2387 18.6005ZM23.71 19.7285H25.054V16.7885C25.054 15.6365 25.654 15.0005 26.566 15.0005C27.37 15.0005 27.838 15.3965 27.838 16.6325V19.7285H29.182V16.2845C29.182 14.5205 28.318 13.7885 27.034 13.7885C26.266 13.7885 25.558 14.1005 25.078 14.6765H25.054V13.8725H23.71V19.7285Z" fill="white"/>
</svg>
