<svg width="32" height="32" viewBox="0 0 32 32" fill="none" xmlns="http://www.w3.org/2000/svg">
<path opacity="0.4" d="M20.1669 6.4C19.2249 7.27586 18.3444 8.21559 17.5316 9.2125C16.2537 7.45094 14.6694 5.66547 12.875 4C8.26906 8.27359 5 13.8438 5 17.2C5 23.1648 9.70109 28 15.5 28C21.2989 28 26 23.1648 26 17.2C26 14.703 23.5625 9.55281 20.1669 6.4V6.4ZM20.1144 23.597C18.8013 24.5153 17.2364 25.0054 15.6341 25C13.5748 25 11.6764 24.302 10.2875 23.035C9.5648 22.3766 8.99133 21.5713 8.60562 20.673C8.20391 19.7416 8 18.7188 8 17.6289C8 14.8431 10.0063 12.6419 12.8891 9.18578C14.2953 10.8072 13.7558 10.113 17.6094 15.0259L20.5156 11.71C21.6556 13.5967 21.8178 13.847 22.1487 14.4803C22.9394 15.9857 23.1877 17.7174 22.8519 19.3844C22.5008 21.1117 21.5281 22.6094 20.1144 23.597V23.597Z" fill="#4D88C8"/>
<path d="M19.2542 22.368C18.1925 23.1083 16.9284 23.5035 15.6341 23.5C12.252 23.5 9.5 21.2622 9.5 17.6289C9.5 15.8191 10.6395 14.2244 12.912 11.5C13.2369 11.875 17.5447 17.3753 17.5447 17.3753L20.293 14.2403C20.487 14.5614 20.6637 14.8755 20.8212 15.1778C22.1033 17.6242 21.5623 20.7559 19.2542 22.3694V22.368Z" fill="#4D88C8"/>
</svg>
