<svg width="28" height="28" viewBox="0 0 28 28" fill="none" xmlns="http://www.w3.org/2000/svg">
<path d="M25.206 19.6054C25.1666 19.6448 25.1131 19.667 25.0573 19.667C25.0016 19.667 24.9481 19.6448 24.9086 19.6054C24.8692 19.566 24.8471 19.5125 24.8471 19.4567C24.8471 19.401 24.8692 19.3475 24.9086 19.3081L25.0573 19.4567L24.9086 19.3081C24.9087 19.3081 24.9087 19.3081 24.9087 19.3081C24.9481 19.2686 25.0016 19.2465 25.0573 19.2465C25.1131 19.2465 25.1666 19.2686 25.206 19.3081C25.2454 19.3475 25.2676 19.401 25.2676 19.4567C25.2676 19.5125 25.2454 19.566 25.206 19.6054Z" fill="#5ECC81" stroke="#5ECC81" stroke-width="2"/>
<path d="M22.1086 21.5137V19.667H24.5097L24.607 19.8193C24.4757 20.0128 24.2919 20.2477 24.0489 20.4824C23.6167 20.8998 22.9919 21.3243 22.1086 21.5137Z" fill="#5ECC81" stroke="#5ECC81" stroke-width="2"/>
<path d="M20.1074 19.667V21.5137C19.2241 21.3244 18.5993 20.8998 18.1671 20.4824C17.9241 20.2477 17.7402 20.0128 17.609 19.8193L17.7063 19.667H20.1074Z" fill="#5ECC81" stroke="#5ECC81" stroke-width="2"/>
<path d="M13.057 4.89052C13.3071 4.64048 13.6462 4.5 13.9998 4.5C14.3535 4.5 14.6926 4.64048 14.9426 4.89052C15.1927 5.14057 15.3332 5.47971 15.3332 5.83333C15.3332 6.18696 15.1927 6.52609 14.9426 6.77614C14.6926 7.02619 14.3535 7.16667 13.9998 7.16667C13.6462 7.16667 13.3071 7.02619 13.057 6.77614C12.807 6.52609 12.6665 6.18695 12.6665 5.83333C12.6665 5.47971 12.807 5.14057 13.057 4.89052Z" fill="#5ECC81" stroke="#5ECC81" stroke-width="2"/>
<path d="M14 6.03711C17.9487 6.03711 17.9487 9.19055 22.6872 9.19055L14 6.03711Z" fill="#5ECC81"/>
<path d="M14 6.03711C17.9487 6.03711 17.9487 9.19055 22.6872 9.19055" stroke="#5ECC81" stroke-width="2" stroke-miterlimit="10" stroke-linecap="round" stroke-linejoin="round"/>
<mask id="path-7-inside-1_8528_81601" fill="white">
<path d="M19.0771 17.0876L21.1091 11.5009L23.1411 17.0876H24.8209L21.8507 8.92004C21.7378 8.60809 21.4416 8.40039 21.1091 8.40039C20.7766 8.40039 20.4805 8.60809 20.3676 8.92004L17.3973 17.0876H19.0771ZM2.94502 18.6671C2.73556 18.6671 2.53469 18.7503 2.38658 18.8984C2.23848 19.0465 2.15527 19.2473 2.15527 19.4568C2.15527 19.6663 2.23848 19.8671 2.38658 20.0152C2.53469 20.1633 2.73556 20.2465 2.94502 20.2465C3.15447 20.2465 3.35534 20.1633 3.50345 20.0152C3.65156 19.8671 3.73476 19.6663 3.73476 19.4568C3.73476 19.2473 3.65156 19.0465 3.50345 18.8984C3.35534 18.7503 3.15447 18.6671 2.94502 18.6671Z"/>
</mask>
<path d="M19.0771 17.0876L21.1091 11.5009L23.1411 17.0876H24.8209L21.8507 8.92004C21.7378 8.60809 21.4416 8.40039 21.1091 8.40039C20.7766 8.40039 20.4805 8.60809 20.3676 8.92004L17.3973 17.0876H19.0771ZM2.94502 18.6671C2.73556 18.6671 2.53469 18.7503 2.38658 18.8984C2.23848 19.0465 2.15527 19.2473 2.15527 19.4568C2.15527 19.6663 2.23848 19.8671 2.38658 20.0152C2.53469 20.1633 2.73556 20.2465 2.94502 20.2465C3.15447 20.2465 3.35534 20.1633 3.50345 20.0152C3.65156 19.8671 3.73476 19.6663 3.73476 19.4568C3.73476 19.2473 3.65156 19.0465 3.50345 18.8984C3.35534 18.7503 3.15447 18.6671 2.94502 18.6671Z" fill="#5ECC81"/>
<path d="M19.0771 17.0876V19.0876H20.4778L20.9566 17.7712L19.0771 17.0876ZM21.1091 11.5009L22.9887 10.8173L21.1091 5.64985L19.2296 10.8173L21.1091 11.5009ZM23.1411 17.0876L21.2616 17.7712L21.7404 19.0876H23.1411V17.0876ZM24.8209 17.0876V19.0876H27.6764L26.7005 16.404L24.8209 17.0876ZM21.8507 8.92004L19.9701 9.60085L19.9711 9.60357L21.8507 8.92004ZM20.3676 8.92004L22.2471 9.60357L22.2481 9.60085L20.3676 8.92004ZM17.3973 17.0876L15.5178 16.404L14.5419 19.0876H17.3973V17.0876ZM2.15527 19.4568H0.155273H2.15527ZM3.73476 19.4568H5.73476H3.73476ZM20.9566 17.7712L22.9887 12.1846L19.2296 10.8173L17.1976 16.4039L20.9566 17.7712ZM19.2296 12.1846L21.2616 17.7712L25.0207 16.4039L22.9887 10.8173L19.2296 12.1846ZM23.1411 19.0876H24.8209V15.0876H23.1411V19.0876ZM26.7005 16.404L23.7303 8.23651L19.9711 9.60357L22.9413 17.7711L26.7005 16.404ZM23.7312 8.23923C23.3312 7.13434 22.2824 6.40039 21.1091 6.40039V10.4004C20.6008 10.4004 20.1443 10.0819 19.9701 9.60085L23.7312 8.23923ZM21.1091 6.40039C19.9358 6.40039 18.887 7.13434 18.487 8.23923L22.2481 9.60085C22.074 10.0819 21.6174 10.4004 21.1091 10.4004V6.40039ZM18.488 8.23651L15.5178 16.404L19.2769 17.7711L22.2471 9.60357L18.488 8.23651ZM17.3973 19.0876H19.0771V15.0876H17.3973V19.0876ZM2.94502 16.6671C2.20514 16.6671 1.49555 16.961 0.972371 17.4842L3.8008 20.3126C3.57383 20.5396 3.26599 20.6671 2.94502 20.6671V16.6671ZM0.972371 17.4842C0.449191 18.0073 0.155273 18.7169 0.155273 19.4568H4.15527C4.15527 19.7778 4.02777 20.0856 3.8008 20.3126L0.972371 17.4842ZM0.155273 19.4568C0.155273 20.1967 0.449191 20.9063 0.972371 21.4294L3.8008 18.601C4.02777 18.828 4.15527 19.1358 4.15527 19.4568H0.155273ZM0.972371 21.4294C1.49555 21.9526 2.20514 22.2465 2.94502 22.2465V18.2465C3.26599 18.2465 3.57383 18.3741 3.8008 18.601L0.972371 21.4294ZM2.94502 22.2465C3.6849 22.2465 4.39448 21.9526 4.91766 21.4294L2.08924 18.601C2.31621 18.3741 2.62404 18.2465 2.94502 18.2465V22.2465ZM4.91766 21.4294C5.44084 20.9063 5.73476 20.1967 5.73476 19.4568H1.73476C1.73476 19.1358 1.86227 18.828 2.08924 18.601L4.91766 21.4294ZM5.73476 19.4568C5.73476 18.7169 5.44084 18.0073 4.91766 17.4842L2.08924 20.3126C1.86227 20.0856 1.73476 19.7778 1.73476 19.4568H5.73476ZM4.91766 17.4842C4.39448 16.961 3.6849 16.6671 2.94502 16.6671V20.6671C2.62404 20.6671 2.31621 20.5396 2.08924 20.3126L4.91766 17.4842Z" fill="#5ECC81" mask="url(#path-7-inside-1_8528_81601)"/>
<path d="M5.89353 19.667V21.5137C5.01022 21.3243 4.38542 20.8998 3.95322 20.4824C3.71022 20.2477 3.52637 20.0128 3.39511 19.8193L3.49246 19.667H5.89353ZM10.9909 19.6054C10.9515 19.6448 10.898 19.667 10.8422 19.667C10.7865 19.667 10.733 19.6448 10.6936 19.6054C10.6541 19.566 10.632 19.5125 10.632 19.4567C10.632 19.401 10.6541 19.3475 10.6936 19.3081C10.733 19.2686 10.7865 19.2465 10.8422 19.2465C10.898 19.2465 10.9515 19.2686 10.9909 19.3081C11.0304 19.3475 11.0525 19.401 11.0525 19.4567C11.0525 19.5125 11.0304 19.566 10.9909 19.6054Z" fill="#5ECC81" stroke="#5ECC81" stroke-width="2"/>
<path d="M7.89062 21.5137V19.667H10.2917L10.389 19.8193C10.2578 20.0128 10.0739 20.2477 9.83094 20.4824C9.39873 20.8998 8.77394 21.3243 7.89062 21.5137Z" fill="#5ECC81" stroke="#5ECC81" stroke-width="2"/>
<path d="M14.0007 6.03711C10.0519 6.03711 10.0519 9.19055 5.31348 9.19055L14.0007 6.03711Z" fill="#5ECC81"/>
<path d="M14.0007 6.03711C10.0519 6.03711 10.0519 9.19055 5.31348 9.19055" stroke="#5ECC81" stroke-width="2" stroke-miterlimit="10" stroke-linecap="round" stroke-linejoin="round"/>
<mask id="path-13-inside-2_8528_81601" fill="white">
<path d="M8.92447 17.0876L6.89246 11.5009L4.86045 17.0876H3.18066L6.15089 8.92004C6.26382 8.60809 6.55998 8.40039 6.89246 8.40039C7.22494 8.40039 7.52109 8.60809 7.63403 8.92004L10.6043 17.0876H8.92447Z"/>
</mask>
<path d="M8.92447 17.0876L6.89246 11.5009L4.86045 17.0876H3.18066L6.15089 8.92004C6.26382 8.60809 6.55998 8.40039 6.89246 8.40039C7.22494 8.40039 7.52109 8.60809 7.63403 8.92004L10.6043 17.0876H8.92447Z" fill="#5ECC81"/>
<path d="M8.92447 17.0876L7.04494 17.7712L7.52373 19.0876H8.92447V17.0876ZM6.89246 11.5009L8.77199 10.8173L6.89246 5.64985L5.01293 10.8173L6.89246 11.5009ZM4.86045 17.0876V19.0876H6.26118L6.73998 17.7712L4.86045 17.0876ZM3.18066 17.0876L1.30109 16.404L0.325194 19.0876H3.18066V17.0876ZM6.15089 8.92004L8.03046 9.60357L8.03145 9.60085L6.15089 8.92004ZM7.63403 8.92004L5.75347 9.60085L5.75446 9.60357L7.63403 8.92004ZM10.6043 17.0876V19.0876H13.4597L12.4838 16.404L10.6043 17.0876ZM10.804 16.4039L8.77199 10.8173L5.01293 12.1846L7.04494 17.7712L10.804 16.4039ZM5.01293 10.8173L2.98092 16.4039L6.73998 17.7712L8.77199 12.1846L5.01293 10.8173ZM4.86045 15.0876H3.18066V19.0876H4.86045V15.0876ZM5.06024 17.7711L8.03046 9.60357L4.27132 8.23651L1.30109 16.404L5.06024 17.7711ZM8.03145 9.60085C7.85731 10.0819 7.40078 10.4004 6.89246 10.4004V6.40039C5.71918 6.40039 4.67033 7.13433 4.27033 8.23923L8.03145 9.60085ZM6.89246 10.4004C6.38414 10.4004 5.9276 10.0819 5.75347 9.60085L9.51459 8.23923C9.11458 7.13433 8.06574 6.40039 6.89246 6.40039V10.4004ZM5.75446 9.60357L8.72468 17.7711L12.4838 16.404L9.5136 8.23651L5.75446 9.60357ZM10.6043 15.0876H8.92447V19.0876H10.6043V15.0876Z" fill="#5ECC81" mask="url(#path-13-inside-2_8528_81601)"/>
</svg>
