<svg width="32" height="32" viewBox="0 0 32 32" fill="none" xmlns="http://www.w3.org/2000/svg">
<path opacity="0.4" d="M24.4016 23.3998V24.5998C24.4016 24.7589 24.3384 24.9115 24.2258 25.0241C24.1133 25.1366 23.9607 25.1998 23.8016 25.1998H8.20156C8.04243 25.1998 7.88982 25.1366 7.7773 25.0241C7.66478 24.9115 7.60156 24.7589 7.60156 24.5998V23.3998C7.60156 23.2407 7.66478 23.0881 7.7773 22.9755C7.88982 22.863 8.04243 22.7998 8.20156 22.7998H23.8016C23.9607 22.7998 24.1133 22.863 24.2258 22.9755C24.3384 23.0881 24.4016 23.2407 24.4016 23.3998Z" fill="#FFC137"/>
<path d="M27.9997 12.5998C27.9997 13.0771 27.8101 13.535 27.4725 13.8725C27.135 14.2101 26.6771 14.3998 26.1997 14.3998C26.1029 14.3974 26.0063 14.3874 25.911 14.3698L23.1997 21.5998H8.79973L6.08848 14.3698C5.99317 14.3874 5.89662 14.3974 5.79973 14.3998C5.40737 14.4018 5.02492 14.2766 4.70977 14.0429C4.39462 13.8092 4.16377 13.4795 4.05187 13.1035C3.93998 12.7274 3.95307 12.3252 4.08918 11.9572C4.22529 11.5892 4.47708 11.2752 4.80676 11.0625C5.13644 10.8498 5.52622 10.7497 5.91762 10.7773C6.30901 10.8049 6.68089 10.9587 6.97746 11.2156C7.27403 11.4725 7.47927 11.8186 7.5624 12.2021C7.64552 12.5855 7.60204 12.9856 7.43848 13.3423L10.1497 14.9698C10.2867 15.0516 10.4386 15.1053 10.5966 15.1277C10.7546 15.1501 10.9155 15.1408 11.0698 15.1003C11.2242 15.0598 11.3689 14.9889 11.4955 14.8918C11.6221 14.7947 11.7281 14.6733 11.8072 14.5348L14.8635 9.18725C14.5752 8.95262 14.3666 8.6345 14.2664 8.27657C14.1662 7.91865 14.1792 7.53847 14.3037 7.18825C14.4282 6.83803 14.6581 6.53494 14.9618 6.32061C15.2655 6.10628 15.628 5.99121 15.9997 5.99121C16.3714 5.99121 16.734 6.10628 17.0377 6.32061C17.3414 6.53494 17.5712 6.83803 17.6957 7.18825C17.8203 7.53847 17.8333 7.91865 17.7331 8.27657C17.6328 8.6345 17.4243 8.95262 17.136 9.18725L20.1922 14.5348C20.2714 14.6733 20.3774 14.7947 20.504 14.8918C20.6306 14.9889 20.7753 15.0598 20.9296 15.1003C21.084 15.1408 21.2449 15.1501 21.4028 15.1277C21.5608 15.1053 21.7128 15.0516 21.8497 14.9698L24.5647 13.3423C24.4564 13.1097 24.4 12.8563 24.3997 12.5998C24.3997 12.1224 24.5894 11.6645 24.927 11.327C25.2645 10.9894 25.7224 10.7998 26.1997 10.7998C26.6771 10.7998 27.135 10.9894 27.4725 11.327C27.8101 11.6645 27.9997 12.1224 27.9997 12.5998Z" fill="#FFC137"/>
</svg>
