<svg width="375" height="311" viewBox="0 0 375 311" fill="none" xmlns="http://www.w3.org/2000/svg">
<rect width="375" height="311" fill="#F1F1F5"/>
<path d="M106.65 152.746H100.408C99.7979 152.746 99.4587 153.153 99.3908 153.764L99.1873 156.885C96.6771 154.035 93.285 152 89.0787 152C79.7843 152 73 159.734 73 169.436C73 179.137 79.7843 186.871 89.0787 186.871C93.4207 186.871 96.745 184.904 99.1195 182.122L99.3908 184.972C99.4587 185.582 99.7979 185.989 100.408 185.989H106.65C107.261 185.989 107.668 185.582 107.668 184.972V153.764C107.668 153.153 107.261 152.746 106.65 152.746ZM90.1642 178.73C85.2117 178.73 81.616 174.727 81.616 169.368C81.616 164.076 85.2117 160.141 90.1642 160.141C95.0489 160.141 98.6446 164.347 98.6446 169.368C98.6446 174.388 95.0489 178.73 90.1642 178.73Z" fill="#E2E2EA"/>
<path d="M143.891 152.746H136.971C136.361 152.746 135.953 153.153 135.953 153.764V172.149C135.953 174.524 133.579 178.594 128.762 178.594C125.574 178.594 122.385 176.695 122.385 171.199V153.764C122.385 153.153 121.978 152.746 121.367 152.746H114.447C113.837 152.746 113.43 153.153 113.43 153.764V172.828C113.43 181.715 118.586 186.871 126.048 186.871C130.255 186.871 133.647 184.497 135.953 181.24L136.225 184.971C136.293 185.582 136.632 185.989 137.243 185.989H143.891C144.502 185.989 144.909 185.582 144.909 184.971V153.764C144.909 153.153 144.502 152.746 143.891 152.746Z" fill="#E2E2EA"/>
<path d="M194.384 186.871C203.95 186.871 211.616 179.205 211.616 169.436C211.616 159.666 203.95 152 194.384 152C184.819 152 177.152 159.666 177.152 169.436C177.152 179.205 184.819 186.871 194.384 186.871ZM194.384 178.594C189.568 178.594 185.768 174.795 185.768 169.436C185.768 164.076 189.568 160.277 194.384 160.277C199.133 160.277 203 164.076 203 169.436C203 174.795 199.133 178.594 194.384 178.594Z" fill="#E2E2EA"/>
<path d="M174.42 152.746H167.019H150.662C150.052 152.746 149.645 153.153 149.645 153.764V159.055C149.645 159.666 150.052 160.073 150.662 160.073H158.063V184.971C158.063 185.582 158.47 185.989 159.081 185.989H166.001C166.612 185.989 167.019 185.582 167.019 184.971V160.073H174.42C175.03 160.073 175.438 159.666 175.438 159.055V153.764C175.438 153.153 175.03 152.746 174.42 152.746Z" fill="#E2E2EA"/>
<circle cx="221.778" cy="181.656" r="5.23928" fill="#E2E2EA"/>
<path d="M265.508 152.746H258.588C257.978 152.746 257.571 153.153 257.571 153.764V172.149C257.571 174.524 255.196 178.594 250.379 178.594C247.191 178.594 244.002 176.695 244.002 171.199V153.764C244.002 153.153 243.595 152.746 242.984 152.746H236.065C235.454 152.746 235.047 153.153 235.047 153.764V172.828C235.047 181.715 240.203 186.871 247.666 186.871C251.872 186.871 255.264 184.496 257.571 181.24L257.842 184.971C257.91 185.582 258.249 185.989 258.86 185.989H265.508C266.119 185.989 266.526 185.582 266.526 184.971V153.764C266.526 153.153 266.119 152.746 265.508 152.746Z" fill="#E2E2EA"/>
<path d="M299.35 153.764C299.35 153.153 298.943 152.746 298.332 152.746H272.281C271.67 152.746 271.263 153.153 271.263 153.764V159.055C271.263 159.666 271.67 160.073 272.281 160.073H288.631L271.738 178.119C271.399 178.458 271.263 178.933 271.263 179.408V184.971C271.263 185.582 271.67 185.989 272.281 185.989H298.332C298.943 185.989 299.35 185.582 299.35 184.971V179.68C299.35 179.069 298.943 178.662 298.332 178.662H282.05L298.875 160.616C299.214 160.277 299.35 159.802 299.35 159.327V153.764Z" fill="#E2E2EA"/>
</svg>
