<svg width="24" height="24" viewBox="0 0 24 24" fill="none" xmlns="http://www.w3.org/2000/svg">
<g clip-path="url(#clip0_8528_91824)">
<path d="M9.00073 7.00098H6.00073C5.4703 7.00098 4.96159 7.21169 4.58652 7.58676C4.21145 7.96184 4.00073 8.47054 4.00073 9.00098V18.001C4.00073 18.5314 4.21145 19.0401 4.58652 19.4152C4.96159 19.7903 5.4703 20.001 6.00073 20.001H15.0007C15.5312 20.001 16.0399 19.7903 16.4149 19.4152C16.79 19.0401 17.0007 18.5314 17.0007 18.001V15.001" stroke="white" stroke-width="2" stroke-linecap="round" stroke-linejoin="round"/>
<path d="M9 14.9993H12L20.5 6.49925C20.8978 6.10143 21.1213 5.56186 21.1213 4.99925C21.1213 4.43664 20.8978 3.89707 20.5 3.49925C20.1022 3.10143 19.5626 2.87793 19 2.87793C18.4374 2.87793 17.8978 3.10143 17.5 3.49925L9 11.9993V14.9993Z" stroke="white" stroke-width="2" stroke-linecap="round" stroke-linejoin="round"/>
<path d="M16.0007 4.99902L19.0007 7.99902" stroke="white" stroke-width="2" stroke-linecap="round" stroke-linejoin="round"/>
</g>
<defs>
<clipPath id="clip0_8528_91824">
<rect width="24" height="24" fill="white"/>
</clipPath>
</defs>
</svg>
