<svg width="16" height="16" viewBox="0 0 16 16" fill="none" xmlns="http://www.w3.org/2000/svg">
<path d="M8.0013 9.33268C8.73768 9.33268 9.33464 8.73573 9.33464 7.99935C9.33464 7.26297 8.73768 6.66602 8.0013 6.66602C7.26492 6.66602 6.66797 7.26297 6.66797 7.99935C6.66797 8.73573 7.26492 9.33268 8.0013 9.33268Z" stroke="#B5B5BE" stroke-width="1.2" stroke-linecap="round" stroke-linejoin="round"/>
<path d="M1.33203 8L2.33203 9.33333C3.01995 10.1708 3.88494 10.8454 4.86477 11.3085C5.8446 11.7717 6.91492 12.0119 7.9987 12.0119C9.08248 12.0119 10.1528 11.7717 11.1326 11.3085C12.1125 10.8454 12.9774 10.1708 13.6654 9.33333L14.6654 8" stroke="#B5B5BE" stroke-width="1.2" stroke-linecap="round" stroke-linejoin="round"/>
<path d="M1.33203 8.0002L2.33203 6.66687C3.01995 5.8294 3.88494 5.15482 4.86477 4.69166C5.8446 4.2285 6.91492 3.98828 7.9987 3.98828C9.08248 3.98828 10.1528 4.2285 11.1326 4.69166C12.1125 5.15482 12.9774 5.8294 13.6654 6.66687L14.6654 8.0002" stroke="#B5B5BE" stroke-width="1.2" stroke-linecap="round" stroke-linejoin="round"/>
</svg>
