<svg width="16" height="16" viewBox="0 0 16 16" fill="none" xmlns="http://www.w3.org/2000/svg">
<g clip-path="url(#clip0_1015_36427)">
<path d="M8.00033 9.33268C8.73671 9.33268 9.33366 8.73573 9.33366 7.99935C9.33366 7.26297 8.73671 6.66602 8.00033 6.66602C7.26395 6.66602 6.66699 7.26297 6.66699 7.99935C6.66699 8.73573 7.26395 9.33268 8.00033 9.33268Z" stroke="#B5B5BE" stroke-width="1.2" stroke-linecap="round" stroke-linejoin="round"/>
<path d="M1.33301 8L2.33301 9.33333C3.02093 10.1708 3.88592 10.8454 4.86575 11.3085C5.84558 11.7717 6.91589 12.0119 7.99967 12.0119C9.08346 12.0119 10.1538 11.7717 11.1336 11.3085C12.1134 10.8454 12.9784 10.1708 13.6663 9.33333L14.6663 8" stroke="#B5B5BE" stroke-width="1.2" stroke-linecap="round" stroke-linejoin="round"/>
<path d="M1.33301 8.0002L2.33301 6.66687C3.02093 5.8294 3.88592 5.15482 4.86575 4.69166C5.84558 4.2285 6.91589 3.98828 7.99967 3.98828C9.08346 3.98828 10.1538 4.2285 11.1336 4.69166C12.1134 5.15482 12.9784 5.8294 13.6663 6.66687L14.6663 8.0002" stroke="#B5B5BE" stroke-width="1.2" stroke-linecap="round" stroke-linejoin="round"/>
</g>
<defs>
<clipPath id="clip0_1015_36427">
<rect width="16" height="16" fill="white"/>
</clipPath>
</defs>
</svg>
