<svg width="28" height="28" viewBox="0 0 28 28" fill="none" xmlns="http://www.w3.org/2000/svg">
<path d="M16.332 3.5L16.9755 2.85653C16.8048 2.68587 16.5734 2.59 16.332 2.59V3.5ZM22.1654 9.33333H23.0754C23.0754 9.09199 22.9795 8.86052 22.8088 8.68987L22.1654 9.33333ZM5.83203 22.1667H4.92203H5.83203ZM8.16536 3.5V2.59V3.5ZM15.422 3.5V8.16667H17.242V3.5H15.422ZM15.422 8.16667C15.422 8.71743 15.6408 9.24564 16.0303 9.63509L17.3172 8.34816C17.2691 8.30002 17.242 8.23474 17.242 8.16667H15.422ZM16.0303 9.63509C16.4197 10.0245 16.9479 10.2433 17.4987 10.2433V8.42333C17.4306 8.42333 17.3653 8.39629 17.3172 8.34816L16.0303 9.63509ZM17.4987 10.2433H22.1654V8.42333H17.4987V10.2433ZM19.832 23.59H8.16536V25.41H19.832V23.59ZM8.16536 23.59C7.78787 23.59 7.42584 23.44 7.15892 23.1731L5.87198 24.46C6.48022 25.0683 7.30518 25.41 8.16536 25.41V23.59ZM7.15892 23.1731C6.89199 22.9062 6.74203 22.5442 6.74203 22.1667H4.92203C4.92203 23.0269 5.26374 23.8518 5.87198 24.46L7.15892 23.1731ZM6.74203 22.1667V5.83333H4.92203V22.1667H6.74203ZM6.74203 5.83333C6.74203 5.45584 6.89199 5.09381 7.15892 4.82688L5.87198 3.53995C5.26374 4.14819 4.92203 4.97315 4.92203 5.83333H6.74203ZM7.15892 4.82688C7.42584 4.55996 7.78787 4.41 8.16536 4.41V2.59C7.30518 2.59 6.48022 2.93171 5.87198 3.53995L7.15892 4.82688ZM8.16536 4.41H16.332V2.59H8.16536V4.41ZM15.6886 4.14347L21.5219 9.9768L22.8088 8.68987L16.9755 2.85653L15.6886 4.14347ZM21.2554 9.33333V22.1667H23.0754V9.33333H21.2554ZM21.2554 22.1667C21.2554 22.5442 21.1054 22.9062 20.8385 23.1731L22.1254 24.46C22.7337 23.8518 23.0754 23.0269 23.0754 22.1667H21.2554ZM20.8385 23.1731C20.5716 23.44 20.2095 23.59 19.832 23.59V25.41C20.6922 25.41 21.5172 25.0683 22.1254 24.46L20.8385 23.1731Z" fill="#696974"/>
<path d="M10.5 10.5H11.6667" stroke="#696974" stroke-width="1.82" stroke-linecap="round" stroke-linejoin="round"/>
<path d="M10.5 15.168H17.5" stroke="#696974" stroke-width="1.82" stroke-linecap="round" stroke-linejoin="round"/>
<path d="M10.5 19.832H17.5" stroke="#696974" stroke-width="1.82" stroke-linecap="round" stroke-linejoin="round"/>
</svg>
