<svg width="24" height="24" viewBox="0 0 24 24" fill="none" xmlns="http://www.w3.org/2000/svg">
<path d="M17.2821 7.33203C16.9422 7.33203 16.6667 7.05657 16.6667 6.7168V2H7.84615C6.82818 2 6 2.82798 6 3.8457V10.7236C6.20275 10.7052 6.40792 10.6953 6.61538 10.6953C8.71294 10.6953 10.5906 11.6541 11.8333 13.1562H18.5128C18.8527 13.1562 19.1282 13.4317 19.1282 13.7715C19.1282 14.1113 18.8527 14.3867 18.5128 14.3867H12.644C13.0287 15.1371 13.2767 15.9685 13.3563 16.8477H18.5128C18.8527 16.8477 19.1282 17.1231 19.1282 17.4629C19.1282 17.8027 18.8527 18.0781 18.5128 18.0781H13.3563C13.1723 20.11 12.0864 21.8854 10.5029 23H20.1538C21.1718 23 22 22.172 22 21.1543V7.33203H17.2821ZM18.5128 10.6953H9.48718C9.14732 10.6953 8.87179 10.4199 8.87179 10.0801C8.87179 9.7403 9.14732 9.46484 9.48718 9.46484H18.5128C18.8527 9.46484 19.1282 9.7403 19.1282 10.0801C19.1282 10.4199 18.8527 10.6953 18.5128 10.6953Z" fill="#55BB00"/>
<path d="M18 2V6H22L18 2Z" fill="#55BB00"/>
<path opacity="0.4" d="M6.5 12C3.4673 12 1 14.4673 1 17.5C1 20.5327 3.4673 23 6.5 23C9.5327 23 12 20.5327 12 17.5C12 14.4673 9.5327 12 6.5 12ZM8.76543 18.9012C9.00409 19.1399 9.00409 19.5268 8.76543 19.7655C8.64614 19.8848 8.48974 19.9444 8.33333 19.9444C8.17693 19.9444 8.02053 19.8848 7.90124 19.7654L6.5 18.3642L5.09876 19.7655C4.97947 19.8848 4.82307 19.9444 4.66667 19.9444C4.51026 19.9444 4.35386 19.8848 4.23457 19.7654C3.99591 19.5268 3.99591 19.1399 4.23457 18.9012L5.63577 17.5L4.23453 16.0988C3.99587 15.8601 3.99587 15.4732 4.23453 15.2345C4.47315 14.9959 4.8601 14.9959 5.09876 15.2345L6.5 16.6358L7.90124 15.2345C8.13986 14.9959 8.52681 14.9959 8.76547 15.2345C9.00413 15.4731 9.00413 15.8601 8.76547 16.0988L7.36423 17.5L8.76543 18.9012Z" fill="#55BB00"/>
</svg>
