<svg width="32" height="32" viewBox="0 0 32 32" fill="none" xmlns="http://www.w3.org/2000/svg">
<path d="M28.0496 18.1934C27.6506 17.9519 27.1312 18.0798 26.8899 18.4789C26.6485 18.878 26.7763 19.3973 27.1753 19.6386C28.1744 20.2429 28.7246 20.9008 28.7246 21.491C28.7246 22.1155 28.1171 22.807 27.0142 23.4382C25.7372 24.1689 23.9145 24.7582 21.743 25.1424C21.2836 25.2237 20.9772 25.6619 21.0585 26.1212C21.1309 26.5307 21.4872 26.8187 21.8891 26.8187C21.9379 26.8187 21.9875 26.8145 22.0373 26.8057C27.2823 25.8776 30.4137 23.8908 30.4137 21.491C30.4137 19.9474 29.1281 18.8457 28.0496 18.1934Z" fill="white"/>
<path d="M16.5069 25.7903L14.2547 24.1012C13.8816 23.8213 13.3522 23.897 13.0723 24.2701C12.7925 24.6432 12.8681 25.1726 13.2413 25.4525L13.3369 25.5242C10.8302 25.3382 8.53326 24.8895 6.69602 24.2159C4.55424 23.4307 3.27553 22.412 3.27553 21.491C3.27553 20.9008 3.82573 20.2429 4.82489 19.6386C5.22397 19.3971 5.35178 18.8779 5.11041 18.4788C4.86892 18.0797 4.34986 17.9519 3.95061 18.1933C2.87212 18.8458 1.58643 19.9474 1.58643 21.491C1.58643 22.6462 2.32473 23.5287 2.94413 24.0657C3.70524 24.7254 4.77191 25.3095 6.11458 25.8018C8.18154 26.5596 10.7685 27.0522 13.5698 27.233L13.2413 27.4794C12.8681 27.7593 12.7925 28.2886 13.0723 28.6618C13.2383 28.883 13.4919 28.9996 13.7487 28.9996C13.925 28.9996 14.1028 28.9446 14.2547 28.8307L16.5069 27.1416C16.7195 26.9821 16.8447 26.7317 16.8447 26.4659C16.8447 26.2001 16.7195 25.9498 16.5069 25.7903Z" fill="white"/>
<path d="M8.91404 16.7654H7.50324C7.03683 16.7654 6.65869 17.1436 6.65869 17.61C6.65869 18.0764 7.03683 18.4545 7.50324 18.4545H8.91404C10.5186 18.4545 11.824 17.1491 11.824 15.5446C11.824 14.7379 11.494 14.0068 10.962 13.4792C11.494 12.9516 11.824 12.2206 11.824 11.4138C11.824 9.8093 10.5186 8.50391 8.91404 8.50391H7.50324C7.03683 8.50391 6.65869 8.88204 6.65869 9.34846C6.65869 9.81488 7.03683 10.193 7.50324 10.193H8.91404C9.58721 10.193 10.1349 10.7407 10.1349 11.4138C10.1349 12.087 9.58721 12.6347 8.91404 12.6347H7.50324C7.03683 12.6347 6.65869 13.0128 6.65869 13.4792C6.65869 13.9456 7.03683 14.3238 7.50324 14.3238H8.91404C9.58721 14.3238 10.1349 14.8714 10.1349 15.5446C10.1349 16.2178 9.58721 16.7654 8.91404 16.7654Z" fill="white"/>
<path d="M16.3103 12.6347C15.8746 12.6347 15.4609 12.7309 15.0895 12.9033V11.4138C15.0895 10.7407 15.6372 10.193 16.3103 10.193H18.1138C18.5802 10.193 18.9583 9.81488 18.9583 9.34846C18.9583 8.88204 18.5802 8.50391 18.1138 8.50391H16.3103C14.7058 8.50391 13.4004 9.8093 13.4004 11.4138V15.5446C13.4004 17.1491 14.7058 18.4545 16.3103 18.4545C17.9148 18.4545 19.2202 17.1491 19.2202 15.5446C19.2202 13.9401 17.9148 12.6347 16.3103 12.6347ZM16.3103 16.7654C15.6372 16.7654 15.0895 16.2178 15.0895 15.5446C15.0895 14.8714 15.6372 14.3238 16.3103 14.3238C16.9834 14.3238 17.5311 14.8714 17.5311 15.5446C17.5311 16.2178 16.9834 16.7654 16.3103 16.7654Z" fill="white"/>
<path d="M23.3864 18.4536C24.8104 18.4536 25.9689 17.2951 25.9689 15.871V11.0856C25.9689 9.66154 24.8104 8.50293 23.3864 8.50293C21.9623 8.50293 20.8037 9.66149 20.8037 11.0856V15.871C20.8037 17.2951 21.9623 18.4536 23.3864 18.4536ZM22.4928 11.0856C22.4928 10.5929 22.8936 10.192 23.3864 10.192C23.879 10.192 24.2798 10.5929 24.2798 11.0856V15.871C24.2798 16.3636 23.879 16.7645 23.3864 16.7645C22.8936 16.7645 22.4928 16.3637 22.4928 15.871V11.0856Z" fill="white"/>
<path d="M27.504 8.8197C29.1085 8.8197 30.4138 7.51436 30.4138 5.90988C30.4138 4.30534 29.1085 3 27.504 3C25.8995 3 24.5942 4.30534 24.5942 5.90982C24.5942 7.5143 25.8995 8.8197 27.504 8.8197ZM27.504 4.68911C28.1771 4.68911 28.7247 5.23677 28.7247 5.90988C28.7247 6.58299 28.1771 7.13059 27.504 7.13059C26.8309 7.13059 26.2833 6.58299 26.2833 5.90988C26.2833 5.23677 26.8309 4.68911 27.504 4.68911Z" fill="white"/>
</svg>
