<svg width="20" height="20" viewBox="0 0 20 20" fill="none" xmlns="http://www.w3.org/2000/svg">
<g clip-path="url(#clip0_1985_51707)">
<path d="M13.8861 9.22168H6.10829C5.24918 9.22168 4.55273 9.91813 4.55273 10.7772V15.4439C4.55273 16.303 5.24918 16.9995 6.10829 16.9995H13.8861C14.7452 16.9995 15.4416 16.303 15.4416 15.4439V10.7772C15.4416 9.91813 14.7452 9.22168 13.8861 9.22168Z" stroke="#696974" stroke-width="1.86667" stroke-linecap="round" stroke-linejoin="round"/>
<path d="M9.99848 13.8886C10.428 13.8886 10.7763 13.5403 10.7763 13.1108C10.7763 12.6812 10.428 12.333 9.99848 12.333C9.56893 12.333 9.2207 12.6812 9.2207 13.1108C9.2207 13.5403 9.56893 13.8886 9.99848 13.8886Z" stroke="#696974" stroke-width="1.86667" stroke-linecap="round" stroke-linejoin="round"/>
<path d="M6.88672 9.22222V6.11111C6.88672 5.28599 7.2145 4.49467 7.79794 3.91122C8.38139 3.32778 9.17271 3 9.99783 3C10.8229 3 11.6143 3.32778 12.1977 3.91122C12.7812 4.49467 13.1089 5.28599 13.1089 6.11111V9.22222" stroke="#696974" stroke-width="1.86667" stroke-linecap="round" stroke-linejoin="round"/>
</g>
<defs>
<clipPath id="clip0_1985_51707">
<rect width="18.6667" height="18.6667" fill="white" transform="translate(0.666016 0.666992)"/>
</clipPath>
</defs>
</svg>
