<svg width="28" height="28" viewBox="0 0 28 28" fill="none" xmlns="http://www.w3.org/2000/svg">
<rect x="0.583333" y="0.583333" width="26.8333" height="26.8333" rx="13.4167" fill="#FAFAFB"/>
<g clip-path="url(#clip0_1015_36602)">
<path d="M17.887 13.2217H10.1093C9.25016 13.2217 8.55371 13.9181 8.55371 14.7772V19.4439C8.55371 20.303 9.25016 20.9995 10.1093 20.9995H17.887C18.7462 20.9995 19.4426 20.303 19.4426 19.4439V14.7772C19.4426 13.9181 18.7462 13.2217 17.887 13.2217Z" stroke="#696974" stroke-width="1.86667" stroke-linecap="round" stroke-linejoin="round"/>
<path d="M13.9985 17.8886C14.428 17.8886 14.7763 17.5403 14.7763 17.1108C14.7763 16.6812 14.428 16.333 13.9985 16.333C13.5689 16.333 13.2207 16.6812 13.2207 17.1108C13.2207 17.5403 13.5689 17.8886 13.9985 17.8886Z" stroke="#696974" stroke-width="1.86667" stroke-linecap="round" stroke-linejoin="round"/>
<path d="M10.8872 13.2222V10.1111C10.8872 9.28599 11.215 8.49467 11.7984 7.91122C12.3819 7.32778 13.1732 7 13.9983 7C14.8234 7 15.6148 7.32778 16.1982 7.91122C16.7817 8.49467 17.1094 9.28599 17.1094 10.1111V13.2222" stroke="#696974" stroke-width="1.86667" stroke-linecap="round" stroke-linejoin="round"/>
</g>
<rect x="0.583333" y="0.583333" width="26.8333" height="26.8333" rx="13.4167" stroke="#E2E2EA" stroke-width="1.16667"/>
<defs>
<clipPath id="clip0_1015_36602">
<rect width="18.6667" height="18.6667" fill="white" transform="translate(4.6665 4.66699)"/>
</clipPath>
</defs>
</svg>
