<svg width="40" height="40" viewBox="0 0 40 40" fill="none" xmlns="http://www.w3.org/2000/svg">
    <rect width="40" height="40" rx="20" fill="#FFC137"/>
    <path d="M19.8197 11C19.3769 11 18.9719 11.3764 19.0015 11.8182L19.4106 22.8636C19.4106 22.9721 19.4537 23.0762 19.5304 23.1529C19.6072 23.2296 19.7112 23.2727 19.8197 23.2727C19.9282 23.2727 20.0323 23.2296 20.109 23.1529C20.1857 23.0762 20.2288 22.9721 20.2288 22.8636L20.6379 11.8182C20.6676 11.3764 20.2626 11 19.8197 11Z" stroke="white" stroke-width="2" stroke-linecap="round" stroke-linejoin="round"/>
    <path d="M19.8182 28.9996C20.2701 28.9996 20.6364 28.6333 20.6364 28.1815C20.6364 27.7296 20.2701 27.3633 19.8182 27.3633C19.3663 27.3633 19 27.7296 19 28.1815C19 28.6333 19.3663 28.9996 19.8182 28.9996Z" stroke="white" stroke-width="2" stroke-linecap="round" stroke-linejoin="round"/>
</svg>
