<svg width="36" height="36" viewBox="0 0 36 36" fill="none" xmlns="http://www.w3.org/2000/svg">
<path fill-rule="evenodd" clip-rule="evenodd" d="M17.9999 8C18.5304 8 19.039 8.21071 19.4141 8.58577C19.7892 8.96083 19.9999 9.46952 19.9999 9.99994C19.9999 10.5304 19.7892 11.039 19.4141 11.4141C19.039 11.7892 18.5304 11.9999 17.9999 11.9999C17.4695 11.9999 16.9608 11.7892 16.5858 11.4141C16.2107 11.039 16 10.5304 16 9.99994C16 9.46952 16.2107 8.96083 16.5858 8.58577C16.9608 8.21071 17.4695 8 17.9999 8ZM17.9999 15.9998C18.5304 15.9998 19.039 16.2105 19.4141 16.5855C19.7892 16.9606 19.9999 17.4693 19.9999 17.9997C19.9999 18.5301 19.7892 19.0388 19.4141 19.4139C19.039 19.7889 18.5304 19.9996 17.9999 19.9996C17.4695 19.9996 16.9608 19.7889 16.5858 19.4139C16.2107 19.0388 16 18.5301 16 17.9997C16 17.4693 16.2107 16.9606 16.5858 16.5855C16.9608 16.2105 17.4695 15.9998 17.9999 15.9998ZM17.9999 23.9995C18.5304 23.9995 19.039 24.2102 19.4141 24.5853C19.7892 24.9603 19.9999 25.469 19.9999 25.9995C19.9999 26.5299 19.7892 27.0386 19.4141 27.4136C19.039 27.7887 18.5304 27.9994 17.9999 27.9994C17.4695 27.9994 16.9608 27.7887 16.5858 27.4136C16.2107 27.0386 16 26.5299 16 25.9995C16 25.469 16.2107 24.9603 16.5858 24.5853C16.9608 24.2102 17.4695 23.9995 17.9999 23.9995Z" fill="#F1F1F5"/>
</svg>
