<svg width="28" height="28" viewBox="0 0 28 28" fill="none" xmlns="http://www.w3.org/2000/svg">
<path d="M15.168 23.3337L23.3346 15.167" stroke="#696974" stroke-width="2" stroke-linecap="round" stroke-linejoin="round"/>
<path d="M15.168 23.3337V16.3337C15.168 16.0242 15.2909 15.7275 15.5097 15.5087C15.7285 15.2899 16.0252 15.167 16.3346 15.167H23.3346V7.00033C23.3346 6.38149 23.0888 5.78799 22.6512 5.35041C22.2136 4.91282 21.6201 4.66699 21.0013 4.66699H7.0013C6.38246 4.66699 5.78897 4.91282 5.35139 5.35041C4.9138 5.78799 4.66797 6.38149 4.66797 7.00033V21.0003C4.66797 21.6192 4.9138 22.2127 5.35139 22.6502C5.78897 23.0878 6.38246 23.3337 7.0013 23.3337H15.168Z" stroke="#696974" stroke-width="2" stroke-linecap="round" stroke-linejoin="round"/>
</svg>
