<svg width="24" height="24" viewBox="0 0 24 24" fill="none" xmlns="http://www.w3.org/2000/svg">
<path opacity="0.4" d="M8.66699 4L15.3337 6.22222V19.5556L8.66699 17.3333V4Z" fill="#EA5930"/>
<path d="M2 6.97431V19C1.99998 19.0908 2.02221 19.1802 2.06475 19.2604C2.10729 19.3406 2.16884 19.4092 2.24401 19.4601C2.31918 19.511 2.40569 19.5427 2.49596 19.5525C2.58622 19.5622 2.6775 19.5497 2.76181 19.516L7.55556 17.3333V4L2.69861 5.94444C2.49268 6.02678 2.3161 6.16886 2.1916 6.35239C2.0671 6.53593 2.00037 6.75253 2 6.97431V6.97431ZM21.2382 4.04028L16.4444 6.22222V19.5556L21.3014 17.6128C21.5076 17.5304 21.6844 17.3881 21.8089 17.2042C21.9334 17.0203 22 16.8033 22 16.5812V4.55556C21.9999 4.46482 21.9776 4.37549 21.935 4.29538C21.8924 4.21526 21.8309 4.14679 21.7557 4.09595C21.6805 4.04512 21.5941 4.01347 21.5039 4.00376C21.4137 3.99406 21.3224 4.00659 21.2382 4.04028V4.04028Z" fill="#EA5930"/>
</svg>
