<svg width="32" height="32" viewBox="0 0 32 32" fill="none" xmlns="http://www.w3.org/2000/svg">
<path fill-rule="evenodd" clip-rule="evenodd" d="M15 3H9.54205C9.04367 3 8.62137 3.36697 8.55183 3.86048L5.17012 27.8609C5.08532 28.4627 5.55256 29.0004 6.16034 29.0004H15C15 29.0003 15 29.0001 15 29V25.75C15 25.1977 15.4477 24.75 16 24.75C16.5523 24.75 17 25.1977 17 25.75V29C17 29.0001 17 29.0003 17 29.0004H25.8399C26.4477 29.0004 26.9149 28.4627 26.8301 27.8609L23.4484 3.86048C23.3789 3.36697 22.9565 3 22.4582 3H17V6.25C17 6.80228 16.5523 7.25 16 7.25C15.4477 7.25 15 6.80228 15 6.25V3ZM17 14.375C17 13.8227 16.5523 13.375 16 13.375C15.4477 13.375 15 13.8227 15 14.375L15 17.625C15 18.1773 15.4477 18.625 16 18.625C16.5523 18.625 17 18.1773 17 17.625L17 14.375Z" fill="#695CEA"/>
<line opacity="0.4" x1="4.63661" y1="4.13137" x2="1.25594" y2="27.7961" stroke="#7B61FF" stroke-width="2" stroke-linecap="round"/>
<line opacity="0.4" x1="1" y1="-1" x2="24.905" y2="-1" transform="matrix(0.141421 0.98995 0.98995 -0.141421 28.2119 3)" stroke="#7B61FF" stroke-width="2" stroke-linecap="round"/>
</svg>
