<svg width="33" height="32" viewBox="0 0 33 32" fill="none" xmlns="http://www.w3.org/2000/svg">
<path opacity="0.4" d="M27.9446 13.0946C28.4745 14.1406 28.7501 15.297 28.749 16.4696C28.749 20.6054 25.3848 23.9696 21.2489 23.9696H12.7209L14.3386 25.4893C14.4485 25.5925 14.5365 25.7167 14.5975 25.8546C14.6584 25.9925 14.691 26.1412 14.6934 26.2919C14.6958 26.4426 14.6678 26.5923 14.6112 26.732C14.5546 26.8717 14.4705 26.9986 14.3639 27.1051L13.8586 27.61C13.6476 27.8209 13.3615 27.9395 13.0631 27.9395C12.7648 27.9395 12.4786 27.8209 12.2676 27.61L7.92323 23.267C7.71227 23.056 7.59375 22.7699 7.59375 22.4715C7.59375 22.1732 7.71227 21.887 7.92323 21.676L12.2676 17.3298C12.4786 17.1188 12.7648 17.0003 13.0631 17.0003C13.3615 17.0003 13.6476 17.1188 13.8586 17.3298L14.3639 17.8346C14.4705 17.9412 14.5546 18.0681 14.6112 18.2078C14.6678 18.3475 14.6958 18.4971 14.6934 18.6479C14.691 18.7986 14.6584 18.9473 14.5975 19.0852C14.5365 19.223 14.4485 19.3472 14.3386 19.4504L12.7209 20.9696H21.2489C21.9996 20.9695 22.7382 20.7817 23.3977 20.4232C24.0572 20.0646 24.6165 19.5469 25.0247 18.917C25.433 18.287 25.6771 17.565 25.735 16.8166C25.7929 16.0683 25.6627 15.3173 25.3562 14.6321C25.2619 14.4261 25.2326 14.1964 25.2722 13.9733C25.3118 13.7503 25.4184 13.5447 25.5779 13.3838L26.1488 12.8124C26.2742 12.6872 26.4274 12.5934 26.5959 12.5386C26.7644 12.4838 26.9434 12.4695 27.1185 12.497C27.2935 12.5245 27.4595 12.593 27.6031 12.6968C27.7467 12.8007 27.8637 12.937 27.9446 13.0946Z" fill="#64C59E"/>
<path d="M7.92112 19.5571L7.35018 20.1285C7.22487 20.2537 7.07176 20.3476 6.90331 20.4025C6.73486 20.4573 6.55583 20.4716 6.3808 20.4442C6.20577 20.4168 6.03969 20.3485 5.89608 20.2447C5.75248 20.141 5.6354 20.0048 5.55438 19.8472C5.02428 18.8007 4.74868 17.6439 4.75 16.4708C4.75 12.3355 8.11424 8.97075 12.25 8.97075H20.7781L19.1604 7.45152C19.0505 7.34835 18.9625 7.22414 18.9015 7.08628C18.8406 6.94841 18.8079 6.79971 18.8056 6.64899C18.8032 6.49827 18.8312 6.34862 18.8878 6.20891C18.9444 6.06921 19.0285 5.9423 19.1351 5.83573L19.6404 5.32948C19.8514 5.11852 20.1375 5 20.4359 5C20.7342 5 21.0204 5.11852 21.2314 5.32948L25.5758 9.67435C25.7867 9.88533 25.9052 10.1715 25.9052 10.4698C25.9052 10.7682 25.7867 11.0543 25.5758 11.2653L21.2314 15.6111C21.0204 15.8221 20.7342 15.9406 20.4359 15.9406C20.1375 15.9406 19.8514 15.8221 19.6404 15.6111L19.1351 15.1063C19.0285 14.9997 18.9444 14.8728 18.8878 14.7331C18.8312 14.5934 18.8032 14.4437 18.8056 14.293C18.8079 14.1423 18.8406 13.9936 18.9015 13.8557C18.9625 13.7179 19.0505 13.5936 19.1604 13.4905L20.7781 11.9708H12.25C11.4994 11.9708 10.7606 12.1587 10.1011 12.5172C9.44158 12.8758 8.88222 13.3936 8.47398 14.0236C8.06574 14.6535 7.82159 15.3756 7.76375 16.1241C7.70591 16.8725 7.83623 17.6236 8.14284 18.3088C8.23708 18.5147 8.26634 18.7445 8.22673 18.9675C8.18712 19.1905 8.08052 19.3962 7.92112 19.5571Z" fill="#64C59E"/>
</svg>
