<svg width="32" height="32" viewBox="0 0 32 32" fill="none" xmlns="http://www.w3.org/2000/svg">
<path opacity="0.4" d="M21.9957 18.5895V23.5591C21.996 23.9767 21.8799 24.3861 21.6604 24.7414C21.441 25.0966 21.1269 25.3837 20.7533 25.5704L16.1259 27.8859C15.9545 27.9708 15.7642 28.0106 15.5731 28.0015C15.382 27.9924 15.1964 27.9347 15.0338 27.8339C14.8712 27.7331 14.737 27.5925 14.6438 27.4254C14.5507 27.2583 14.5017 27.0702 14.5014 26.8789V22.0105L20.7425 19.2248C21.1701 19.0335 21.5878 18.8217 21.9957 18.5895ZM12.7752 11.2481C12.9646 10.823 13.1742 10.4073 13.4039 10.001H8.44509C8.02828 10.0018 7.61987 10.1183 7.2654 10.3376C6.91094 10.5569 6.62434 10.8703 6.43755 11.2429L4.11825 15.875C4.03272 16.0465 3.99242 16.237 4.00117 16.4285C4.00993 16.6199 4.06744 16.806 4.16827 16.969C4.26909 17.132 4.40988 17.2665 4.57729 17.3599C4.74469 17.4532 4.93317 17.5022 5.12483 17.5023H9.99082L12.7752 11.2481Z" fill="#F63C07"/>
<path d="M27.6756 4.89547C27.6454 4.75519 27.5754 4.62661 27.4739 4.52515C27.3725 4.42369 27.2439 4.35367 27.1036 4.32349C25.594 4 24.413 4 23.2362 4C19.6937 4 17.1883 5.38727 15.252 7.46935C14.2236 8.58346 13.3866 9.86016 12.7752 11.2477L9.99081 17.5023L8.93735 18.5558C8.65607 18.8371 8.49805 19.2187 8.49805 19.6165C8.49805 20.0144 8.65607 20.3959 8.93735 20.6772L11.3237 23.0641C11.605 23.3454 11.9866 23.5034 12.3844 23.5034C12.7823 23.5034 13.1638 23.3454 13.4452 23.0641L14.5014 22.0106L20.7425 19.2248C22.1304 18.6107 23.4071 17.7711 24.5208 16.74C26.6048 14.799 27.9991 12.2931 27.9991 8.76613C28.0038 7.58656 28.0038 6.4051 27.6756 4.89547ZM22.0027 11.8764C21.6318 11.8764 21.2692 11.7664 20.9609 11.5603C20.6525 11.3542 20.4121 11.0614 20.2702 10.7187C20.1282 10.376 20.0911 9.99895 20.1634 9.63518C20.2358 9.2714 20.4144 8.93725 20.6767 8.67498C20.9389 8.41271 21.2731 8.2341 21.6369 8.16174C22.0006 8.08939 22.3777 8.12652 22.7204 8.26846C23.0631 8.4104 23.3559 8.65077 23.562 8.95916C23.7681 9.26756 23.878 9.63013 23.878 10.001C23.878 10.4984 23.6805 10.9754 23.3288 11.3271C22.9771 11.6788 22.5001 11.8764 22.0027 11.8764Z" fill="#F63C07"/>
</svg>
