<svg width="16" height="16" viewBox="0 0 16 16" fill="none" xmlns="http://www.w3.org/2000/svg">
<path d="M6 7.99935L7.33333 9.33268L10 6.66602" stroke="white" stroke-width="1.6" stroke-linecap="round" stroke-linejoin="round"/>
<path d="M7.99844 1.59961C9.45392 2.97733 11.3536 3.69465 13.2949 3.59961C13.5775 4.62829 13.664 5.70725 13.5492 6.7724C13.4344 7.83754 13.1206 8.86712 12.6265 9.79996C12.1325 10.7328 11.4682 11.5499 10.6731 12.2026C9.87807 12.8553 8.96849 13.3304 7.99844 13.5996C7.02838 13.3304 6.11881 12.8553 5.32375 12.2026C4.5287 11.5499 3.8644 10.7328 3.37033 9.79996C2.87625 8.86712 2.56249 7.83754 2.44767 6.7724C2.33286 5.70725 2.41934 4.62829 2.70198 3.59961C4.64331 3.69465 6.54295 2.97733 7.99844 1.59961" stroke="white" stroke-width="1.6" stroke-linecap="round" stroke-linejoin="round"/>
</svg>
