<svg width="20" height="20" viewBox="0 0 20 20" fill="none" xmlns="http://www.w3.org/2000/svg">
<g clip-path="url(#clip0_1985_51700)">
<path d="M7.66602 9.99891L9.22157 11.5545L12.3327 8.44336" stroke="#64C59E" stroke-width="1.86667" stroke-linecap="round" stroke-linejoin="round"/>
<path d="M9.99818 2.5332C11.6962 4.14054 13.9125 4.97742 16.1774 4.86654C16.5071 6.06666 16.608 7.32546 16.4741 8.56812C16.3401 9.81079 15.9741 11.012 15.3976 12.1003C14.8212 13.1886 14.0462 14.1418 13.1186 14.9034C12.1911 15.6649 11.1299 16.2191 9.99818 16.5332C8.86645 16.2191 7.80527 15.6649 6.87771 14.9034C5.95015 14.1418 5.17514 13.1886 4.59872 12.1003C4.0223 11.012 3.65623 9.81079 3.52228 8.56812C3.38834 7.32546 3.48923 6.06666 3.81898 4.86654C6.08386 4.97742 8.30011 4.14054 9.99818 2.5332" stroke="#64C59E" stroke-width="1.86667" stroke-linecap="round" stroke-linejoin="round"/>
</g>
<defs>
<clipPath id="clip0_1985_51700">
<rect width="18.6667" height="18.6667" fill="white" transform="translate(0.666016 0.666992)"/>
</clipPath>
</defs>
</svg>
