<svg width="28" height="28" viewBox="0 0 28 28" fill="none" xmlns="http://www.w3.org/2000/svg">
<rect x="0.583333" y="0.583333" width="26.8333" height="26.8333" rx="13.4167" fill="#FAFAFB"/>
<g clip-path="url(#clip0_1015_36595)">
<path d="M11.6665 13.9989L13.2221 15.5545L16.3332 12.4434" stroke="#64C59E" stroke-width="1.86667" stroke-linecap="round" stroke-linejoin="round"/>
<path d="M13.9982 6.5332C15.6962 8.14054 17.9125 8.97742 20.1774 8.86654C20.5071 10.0667 20.608 11.3255 20.4741 12.5681C20.3401 13.8108 19.9741 15.012 19.3976 16.1003C18.8212 17.1886 18.0462 18.1418 17.1186 18.9034C16.1911 19.6649 15.1299 20.2191 13.9982 20.5332C12.8664 20.2191 11.8053 19.6649 10.8777 18.9034C9.95015 18.1418 9.17514 17.1886 8.59872 16.1003C8.0223 15.012 7.65623 13.8108 7.52228 12.5681C7.38834 11.3255 7.48923 10.0667 7.81898 8.86654C10.0839 8.97742 12.3001 8.14054 13.9982 6.5332" stroke="#64C59E" stroke-width="1.86667" stroke-linecap="round" stroke-linejoin="round"/>
</g>
<rect x="0.583333" y="0.583333" width="26.8333" height="26.8333" rx="13.4167" stroke="#E2E2EA" stroke-width="1.16667"/>
<defs>
<clipPath id="clip0_1015_36595">
<rect width="18.6667" height="18.6667" fill="white" transform="translate(4.6665 4.66699)"/>
</clipPath>
</defs>
</svg>
