<svg width="33" height="15" viewBox="0 0 33 15" fill="none" xmlns="http://www.w3.org/2000/svg">
<rect width="33" height="15" rx="3" fill="#EA5930"/>
<path d="M5.80073 11.096C7.28873 11.096 7.98473 10.304 7.98473 9.32C7.98473 8.156 7.20473 7.928 5.95673 7.436C5.39273 7.22 5.03273 7.016 5.03273 6.728C5.03273 6.368 5.40473 6.224 5.66873 6.224C6.12473 6.224 6.66473 6.404 7.13273 6.848L7.80473 5.792C7.15673 5.264 6.48473 5.06 5.74073 5.06C4.54073 5.06 3.67673 5.756 3.67673 6.716C3.67673 7.868 4.50473 8.3 5.46473 8.636C6.23273 8.9 6.61673 9.044 6.61673 9.344C6.61673 9.692 6.31673 9.92 5.80073 9.92C5.08073 9.92 4.57673 9.692 4.10873 9.236L3.43673 10.244C4.04873 10.784 4.85273 11.096 5.80073 11.096ZM12.0434 11.096C13.8434 11.096 15.1154 9.86 15.1154 8.084C15.1154 6.284 13.8434 5.06 12.0434 5.06C10.1954 5.06 8.97136 6.356 8.97136 8.084C8.97136 9.8 10.1954 11.096 12.0434 11.096ZM12.0434 9.872C11.0354 9.872 10.3394 9.08 10.3394 8.084C10.3394 7.064 11.0234 6.272 12.0434 6.272C13.0034 6.272 13.7474 7.004 13.7474 8.084C13.7474 9.14 12.9914 9.872 12.0434 9.872ZM19.2387 11.096C21.0387 11.096 22.3107 9.86 22.3107 8.084C22.3107 6.284 21.0387 5.06 19.2387 5.06C17.3907 5.06 16.1667 6.356 16.1667 8.084C16.1667 9.8 17.3907 11.096 19.2387 11.096ZM19.2387 9.872C18.2307 9.872 17.5347 9.08 17.5347 8.084C17.5347 7.064 18.2187 6.272 19.2387 6.272C20.1987 6.272 20.9427 7.004 20.9427 8.084C20.9427 9.14 20.1867 9.872 19.2387 9.872ZM23.71 11H25.054V8.06C25.054 6.908 25.654 6.272 26.566 6.272C27.37 6.272 27.838 6.668 27.838 7.904V11H29.182V7.556C29.182 5.792 28.318 5.06 27.034 5.06C26.266 5.06 25.558 5.372 25.078 5.948H25.054V5.144H23.71V11Z" fill="white"/>
</svg>
