<svg width="20" height="20" viewBox="0 0 20 20" fill="none" xmlns="http://www.w3.org/2000/svg">
<path opacity="0.4" d="M0.585941 20H11.211C11.5346 20 11.7969 19.7377 11.7969 19.4141V18.7891C11.7969 18.1418 11.2723 17.6172 10.6251 17.6172V16.9167C10.6251 15.9891 9.87036 15.2344 8.94277 15.2344H2.85417C1.92659 15.2344 1.17188 15.9891 1.17188 16.9167V17.6172C0.5246 17.6172 0 18.1418 0 18.7891V19.4141C0 19.7376 0.262453 20 0.585941 20Z" fill="#55BB00"/>
<path d="M7.3332 12.9045C7.7226 13.4213 8.45747 13.5246 8.97429 13.1351C9.49126 12.7457 9.59441 12.0108 9.205 11.4938L5.67868 6.81437C5.28912 6.2974 4.5544 6.19425 4.03758 6.58366C3.52061 6.97322 3.41731 7.70793 3.80687 8.2249L7.3332 12.9045Z" fill="#55BB00"/>
<path d="M15.7564 6.55676C16.146 7.07357 16.8807 7.17688 17.3976 6.78732C17.9145 6.39791 18.0178 5.6632 17.6282 5.14622L14.1019 0.466783C13.7125 -0.0501882 12.9776 -0.153491 12.4608 0.236068C11.944 0.625628 11.8407 1.36034 12.2302 1.87731L15.7564 6.55676Z" fill="#55BB00"/>
<path d="M13.186 9.9605C14.052 9.30787 14.7022 8.49747 15.1089 7.6442L11.0058 2.19922C10.0734 2.35501 9.11534 2.75647 8.2491 3.40925C7.383 4.06187 6.73282 4.87227 6.32617 5.72539L10.4293 11.1707C11.3616 11.0149 12.3197 10.6133 13.186 9.9605Z" fill="#55BB00"/>
<path d="M14.7681 10.1143C14.4953 10.3923 14.208 10.6588 13.8912 10.8976C13.5743 11.1363 13.2387 11.3391 12.8965 11.5248L13.6605 12.5387L15.5323 11.1284L14.7681 10.1143Z" fill="#55BB00"/>
<path d="M16.2378 12.0635L14.366 13.4739L17.8923 18.1534C18.2819 18.6704 19.0166 18.7736 19.5334 18.3842C20.0504 17.9946 20.1535 17.2599 19.7641 16.7429L16.2378 12.0635Z" fill="#55BB00"/>
</svg>
