<svg width="60" height="29" viewBox="0 0 60 29" fill="none" xmlns="http://www.w3.org/2000/svg">
<path d="M32.3311 4.14453V8.8112C32.3311 9.12062 32.454 9.41736 32.6728 9.63616C32.8916 9.85495 33.1883 9.97786 33.4977 9.97786H38.1644M32.3311 4.14453H24.1644C23.5455 4.14453 22.9521 4.39036 22.5145 4.82795C22.0769 5.26553 21.8311 5.85903 21.8311 6.47786V22.8112C21.8311 23.43 22.0769 24.0235 22.5145 24.4611C22.9521 24.8987 23.5455 25.1445 24.1644 25.1445H35.8311C36.4499 25.1445 37.0434 24.8987 37.481 24.4611C37.9186 24.0235 38.1644 23.43 38.1644 22.8112V9.97786M32.3311 4.14453L38.1644 9.97786" stroke="#696974" stroke-width="1.82" stroke-linecap="round" stroke-linejoin="round"/>
<path d="M26.5 11.1445H27.6667" stroke="#696974" stroke-width="1.82" stroke-linecap="round" stroke-linejoin="round"/>
<path d="M26.5 15.8125H33.5" stroke="#696974" stroke-width="1.82" stroke-linecap="round" stroke-linejoin="round"/>
<path d="M26.5 20.4766H33.5" stroke="#696974" stroke-width="1.82" stroke-linecap="round" stroke-linejoin="round"/>
<rect y="7.64453" width="60" height="15" rx="3" fill="#EA5930"/>
<path d="M5.62772 18.7405C6.39572 18.7405 6.76772 18.5845 7.11572 18.3925L6.76772 17.2285C6.45572 17.3965 6.13172 17.4805 5.90372 17.4805C5.51972 17.4805 5.33972 17.2645 5.33972 16.6645V13.9285H7.05572V12.7885H5.33972V10.7005L3.99572 10.8445V12.7885H3.27572V13.9285H3.99572V16.7965C3.99572 18.1045 4.61972 18.7405 5.62772 18.7405ZM13.6225 15.6445C13.6225 13.9405 12.5065 12.7045 10.8625 12.7045C9.14653 12.7045 7.92253 13.9165 7.92253 15.7165C7.92253 17.5525 9.18253 18.7405 10.9585 18.7405C12.2185 18.7405 12.9505 18.2725 13.4425 17.6365L12.5065 16.8325C12.2065 17.2045 11.7265 17.5165 11.0305 17.5165C10.1185 17.5165 9.48253 17.0125 9.31453 16.1605H13.5865C13.5985 16.0645 13.6225 15.8605 13.6225 15.6445ZM10.8505 13.9165C11.6185 13.9165 12.0985 14.3965 12.2665 15.1045H9.33853C9.53053 14.3365 10.1065 13.9165 10.8505 13.9165ZM14.6128 18.6445H19.4248V17.5045H16.4488L16.4368 17.4805L19.4728 13.7125V12.7885H14.8168V13.9285H17.6128L17.6248 13.9645L14.6128 17.6965V18.6445ZM26.8148 18.7405C28.6148 18.7405 29.8868 17.5045 29.8868 15.7285C29.8868 13.9285 28.6148 12.7045 26.8148 12.7045C24.9668 12.7045 23.7428 14.0005 23.7428 15.7285C23.7428 17.4445 24.9668 18.7405 26.8148 18.7405ZM26.8148 17.5165C25.8068 17.5165 25.1108 16.7245 25.1108 15.7285C25.1108 14.7085 25.7948 13.9165 26.8148 13.9165C27.7748 13.9165 28.5188 14.6485 28.5188 15.7285C28.5188 16.7845 27.7628 17.5165 26.8148 17.5165ZM31.2862 18.6445H32.6302V15.8725C32.6302 14.9125 33.2062 14.1805 34.2262 14.1805C34.3222 14.1805 34.4782 14.1925 34.6342 14.2045V12.7045H34.4662C33.7582 12.7045 33.1102 13.0525 32.6542 13.6645H32.6302V12.7885H31.2862V18.6445ZM38.223 18.7405C39.039 18.7405 39.663 18.4285 40.083 17.8645L40.107 17.8765V18.6445H41.391V12.7885H40.047V13.4965L40.023 13.5085C39.603 12.9805 38.955 12.7045 38.211 12.7045C36.603 12.7045 35.391 13.9765 35.391 15.7405C35.391 17.5525 36.603 18.7405 38.223 18.7405ZM38.439 17.5165C37.443 17.5165 36.759 16.7845 36.759 15.7525C36.759 14.6245 37.503 13.9165 38.439 13.9165C39.399 13.9165 40.107 14.7085 40.107 15.7525C40.107 16.8085 39.351 17.5165 38.439 17.5165ZM45.5709 18.7405C46.4109 18.7405 47.0469 18.4165 47.4789 17.8525H47.4909V18.6445H48.7749V9.81253H47.4429V13.5085H47.4309C46.9869 12.9805 46.3269 12.7045 45.5589 12.7045C43.9509 12.7045 42.7269 13.9765 42.7269 15.7405C42.7269 17.5525 43.9509 18.7405 45.5709 18.7405ZM45.7749 17.5165C44.7909 17.5165 44.0949 16.7845 44.0949 15.7525C44.0949 14.6245 44.8509 13.9165 45.7869 13.9165C46.7949 13.9165 47.4909 14.7085 47.4909 15.7525C47.4909 16.8085 46.7349 17.5165 45.7749 17.5165ZM53.0003 18.7405C53.8163 18.7405 54.4403 18.4285 54.8603 17.8645L54.8843 17.8765V18.6445H56.1683V12.7885H54.8243V13.4965L54.8003 13.5085C54.3803 12.9805 53.7323 12.7045 52.9883 12.7045C51.3803 12.7045 50.1683 13.9765 50.1683 15.7405C50.1683 17.5525 51.3803 18.7405 53.0003 18.7405ZM53.2163 17.5165C52.2203 17.5165 51.5363 16.7845 51.5363 15.7525C51.5363 14.6245 52.2803 13.9165 53.2163 13.9165C54.1763 13.9165 54.8843 14.7085 54.8843 15.7525C54.8843 16.8085 54.1283 17.5165 53.2163 17.5165Z" fill="white"/>
</svg>
