<svg width="41" height="29" viewBox="0 0 41 29" fill="none" xmlns="http://www.w3.org/2000/svg">
<path d="M23.3311 4.14453V8.8112C23.3311 9.12062 23.454 9.41736 23.6728 9.63616C23.8916 9.85495 24.1883 9.97786 24.4977 9.97786H29.1644M23.3311 4.14453H15.1644C14.5455 4.14453 13.9521 4.39036 13.5145 4.82795C13.0769 5.26553 12.8311 5.85903 12.8311 6.47786V22.8112C12.8311 23.43 13.0769 24.0235 13.5145 24.4611C13.9521 24.8987 14.5455 25.1445 15.1644 25.1445H26.8311C27.4499 25.1445 28.0434 24.8987 28.481 24.4611C28.9186 24.0235 29.1644 23.43 29.1644 22.8112V9.97786M23.3311 4.14453L29.1644 9.97786" stroke="#696974" stroke-width="1.82" stroke-linecap="round" stroke-linejoin="round"/>
<path d="M17.5 11.1445H18.6667" stroke="#696974" stroke-width="1.82" stroke-linecap="round" stroke-linejoin="round"/>
<path d="M17.5 15.8125H24.5" stroke="#696974" stroke-width="1.82" stroke-linecap="round" stroke-linejoin="round"/>
<path d="M17.5 20.4766H24.5" stroke="#696974" stroke-width="1.82" stroke-linecap="round" stroke-linejoin="round"/>
<rect y="7.64453" width="41" height="15" rx="3" fill="#EA5930"/>
<path d="M6.59608 18.7405C7.86808 18.7405 8.62408 18.2845 9.11608 17.6485L8.19208 16.8325C7.89208 17.2285 7.36408 17.5165 6.71608 17.5165C5.68408 17.5165 4.97608 16.7965 4.97608 15.7165C4.97608 14.6485 5.67208 13.9165 6.71608 13.9165C7.35208 13.9165 7.85608 14.1925 8.19208 14.5885L9.10408 13.7965C8.51608 13.0765 7.55608 12.7045 6.64408 12.7045C4.86808 12.7045 3.60808 13.9285 3.60808 15.7285C3.60808 17.5165 4.86808 18.7405 6.59608 18.7405ZM10.3428 18.6445H11.6868V17.0365L12.5268 16.1005L14.3028 18.6445H15.8748L13.4868 15.3085L15.7428 12.7885H14.0988L11.7108 15.5485H11.6868V12.7885H10.3428V18.6445ZM19.6762 18.7405C21.4762 18.7405 22.7482 17.5045 22.7482 15.7285C22.7482 13.9285 21.4762 12.7045 19.6762 12.7045C17.8282 12.7045 16.6042 14.0005 16.6042 15.7285C16.6042 17.4445 17.8282 18.7405 19.6762 18.7405ZM19.6762 17.5165C18.6682 17.5165 17.9722 16.7245 17.9722 15.7285C17.9722 14.7085 18.6562 13.9165 19.6762 13.9165C20.6362 13.9165 21.3802 14.6485 21.3802 15.7285C21.3802 16.7845 20.6242 17.5165 19.6762 17.5165ZM24.1475 21.0205H25.4915V17.9365L25.5155 17.9245C25.9475 18.4525 26.5595 18.7405 27.3515 18.7405C28.9835 18.7405 30.1955 17.5525 30.1955 15.7405C30.1955 13.9765 28.9835 12.7045 27.3635 12.7045C26.5955 12.7045 25.9475 12.9805 25.5155 13.4845H25.4915V12.7885H24.1475V21.0205ZM27.1475 17.5165C26.1875 17.5165 25.4315 16.8085 25.4315 15.7525C25.4315 14.7085 26.1275 13.9165 27.1355 13.9165C28.0715 13.9165 28.8275 14.6245 28.8275 15.7525C28.8275 16.7845 28.1315 17.5165 27.1475 17.5165ZM34.3246 18.7405C36.1246 18.7405 37.3966 17.5045 37.3966 15.7285C37.3966 13.9285 36.1246 12.7045 34.3246 12.7045C32.4766 12.7045 31.2526 14.0005 31.2526 15.7285C31.2526 17.4445 32.4766 18.7405 34.3246 18.7405ZM34.3246 17.5165C33.3166 17.5165 32.6206 16.7245 32.6206 15.7285C32.6206 14.7085 33.3046 13.9165 34.3246 13.9165C35.2846 13.9165 36.0286 14.6485 36.0286 15.7285C36.0286 16.7845 35.2726 17.5165 34.3246 17.5165Z" fill="white"/>
</svg>
