<svg width="33" height="28" viewBox="0 0 33 28" fill="none" xmlns="http://www.w3.org/2000/svg">
<path d="M19.3311 3.5V8.16667C19.3311 8.47609 19.454 8.77283 19.6728 8.99162C19.8916 9.21042 20.1883 9.33333 20.4977 9.33333H25.1644M19.3311 3.5H11.1644C10.5455 3.5 9.95206 3.74583 9.51447 4.18342C9.07689 4.621 8.83105 5.21449 8.83105 5.83333V22.1667C8.83105 22.7855 9.07689 23.379 9.51447 23.8166C9.95206 24.2542 10.5455 24.5 11.1644 24.5H22.8311C23.4499 24.5 24.0434 24.2542 24.481 23.8166C24.9186 23.379 25.1644 22.7855 25.1644 22.1667V9.33333M19.3311 3.5L25.1644 9.33333" stroke="#696974" stroke-width="1.82" stroke-linecap="round" stroke-linejoin="round"/>
<path d="M13.5 10.5H14.6667" stroke="#696974" stroke-width="1.82" stroke-linecap="round" stroke-linejoin="round"/>
<path d="M13.5 15.168H20.5" stroke="#696974" stroke-width="1.82" stroke-linecap="round" stroke-linejoin="round"/>
<path d="M13.5 19.832H20.5" stroke="#696974" stroke-width="1.82" stroke-linecap="round" stroke-linejoin="round"/>
<rect y="7" width="33" height="15" rx="3" fill="#EA5930"/>
<path d="M5.80073 18.096C7.28873 18.096 7.98473 17.304 7.98473 16.32C7.98473 15.156 7.20473 14.928 5.95673 14.436C5.39273 14.22 5.03273 14.016 5.03273 13.728C5.03273 13.368 5.40473 13.224 5.66873 13.224C6.12473 13.224 6.66473 13.404 7.13273 13.848L7.80473 12.792C7.15673 12.264 6.48473 12.06 5.74073 12.06C4.54073 12.06 3.67673 12.756 3.67673 13.716C3.67673 14.868 4.50473 15.3 5.46473 15.636C6.23273 15.9 6.61673 16.044 6.61673 16.344C6.61673 16.692 6.31673 16.92 5.80073 16.92C5.08073 16.92 4.57673 16.692 4.10873 16.236L3.43673 17.244C4.04873 17.784 4.85273 18.096 5.80073 18.096ZM12.0434 18.096C13.8434 18.096 15.1154 16.86 15.1154 15.084C15.1154 13.284 13.8434 12.06 12.0434 12.06C10.1954 12.06 8.97136 13.356 8.97136 15.084C8.97136 16.8 10.1954 18.096 12.0434 18.096ZM12.0434 16.872C11.0354 16.872 10.3394 16.08 10.3394 15.084C10.3394 14.064 11.0234 13.272 12.0434 13.272C13.0034 13.272 13.7474 14.004 13.7474 15.084C13.7474 16.14 12.9914 16.872 12.0434 16.872ZM19.2387 18.096C21.0387 18.096 22.3107 16.86 22.3107 15.084C22.3107 13.284 21.0387 12.06 19.2387 12.06C17.3907 12.06 16.1667 13.356 16.1667 15.084C16.1667 16.8 17.3907 18.096 19.2387 18.096ZM19.2387 16.872C18.2307 16.872 17.5347 16.08 17.5347 15.084C17.5347 14.064 18.2187 13.272 19.2387 13.272C20.1987 13.272 20.9427 14.004 20.9427 15.084C20.9427 16.14 20.1867 16.872 19.2387 16.872ZM23.71 18H25.054V15.06C25.054 13.908 25.654 13.272 26.566 13.272C27.37 13.272 27.838 13.668 27.838 14.904V18H29.182V14.556C29.182 12.792 28.318 12.06 27.034 12.06C26.266 12.06 25.558 12.372 25.078 12.948H25.054V12.144H23.71V18Z" fill="white"/>
</svg>
