<svg width="45" height="42" viewBox="0 0 45 42" fill="none" xmlns="http://www.w3.org/2000/svg">
<path d="M38.44 18L30.14 18.02C29.8316 18.0013 29.5231 18.0561 29.24 18.18L28.06 18.7L24.4 10.5C23.28 7.98 20.32 6.84 17.8 7.96C15.28 9.08 14.14 12.04 15.26 14.56L21.86 29.46L18.12 30.24C17.74 30.34 16.14 30.78 15.4 32.66L14 36.38L27.56 41.72C28.54 42.1 29.66 42.08 30.62 41.64L42.6 36.34C44.38 35.54 45.34 33.58 44.86 31.7L42.14 21.02C41.7 19.3 40.2 18.08 38.44 18ZM40.98 32.68L29 38L19.16 34.08L27.52 32.32L18.92 12.92C18.7 12.42 18.92 11.82 19.42 11.6C19.92 11.38 20.52 11.6 20.74 12.1L25.74 23.4L28.96 21.98L38.26 22L40.98 32.68ZM2.12 9.12L0 7L7 0L14 7L11.88 9.12L8.64 5.88C7.85705 8.9655 7.78877 12.189 8.44037 15.3049C9.09197 18.4208 10.4462 21.3468 12.4 23.86L10.26 26C6.85003 21.7447 4.99442 16.453 5 11C5 9.16 5.2 7.36 5.6 5.64L2.12 9.12Z" fill="white" fill-opacity="0.8"/>
</svg>
