<svg width="45" height="40" viewBox="0 0 45 40" fill="none" xmlns="http://www.w3.org/2000/svg">
<path d="M38.44 16L30.14 16.02C29.8316 16.0013 29.5231 16.0561 29.24 16.18L28.06 16.7L24.4 8.5C23.28 5.98 20.32 4.84 17.8 5.96C15.28 7.08 14.14 10.04 15.26 12.56L21.86 27.46L18.12 28.24C17.74 28.34 16.14 28.78 15.4 30.66L14 34.38L27.56 39.72C28.54 40.1 29.66 40.08 30.62 39.64L42.6 34.34C44.38 33.54 45.34 31.58 44.86 29.7L42.14 19.02C41.7 17.3 40.2 16.08 38.44 16ZM40.98 30.68L29 36L19.16 32.08L27.52 30.32L18.92 10.92C18.7 10.42 18.92 9.82 19.42 9.6C19.92 9.38 20.52 9.6 20.74 10.1L25.74 21.4L28.96 19.98L38.26 20L40.98 30.68ZM5.6 20.36C5.2 18.64 5 16.84 5 15C5 9.32 6.98 4.1 10.26 0L12.4 2.14C10.4462 4.65319 9.09197 7.57922 8.44037 10.6951C7.78877 13.811 7.85705 17.0345 8.64 20.12L11.88 16.88L14 19L7 26L0 19L2.12 16.88L5.6 20.36Z" fill="white" fill-opacity="0.5"/>
</svg>
