<svg width="24" height="24" viewBox="0 0 24 24" fill="none" xmlns="http://www.w3.org/2000/svg">
<rect width="24" height="24" rx="6" fill="#EA5930"/>
<path d="M16.4199 7.57871H15.8674V7.02613C15.8674 6.8063 15.78 6.59548 15.6246 6.44003C15.4692 6.28459 15.2583 6.19727 15.0385 6.19727C14.8187 6.19727 14.6079 6.28459 14.4524 6.44003C14.297 6.59548 14.2096 6.8063 14.2096 7.02613V7.57871H12.8282V7.02613C12.8282 6.8063 12.7409 6.59548 12.5854 6.44003C12.43 6.28459 12.2192 6.19727 11.9993 6.19727C11.7795 6.19727 11.5687 6.28459 11.4132 6.44003C11.2578 6.59548 11.1705 6.8063 11.1705 7.02613V7.57871H9.78902V7.02613C9.78902 6.8063 9.70169 6.59548 9.54625 6.44003C9.39081 6.28459 9.17998 6.19727 8.96015 6.19727C8.74032 6.19727 8.5295 6.28459 8.37406 6.44003C8.21861 6.59548 8.13129 6.8063 8.13129 7.02613V7.57871H7.57871C7.21233 7.57871 6.86095 7.72425 6.60188 7.98332C6.34281 8.2424 6.19727 8.59377 6.19727 8.96015V16.4199C6.19727 16.7863 6.34281 17.1377 6.60188 17.3968C6.86095 17.6558 7.21233 17.8014 7.57871 17.8014H16.4199C16.7863 17.8014 17.1377 17.6558 17.3968 17.3968C17.6558 17.1377 17.8014 16.7863 17.8014 16.4199V8.96015C17.8014 8.59377 17.6558 8.2424 17.3968 7.98332C17.1377 7.72425 16.7863 7.57871 16.4199 7.57871ZM12.6901 14.4859H9.92716C9.78061 14.4859 9.64006 14.4277 9.53643 14.3241C9.4328 14.2205 9.37459 14.0799 9.37459 13.9334C9.37459 13.7868 9.4328 13.6462 9.53643 13.5426C9.64006 13.439 9.78061 13.3808 9.92716 13.3808H12.6901C12.8366 13.3808 12.9772 13.439 13.0808 13.5426C13.1844 13.6462 13.2426 13.7868 13.2426 13.9334C13.2426 14.0799 13.1844 14.2205 13.0808 14.3241C12.9772 14.4277 12.8366 14.4859 12.6901 14.4859ZM14.0715 11.9993H9.92716C9.78061 11.9993 9.64006 11.9411 9.53643 11.8375C9.4328 11.7339 9.37459 11.5933 9.37459 11.4468C9.37459 11.3002 9.4328 11.1596 9.53643 11.056C9.64006 10.9524 9.78061 10.8942 9.92716 10.8942H14.0715C14.218 10.8942 14.3586 10.9524 14.4622 11.056C14.5659 11.1596 14.6241 11.3002 14.6241 11.4468C14.6241 11.5933 14.5659 11.7339 14.4622 11.8375C14.3586 11.9411 14.218 11.9993 14.0715 11.9993Z" fill="white"/>
</svg>
