<svg width="20" height="20" viewBox="0 0 20 20" fill="none" xmlns="http://www.w3.org/2000/svg">
<path d="M16.5535 6.76393C16.4537 6.84133 14.6925 7.83378 14.6925 10.0406C14.6925 12.5931 16.9336 13.4961 17.0007 13.5184C16.9904 13.5735 16.6447 14.7551 15.8191 15.9592C15.0829 17.0187 14.314 18.0765 13.1444 18.0765C11.9748 18.0765 11.6738 17.3971 10.3236 17.3971C9.00779 17.3971 8.53995 18.0989 7.47009 18.0989C6.40024 18.0989 5.65376 17.1184 4.79547 15.9144C3.8013 14.5006 2.99805 12.3041 2.99805 10.2194C2.99805 6.87573 5.17215 5.1024 7.31185 5.1024C8.44878 5.1024 9.39651 5.84888 10.1103 5.84888C10.7897 5.84888 11.8493 5.05767 13.1427 5.05767C13.6329 5.05767 15.3942 5.1024 16.5535 6.76393ZM12.5287 3.6421C13.0636 3.00741 13.442 2.12676 13.442 1.24611C13.442 1.12399 13.4317 1.00015 13.4093 0.900391C12.539 0.933071 11.5035 1.48004 10.8792 2.20416C10.389 2.76145 9.93144 3.6421 9.93144 4.53479C9.93144 4.66895 9.9538 4.80311 9.96412 4.84611C10.0192 4.85643 10.1086 4.86847 10.198 4.86847C10.9789 4.86847 11.9611 4.34559 12.5287 3.6421Z" fill="black"/>
</svg>
