<svg width="20" height="20" viewBox="0 0 20 20" fill="none" xmlns="http://www.w3.org/2000/svg">
<path d="M5.5 5.99992C6.32719 5.99992 7 5.32492 7 4.49492C7 3.85367 6.23813 2.67867 5.91125 2.20367C5.72563 1.93211 5.27437 1.93211 5.08906 2.20367C4.76187 2.67867 4 3.85367 4 4.49492C4 5.32492 4.67281 5.99992 5.5 5.99992ZM5.5 3.41836C5.78813 3.90492 5.99625 4.3418 6 4.49461C6 4.77148 5.77531 4.99617 5.5 4.99617C5.22469 4.99617 5 4.77117 5 4.49492C5.00375 4.34211 5.21187 3.90492 5.5 3.41836ZM10 5.99992C10.8272 5.99992 11.5 5.32492 11.5 4.49492C11.5 3.85367 10.7381 2.67867 10.4113 2.20367C10.2256 1.93211 9.77438 1.93211 9.58906 2.20367C9.26188 2.67867 8.5 3.85367 8.5 4.49492C8.5 5.32492 9.17281 5.99992 10 5.99992ZM10 3.41836C10.2881 3.90492 10.4963 4.3418 10.5 4.49461C10.5 4.77148 10.2753 4.99617 10 4.99617C9.72469 4.99617 9.5 4.77117 9.5 4.49492C9.50375 4.34211 9.71187 3.90492 10 3.41836ZM14.5 5.99992C15.3272 5.99992 16 5.32492 16 4.49492C16 3.85367 15.2381 2.67867 14.9113 2.20367C14.7256 1.93211 14.2744 1.93211 14.0891 2.20367C13.7619 2.67867 13 3.85367 13 4.49492C13 5.32492 13.6728 5.99992 14.5 5.99992ZM14.5 3.41836C14.7881 3.90492 14.9963 4.3418 15 4.49461C15 4.77148 14.7753 4.99617 14.5 4.99617C14.2247 4.99617 14 4.77117 14 4.49492C14.0037 4.34211 14.2119 3.90492 14.5 3.41836ZM15.4181 10.1793L14.9447 8.72617C14.6094 7.69711 13.65 7.00055 12.5675 7.00055H7.43219C6.34969 7.00055 5.39031 7.69711 5.055 8.72617L4.58156 10.1793C3.65656 10.5459 3 11.4443 3 12.4999V16.4999C3 17.3271 3.67281 17.9999 4.5 17.9999H5C5.82719 17.9999 6.5 17.3271 6.5 16.4999V15.9999H13.5V16.4999C13.5 17.3271 14.1728 17.9999 15 17.9999H15.5C16.3272 17.9999 17 17.3271 17 16.4999V12.4999C17 11.4443 16.3434 10.5459 15.4181 10.1793ZM6.00594 9.03586C6.10354 8.73457 6.2942 8.47202 6.55049 8.28598C6.80678 8.09994 7.11549 8 7.43219 8.00055H12.5678C13.2191 8.00055 13.7922 8.4168 13.9941 9.03586L14.3081 9.99992H5.69187L6.00594 9.03586ZM5.5 16.4999C5.5 16.7759 5.27531 16.9999 5 16.9999H4.5C4.22469 16.9999 4 16.7759 4 16.4999V15.9999H5.5V16.4999ZM16 16.4999C16 16.7759 15.7753 16.9999 15.5 16.9999H15C14.7247 16.9999 14.5 16.7759 14.5 16.4999V15.9999H16V16.4999ZM16 13.9999V14.9999H4V12.4999C4 11.6727 4.67281 10.9999 5.5 10.9999H14.5C15.3272 10.9999 16 11.6727 16 12.4999V13.9999ZM13.725 11.7502C12.9719 11.7502 12 12.4765 12 13.248C12 13.6224 12.1828 14.2502 13.4081 14.2502L13.725 14.2471C14.5363 14.2471 15.125 13.7221 15.125 12.9987C15.125 12.2752 14.5363 11.7502 13.725 11.7502ZM13.725 13.4971C13.6275 13.4971 13.5178 13.5002 13.4081 13.5002C13.0791 13.5002 12.75 13.4721 12.75 13.248C12.75 12.949 13.335 12.5002 13.725 12.5002C14.115 12.5002 14.375 12.6996 14.375 12.9987C14.375 13.2977 14.115 13.4971 13.725 13.4971ZM6.275 11.7502C5.46375 11.7502 4.875 12.2752 4.875 12.9987C4.875 13.7221 5.46375 14.2471 6.275 14.2471L6.59188 14.2502C7.81719 14.2502 8 13.6221 8 13.248C8 12.4765 7.02813 11.7502 6.275 11.7502V11.7502ZM6.59188 13.5002C6.48219 13.5002 6.3725 13.4971 6.275 13.4971C5.885 13.4971 5.625 13.2977 5.625 12.9987C5.625 12.6996 5.885 12.5002 6.275 12.5002C6.665 12.5002 7.25 12.949 7.25 13.248C7.25 13.4721 6.92094 13.5002 6.59188 13.5002V13.5002Z" fill="#92929D"/>
</svg>
