<svg width="285" height="94" viewBox="0 0 285 94" fill="none" xmlns="http://www.w3.org/2000/svg">
<g clip-path="url(#clip0_12690_29448)">
<path d="M285 88.1436H0V88.4576H285V88.1436Z" fill="#92929D"/>
<path d="M225.782 32.3633H225.469V93.3633H225.782V32.3633Z" fill="#92929D"/>
<path d="M65.4696 39.5547H65.1562V94.0002H65.4696V39.5547Z" fill="#92929D"/>
<path d="M256.537 67.3184H191.954V67.6324H256.537V67.3184Z" fill="#92929D"/>
<path d="M98.9085 67.3193H34.3252V67.6333H98.9085V67.3193Z" fill="#92929D"/>
<path d="M225.628 88.6776C213.964 88.6776 204.469 79.1637 204.469 67.4755C204.469 55.7873 213.964 46.2734 225.628 46.2734C237.293 46.2734 246.788 55.7873 246.788 67.4755C246.788 79.1637 237.293 88.6776 225.628 88.6776ZM225.628 47.0584C214.394 47.0584 205.252 56.219 205.252 67.4755C205.252 78.732 214.394 87.8926 225.628 87.8926C236.862 87.8926 246.004 78.732 246.004 67.4755C246.004 56.219 236.862 47.0584 225.628 47.0584Z" fill="#92929D"/>
<path d="M225.625 82.5225C217.345 82.5225 210.607 75.7718 210.607 67.4747C210.607 59.1775 217.345 52.4268 225.625 52.4268C233.906 52.4268 240.643 59.1775 240.643 67.4747C240.643 75.7718 233.906 82.5225 225.625 82.5225ZM225.625 52.7408C217.517 52.7408 210.921 59.3502 210.921 67.4747C210.921 75.5991 217.517 82.2085 225.625 82.2085C233.733 82.2085 240.33 75.5991 240.33 67.4747C240.33 59.3502 233.733 52.7408 225.625 52.7408ZM224.262 79.5946L224.082 79.5711C221.935 79.2963 219.891 78.4485 218.175 77.1141L218.034 77.0042L222.57 72.4592L222.672 72.522C223.134 72.7889 223.627 72.993 224.145 73.1343L224.262 73.1657V79.5946V79.5946ZM218.512 76.9807C220.11 78.1817 221.982 78.9588 223.949 79.2414V73.4169C223.486 73.2834 223.04 73.1029 222.617 72.8674L218.512 76.9807ZM226.988 79.5946V73.1735L227.106 73.1421C227.623 73.0087 228.116 72.8046 228.579 72.5299L228.68 72.4671L233.216 77.012L233.075 77.1219C231.36 78.4564 229.315 79.3042 227.168 79.5789L226.988 79.5946ZM227.302 73.409V79.2335C229.268 78.9509 231.14 78.1738 232.738 76.9728L228.626 72.8517C228.21 73.095 227.764 73.2834 227.302 73.409ZM216.107 75.081L215.997 74.9397C214.665 73.2206 213.819 71.1719 213.545 69.021L213.522 68.8405H219.93L219.961 68.9583C220.094 69.4763 220.298 69.9709 220.572 70.434L220.635 70.536L216.107 75.081ZM213.882 69.1545C214.164 71.1248 214.94 73.0008 216.138 74.6022L220.251 70.4811C220.016 70.065 219.836 69.6176 219.703 69.1466H213.882V69.1545ZM235.143 75.081L230.608 70.536L230.67 70.434C230.937 69.9709 231.148 69.4763 231.281 68.9583L231.313 68.8405H237.721L237.697 69.021C237.423 71.1719 236.577 73.2206 235.245 74.9397L235.143 75.081ZM230.999 70.4889L235.112 74.61C236.311 73.0087 237.086 71.1326 237.368 69.1623H231.555C231.422 69.6176 231.234 70.0651 230.999 70.4889ZM219.938 66.1088H213.53L213.553 65.9283C213.827 63.7774 214.673 61.7287 216.005 60.0096L216.115 59.8683L220.651 64.4133L220.588 64.5153C220.322 64.9785 220.118 65.473 219.977 65.9911L219.938 66.1088ZM213.882 65.7948H219.695C219.828 65.3317 220.008 64.8843 220.243 64.4604L216.13 60.3393C214.94 61.9485 214.164 63.8246 213.882 65.7948ZM237.721 66.1088H231.313L231.281 65.9911C231.148 65.473 230.944 64.9785 230.67 64.5153L230.608 64.4133L235.143 59.8683L235.253 60.0096C236.585 61.7287 237.431 63.7774 237.705 65.9283L237.721 66.1088ZM231.548 65.7948H237.368C237.086 63.8246 236.311 61.9406 235.112 60.3471L230.999 64.4682C231.234 64.8843 231.422 65.3317 231.548 65.7948ZM228.68 62.4823L228.579 62.4194C228.124 62.1526 227.623 61.9406 227.106 61.8072L226.988 61.7758V55.3547L227.168 55.3783C229.315 55.653 231.36 56.5008 233.075 57.8352L233.216 57.9451L228.68 62.4823ZM227.302 61.5324C227.764 61.6659 228.21 61.8464 228.633 62.0819L232.746 57.9608C231.148 56.7598 229.276 55.9827 227.309 55.7001V61.5324H227.302ZM222.57 62.4823L218.034 57.9373L218.175 57.8274C219.891 56.4929 221.935 55.6451 224.082 55.3704L224.262 55.3468V61.7679L224.145 61.7993C223.627 61.9328 223.134 62.1368 222.672 62.4116L222.57 62.4823ZM218.512 57.9687L222.625 62.0898C223.04 61.8543 223.486 61.6659 223.957 61.5403V55.7158C221.975 55.9905 220.102 56.7677 218.512 57.9687Z" fill="#92929D"/>
<path d="M225.629 79.7137C218.892 79.7137 213.416 74.2189 213.416 67.476C213.416 60.7252 218.9 55.2383 225.629 55.2383C232.366 55.2383 237.842 60.7331 237.842 67.476C237.842 74.2267 232.366 79.7137 225.629 79.7137ZM225.629 55.5523C219.064 55.5523 213.729 60.9058 213.729 67.476C213.729 74.054 219.072 79.3997 225.629 79.3997C232.194 79.3997 237.529 74.0462 237.529 67.476C237.529 60.8979 232.194 55.5523 225.629 55.5523Z" fill="#92929D"/>
<path d="M225.628 72.1695C223.043 72.1695 220.943 70.0658 220.943 67.4754C220.943 64.885 223.043 62.7812 225.628 62.7812C228.213 62.7812 230.313 64.885 230.313 67.4754C230.313 70.0658 228.205 72.1695 225.628 72.1695ZM225.628 63.0953C223.215 63.0953 221.257 65.0577 221.257 67.4754C221.257 69.8931 223.215 71.8555 225.628 71.8555C228.041 71.8555 229.999 69.8931 229.999 67.4754C229.999 65.0577 228.033 63.0953 225.628 63.0953Z" fill="#92929D"/>
<path d="M225.629 87.1553C214.795 87.1553 205.989 78.3244 205.989 67.4761C205.989 56.6278 214.802 47.7969 225.629 47.7969C236.456 47.7969 245.269 56.6278 245.269 67.4761C245.269 78.3244 236.456 87.1553 225.629 87.1553ZM225.629 48.5818C215.233 48.5818 206.773 57.0595 206.773 67.4761C206.773 77.8926 215.233 86.3703 225.629 86.3703C236.025 86.3703 244.485 77.8926 244.485 67.4761C244.485 57.0517 236.025 48.5818 225.629 48.5818Z" fill="#92929D"/>
<path d="M65.3002 88.6776C53.6354 88.6776 44.1406 79.1637 44.1406 67.4755C44.1406 55.7873 53.6354 46.2734 65.3002 46.2734C76.965 46.2734 86.4598 55.7873 86.4598 67.4755C86.4598 79.1637 76.9728 88.6776 65.3002 88.6776ZM65.3002 47.0584C54.0663 47.0584 44.924 56.219 44.924 67.4755C44.924 78.732 54.0663 87.8926 65.3002 87.8926C76.5341 87.8926 85.6764 78.732 85.6764 67.4755C85.6764 56.219 76.5341 47.0584 65.3002 47.0584Z" fill="#92929D"/>
<path d="M65.297 82.5235C57.0165 82.5235 50.2793 75.7728 50.2793 67.4756C50.2793 59.1785 57.0165 52.4277 65.297 52.4277C73.5775 52.4277 80.3148 59.1785 80.3148 67.4756C80.3226 75.7728 73.5854 82.5235 65.297 82.5235ZM65.297 52.7417C57.1889 52.7417 50.5927 59.3512 50.5927 67.4756C50.5927 75.6001 57.1889 82.2095 65.297 82.2095C73.4052 82.2095 80.0014 75.6001 80.0014 67.4756C80.0092 59.3512 73.413 52.7417 65.297 52.7417ZM66.6601 79.5956V73.1745L66.7776 73.1431C67.2947 73.0097 67.7882 72.8056 68.2504 72.5308L68.3523 72.4681L72.8882 77.013L72.7471 77.1229C71.0315 78.4574 68.9868 79.3051 66.8403 79.5799L66.6601 79.5956ZM66.9735 73.41V79.2345C68.9398 78.9519 70.8121 78.1748 72.4103 76.9738L68.2974 72.8527C67.8901 73.096 67.4435 73.2844 66.9735 73.41ZM63.9339 79.5956L63.7537 79.572C61.6072 79.2973 59.5626 78.4495 57.8469 77.1151L57.7059 77.0052L62.2418 72.4602L62.3436 72.523C62.798 72.7899 63.2994 72.994 63.8164 73.1353L63.9339 73.1667V79.5956V79.5956ZM58.1838 76.9816C59.7819 78.1826 61.6542 78.9597 63.6206 79.2423V73.4179C63.1584 73.2844 62.7118 73.1039 62.2888 72.8684L58.1838 76.9816ZM55.7866 75.082L55.6769 74.9407C54.3451 73.2216 53.4991 71.1728 53.2249 69.022L53.2014 68.8415H59.6096L59.6409 68.9592C59.7741 69.4773 59.9778 69.9718 60.252 70.435L60.3146 70.537L55.7866 75.082ZM53.5617 69.1555C53.8438 71.1258 54.6193 73.0097 55.8179 74.6031L59.9308 70.4821C59.6957 70.066 59.5156 69.6186 59.3824 69.1476H53.5617V69.1555ZM74.8153 75.082L70.2794 70.537L70.3421 70.435C70.6085 69.9718 70.8121 69.4773 70.9532 68.9592L70.9845 68.8415H77.4005L77.377 69.022C77.1028 71.1728 76.2568 73.2216 74.925 74.9407L74.8153 75.082ZM70.679 70.4899L74.7918 74.611C75.9904 73.0097 76.766 71.1336 77.048 69.1633H71.2352C71.0942 69.6186 70.914 70.066 70.679 70.4899ZM59.6174 66.1098H53.2092L53.2327 65.9292C53.5069 63.7784 54.353 61.7296 55.6847 60.0106L55.7944 59.8693L60.3303 64.4142L60.2676 64.5163C60.0013 64.9794 59.7976 65.474 59.6566 65.992L59.6174 66.1098ZM53.5617 65.7958H59.3745C59.5077 65.3327 59.6879 64.8852 59.9229 64.4613L55.8101 60.3402C54.6193 61.9416 53.8438 63.8255 53.5617 65.7958ZM77.4005 66.1098H70.9923L70.961 65.992C70.8278 65.474 70.6241 64.9794 70.3499 64.5163L70.2873 64.4142L74.8231 59.8693L74.9328 60.0106C76.2646 61.7296 77.1107 63.7784 77.3849 65.9292L77.4005 66.1098ZM71.2273 65.7958H77.0402C76.7581 63.8255 75.9826 61.9416 74.784 60.3481L70.6711 64.4692C70.914 64.8852 71.0942 65.3327 71.2273 65.7958ZM68.3601 62.4832L68.2583 62.4204C67.8039 62.1535 67.3025 61.9416 66.7855 61.8081L66.668 61.7767V55.3557L66.8482 55.3792C68.9947 55.654 71.0393 56.5017 72.755 57.8362L72.896 57.9461L68.3601 62.4832ZM66.9735 61.5334C67.4357 61.6668 67.8822 61.8474 68.3053 62.0829L72.4181 57.9618C70.82 56.7608 68.9477 55.9837 66.9813 55.7011V61.5334H66.9735ZM62.2418 62.4832L57.7059 57.9382L57.8469 57.8283C59.5626 56.4939 61.6072 55.6461 63.7537 55.3714L63.9339 55.3478V61.7689L63.8164 61.8003C63.2994 61.9337 62.8058 62.1378 62.3436 62.4126L62.2418 62.4832ZM58.1838 57.9696L62.2966 62.0907C62.7118 61.8553 63.1584 61.6747 63.6284 61.5413V55.7168C61.6542 55.9915 59.7819 56.7686 58.1838 57.9696Z" fill="#92929D"/>
<path d="M65.2971 79.7137C58.5599 79.7137 53.084 74.2189 53.084 67.476C53.084 60.7252 58.5678 55.2383 65.2971 55.2383C72.0344 55.2383 77.5103 60.7331 77.5103 67.476C77.5182 74.2267 72.0344 79.7137 65.2971 79.7137ZM65.2971 55.5523C58.7323 55.5523 53.3973 60.9058 53.3973 67.476C53.3973 74.054 58.7401 79.3997 65.2971 79.3997C71.862 79.3997 77.197 74.0462 77.197 67.476C77.2048 60.8979 71.862 55.5523 65.2971 55.5523Z" fill="#92929D"/>
<path d="M65.3 72.1695C62.7147 72.1695 60.6152 70.0658 60.6152 67.4754C60.6152 64.885 62.7147 62.7812 65.3 62.7812C67.8852 62.7812 69.9847 64.885 69.9847 67.4754C69.9847 70.0658 67.8852 72.1695 65.3 72.1695ZM65.3 63.0953C62.8871 63.0953 60.9286 65.0577 60.9286 67.4754C60.9286 69.8931 62.8871 71.8555 65.3 71.8555C67.7128 71.8555 69.6713 69.8931 69.6713 67.4754C69.6713 65.0577 67.7128 63.0953 65.3 63.0953Z" fill="#92929D"/>
<path d="M65.3009 87.1553C54.4665 87.1553 45.6611 78.3244 45.6611 67.4761C45.6611 56.6278 54.4744 47.7969 65.3009 47.7969C76.1275 47.7969 84.9407 56.6278 84.9407 67.4761C84.9407 78.3244 76.1353 87.1553 65.3009 87.1553ZM65.3009 48.5818C54.9052 48.5818 46.4445 57.0595 46.4445 67.4761C46.4445 77.8926 54.9052 86.3703 65.3009 86.3703C75.6966 86.3703 84.1573 77.8926 84.1573 67.4761C84.1651 57.0517 75.7044 48.5818 65.3009 48.5818Z" fill="#92929D"/>
<path d="M202.555 73.8186H88.6651L88.72 67.476C88.72 54.5397 78.2146 44.0054 65.2964 44.0054C52.3781 44.0054 41.8728 54.5319 41.8728 67.476L41.8493 73.8186H18.0888C12.7696 73.8186 7.59913 72.704 5.82866 64.5874C4.39504 57.9936 4.2932 54.6967 5.48396 53.221C6.11851 52.436 7.04292 52.2555 7.85766 52.2241C8.28852 50.5364 10.6074 42.3021 14.9631 40.3553C20.6975 37.7885 37.1959 32.4428 83.3458 25.4487C85.6412 25.1033 90.1379 22.6699 95.8254 19.585C106.252 13.9411 120.542 6.20912 136.468 2.40986C142.414 0.989068 156.014 0 169.543 0C180.041 0 188.384 0.588716 193.053 1.65628C204.436 4.26238 221.349 11.4056 231.455 15.6759C236.022 17.6069 239.634 19.1297 240.629 19.3417C241.208 19.4673 242.806 19.6635 245.008 19.9382C260.879 21.9007 275.709 24.2948 276.728 28.5023C278.067 34.0128 279.642 47.6791 279.72 49.5159C279.853 49.5787 280.159 49.6494 280.386 49.7043C281.303 49.9241 282.689 50.2538 282.689 51.5098C282.689 51.9729 282.697 52.4674 282.697 52.9933C282.744 57.8366 282.807 65.1604 279.375 70.2234C277.895 72.4135 254.15 73.4732 249.403 73.6616L249.019 73.6773L248.682 67.4996C248.682 54.736 238.333 44.3665 225.611 44.3665C212.888 44.3665 202.548 54.736 202.548 67.476V73.8186H202.555ZM89.4563 73.0336H201.772V67.476C201.772 54.2964 212.473 43.5815 225.619 43.5815C238.764 43.5815 249.465 54.3042 249.465 67.476L249.763 72.861C263.237 72.3036 277.871 71.0477 278.733 69.776C282.031 64.917 281.961 57.7424 281.921 52.9933C281.914 52.4674 281.914 51.9729 281.914 51.5019C281.914 50.9132 281.146 50.6777 280.214 50.4579C279.532 50.293 278.945 50.1518 278.945 49.6258C278.945 48.6839 277.339 34.3424 275.968 28.6828C274.934 24.4283 253.124 21.728 244.914 20.7154C242.689 20.4406 241.083 20.2444 240.464 20.1109C239.399 19.8833 235.944 18.4232 231.157 16.398C221.075 12.1356 204.193 5.0081 192.88 2.4177C188.274 1.36584 179.986 0.777113 169.551 0.777113C156.076 0.777113 142.547 1.75833 136.656 3.16343C120.824 6.94699 106.589 14.6476 96.2014 20.2679C90.2162 23.5099 85.8919 25.8491 83.4634 26.218C37.4074 33.1964 20.9796 38.5106 15.2843 41.0618C11.5161 42.7495 9.09542 50.2067 8.54705 52.6872L8.47654 52.9933H8.16318C7.11343 52.9933 6.49454 53.2053 6.09501 53.7077C5.1001 54.9479 5.25678 58.2526 6.59639 64.4147C8.32769 72.3664 13.4354 73.0258 18.0888 73.0258H41.0659L41.0894 67.4682C41.0894 54.0923 51.9473 43.2126 65.2964 43.2126C78.6455 43.2126 89.5034 54.0923 89.5034 67.4682L89.4563 73.0336Z" fill="#92929D"/>
<path d="M198.852 67.4753H198.539C198.539 52.5059 210.69 40.3311 225.629 40.3311C234.528 40.3311 242.911 44.7504 248.058 52.1605L247.799 52.3411C242.715 45.0173 234.427 40.645 225.629 40.645C210.862 40.645 198.852 52.6786 198.852 67.4753Z" fill="#92929D"/>
<path d="M92.747 67.4751H92.4337C92.4337 52.4821 80.2597 40.2915 65.3046 40.2915C56.2642 40.2915 47.5058 45.0406 42.4372 52.6862L42.1787 52.5135C47.3021 44.7816 56.1624 39.9775 65.3046 39.9775C80.432 39.9775 92.747 52.3094 92.747 67.4751Z" fill="#92929D"/>
<path d="M196.076 67.1618H195.763C195.865 57.4282 200.338 48.5423 207.725 43.3772C211.454 40.7789 213.593 32.1914 213.593 19.8359H213.906C213.906 32.3013 211.721 40.9752 207.905 43.6363C200.596 48.7386 196.178 57.5302 196.076 67.1618Z" fill="#92929D"/>
<path d="M8.625 51.0852V50.7712C14.6728 50.7712 29.479 48.5654 29.479 46.6344C29.479 42.3563 24.9197 40.8413 23.7524 40.8413H15.1037V40.5273H23.7446C25.0215 40.5273 29.7846 42.058 29.7846 46.6344C29.7846 49.0835 13.8111 51.0852 8.625 51.0852Z" fill="#92929D"/>
<path d="M92.7498 67.4754H92.4364C92.4364 36.4456 96.0322 30.1501 97.3797 28.8784C84.3674 29.161 29.1301 39.3657 23.7951 40.8414C19.4629 42.2622 17.9823 50.2767 17.9667 50.3552L17.6611 50.3003C17.7238 49.9627 19.1888 42.0267 23.7011 40.5431C29.1144 39.0438 85.9186 28.5645 97.8967 28.5645L97.928 28.8784C97.8889 28.8863 92.7498 30.6603 92.7498 67.4754Z" fill="#92929D"/>
<path d="M19.8887 67.5463H7.00185V67.2323H19.5754C19.4657 64.7282 16.716 61.5962 13.8017 61.5962H5.61523V61.2822H13.7939C16.9353 61.2822 19.8887 64.7204 19.8887 67.3893V67.5463Z" fill="#92929D"/>
<path d="M97.5811 28.8784L100.777 24.6553C100.793 21.2564 102.665 19.71 104.397 19.71C107.695 19.71 109.998 21.8215 109.998 23.7133C109.998 26.2017 106.825 28.8549 100.934 28.8549L97.5811 28.8784ZM104.404 20.0239C102.814 20.0239 101.099 21.4918 101.099 24.7102V24.7652L98.2234 28.5644L100.942 28.5487C106.629 28.5487 109.692 26.0604 109.692 23.7212C109.685 21.9707 107.515 20.0239 104.404 20.0239Z" fill="#92929D"/>
<path d="M279.313 49.4685L243.762 52.4355L243.788 52.7485L279.339 49.7814L279.313 49.4685Z" fill="#92929D"/>
<path d="M243.754 53.2837V52.4987C260.926 52.4987 282.078 51.1329 282.289 51.1172L282.336 51.9022C282.125 51.91 260.949 53.2837 243.754 53.2837Z" fill="#92929D"/>
<path d="M202.163 67.083H89.1113V67.868H202.163V67.083Z" fill="#92929D"/>
<path d="M46.6827 52.207H8.16309V52.992H46.6827V52.207Z" fill="#92929D"/>
<path d="M104.562 28.4701L104.554 28.1562C105.29 28.1326 178.295 25.6835 193.015 25.6835C208.236 25.6835 213.595 20.8638 213.595 19.8355C213.595 15.9342 193.986 5.70601 184.045 4.41081C173.085 2.99001 154.205 3.45314 145.486 4.41081C127.922 6.34183 108.674 21.1307 108.479 21.2798L108.283 21.0286C108.479 20.8795 127.789 6.03569 145.447 4.08897C154.174 3.1313 173.101 2.66032 184.076 4.08897C193.32 5.28997 213.9 15.526 213.9 19.8198C213.9 21.0757 208.448 25.9818 193.007 25.9818C178.303 25.9975 105.298 28.4466 104.562 28.4701Z" fill="#92929D"/>
<path d="M267.439 42.2788C267.188 42.2788 266.977 42.0983 266.812 41.7529C265.88 39.7434 266.601 32.0821 269.335 28.8323L269.382 28.7773H276.409V29.0913H269.531C266.758 32.4589 266.295 39.8847 267.102 41.6194C267.173 41.7764 267.298 41.9648 267.447 41.9648C270.016 41.9648 278.399 41.9334 278.399 41.9334V42.2474C278.399 42.2553 270.009 42.2788 267.439 42.2788Z" fill="#92929D"/>
<path d="M277.495 34.5918H267.186V34.9058H277.495V34.5918Z" fill="#92929D"/>
<path d="M277.943 37.5674H266.631V37.8814H277.943V37.5674Z" fill="#92929D"/>
<path d="M23.7696 40.8563L23.7305 40.5423C107.397 29.2309 257.316 28.7913 268.769 28.7756C265.393 27.2135 247.907 19.9839 213.751 19.9839V19.6699C251.942 19.6699 269.357 28.6971 269.529 28.7913L270.085 29.0896H269.459C267.892 29.0974 110.351 29.1524 23.7696 40.8563Z" fill="#92929D"/>
<path d="M154.081 26.7991L158.883 3.25781L165.111 3.34415L165.096 3.50901L163.419 26.6421L154.081 26.7991ZM159.142 3.5718L154.473 26.4772L163.145 26.3359L164.782 3.65815L159.142 3.5718Z" fill="#92929D"/>
<path d="M156.756 67.4773H156.442C156.442 50.5298 161.77 3.91825 161.824 3.44727L162.138 3.47867C162.083 3.94965 156.756 50.5455 156.756 67.4773Z" fill="#92929D"/>
<path d="M194.635 7.40027L193.75 25.6211L194.063 25.6364L194.948 7.41553L194.635 7.40027Z" fill="#92929D"/>
<path d="M209.316 34.9072H200.056C199.202 34.9072 198.513 34.2164 198.513 33.3608V33.1724C198.513 32.3168 199.202 31.626 200.056 31.626H209.316C210.17 31.626 210.859 32.3168 210.859 33.1724V33.3608C210.867 34.2164 210.17 34.9072 209.316 34.9072ZM200.056 31.9321C199.374 31.9321 198.826 32.4895 198.826 33.1645V33.3529C198.826 34.0358 199.382 34.5853 200.056 34.5853H209.316C209.997 34.5853 210.546 34.0358 210.546 33.3529V33.1645C210.546 32.4816 209.989 31.9321 209.316 31.9321H200.056Z" fill="#92929D"/>
<path d="M206.713 36.1545H201.449C200.595 36.1545 199.905 35.4637 199.905 34.6081V31.7822H200.219V34.6081C200.219 35.291 200.775 35.8405 201.449 35.8405H206.713C207.395 35.8405 207.943 35.2832 207.943 34.6081V31.7822H208.256V34.6081C208.256 35.4559 207.567 36.1545 206.713 36.1545Z" fill="#92929D"/>
<path d="M155.755 34.9062H146.495C145.642 34.9062 144.952 34.2154 144.952 33.3598V33.1714C144.952 32.3158 145.649 31.625 146.495 31.625H155.755C156.609 31.625 157.298 32.3158 157.298 33.1714V33.3598C157.306 34.2154 156.609 34.9062 155.755 34.9062ZM146.495 31.9311C145.814 31.9311 145.266 32.4885 145.266 33.1636V33.3519C145.266 34.0349 145.822 34.5844 146.495 34.5844H155.755C156.437 34.5844 156.985 34.0349 156.985 33.3519V33.1636C156.985 32.4806 156.429 31.9311 155.755 31.9311H146.495Z" fill="#92929D"/>
<path d="M153.156 36.1535H147.892C147.038 36.1535 146.349 35.4628 146.349 34.6071V31.7812H146.662V34.6071C146.662 35.2901 147.218 35.8396 147.892 35.8396H153.156C153.838 35.8396 154.386 35.2822 154.386 34.6071V31.7812H154.7V34.6071C154.7 35.4549 154.01 36.1535 153.156 36.1535Z" fill="#92929D"/>
<path d="M97.2741 28.9972C91.1166 28.9972 86.048 25.143 85.9932 25.1037L86.1812 24.8525C86.236 24.8918 91.6415 29.005 98.0183 28.6596L98.034 28.9736C97.7911 28.9893 97.5326 28.9972 97.2741 28.9972Z" fill="#92929D"/>
<path d="M91.2339 27.7872L91.0459 27.536C91.3201 27.324 119.005 6.40459 146.581 1.19238L146.636 1.49853C119.131 6.70289 91.5081 27.5752 91.2339 27.7872Z" fill="#92929D"/>
</g>
<defs>
<clipPath id="clip0_12690_29448">
<rect width="285" height="94" fill="white"/>
</clipPath>
</defs>
</svg>
