<svg width="119" height="95" viewBox="0 0 119 95" fill="none" xmlns="http://www.w3.org/2000/svg">
<g clip-path="url(#clip0_12690_29883)">
<path d="M118.787 91.875H0.108398V92.1884H118.787V91.875Z" fill="#92929D"/>
<path d="M59.6061 0H59.293V95H59.6061V0Z" fill="#92929D"/>
<path d="M6.27922 32.5252C2.05915 32.0709 0 30.1673 0 26.7126C0 23.7357 3.27271 23.5869 9.05867 23.5869C9.8651 23.5869 10.4053 24.1196 10.6794 25.1772C10.8908 26.0154 10.8908 27.0338 10.8908 27.7075V27.7936H10.5776V27.7075C10.5776 27.0494 10.5776 26.0545 10.374 25.2477C10.1391 24.339 9.71634 23.8924 9.05867 23.8924C2.97519 23.8924 0.313185 24.1588 0.313185 26.7047C0.313185 30.0106 2.21573 31.7654 6.31053 32.2041L6.27922 32.5252Z" fill="#92929D"/>
<path d="M112.619 32.5418L112.588 32.2285C116.745 31.7506 118.687 30.0037 118.687 26.7135C118.687 24.1676 116.025 23.9012 109.941 23.9012C109.292 23.9012 108.861 24.3477 108.626 25.2565C108.423 26.0555 108.423 27.0582 108.423 27.7163V27.8024H108.109V27.7163C108.109 27.0426 108.109 26.0242 108.321 25.186C108.587 24.1284 109.135 23.5957 109.941 23.5957C115.727 23.5957 119 23.7445 119 26.7214C119 30.1447 116.91 32.0483 112.619 32.5418Z" fill="#92929D"/>
<path d="M9.00563 77.5781C6.3123 77.5781 4.14355 61.1272 4.14355 47.4965C4.14355 41.3862 4.62897 34.375 5.70161 32.4635C6.42974 31.1709 8.76292 29.0245 10.3053 27.5988C10.8299 27.1131 11.3701 26.6195 11.4563 26.502C16.8586 17.5167 24.7663 6.41628 26.8646 5.57024C29.1743 4.64585 44.9976 4.16016 59.4429 4.16016V4.94353C42.9619 4.94353 29.0803 5.52323 27.1543 6.29877C25.5884 6.92547 18.3383 16.5688 12.1139 26.9172C12.02 27.0817 11.7068 27.3637 10.8299 28.1706C9.41276 29.471 7.04044 31.6567 6.37494 32.8395C5.52153 34.3593 4.91866 40.3835 4.91866 47.4887C4.91866 63.5244 7.61982 76.7869 8.99781 76.7869C12.709 76.7869 14.7681 75.8469 16.5767 75.0165C17.9234 74.3976 19.1996 73.8179 20.8594 73.8179H59.6308V74.6013H20.8594C19.364 74.6013 18.2209 75.1262 16.8977 75.7294C15.1204 76.5598 12.889 77.5781 9.00563 77.5781Z" fill="#92929D"/>
<path d="M17.9077 25.9298C17.7824 25.9298 17.6728 25.875 17.5945 25.7732C17.5162 25.6635 17.4928 25.5225 17.5397 25.3971C20.5462 17.2109 25.0873 10.3955 26.7315 8.7269C28.1878 7.25416 37.7788 7.17581 53.4142 7.21498C55.4186 7.22282 57.4386 7.22281 59.4429 7.22281V8.00619C57.4386 8.00619 55.4186 7.99836 53.4064 7.99836C41.7875 7.95919 28.6184 7.92786 27.2874 9.27526C25.6197 10.9595 21.3213 17.6182 18.4871 25.0916C22.0886 24.8018 40.8793 23.3525 59.4429 23.3525V24.1359C38.9298 24.1359 18.1426 25.9063 17.939 25.922C17.9312 25.9298 17.9234 25.9298 17.9077 25.9298Z" fill="#92929D"/>
<path d="M15.9981 92.337H10.8541C7.95724 92.337 5.60059 89.9791 5.60059 87.0806V67.8174H6.38353V87.0806C6.38353 89.5482 8.38786 91.5537 10.8541 91.5537H15.9981C18.4644 91.5537 20.4687 89.5482 20.4687 87.0806V74.4134H21.2516V87.0806C21.2516 89.9791 18.895 92.337 15.9981 92.337Z" fill="#92929D"/>
<path d="M59.4497 50.6217H35.7108C34.6538 50.6217 33.7613 48.7886 32.9313 45.9371C31.6003 45.9371 10.7427 45.9684 8.26078 45.9684C8.01023 45.9684 7.79884 45.7883 7.63442 45.4436C6.70272 43.4381 7.42303 35.7924 10.1555 32.5492C12.5983 29.6507 17.7579 25.4518 17.8127 25.4127L18.0711 25.209V25.538C18.0711 25.6085 18.1024 32.5022 20.4434 32.5022H29.7839C30.2067 32.5022 30.4886 33.5989 31.3811 37.9388C32.4068 42.8663 33.9492 50.3162 35.7186 50.3162H59.4575V50.6217H59.4497ZM17.7579 25.867C16.6931 26.7444 12.5122 30.2461 10.3904 32.7607C7.57962 36.0901 7.10985 43.5792 7.91628 45.3182C7.98674 45.4749 8.11202 45.6629 8.26078 45.6629C10.6957 45.6629 30.8644 45.6394 32.8452 45.6316C32.2423 43.5008 31.663 40.853 31.0758 38.0015C30.5669 35.5417 30.0344 33.0036 29.7526 32.8077L20.4434 32.8156C18.0789 32.8156 17.7892 27.3006 17.7579 25.867Z" fill="#92929D"/>
<path d="M21.0696 32.4961H10.1162V32.8094H21.0696V32.4961Z" fill="#92929D"/>
<path d="M31.9815 41.4805H7.57715V41.7938H31.9815V41.4805Z" fill="#92929D"/>
<path d="M31.4046 38.4092H7.80664V38.7225H31.4046V38.4092Z" fill="#92929D"/>
<path d="M59.4519 32.2686H29.7783V33.0519H59.4519V32.2686Z" fill="#92929D"/>
<path d="M4.97236 56.404H4.65918C4.65918 55.2368 5.22291 53.2783 9.01236 53.2783H59.4496V53.5917H9.01236C6.40516 53.5917 4.97236 54.5944 4.97236 56.404Z" fill="#92929D"/>
<path d="M109.888 77.5791C106.004 77.5791 103.773 76.5607 101.98 75.7382C100.657 75.135 99.5139 74.6101 98.0185 74.6101H59.2471V73.8267H98.0185C99.6783 73.8267 100.954 74.4064 102.301 75.0253C104.118 75.8557 106.177 76.7957 109.88 76.7957C111.258 76.7957 113.959 63.5332 113.959 47.4975C113.959 40.3922 113.364 34.3681 112.503 32.8483C111.837 31.6576 109.465 29.4798 108.048 28.1794C107.171 27.3725 106.858 27.0827 106.764 26.926C100.54 16.5776 93.2895 6.93426 91.7236 6.30756C89.8054 5.53985 75.9238 4.95232 59.435 4.95232V4.16895C73.8803 4.16895 89.7114 4.65464 92.0133 5.57902C94.1116 6.42507 102.027 17.5255 107.429 26.5187C107.508 26.6205 108.048 27.1219 108.573 27.5997C110.115 29.0176 112.448 31.1641 113.176 32.4645C114.249 34.3759 114.734 41.395 114.734 47.4975C114.75 61.1204 112.581 77.5791 109.888 77.5791Z" fill="#92929D"/>
<path d="M100.983 25.9299C100.976 25.9299 100.96 25.9299 100.952 25.9299C100.749 25.9142 79.9614 24.1438 59.4482 24.1438V23.3604C78.0118 23.3604 96.8025 24.8097 100.404 25.0995C97.562 17.6261 93.2714 10.9674 91.6038 9.28318C90.2728 7.93577 77.1036 7.97493 65.4848 8.00627C63.4804 8.0141 61.4526 8.01411 59.4482 8.01411V7.23073C61.4526 7.23073 63.4726 7.22289 65.4769 7.22289C81.0967 7.17589 90.7034 7.26207 92.1596 8.73481C93.8117 10.4034 98.3449 17.2188 101.351 25.405C101.398 25.5304 101.375 25.6714 101.297 25.7811C101.218 25.8751 101.109 25.9299 100.983 25.9299Z" fill="#92929D"/>
<path d="M83.1793 50.6237H59.4404V50.3103H83.1793C84.9487 50.3103 86.4911 42.8604 87.5168 37.933C88.4172 33.6009 88.6912 32.4964 89.114 32.4964H98.4545C100.396 32.4964 100.827 27.4749 100.827 25.5321V25.2031L101.085 25.4068C101.14 25.446 106.3 29.6449 108.742 32.5434C111.475 35.7787 112.195 43.4244 111.264 45.4377C111.099 45.7902 110.888 45.9626 110.637 45.9626C108.155 45.9626 87.2976 45.9312 85.9666 45.9312C85.1288 48.7906 84.2441 50.6237 83.1793 50.6237ZM86.0527 45.6336C88.0335 45.6336 108.194 45.6649 110.629 45.6649C110.778 45.6649 110.896 45.4769 110.974 45.3202C111.78 43.5811 111.31 36.092 108.5 32.7627C106.378 30.2559 102.197 26.7464 101.132 25.869C101.101 27.3026 100.811 32.8175 98.4545 32.8175H89.114C88.8556 32.9977 88.3311 35.5437 87.8222 38.0035C87.2271 40.8471 86.6556 43.5028 86.0527 45.6336Z" fill="#92929D"/>
<path d="M108.777 32.4961H97.8311V32.8094H108.777V32.4961Z" fill="#92929D"/>
<path d="M111.314 41.4814H86.9092V41.7948H111.314V41.4814Z" fill="#92929D"/>
<path d="M111.092 38.4102H87.4941V38.7235H111.092V38.4102Z" fill="#92929D"/>
<path d="M89.1218 32.2686H59.4482V33.0519H89.1218V32.2686Z" fill="#92929D"/>
<path d="M114.239 56.405H113.926C113.926 54.5875 112.493 53.5926 109.886 53.5926H59.4482V53.2793H109.886C113.675 53.2793 114.239 55.2377 114.239 56.405Z" fill="#92929D"/>
<path d="M18.0651 74.8682H17.752V91.5462H18.0651V74.8682Z" fill="#92929D"/>
<path d="M16.5456 75.5488H16.2324V91.9292H16.5456V75.5488Z" fill="#92929D"/>
<path d="M15.0964 76.1523H14.7832V91.9217H15.0964V76.1523Z" fill="#92929D"/>
<path d="M13.5768 76.6465H13.2637V91.9223H13.5768V76.6465Z" fill="#92929D"/>
<path d="M12.1618 76.9521H11.8486V91.9303H12.1618V76.9521Z" fill="#92929D"/>
<path d="M10.6042 76.9512H10.291V91.9293H10.6042V76.9512Z" fill="#92929D"/>
<path d="M7.4958 74.2168H7.18262V90.511H7.4958V74.2168Z" fill="#92929D"/>
<path d="M9.12373 76.9521H8.81055V91.5621H9.12373V76.9521Z" fill="#92929D"/>
<path d="M19.5104 74.3984H19.1973V90.5673H19.5104V74.3984Z" fill="#92929D"/>
<path d="M108.042 92.337H102.898C100.001 92.337 97.6445 89.9791 97.6445 87.0806V74.4134H98.4275V87.0806C98.4275 89.5482 100.432 91.5537 102.898 91.5537H108.042C110.508 91.5537 112.513 89.5482 112.513 87.0806V67.8174H113.296V87.0806C113.288 89.9791 110.939 92.337 108.042 92.337Z" fill="#92929D"/>
<path d="M101.144 74.8682H100.831V91.5462H101.144V74.8682Z" fill="#92929D"/>
<path d="M102.663 75.5498H102.35V91.9302H102.663V75.5498Z" fill="#92929D"/>
<path d="M104.109 76.1523H103.796V91.9217H104.109V76.1523Z" fill="#92929D"/>
<path d="M105.636 76.6455H105.323V91.9213H105.636V76.6455Z" fill="#92929D"/>
<path d="M107.047 76.9512H106.733V91.9293H107.047V76.9512Z" fill="#92929D"/>
<path d="M108.605 76.9521H108.292V91.9303H108.605V76.9521Z" fill="#92929D"/>
<path d="M111.71 74.2168H111.396V90.511H111.71V74.2168Z" fill="#92929D"/>
<path d="M110.086 76.9521H109.772V91.5621H110.086V76.9521Z" fill="#92929D"/>
<path d="M99.6941 74.3994H99.3809V90.5683H99.6941V74.3994Z" fill="#92929D"/>
</g>
<defs>
<clipPath id="clip0_12690_29883">
<rect width="119" height="95" fill="white"/>
</clipPath>
</defs>
</svg>
