<svg width="285" height="94" viewBox="0 0 285 94" fill="none" xmlns="http://www.w3.org/2000/svg">
<g clip-path="url(#clip0_12690_30060)">
<path d="M285 88.1445H0V88.4585H285V88.1445Z" fill="#92929D"/>
<path d="M59.5321 32.3701H59.2188V93.3645H59.5321V32.3701Z" fill="#92929D"/>
<path d="M219.845 39.5596H219.531V94.0001H219.845V39.5596Z" fill="#92929D"/>
<path d="M93.0442 67.3213H28.4609V67.6352H93.0442V67.3213Z" fill="#92929D"/>
<path d="M250.682 67.3213H186.099V67.6352H250.682V67.3213Z" fill="#92929D"/>
<path d="M59.3744 88.6775C47.7096 88.6775 38.2148 79.1645 38.2148 67.4774C38.2148 55.7903 47.7096 46.2773 59.3744 46.2773C71.0392 46.2773 80.534 55.7903 80.534 67.4774C80.534 79.1645 71.0392 88.6775 59.3744 88.6775ZM59.3744 47.0622C48.1405 47.0622 38.9982 56.222 38.9982 67.4774C38.9982 78.7329 48.1405 87.8926 59.3744 87.8926C70.6083 87.8926 79.7506 78.7329 79.7506 67.4774C79.7506 56.222 70.6083 47.0622 59.3744 47.0622Z" fill="#92929D"/>
<path d="M59.3712 82.5236C51.0907 82.5236 44.3535 75.7735 44.3535 67.4772C44.3535 59.1808 51.0907 52.4307 59.3712 52.4307C67.6518 52.4307 74.389 59.1808 74.389 67.4772C74.389 75.7735 67.6518 82.5236 59.3712 82.5236ZM59.3712 52.7446C51.2631 52.7446 44.6669 59.3535 44.6669 67.4772C44.6669 75.6008 51.2631 82.2097 59.3712 82.2097C67.4794 82.2097 74.0756 75.6008 74.0756 67.4772C74.0756 59.3535 67.4794 52.7446 59.3712 52.7446ZM60.7344 79.596V73.1755L60.8519 73.1441C61.3689 73.0107 61.8624 72.8066 62.3247 72.5319L62.4265 72.4691L66.9624 77.0137L66.8214 77.1235C65.1057 78.4579 63.061 79.3056 60.9145 79.5803L60.7344 79.596ZM61.0477 73.411V79.2349C63.014 78.9524 64.8942 78.1753 66.4845 76.9744L62.3717 72.8537C61.9565 73.097 61.5099 73.2854 61.0477 73.411ZM58.0081 79.596L57.828 79.5724C55.6814 79.2977 53.6368 78.45 51.9211 77.1157L51.7801 77.0058L56.316 72.4612L56.4178 72.524C56.8722 72.7909 57.3736 72.995 57.8906 73.1363L58.0081 73.1677V79.596V79.596ZM52.258 76.9823C53.8561 78.1832 55.7284 78.9602 57.6948 79.2428V73.4188C57.2326 73.2854 56.786 73.1049 56.363 72.8694L52.258 76.9823ZM49.853 75.0828L49.7433 74.9415C48.4115 73.2226 47.5654 71.174 47.2913 69.0234L47.2678 68.8429H53.6759L53.7073 68.9606C53.8405 69.4786 54.0441 69.9731 54.3183 70.4362L54.381 70.5383L49.853 75.0828ZM47.636 69.1568C47.918 71.1269 48.6935 73.0107 49.8921 74.604L54.005 70.4833C53.77 70.0673 53.5898 69.6199 53.4566 69.149H47.636V69.1568ZM68.8895 75.0828L64.3537 70.5383L64.4163 70.4362C64.6827 69.981 64.8864 69.4786 65.0274 68.9606L65.0587 68.8429H71.4669L71.4434 69.0234C71.1692 71.174 70.3231 73.2226 68.9914 74.9415L68.8895 75.0828ZM64.7454 70.4912L68.8582 74.6119C70.0568 73.0107 70.8323 71.1348 71.1144 69.1647H65.3016C65.1684 69.6199 64.9804 70.0673 64.7454 70.4912ZM71.4669 66.1114H65.0587L65.0274 65.9937C64.8942 65.4757 64.6905 64.9812 64.4163 64.5181L64.3537 64.416L68.8895 59.8715L68.9992 60.0128C70.331 61.7317 71.177 63.7803 71.4512 65.9309L71.4669 66.1114ZM65.3016 65.7975H71.1144C70.8323 63.8274 70.0568 61.9515 68.8582 60.3503L64.7454 64.471C64.9804 64.887 65.1684 65.3344 65.3016 65.7975ZM53.6838 66.1114H47.2756L47.2991 65.9309C47.5733 63.7803 48.4193 61.7317 49.7511 60.0128L49.8608 59.8715L54.3967 64.416L54.334 64.5181C54.0676 64.9812 53.864 65.4757 53.723 65.9937L53.6838 66.1114ZM47.636 65.7975H53.4488C53.5819 65.3344 53.7621 64.887 53.9971 64.4631L49.8843 60.3424C48.6857 61.9436 47.9101 63.8195 47.636 65.7975ZM56.316 62.4852L51.7801 57.9406L51.9211 57.8308C53.6368 56.4964 55.6814 55.6487 57.828 55.374L58.0081 55.3505V61.7709L57.8906 61.8023C57.3736 61.9358 56.88 62.1398 56.4178 62.4146L56.316 62.4852ZM52.258 57.972L56.3708 62.0928C56.786 61.8573 57.2326 61.6768 57.7026 61.5433V55.7194C55.7285 55.9941 53.8561 56.7711 52.258 57.972ZM62.4265 62.4852L62.3247 62.4224C61.8624 62.1555 61.3689 61.9515 60.8519 61.8102L60.7344 61.7788V55.3583L60.9145 55.3819C63.061 55.6566 65.1057 56.5043 66.8214 57.8386L66.9624 57.9485L62.4265 62.4852ZM61.0477 61.5355C61.5099 61.6689 61.9565 61.8494 62.3795 62.0849L66.4923 57.9642C64.8942 56.7633 63.0219 55.9862 61.0556 55.7037V61.5355H61.0477Z" fill="#92929D"/>
<path d="M59.3753 79.7153C52.6381 79.7153 47.1621 74.221 47.1621 67.4787C47.1621 60.7286 52.6459 55.2422 59.3753 55.2422C66.1125 55.2422 71.5884 60.7365 71.5884 67.4787C71.5963 74.2289 66.1125 79.7153 59.3753 79.7153ZM59.3753 55.5561C52.8104 55.5561 47.4755 60.9092 47.4755 67.4787C47.4755 74.0562 52.8182 79.4013 59.3753 79.4013C65.9402 79.4013 71.2751 74.0483 71.2751 67.4787C71.2751 60.9013 65.9402 55.5561 59.3753 55.5561Z" fill="#92929D"/>
<path d="M59.3703 72.1725C56.7851 72.1725 54.6855 70.069 54.6855 67.4788C54.6855 64.8887 56.7851 62.7852 59.3703 62.7852C61.9555 62.7852 64.055 64.8887 64.055 67.4788C64.055 70.0612 61.9555 72.1725 59.3703 72.1725ZM59.3703 63.0991C56.9574 63.0991 54.9989 65.0614 54.9989 67.4788C54.9989 69.8963 56.9574 71.8586 59.3703 71.8586C61.7831 71.8586 63.7416 69.8963 63.7416 67.4788C63.7416 65.0614 61.7831 63.0991 59.3703 63.0991Z" fill="#92929D"/>
<path d="M59.3712 87.1555C48.5368 87.1555 39.7314 78.3254 39.7314 67.4782C39.7314 56.6309 48.5447 47.8008 59.3712 47.8008C70.1978 47.8008 79.011 56.6309 79.011 67.4782C79.011 78.3254 70.2056 87.1555 59.3712 87.1555ZM59.3712 48.5857C48.9755 48.5857 40.5148 57.0626 40.5148 67.4782C40.5148 77.8938 48.9755 86.3706 59.3712 86.3706C69.7669 86.3706 78.2276 77.8938 78.2276 67.4782C78.2354 57.0626 69.7747 48.5857 59.3712 48.5857Z" fill="#92929D"/>
<path d="M219.703 88.6785C208.038 88.6785 198.543 79.1655 198.543 67.4784C198.543 55.7913 208.038 46.2783 219.703 46.2783C231.367 46.2783 240.862 55.7913 240.862 67.4784C240.854 79.1655 231.367 88.6785 219.703 88.6785ZM219.703 47.0632C208.469 47.0632 199.326 56.223 199.326 67.4784C199.326 78.7338 208.469 87.8936 219.703 87.8936C230.936 87.8936 240.079 78.7338 240.079 67.4784C240.071 56.223 230.936 47.0632 219.703 47.0632Z" fill="#92929D"/>
<path d="M219.703 82.5236C211.423 82.5236 204.686 75.7735 204.686 67.4772C204.686 59.1808 211.423 52.4307 219.703 52.4307C227.984 52.4307 234.721 59.1808 234.721 67.4772C234.721 75.7735 227.984 82.5236 219.703 82.5236ZM219.703 52.7446C211.595 52.7446 204.999 59.3535 204.999 67.4772C204.999 75.6008 211.595 82.2097 219.703 82.2097C227.811 82.2097 234.408 75.6008 234.408 67.4772C234.408 59.3535 227.811 52.7446 219.703 52.7446ZM218.34 79.596L218.16 79.5724C216.013 79.2977 213.969 78.45 212.253 77.1157L212.112 77.0058L216.648 72.4612L216.75 72.524C217.212 72.7909 217.706 72.995 218.223 73.1363L218.34 73.1677V79.596V79.596ZM212.582 76.9823C214.18 78.1832 216.053 78.9602 218.019 79.2428V73.4188C217.557 73.2854 217.11 73.1049 216.687 72.8694L212.582 76.9823ZM221.066 79.596V73.1755L221.184 73.1441C221.701 73.0107 222.194 72.8066 222.657 72.5319L222.759 72.4691L227.294 77.0137L227.153 77.1235C225.438 78.4579 223.393 79.3056 221.247 79.5803L221.066 79.596ZM221.38 73.411V79.2349C223.346 78.9524 225.226 78.1753 226.817 76.9744L222.704 72.8537C222.288 73.097 221.842 73.2854 221.38 73.411ZM210.185 75.0828L210.075 74.9415C208.744 73.2226 207.897 71.174 207.623 69.0234L207.6 68.8429H214.008L214.039 68.9606C214.172 69.4786 214.376 69.9731 214.65 70.4362L214.713 70.5383L210.185 75.0828ZM207.96 69.1568C208.242 71.1269 209.018 73.0107 210.216 74.604L214.329 70.4833C214.094 70.0673 213.914 69.6199 213.781 69.149H207.96V69.1568ZM229.214 75.0828L224.678 70.5383L224.741 70.4362C225.007 69.981 225.218 69.4786 225.352 68.9606L225.383 68.8429H231.791L231.768 69.0234C231.493 71.174 230.647 73.2226 229.316 74.9415L229.214 75.0828ZM225.077 70.4912L229.19 74.6119C230.389 73.0107 231.164 71.1348 231.446 69.1647H225.634C225.493 69.6199 225.312 70.0673 225.077 70.4912ZM231.799 66.1114H225.391L225.359 65.9937C225.226 65.4757 225.023 64.9812 224.748 64.5181L224.686 64.416L229.222 59.8715L229.331 60.0128C230.663 61.7317 231.509 63.7803 231.783 65.9309L231.799 66.1114ZM225.626 65.7975H231.439C231.157 63.8274 230.381 61.9436 229.182 60.3503L225.07 64.471C225.312 64.887 225.493 65.3344 225.626 65.7975ZM214.016 66.1114H207.6L207.623 65.9309C207.897 63.7803 208.744 61.7317 210.075 60.0128L210.185 59.8715L214.721 64.416L214.658 64.5181C214.392 64.9812 214.188 65.4757 214.047 65.9937L214.016 66.1114ZM207.96 65.7975H213.773C213.906 65.3344 214.086 64.887 214.321 64.4631L210.208 60.3424C209.018 61.9436 208.242 63.8195 207.96 65.7975ZM222.759 62.4852L222.657 62.4224C222.202 62.1555 221.701 61.9515 221.184 61.8102L221.066 61.7788V55.3583L221.247 55.3819C223.393 55.6566 225.438 56.5043 227.153 57.8386L227.294 57.9485L222.759 62.4852ZM221.38 61.5355C221.842 61.6689 222.288 61.8494 222.712 62.0849L226.824 57.9642C225.226 56.7633 223.354 55.9862 221.388 55.7037V61.5355H221.38ZM216.64 62.4852L212.104 57.9406L212.245 57.8308C213.961 56.4964 216.006 55.6487 218.152 55.374L218.332 55.3505V61.7709L218.215 61.8023C217.698 61.9358 217.204 62.1398 216.742 62.4146L216.64 62.4852ZM212.582 57.972L216.695 62.0928C217.11 61.8573 217.557 61.6768 218.027 61.5433V55.7194C216.053 55.9941 214.18 56.7711 212.582 57.972Z" fill="#92929D"/>
<path d="M219.703 79.7153C212.966 79.7153 207.49 74.221 207.49 67.4787C207.49 60.7286 212.974 55.2422 219.703 55.2422C226.441 55.2422 231.917 60.7365 231.917 67.4787C231.917 74.2289 226.433 79.7153 219.703 79.7153ZM219.703 55.5561C213.139 55.5561 207.804 60.9092 207.804 67.4787C207.804 74.0562 213.146 79.4013 219.703 79.4013C226.268 79.4013 231.603 74.0483 231.603 67.4787C231.603 60.9013 226.26 55.5561 219.703 55.5561Z" fill="#92929D"/>
<path d="M219.702 72.1716C217.117 72.1716 215.018 70.068 215.018 67.4779C215.018 64.8877 217.117 62.7842 219.702 62.7842C222.288 62.7842 224.387 64.8877 224.387 67.4779C224.379 70.0602 222.28 72.1716 219.702 72.1716ZM219.702 63.0981C217.289 63.0981 215.331 65.0604 215.331 67.4779C215.331 69.8954 217.289 71.8576 219.702 71.8576C222.115 71.8576 224.074 69.8954 224.074 67.4779C224.074 65.0604 222.107 63.0981 219.702 63.0981Z" fill="#92929D"/>
<path d="M219.703 87.1565C208.869 87.1565 200.063 78.3264 200.063 67.4791C200.063 56.6319 208.877 47.8018 219.703 47.8018C230.53 47.8018 239.343 56.6319 239.343 67.4791C239.343 78.3264 230.53 87.1565 219.703 87.1565ZM219.703 48.5867C209.308 48.5867 200.847 57.0635 200.847 67.4791C200.847 77.8947 209.308 86.3716 219.703 86.3716C230.099 86.3716 238.56 77.8947 238.56 67.4791C238.56 57.0635 230.099 48.5867 219.703 48.5867Z" fill="#92929D"/>
<path d="M266.912 73.8196H243.152L243.128 67.4776C243.128 54.5347 232.623 44.0092 219.704 44.0092C206.786 44.0092 196.281 54.5347 196.281 67.4776L196.336 73.8196H82.4454V67.4776C82.4454 54.7309 72.0967 44.3703 59.3822 44.3703C46.6598 44.3703 36.319 54.7388 36.319 67.4776L35.9821 73.6783L35.5982 73.6626C30.8508 73.4743 7.11389 72.4068 5.62543 70.2248C2.18632 65.1622 2.25683 57.8391 2.30383 52.9963C2.31166 52.4704 2.31166 51.9759 2.31166 51.5128C2.31166 50.257 3.69828 49.9273 4.61485 49.7076C4.84204 49.6526 5.14756 49.582 5.28074 49.5192C5.35908 47.6825 6.94154 34.0175 8.27332 28.5075C9.29174 24.3083 24.1214 21.9065 39.9931 19.9521C42.1944 19.6774 43.7926 19.4812 44.3723 19.3556C45.3672 19.1437 48.9708 17.6131 53.5459 15.6901C63.6517 11.4203 80.5731 4.27769 91.948 1.67183C96.6092 0.588673 104.96 0 115.458 0C128.987 0 142.587 0.988971 148.533 2.40964C164.467 6.21639 178.748 13.9398 189.175 19.5832C194.863 22.66 199.36 25.0932 201.655 25.4464C247.805 32.4398 264.311 37.785 270.038 40.3516C274.401 42.306 276.712 50.5317 277.143 52.2192C277.95 52.2506 278.882 52.4312 279.517 53.2161C280.708 54.6995 280.606 57.9882 279.172 64.5814C277.402 72.6972 272.231 73.8196 266.912 73.8196ZM243.935 73.0347H266.912C271.565 73.0347 276.673 72.3675 278.404 64.4165C279.744 58.2472 279.901 54.9428 278.906 53.7105C278.506 53.2082 277.887 52.9963 276.838 52.9963H276.524L276.454 52.6902C275.905 50.2099 273.485 42.7534 269.717 41.0658C264.021 38.5149 247.593 33.2012 201.537 26.2234C199.109 25.8545 194.785 23.5155 188.799 20.2739C178.412 14.654 164.177 6.94634 148.345 3.17099C142.454 1.76602 128.932 0.784898 115.458 0.784898C105.023 0.784898 96.7346 1.36572 92.1204 2.42533C80.8081 5.01549 63.9259 12.1424 53.8436 16.4044C49.057 18.4294 45.5944 19.8893 44.5368 20.1169C43.9179 20.2504 42.3119 20.4466 40.0871 20.7213C31.8771 21.7338 10.0595 24.4339 9.03321 28.688C7.66227 34.3471 6.0563 48.6872 6.0563 49.6291C6.0563 50.1628 5.46876 50.3041 4.7872 50.4611C3.85496 50.6808 3.08723 50.9163 3.08723 51.505C3.08723 51.9681 3.07939 52.4704 3.07939 52.9963C3.03239 57.7449 2.96188 64.9189 6.25999 69.7774C7.12172 71.0411 21.7478 72.3048 35.23 72.862L35.5277 67.4541C35.5277 54.2992 46.2289 43.5775 59.3743 43.5775C72.5276 43.5775 83.221 54.2992 83.221 67.4698V73.0269H195.537L195.49 67.4776C195.49 54.103 206.348 43.2243 219.697 43.2243C233.046 43.2243 243.904 54.103 243.904 67.4776L243.935 73.0347Z" fill="#92929D"/>
<path d="M86.4648 67.4777H86.1515C86.1515 52.6902 74.142 40.6499 59.375 40.6499C50.5774 40.6499 42.2891 45.0218 37.2048 52.3449L36.9463 52.1643C42.0932 44.7549 50.4756 40.3359 59.375 40.3359C74.3143 40.3359 86.4648 52.5097 86.4648 67.4777Z" fill="#92929D"/>
<path d="M192.566 67.4784H192.253C192.253 52.3141 204.568 39.9834 219.695 39.9834C228.838 39.9834 237.698 44.787 242.821 52.5182L242.563 52.6909C237.494 45.046 228.736 40.2895 219.695 40.2895C204.74 40.2974 192.566 52.4868 192.566 67.4784Z" fill="#92929D"/>
<path d="M88.92 67.1652C88.8181 57.5345 84.3998 48.7437 77.0907 43.6418C73.2755 40.981 71.0898 32.3079 71.0898 19.8438H71.4032C71.4032 32.2059 73.5419 40.7848 77.2708 43.3828C84.6583 48.5396 89.1315 57.4325 89.2333 67.1652H88.92Z" fill="#92929D"/>
<path d="M276.373 51.0891C271.187 51.0891 255.206 49.0876 255.206 46.6387C255.206 42.0628 259.969 40.5322 261.246 40.5322H269.887V40.8462H261.246C260.079 40.8462 255.519 42.361 255.519 46.6387C255.519 48.5617 270.318 50.7751 276.373 50.7751V51.0891Z" fill="#92929D"/>
<path d="M192.567 67.4787H192.254C192.254 30.667 187.115 28.8931 187.06 28.8774L185.885 28.5713H187.091C199.077 28.5713 255.874 39.0497 261.279 40.5488C265.799 42.0323 267.272 49.9676 267.327 50.3051L267.021 50.36C267.006 50.2816 265.525 42.2756 261.193 40.8471C255.874 39.3715 200.628 29.1678 187.616 28.8852C188.979 30.1568 192.567 36.4517 192.567 67.4787Z" fill="#92929D"/>
<path d="M277.994 67.5477H265.107V67.3907C265.107 64.722 268.061 61.2842 271.202 61.2842H279.381V61.5981H271.202C268.288 61.5981 265.538 64.7299 265.421 67.2337H277.994V67.5477Z" fill="#92929D"/>
<path d="M187.42 28.8844L184.059 28.8687C178.176 28.8687 174.995 26.2236 174.995 23.7276C174.995 21.836 177.298 19.7246 180.596 19.7246C182.328 19.7246 184.2 21.2709 184.216 24.6695L187.42 28.8844ZM180.596 20.0307C177.478 20.0307 175.308 21.9773 175.308 23.7197C175.308 26.0587 178.372 28.5469 184.059 28.5469L186.777 28.5626L183.902 24.7637V24.7087C183.902 21.4985 182.195 20.0307 180.596 20.0307Z" fill="#92929D"/>
<path d="M5.67256 49.4703L5.64648 49.7832L41.1975 52.7571L41.2236 52.4443L5.67256 49.4703Z" fill="#92929D"/>
<path d="M41.2464 53.2864C24.043 53.2864 2.87558 51.9129 2.66406 51.905L2.7189 51.1201C2.93042 51.1358 24.0743 52.5015 41.2542 52.5015V53.2864H41.2464Z" fill="#92929D"/>
<path d="M195.888 67.0859H82.8359V67.8708H195.888V67.0859Z" fill="#92929D"/>
<path d="M276.837 52.2119H238.317V52.9968H276.837V52.2119Z" fill="#92929D"/>
<path opacity="0.3" d="M180.44 28.4765C179.704 28.453 106.707 26.0041 91.9948 26.0041C76.554 26.0041 71.1016 21.0906 71.1016 19.8426C71.1016 15.5493 91.6814 5.30634 100.926 4.1133C111.901 2.68478 130.828 3.15572 139.555 4.1133C157.205 6.05199 176.523 20.8944 176.719 21.0435L176.531 21.2947C176.335 21.1456 157.087 6.3581 139.524 4.42725C130.804 3.46968 111.924 3.00659 100.965 4.42725C91.0234 5.71449 71.4149 15.9495 71.4149 19.8505C71.4149 20.8866 76.7734 25.698 91.9948 25.698C106.715 25.698 179.72 28.1469 180.456 28.1704L180.44 28.4765Z" fill="#92929D"/>
<path d="M17.5642 42.2825C15.0025 42.2825 6.60449 42.2511 6.60449 42.2511V41.9371C6.60449 41.9371 14.9947 41.9685 17.5564 41.9685C17.7052 41.9685 17.8306 41.7801 17.9011 41.6231C18.708 39.8885 18.2379 32.4634 15.4726 29.0962H8.59432V28.7822H15.6214L15.6684 28.845C18.4025 32.0866 19.1232 39.7472 18.1909 41.7644C18.0264 42.1098 17.8227 42.2825 17.5642 42.2825Z" fill="#92929D"/>
<path d="M17.8056 34.5986H7.49609V34.9126H17.8056V34.5986Z" fill="#92929D"/>
<path d="M18.3709 37.5732H7.05859V37.8872H18.3709V37.5732Z" fill="#92929D"/>
<path d="M261.231 40.8621C175.041 29.2142 18.5108 29.0965 15.5809 29.0965C15.5652 29.0965 15.5574 29.0965 15.5496 29.0965H14.9229L15.4791 28.7982C15.6514 28.7041 33.0585 19.6777 71.257 19.6777V19.9917C37.1008 19.9917 19.6232 27.2206 16.239 28.7825C27.6922 28.7982 177.611 29.2378 261.278 40.5482L261.231 40.8621Z" fill="#92929D"/>
<path d="M130.918 26.8047L121.572 26.6477L121.564 26.5064L119.888 3.35196L126.116 3.26562L130.918 26.8047ZM121.862 26.3416L130.534 26.4829L125.865 3.57958L120.225 3.65807L121.862 26.3416Z" fill="#92929D"/>
<path d="M128.562 67.4782H128.248C128.248 50.548 122.921 3.95647 122.866 3.48553L123.18 3.44629C123.227 3.91723 128.562 50.5323 128.562 67.4782Z" fill="#92929D"/>
<path d="M90.3667 7.42252L90.0537 7.4375L90.9256 25.6584L91.2386 25.6434L90.3667 7.42252Z" fill="#92929D"/>
<path d="M84.9447 34.9117H75.6849C74.831 34.9117 74.1416 34.2132 74.1416 33.3655V33.1771C74.1416 32.3216 74.8388 31.6309 75.6849 31.6309H84.9447C85.7986 31.6309 86.4879 32.3294 86.4879 33.1771V33.3655C86.4879 34.221 85.7986 34.9117 84.9447 34.9117ZM75.6849 31.937C75.0033 31.937 74.455 32.4942 74.455 33.1693V33.3576C74.455 34.0405 75.0112 34.5899 75.6849 34.5899H84.9447C85.6262 34.5899 86.1746 34.0326 86.1746 33.3576V33.1693C86.1746 32.4864 85.6184 31.937 84.9447 31.937H75.6849Z" fill="#92929D"/>
<path d="M83.5597 36.16H78.2952C77.4413 36.16 76.752 35.4614 76.752 34.6137V31.7881H77.0653V34.6137C77.0653 35.2966 77.6215 35.846 78.2952 35.846H83.5597C84.2412 35.846 84.7896 35.2887 84.7896 34.6137V31.7881H85.103V34.6137C85.103 35.4614 84.4057 36.16 83.5597 36.16Z" fill="#92929D"/>
<path d="M138.505 34.9117H129.245C128.392 34.9117 127.702 34.2132 127.702 33.3655V33.1771C127.702 32.3216 128.399 31.6309 129.245 31.6309H138.505C139.359 31.6309 140.048 32.3294 140.048 33.1771V33.3655C140.048 34.221 139.351 34.9117 138.505 34.9117ZM129.245 31.937C128.564 31.937 128.016 32.4942 128.016 33.1693V33.3576C128.016 34.0405 128.572 34.5899 129.245 34.5899H138.505C139.187 34.5899 139.735 34.0326 139.735 33.3576V33.1693C139.735 32.4864 139.179 31.937 138.505 31.937H129.245Z" fill="#92929D"/>
<path d="M137.112 36.1609H131.848C130.994 36.1609 130.305 35.4624 130.305 34.6147V31.7891H130.618V34.6147C130.618 35.2976 131.174 35.847 131.848 35.847H137.112C137.794 35.847 138.342 35.2897 138.342 34.6147V31.7891H138.656V34.6147C138.664 35.4624 137.966 36.1609 137.112 36.1609Z" fill="#92929D"/>
<path d="M187.723 29.0017C187.464 29.0017 187.214 28.9938 186.955 28.9781L186.971 28.6642C193.34 29.0017 198.761 24.8967 198.808 24.8574L198.996 25.1086C198.949 25.1478 193.88 29.0017 187.723 29.0017Z" fill="#92929D"/>
<path d="M193.765 27.7935C193.491 27.5815 165.861 6.71112 138.355 1.51509L138.41 1.20898C165.994 6.4207 193.671 27.3382 193.953 27.5501L193.765 27.7935Z" fill="#92929D"/>
</g>
<defs>
<clipPath id="clip0_12690_30060">
<rect width="285" height="94" fill="white"/>
</clipPath>
</defs>
</svg>
