<svg width="129" height="101" viewBox="0 0 129 101" fill="none" xmlns="http://www.w3.org/2000/svg">
<path d="M64.6552 6.70508H64.3457V101H64.6552V6.70508Z" fill="#92929D"/>
<path d="M129 97.9053H0V98.2155H129V97.9053Z" fill="#92929D"/>
<path d="M117.216 83.7514H11.7277C9.19786 83.7514 5.47656 70.0392 5.47656 65.727V51.0299C5.47656 48.3309 6.97746 46.8262 9.46865 44.3444C10.7993 43.0182 12.4472 41.3662 14.3195 39.0782C18.5746 27.0956 29.8546 13.3679 32.1059 12.4605C34.6667 11.429 49.5752 11.0645 61.5669 11.0645H67.4544C79.4462 11.0645 94.3546 11.429 96.9154 12.4605C99.1667 13.3679 110.447 27.0956 114.702 39.0782C116.574 41.3662 118.222 43.0104 119.545 44.3366C122.036 46.8262 123.537 48.3231 123.537 51.0221V65.7193C123.545 69.9307 119.7 83.7514 117.216 83.7514ZM61.5669 11.8478C46.1092 11.8478 34.3882 12.3829 32.3922 13.1895C30.2801 14.0427 19.1084 27.8479 15.0235 39.4117L14.9616 39.5281C13.0507 41.8703 11.3718 43.5533 10.0179 44.9028C7.58865 47.3304 6.25022 48.6644 6.25022 51.0376V65.7348C6.25022 70.9854 10.3274 82.9836 11.7277 82.9836H117.216C118.632 82.9836 122.771 70.9854 122.771 65.7348V51.0376C122.771 48.6644 121.433 47.3226 119.003 44.8951C117.649 43.5456 115.971 41.8703 114.06 39.5203L113.998 39.404C109.913 27.8402 98.7412 14.0349 96.6291 13.1818C94.6331 12.3829 82.9122 11.84 67.4544 11.84H61.5669V11.8478Z" fill="#92929D"/>
<path d="M64.4994 66.1145C26.7912 66.1145 6.01072 63.1983 5.80957 63.1751L5.91788 62.4072C6.11903 62.4305 26.8531 65.3389 64.4994 65.3389C102.146 65.3389 122.903 62.4305 123.112 62.4072L123.22 63.1751C123.011 63.2061 102.2 66.1145 64.4994 66.1145Z" fill="#92929D"/>
<path d="M14.7447 39.6758L14.4043 38.9778C14.6519 38.8537 20.934 35.9453 64.4988 35.9453C108.064 35.9453 114.377 38.8537 114.624 38.9778L114.276 39.6681C114.028 39.5517 107.599 36.7209 64.4988 36.7209C21.3982 36.7286 14.9923 39.5595 14.7447 39.6758Z" fill="#92929D"/>
<path d="M31.0792 17.4245L30.6924 16.7575C30.8626 16.6567 35.1254 14.3145 64.509 14.3145C93.8926 14.3145 98.171 16.6567 98.3412 16.7575L97.9466 17.4245C97.7764 17.3314 93.3898 15.09 64.509 15.09C35.6283 15.0823 31.2494 17.3314 31.0792 17.4245Z" fill="#92929D"/>
<path d="M52.4598 65.8678L43.7175 54.2807C42.7659 53.8076 42.1083 53.4198 18.0475 39.3043L17.1113 38.7536L17.2196 38.4512C22.3722 24.2891 34.7817 12.1436 34.9055 12.0195L35.4471 12.5779C35.3233 12.6943 23.2232 24.5528 18.0629 38.4124L18.442 38.6295C43.1604 53.125 43.1604 53.125 44.1507 53.6214L44.2281 53.6602L44.2823 53.73L53.0788 65.3947L52.4598 65.8678Z" fill="#92929D"/>
<path d="M17.4378 51.069C15.8363 43.8251 17.4301 38.7917 17.4455 38.7451L17.7395 38.8382C17.7241 38.8847 16.1613 43.8406 17.7395 50.9992L17.4378 51.069Z" fill="#92929D"/>
<path d="M50.6254 62.9439C22.7736 62.9439 10.248 59.4151 10.248 56.91C10.248 52.9623 12.7857 50.876 17.5901 50.876H38.8348V51.1862H17.5823C12.9172 51.1862 10.5575 53.1096 10.5575 56.91C10.5575 58.7015 20.646 62.6337 50.6254 62.6337V62.9439Z" fill="#92929D"/>
<path d="M17.8165 60.2219H17.5071C17.5071 57.678 17.4297 51.1089 17.4297 51.0391H17.7392C17.7469 51.1011 17.8165 57.678 17.8165 60.2219Z" fill="#92929D"/>
<path d="M35.3023 62.4711L35.0625 62.2772C35.0934 62.2384 37.956 58.6319 37.956 51.0391H38.2655C38.2655 58.7483 35.3255 62.4323 35.3023 62.4711Z" fill="#92929D"/>
<path d="M43.9693 53.8154H37.958V54.1256H43.9693V53.8154Z" fill="#92929D"/>
<path d="M46.2556 56.7393H37.4746V57.0495H46.2556V56.7393Z" fill="#92929D"/>
<path d="M48.4123 59.6631H36.583V59.9733H48.4123V59.6631Z" fill="#92929D"/>
<path d="M64.4981 77.6412H37.9307L37.9539 77.4629C37.9616 77.4008 38.89 71.4521 43.9729 71.4521H64.4981V71.7624H43.9729C39.6482 71.7624 38.4877 76.3615 38.2943 77.331H64.4981V77.6412V77.6412Z" fill="#92929D"/>
<path d="M32.4025 77.6412H14.5V77.4861C14.5 74.8492 17.4167 71.4521 20.5191 71.4521H29.3156C32.3638 71.4521 32.4025 77.2379 32.4025 77.4861V77.6412ZM14.8172 77.331H32.093C32.0698 76.4158 31.8068 71.7624 29.3156 71.7624H20.5191C17.6411 71.7624 14.9255 74.8569 14.8172 77.331Z" fill="#92929D"/>
<path d="M26.3799 77.6412C24.6778 77.6412 23.293 76.253 23.293 74.5467C23.293 72.8404 24.6778 71.4521 26.3799 71.4521C28.0819 71.4521 29.4668 72.8404 29.4668 74.5467C29.4668 76.253 28.0819 77.6412 26.3799 77.6412ZM26.3799 71.7624C24.848 71.7624 23.6024 73.011 23.6024 74.5467C23.6024 76.0823 24.848 77.331 26.3799 77.331C27.9117 77.331 29.1573 76.0823 29.1573 74.5467C29.1573 73.011 27.9117 71.7624 26.3799 71.7624Z" fill="#92929D"/>
<path d="M18.6509 98.4494H10.7518C7.88926 98.4494 5.56055 96.1149 5.56055 93.2453V67.2402H6.33421V93.2453C6.33421 95.6883 8.31478 97.6738 10.7518 97.6738H18.6509C21.0879 97.6738 23.0685 95.6883 23.0685 93.2453V83.3645H23.8421V93.2453C23.8344 96.1149 21.5134 98.4494 18.6509 98.4494Z" fill="#92929D"/>
<path d="M14.5953 39.2975C10.7734 39.2975 5.69824 38.6848 5.69824 33.4031C5.69824 30.456 8.93214 30.3086 14.6495 30.3086C15.4464 30.3086 15.9802 30.9678 16.251 32.263C16.4598 33.2791 16.4598 34.4579 16.4598 35.1637V35.249H16.1504V35.1637C16.1504 34.4734 16.1504 33.3178 15.9492 32.3328C15.7171 31.2005 15.2761 30.6266 14.6495 30.6266C8.63815 30.6266 6.00771 30.8903 6.00771 33.4109C6.00771 37.219 8.73872 38.995 14.5953 38.995V39.2975Z" fill="#92929D"/>
<path d="M76.531 65.8678L75.9121 65.4025L84.7628 53.668L84.8401 53.6292C85.8304 53.1329 85.8304 53.1329 110.549 38.6374L110.92 38.4202C105.76 24.5529 93.6599 12.7021 93.5361 12.5858L94.0776 12.0273C94.2014 12.1514 106.611 24.297 111.763 38.459L111.872 38.7614L110.936 39.3121C86.8671 53.4276 86.2095 53.8154 85.2579 54.2885L76.531 65.8678Z" fill="#92929D"/>
<path d="M111.56 51.069L111.258 50.9992C112.844 43.8406 111.273 38.8847 111.258 38.8382L111.552 38.7451C111.567 38.7917 113.161 43.8251 111.56 51.069Z" fill="#92929D"/>
<path d="M78.3711 62.943V62.6327C108.35 62.6327 118.439 58.7006 118.439 56.909C118.439 53.1087 116.072 51.1852 111.406 51.1852H90.1617V50.875H111.406C116.211 50.875 118.748 52.9613 118.748 56.909C118.748 59.4141 106.223 62.943 78.3711 62.943Z" fill="#92929D"/>
<path d="M111.491 60.2209H111.182C111.182 57.677 111.259 51.1001 111.259 51.0381H111.568C111.561 51.1001 111.491 57.677 111.491 60.2209Z" fill="#92929D"/>
<path d="M93.7004 62.47C93.6695 62.4312 90.7373 58.7473 90.7373 51.0303H91.0468C91.0468 58.6387 93.9171 62.2373 93.9403 62.2684L93.7004 62.47Z" fill="#92929D"/>
<path d="M91.027 53.8154H85.0156V54.1256H91.027V53.8154Z" fill="#92929D"/>
<path d="M91.5262 56.7393H82.7451V57.0495H91.5262V56.7393Z" fill="#92929D"/>
<path d="M92.4142 59.6621H80.585V59.9723H92.4142V59.6621Z" fill="#92929D"/>
<path d="M91.0665 77.6393H64.499V77.3291H90.7029C90.5095 76.3596 89.349 71.7604 85.0242 71.7604H64.499V71.4502H85.0242C90.1072 71.4502 91.0355 77.3989 91.0433 77.4609L91.0665 77.6393Z" fill="#92929D"/>
<path d="M114.492 77.6403H96.5898V77.4851C96.5898 77.237 96.6285 71.4512 99.6767 71.4512H108.473C111.576 71.4512 114.492 74.8482 114.492 77.4851V77.6403V77.6403ZM96.907 77.33H114.183C114.075 74.8559 111.359 71.7614 108.481 71.7614H99.6845C97.1933 71.7614 96.9302 76.4149 96.907 77.33Z" fill="#92929D"/>
<path d="M102.61 77.6403C100.908 77.6403 99.5234 76.252 99.5234 74.5457C99.5234 72.8394 100.908 71.4512 102.61 71.4512C104.312 71.4512 105.697 72.8394 105.697 74.5457C105.697 76.252 104.312 77.6403 102.61 77.6403ZM102.61 71.7614C101.078 71.7614 99.8329 73.0101 99.8329 74.5457C99.8329 76.0813 101.078 77.33 102.61 77.33C104.142 77.33 105.388 76.0813 105.388 74.5457C105.388 73.0101 104.142 71.7614 102.61 71.7614Z" fill="#92929D"/>
<path d="M114.394 39.2955V38.9853C120.25 38.9853 122.981 37.2092 122.981 33.4011C122.981 30.8805 120.351 30.6168 114.34 30.6168C113.713 30.6168 113.28 31.1907 113.04 32.3231C112.839 33.3081 112.839 34.4637 112.839 35.1539V35.2392H112.529V35.1539C112.529 34.4482 112.529 33.277 112.738 32.2533C113.009 30.9581 113.543 30.2988 114.34 30.2988C120.057 30.2988 123.291 30.4462 123.291 33.3934C123.291 38.6828 118.216 39.2955 114.394 39.2955Z" fill="#92929D"/>
<path d="M8.94911 78.4619H8.63965V97.5799H8.94911V78.4619Z" fill="#92929D"/>
<path d="M7.47548 73.8086H7.16602V96.6028H7.47548V73.8086Z" fill="#92929D"/>
<path d="M11.8759 83.3643H11.5664V98.0614H11.8759V83.3643Z" fill="#92929D"/>
<path d="M14.7636 83.3643H14.4541V98.0614H14.7636V83.3643Z" fill="#92929D"/>
<path d="M13.3153 83.3643H13.0059V98.0614H13.3153V83.3643Z" fill="#92929D"/>
<path d="M10.4657 81.8906H10.1562V98.0614H10.4657V81.8906Z" fill="#92929D"/>
<path d="M20.5155 83.3643H20.2061V98.0614H20.5155V83.3643Z" fill="#92929D"/>
<path d="M22.0477 83.3643H21.7383V96.7972H22.0477V83.3643Z" fill="#92929D"/>
<path d="M19.08 83.3643H18.7705V98.0614H19.08V83.3643Z" fill="#92929D"/>
<path d="M16.161 83.3643H15.8516V98.0614H16.161V83.3643Z" fill="#92929D"/>
<path d="M17.5858 83.3643H17.2764V98.0614H17.5858V83.3643Z" fill="#92929D"/>
<path d="M118.24 98.4484H110.341C107.478 98.4484 105.149 96.1139 105.149 93.2443V83.3635H105.923V93.2443C105.923 95.6874 107.904 97.6729 110.341 97.6729H118.24C120.677 97.6729 122.657 95.6874 122.657 93.2443V67.2393H123.431V93.2443C123.431 96.1139 121.102 98.4484 118.24 98.4484Z" fill="#92929D"/>
<path d="M120.357 78.4619H120.048V97.5799H120.357V78.4619Z" fill="#92929D"/>
<path d="M121.84 73.8086H121.53V96.6028H121.84V73.8086Z" fill="#92929D"/>
<path d="M117.428 83.3643H117.118V98.0614H117.428V83.3643Z" fill="#92929D"/>
<path d="M114.548 83.3643H114.238V98.0614H114.548V83.3643Z" fill="#92929D"/>
<path d="M115.995 83.3643H115.686V98.0614H115.995V83.3643Z" fill="#92929D"/>
<path d="M118.833 81.8906H118.523V98.0614H118.833V81.8906Z" fill="#92929D"/>
<path d="M108.783 83.3643H108.474V98.0614H108.783V83.3643Z" fill="#92929D"/>
<path d="M107.259 83.3643H106.949V96.7972H107.259V83.3643Z" fill="#92929D"/>
<path d="M110.231 83.3643H109.922V98.0614H110.231V83.3643Z" fill="#92929D"/>
<path d="M113.145 83.3643H112.836V98.0614H113.145V83.3643Z" fill="#92929D"/>
<path d="M111.717 83.3643H111.407V98.0614H111.717V83.3643Z" fill="#92929D"/>
</svg>
