<svg width="24" height="24" viewBox="0 0 24 24" fill="none" xmlns="http://www.w3.org/2000/svg">
<rect width="24" height="24" rx="6" fill="#EA5930"/>
<path fill-rule="evenodd" clip-rule="evenodd" d="M13.1126 7.37744C12.976 7.34834 12.8354 7.33333 12.6927 7.33333H8.45067C7.90333 7.33333 7.41667 7.66133 7.21333 8.16933L5.84667 11.57L5.36733 11.734C4.54667 12 4 12.7653 4 13.6273V16C4 16.3673 4.29933 16.6667 4.66667 16.6667H5.69076C6.15225 17.4634 7.01417 18 8 18C8.98583 18 9.84775 17.4634 10.3092 16.6667H13.0241C13.4856 17.4634 14.3475 18 15.3333 18C16.3192 18 17.1811 17.4634 17.6426 16.6667H19.3333C19.7007 16.6667 20 16.3673 20 16V13.7607C20 13.0516 19.6268 12.4159 19.052 12.0596L17.5396 13.5721C17.4041 13.7076 17.243 13.8154 17.066 13.8888C16.8888 13.9622 16.6989 14 16.5072 14C16.3154 14 16.1255 13.9622 15.9484 13.8888C15.7713 13.8154 15.6103 13.7077 15.4748 13.5721L13.7915 11.8891C13.6203 11.7179 13.4664 11.5317 13.3315 11.3333H11.3333V9C11.3333 8.81533 11.482 8.66667 11.6667 8.66667H12.6927C12.6952 8.66667 12.6977 8.66669 12.7003 8.66671C12.7441 8.33767 12.8306 8.01395 12.959 7.70397C13.0052 7.59245 13.0565 7.48351 13.1126 7.37744ZM7.38 11.3333L8.36667 8.87467C8.41933 8.75 8.542 8.66667 8.67733 8.66667H9.66667C9.85133 8.66667 10 8.81533 10 9V11.3333H7.38ZM8 14C7.26533 14 6.66667 14.5987 6.66667 15.3333C6.66667 16.068 7.26533 16.6667 8 16.6667C8.73467 16.6667 9.33333 16.068 9.33333 15.3333C9.33333 14.5987 8.73467 14 8 14ZM14 15.3333C14 14.5987 14.5987 14 15.3333 14C16.068 14 16.6667 14.5987 16.6667 15.3333C16.6667 16.068 16.068 16.6667 15.3333 16.6667C14.5987 16.6667 14 16.068 14 15.3333Z" fill="white"/>
<path fill-rule="evenodd" clip-rule="evenodd" d="M13.3343 9.09492C13.3285 9.32785 13.3484 9.56187 13.3943 9.79273C13.5091 10.37 13.782 10.9032 14.1815 11.3333C14.2081 11.3619 14.2352 11.39 14.2628 11.4177L15.9464 13.1009C16.02 13.1746 16.1075 13.233 16.2037 13.2729C16.2999 13.3128 16.403 13.3333 16.5072 13.3333C16.6113 13.3333 16.7145 13.3128 16.8107 13.2729C16.9069 13.233 16.9943 13.1746 17.0679 13.1009L18.7511 11.4177C19.195 10.9738 19.4972 10.4083 19.6196 9.79273C19.7421 9.1771 19.6792 8.539 19.439 7.9591C19.1988 7.37921 18.792 6.88356 18.2701 6.53484C18.2049 6.49125 18.1382 6.4502 18.0703 6.41174C17.5946 6.1425 17.0562 6 16.507 6C15.8793 6 15.2657 6.18613 14.7438 6.53484C14.325 6.81471 13.9802 7.18923 13.7363 7.62598C13.6763 7.73341 13.6224 7.84462 13.5749 7.9591C13.4248 8.32154 13.3439 8.70671 13.3343 9.09492ZM17.6977 9.17379C17.6977 9.83108 17.1649 10.3639 16.5076 10.3639C16.3289 10.3639 16.1594 10.3245 16.0073 10.254C15.6763 10.1004 15.4277 9.79918 15.3462 9.43489C15.3446 9.42783 15.3431 9.42075 15.3417 9.41364C15.3258 9.33617 15.3175 9.25596 15.3175 9.17379C15.3175 8.51651 15.8503 7.98368 16.5076 7.98368C17.1649 7.98368 17.6977 8.51651 17.6977 9.17379Z" fill="white"/>
</svg>
