<svg width="12" height="8" viewBox="0 0 12 8" fill="none" xmlns="http://www.w3.org/2000/svg">
<path d="M1.70711 7.20711C1.31658 7.59763 0.683417 7.59763 0.292893 7.20711C-0.0976311 6.81658 -0.0976311 6.18342 0.292893 5.79289L1.70711 7.20711ZM6 1.5L5.29289 0.792894C5.68342 0.402369 6.31658 0.402369 6.70711 0.792894L6 1.5ZM11.7071 5.79289C12.0976 6.18342 12.0976 6.81658 11.7071 7.20711C11.3166 7.59763 10.6834 7.59763 10.2929 7.20711L11.7071 5.79289ZM0.292893 5.79289L5.29289 0.792894L6.70711 2.20711L1.70711 7.20711L0.292893 5.79289ZM6.70711 0.792894L11.7071 5.79289L10.2929 7.20711L5.29289 2.20711L6.70711 0.792894Z" fill="#696974"/>
</svg>
