<svg width="20" height="20" viewBox="0 0 20 20" fill="none" xmlns="http://www.w3.org/2000/svg">
<path d="M13.2071 14.2929C13.5976 14.6834 13.5976 15.3166 13.2071 15.7071C12.8166 16.0976 12.1834 16.0976 11.7929 15.7071L13.2071 14.2929ZM7.5 10L6.79289 10.7071C6.40237 10.3166 6.40237 9.68342 6.79289 9.29289L7.5 10ZM11.7929 4.29289C12.1834 3.90237 12.8166 3.90237 13.2071 4.29289C13.5976 4.68342 13.5976 5.31658 13.2071 5.70711L11.7929 4.29289ZM11.7929 15.7071L6.79289 10.7071L8.20711 9.29289L13.2071 14.2929L11.7929 15.7071ZM6.79289 9.29289L11.7929 4.29289L13.2071 5.70711L8.20711 10.7071L6.79289 9.29289Z" fill="#92929D"/>
</svg>
