<svg width="24" height="25" viewBox="0 0 24 25" fill="none" xmlns="http://www.w3.org/2000/svg">
    <g clip-path="url(#clip0_1008_38049)">
        <path
            d="M8.43431 7.06569C8.1219 6.75327 8.1219 6.24673 8.43431 5.93431C8.74673 5.6219 9.25327 5.6219 9.56569 5.93431L8.43431 7.06569ZM15 12.5L15.5657 11.9343C15.7157 12.0843 15.8 12.2878 15.8 12.5C15.8 12.7122 15.7157 12.9157 15.5657 13.0657L15 12.5ZM9.56569 19.0657C9.25327 19.3781 8.74673 19.3781 8.43431 19.0657C8.1219 18.7533 8.1219 18.2467 8.43431 17.9343L9.56569 19.0657ZM9.56569 5.93431L15.5657 11.9343L14.4343 13.0657L8.43431 7.06569L9.56569 5.93431ZM15.5657 13.0657L9.56569 19.0657L8.43431 17.9343L14.4343 11.9343L15.5657 13.0657Z"
            fill="white" />
    </g>
    <defs>
        <clipPath id="clip0_1008_38049">
            <rect width="24" height="24" fill="white" transform="translate(24 24.5) rotate(180)" />
        </clipPath>
    </defs>
</svg>
