<svg width="24" height="24" viewBox="0 0 24 24" fill="none" xmlns="http://www.w3.org/2000/svg">
<path d="M10.5938 6.53125C10.5938 6.40693 10.6431 6.2877 10.731 6.19979C10.819 6.11189 10.9382 6.0625 11.0625 6.0625H12.9375C13.0618 6.0625 13.181 6.11189 13.269 6.19979C13.3569 6.2877 13.4062 6.40693 13.4062 6.53125V11.9102L15.8867 13.7148C15.9366 13.7512 15.9787 13.797 16.0108 13.8497C16.0429 13.9024 16.0643 13.9609 16.0737 14.0219C16.0832 14.0829 16.0805 14.1451 16.0658 14.205C16.0512 14.2649 16.0248 14.3214 15.9883 14.3711L14.8867 15.8867C14.8128 15.9867 14.7024 16.0535 14.5795 16.0725C14.4566 16.0915 14.3312 16.0612 14.2305 15.9883L10.7852 13.4844C10.7259 13.4406 10.6777 13.3835 10.6444 13.3177C10.6112 13.2519 10.5938 13.1792 10.5938 13.1055V6.53125Z" fill="#B5B5BE"/>
<path opacity="0.4" d="M12 2.3125C6.64844 2.3125 2.3125 6.64844 2.3125 12C2.3125 17.3516 6.64844 21.6875 12 21.6875C17.3516 21.6875 21.6875 17.3516 21.6875 12C21.6875 6.64844 17.3516 2.3125 12 2.3125ZM15.9883 14.3711L14.8867 15.8867C14.8128 15.9867 14.7024 16.0535 14.5795 16.0725C14.4566 16.0915 14.3312 16.0612 14.2305 15.9883L10.7852 13.4844C10.7259 13.4406 10.6777 13.3835 10.6444 13.3177C10.6112 13.2519 10.5938 13.1792 10.5938 13.1055V6.53125C10.5938 6.40693 10.6431 6.2877 10.731 6.19979C10.819 6.11189 10.9382 6.0625 11.0625 6.0625H12.9375C13.0618 6.0625 13.181 6.11189 13.269 6.19979C13.3569 6.2877 13.4062 6.40693 13.4062 6.53125V11.9102L15.8867 13.7148C15.9366 13.7512 15.9787 13.797 16.0108 13.8497C16.0429 13.9024 16.0643 13.9609 16.0737 14.0219C16.0832 14.0829 16.0805 14.1451 16.0658 14.205C16.0512 14.2649 16.0248 14.3214 15.9883 14.3711Z" fill="#B5B5BE"/>
</svg>
