<svg width="20" height="20" viewBox="0 0 20 20" fill="none" xmlns="http://www.w3.org/2000/svg">
<path d="M15.6667 16.6666C16.5871 16.6666 17.3333 15.9205 17.3333 15C17.3333 14.0795 16.5871 13.3333 15.6667 13.3333C14.7462 13.3333 14 14.0795 14 15C14 15.9205 14.7462 16.6666 15.6667 16.6666Z" stroke="white" stroke-width="2" stroke-miterlimit="10"/>
<path d="M4.99992 16.6666C5.92039 16.6666 6.66658 15.9205 6.66658 15C6.66658 14.0795 5.92039 13.3333 4.99992 13.3333C4.07944 13.3333 3.33325 14.0795 3.33325 15C3.33325 15.9205 4.07944 16.6666 4.99992 16.6666Z" stroke="white" stroke-width="2" stroke-miterlimit="10"/>
<path d="M14.6667 12L11.9327 8.71933C11.5527 8.26333 10.9901 8 10.3961 8H5.35408C4.53608 8 3.80075 8.498 3.49741 9.25733L2.66675 11.3333V12" stroke="white" stroke-width="2" stroke-miterlimit="10" stroke-linecap="round" stroke-linejoin="round"/>
<path d="M18.6666 15.3334V12.724C18.6666 12.098 18.2313 11.5567 17.6199 11.422L14.1899 10.6667H3.33325H2.66659C1.92992 10.6667 1.33325 11.2634 1.33325 12V14.3674C1.33325 14.9434 1.70325 15.454 2.25059 15.634L3.36659 16C3.26725 15.5114 3.37725 14.19 3.84192 13.7327C5.19992 12.7614 6.66659 13.7094 6.66659 15C6.66659 15.114 6.65459 15.2254 6.63325 16H14.0333C13.9353 14.8174 14.0413 14.2974 14.4893 13.7467C15.8526 12.7527 17.3333 13.7034 17.3333 15C17.3333 15.114 17.3213 15.892 17.2999 16L18.6666 15.3334Z" fill="white"/>
<path d="M8 11.3334V8.66669" stroke="white" stroke-width="2" stroke-miterlimit="10" stroke-linecap="round" stroke-linejoin="round"/>
<path d="M5.99992 8H3.33325" stroke="white" stroke-width="2" stroke-miterlimit="10" stroke-linecap="round" stroke-linejoin="round"/>
<path d="M8.66675 3.33331H4.66675L2.66675 4.66665C2.66675 5.40331 3.26341 5.99998 4.00008 5.99998H12.0001C12.7367 5.99998 13.3334 5.40331 13.3334 4.66665L8.66675 3.33331Z" fill="white"/>
</svg>
