<svg width="24" height="24" viewBox="0 0 24 24" fill="none" xmlns="http://www.w3.org/2000/svg">
<rect width="24" height="24" rx="6" fill="#EA5930"/>
<path fill-rule="evenodd" clip-rule="evenodd" d="M14.3551 8.20683L14.2553 8.08317C13.8727 7.60651 13.302 7.33317 12.6927 7.33317H8.45067C7.90333 7.33317 7.41667 7.66117 7.21333 8.16917L5.84667 11.5698L5.36733 11.7338C4.54667 11.9998 4 12.7652 4 13.6272V15.9998C4 16.3672 4.29933 16.6665 4.66667 16.6665H5.69076C6.15225 17.4632 7.01417 17.9998 8 17.9998C8.98583 17.9998 9.84775 17.4632 10.3092 16.6665H13.0241C13.4856 17.4632 14.3475 17.9998 15.3333 17.9998C16.3192 17.9998 17.1811 17.4632 17.6426 16.6665H19.3333C19.7007 16.6665 20 16.3672 20 15.9998V13.7605C20 12.8072 19.3253 11.9865 18.3933 11.7992L17.034 11.5258L16.6577 11.0597C16.2038 10.9898 15.7721 10.8057 15.4066 10.5237L15.2248 10.608C15.2559 10.8414 15.2196 11.076 15.1257 11.2858L15.164 11.3332H15.1033C14.9809 11.5784 14.7777 11.7854 14.5097 11.9097C13.9406 12.1736 13.2752 11.974 12.9389 11.4667C12.7861 11.4492 12.6378 11.4038 12.5017 11.3332H11.3333V8.99984C11.3333 8.81517 11.482 8.66651 11.6667 8.66651H12.6927C12.8499 8.66651 13.0022 8.72258 13.1208 8.8219L14.3528 8.2504C14.3535 8.23587 14.3542 8.22134 14.3551 8.20683ZM7.38 11.3332L8.36667 8.87451C8.41933 8.74984 8.542 8.66651 8.67733 8.66651H9.66667C9.85133 8.66651 10 8.81517 10 8.99984V11.3332H7.38ZM8 13.9998C7.26533 13.9998 6.66667 14.5985 6.66667 15.3332C6.66667 16.0678 7.26533 16.6665 8 16.6665C8.73467 16.6665 9.33333 16.0678 9.33333 15.3332C9.33333 14.5985 8.73467 13.9998 8 13.9998ZM14 15.3332C14 14.5985 14.5987 13.9998 15.3333 13.9998C16.068 13.9998 16.6667 14.5985 16.6667 15.3332C16.6667 16.0678 16.068 16.6665 15.3333 16.6665C14.5987 16.6665 14 16.0678 14 15.3332Z" fill="white"/>
<path fill-rule="evenodd" clip-rule="evenodd" d="M13.162 10.8023C12.9132 10.8368 12.6605 10.7079 12.5494 10.4684C12.4131 10.1747 12.5408 9.82622 12.8344 9.68999L14.8117 8.77245L15.039 8.66735C14.9116 7.79267 15.3637 6.9021 16.2065 6.51113C16.3949 6.42373 16.5898 6.36737 16.7853 6.33992C17.6562 6.21819 18.5406 6.67 18.9298 7.50908C19.4066 8.53694 18.9598 9.75669 17.932 10.2335C17.7432 10.3211 17.5479 10.3775 17.3519 10.4049C16.7833 10.484 16.2091 10.3187 15.7708 9.96072L15.7733 9.9639C15.6869 9.89366 15.6057 9.81595 15.5309 9.73116L14.3907 10.2601L14.5143 10.5265C14.6503 10.8201 14.5228 11.1687 14.2292 11.3049C14.0921 11.3685 13.9432 11.3746 13.8094 11.3332H13.811C13.6579 11.2859 13.5247 11.1765 13.4519 11.0197L13.3283 10.7532C13.328 10.7534 13.3277 10.7535 13.3273 10.7537C13.2736 10.7786 13.2178 10.7944 13.162 10.8023ZM16.9478 7.50125C16.8636 7.51296 16.7798 7.53717 16.6987 7.57477C16.2581 7.77913 16.0667 8.30182 16.2711 8.74237C16.438 9.10225 16.8174 9.2959 17.1909 9.24334C17.275 9.23162 17.3588 9.20743 17.4398 9.16984C17.8804 8.96548 18.0718 8.44279 17.8674 8.00224C17.7005 7.64239 17.3212 7.44875 16.9478 7.50125Z" fill="white"/>
</svg>
