<svg width="28" height="28" viewBox="0 0 28 28" fill="none" xmlns="http://www.w3.org/2000/svg">
<path d="M25.3238 19.7233C25.2532 19.7939 25.1573 19.8337 25.0573 19.8337C24.9574 19.8337 24.8615 19.7939 24.7908 19.7233C24.7201 19.6526 24.6804 19.5567 24.6804 19.4567C24.6804 19.3568 24.7201 19.2609 24.7908 19.1902L25.0573 19.4567L24.7908 19.1902C24.7908 19.1902 24.7908 19.1902 24.7908 19.1902C24.8615 19.1195 24.9574 19.0798 25.0573 19.0798C25.1573 19.0798 25.2532 19.1195 25.3238 19.1902C25.3945 19.2609 25.4342 19.3568 25.4342 19.4567C25.4342 19.5567 25.3945 19.6526 25.3238 19.7233Z" fill="#696974" stroke="#696974" stroke-width="2.33333"/>
<path d="M16.8933 19.1902L17.1599 19.4567L16.8933 19.1902C16.964 19.1195 17.0599 19.0798 17.1599 19.0798C17.2598 19.0798 17.3557 19.1195 17.4264 19.1902C17.4971 19.2609 17.5368 19.3568 17.5368 19.4567C17.5368 19.5567 17.4971 19.6526 17.4264 19.7233C17.3557 19.7939 17.2598 19.8337 17.1599 19.8337C17.0599 19.8337 16.964 19.7939 16.8933 19.7233C16.8226 19.6526 16.7829 19.5567 16.7829 19.4567C16.7829 19.3568 16.8226 19.2609 16.8933 19.1902ZM22.2752 21.3021V19.8337H24.3932C24.2752 19.9956 24.123 20.1791 23.9331 20.3625C23.5535 20.729 23.0184 21.1027 22.2752 21.3021Z" fill="#696974" stroke="#696974" stroke-width="2.33333"/>
<path d="M19.9407 19.8337V21.3021C19.1976 21.1027 18.6624 20.729 18.2829 20.3625C18.093 20.1791 17.9407 19.9956 17.8228 19.8337H19.9407Z" fill="#696974" stroke="#696974" stroke-width="2.33333"/>
<path d="M13.1749 5.00838C13.3937 4.78958 13.6904 4.66667 13.9998 4.66667C14.3093 4.66667 14.606 4.78958 14.8248 5.00838C15.0436 5.22717 15.1665 5.52391 15.1665 5.83333C15.1665 6.14275 15.0436 6.4395 14.8248 6.65829C14.606 6.87708 14.3093 7 13.9998 7C13.6904 7 13.3937 6.87708 13.1749 6.65829C12.9561 6.4395 12.8332 6.14275 12.8332 5.83333C12.8332 5.52391 12.9561 5.22717 13.1749 5.00838Z" fill="#696974" stroke="#696974" stroke-width="2.33333"/>
<path d="M14 6.03711C17.9487 6.03711 17.9487 9.19055 22.6872 9.19055L14 6.03711Z" fill="#696974"/>
<path d="M14 6.03711C17.9487 6.03711 17.9487 9.19055 22.6872 9.19055" stroke="#696974" stroke-width="2.33333" stroke-miterlimit="10" stroke-linecap="round" stroke-linejoin="round"/>
<path d="M2.94502 19.8337C3.04498 19.8337 3.14085 19.794 3.21154 19.7233C3.28223 19.6526 3.32194 19.5568 3.32194 19.4568C3.32194 19.3568 3.28223 19.261 3.21154 19.1903C3.14085 19.1196 3.04498 19.0799 2.94502 19.0799C2.84505 19.0799 2.74918 19.1196 2.67849 19.1903M2.94502 19.8337L2.67849 19.1903M2.94502 19.8337C2.84505 19.8337 2.74918 19.794 2.67849 19.7233C2.60781 19.6526 2.56809 19.5568 2.56809 19.4568C2.56809 19.3568 2.6078 19.261 2.67849 19.1903M2.94502 19.8337L2.38658 18.8984L2.67849 19.1903" fill="#696974" stroke="#696974" stroke-width="2.33333"/>
<path d="M5.72686 19.8337V21.3021C4.98376 21.1027 4.44857 20.729 4.069 20.3625C3.87915 20.1791 3.72688 19.9956 3.60893 19.8337H5.72686ZM11.1088 19.7233C11.0381 19.7939 10.9422 19.8337 10.8422 19.8337C10.7423 19.8337 10.6464 19.7939 10.5757 19.7233C10.505 19.6526 10.4653 19.5567 10.4653 19.4567C10.4653 19.3568 10.505 19.2609 10.5757 19.1902C10.6464 19.1195 10.7423 19.0798 10.8422 19.0798C10.9422 19.0798 11.0381 19.1195 11.1088 19.1902C11.1795 19.2609 11.2192 19.3568 11.2192 19.4567C11.2192 19.5567 11.1795 19.6526 11.1088 19.7233Z" fill="#696974" stroke="#696974" stroke-width="2.33333"/>
<path d="M8.05729 21.3021V19.8337H10.1752C10.0573 19.9956 9.90501 20.1791 9.71516 20.3625C9.33558 20.729 8.80039 21.1027 8.05729 21.3021Z" fill="#696974" stroke="#696974" stroke-width="2.33333"/>
<path d="M14.0007 6.03711C10.0519 6.03711 10.0519 9.19055 5.31348 9.19055L14.0007 6.03711Z" fill="#696974"/>
<path d="M14.0007 6.03711C10.0519 6.03711 10.0519 9.19055 5.31348 9.19055" stroke="#696974" stroke-width="2.33333" stroke-miterlimit="10" stroke-linecap="round" stroke-linejoin="round"/>
<mask id="path-12-inside-1_1575_39455" fill="white">
<path d="M8.92447 17.0876L6.89246 11.5009L4.86045 17.0876H3.18066L6.15089 8.92004C6.26382 8.60809 6.55998 8.40039 6.89246 8.40039C7.22494 8.40039 7.52109 8.60809 7.63403 8.92004L10.6043 17.0876H8.92447Z"/>
</mask>
<path d="M8.92447 17.0876L6.89246 11.5009L4.86045 17.0876H3.18066L6.15089 8.92004C6.26382 8.60809 6.55998 8.40039 6.89246 8.40039C7.22494 8.40039 7.52109 8.60809 7.63403 8.92004L10.6043 17.0876H8.92447Z" fill="#696974"/>
<path d="M8.92447 17.0876L6.73168 17.8851L7.29028 19.4209H8.92447V17.0876ZM6.89246 11.5009L9.08525 10.7033L6.89246 4.67467L4.69967 10.7033L6.89246 11.5009ZM4.86045 17.0876V19.4209H6.49464L7.05324 17.8851L4.86045 17.0876ZM3.18066 17.0876L0.987831 16.2901L-0.150718 19.4209H3.18066V17.0876ZM6.15089 8.92004L8.34372 9.71749L8.34487 9.71432L6.15089 8.92004ZM7.63403 8.92004L5.44004 9.71432L5.44119 9.71749L7.63403 8.92004ZM10.6043 17.0876V19.4209H13.9356L12.7971 16.2901L10.6043 17.0876ZM11.1173 16.29L9.08525 10.7033L4.69967 12.2985L6.73168 17.8851L11.1173 16.29ZM4.69967 10.7033L2.66766 16.29L7.05324 17.8851L9.08525 12.2985L4.69967 10.7033ZM4.86045 14.7542H3.18066V19.4209H4.86045V14.7542ZM5.3735 17.885L8.34372 9.71749L3.95806 8.12259L0.987831 16.2901L5.3735 17.885ZM8.34487 9.71432C8.12289 10.3275 7.54091 10.7337 6.89246 10.7337V6.06706C5.57904 6.06706 4.40475 6.88871 3.9569 8.12576L8.34487 9.71432ZM6.89246 10.7337C6.24401 10.7337 5.66202 10.3275 5.44004 9.71432L9.82801 8.12576C9.38017 6.88871 8.20587 6.06706 6.89246 6.06706V10.7337ZM5.44119 9.71749L8.41142 17.885L12.7971 16.2901L9.82686 8.12259L5.44119 9.71749ZM10.6043 14.7542H8.92447V19.4209H10.6043V14.7542Z" fill="#696974" mask="url(#path-12-inside-1_1575_39455)"/>
</svg>
