<svg width="98" height="16" viewBox="0 0 98 16" fill="none" xmlns="http://www.w3.org/2000/svg">
<path d="M14.7082 0.820792H12.0252C11.7627 0.820792 11.6169 0.995768 11.5877 1.25823L11.5002 2.59972C10.4212 1.37488 8.96309 0.5 7.15499 0.5C3.15969 0.5 0.243408 3.82456 0.243408 7.99484C0.243408 12.1651 3.15969 15.4897 7.15499 15.4897C9.02141 15.4897 10.4504 14.644 11.4711 13.4483L11.5877 14.6731C11.6169 14.9356 11.7627 15.1106 12.0252 15.1106H14.7082C14.9706 15.1106 15.1456 14.9356 15.1456 14.6731V1.25823C15.1456 0.995768 14.9706 0.820792 14.7082 0.820792ZM7.6216 11.9901C5.49271 11.9901 3.94708 10.2695 3.94708 7.96568C3.94708 5.69098 5.49271 3.99954 7.6216 3.99954C9.72132 3.99954 11.2669 5.80763 11.2669 7.96568C11.2669 10.1237 9.72132 11.9901 7.6216 11.9901Z" fill="white"/>
<path d="M30.7164 0.820801H27.7418C27.4793 0.820801 27.3044 0.995777 27.3044 1.25824V9.16136C27.3044 10.1821 26.2837 11.9318 24.2131 11.9318C22.8425 11.9318 21.4718 11.1153 21.4718 8.75308V1.25824C21.4718 0.995777 21.2968 0.820801 21.0344 0.820801H18.0598C17.7973 0.820801 17.6223 0.995777 17.6223 1.25824V9.45299C17.6223 13.2733 19.8387 15.4897 23.0466 15.4897C24.8547 15.4897 26.3128 14.469 27.3044 13.0692L27.421 14.6731C27.4502 14.9356 27.596 15.1106 27.8585 15.1106H30.7164C30.9789 15.1106 31.1538 14.9356 31.1538 14.6731V1.25824C31.1538 0.995777 30.9789 0.820801 30.7164 0.820801Z" fill="white"/>
<path d="M52.4215 15.4897C56.5335 15.4897 59.8289 12.1943 59.8289 7.99484C59.8289 3.7954 56.5335 0.5 52.4215 0.5C48.3096 0.5 45.0142 3.7954 45.0142 7.99484C45.0142 12.1943 48.3096 15.4897 52.4215 15.4897ZM52.4215 11.9318C50.351 11.9318 48.7178 10.2987 48.7178 7.99484C48.7178 5.69098 50.351 4.05786 52.4215 4.05786C54.4629 4.05786 56.1252 5.69098 56.1252 7.99484C56.1252 10.2987 54.4629 11.9318 52.4215 11.9318Z" fill="white"/>
<path d="M43.8401 0.820923H40.6586H33.6276C33.3652 0.820923 33.1902 0.995899 33.1902 1.25836V3.53306C33.1902 3.79553 33.3652 3.9705 33.6276 3.9705H36.8091V14.6733C36.8091 14.9357 36.9841 15.1107 37.2466 15.1107H40.2212C40.4836 15.1107 40.6586 14.9357 40.6586 14.6733V3.9705H43.8401C44.1026 3.9705 44.2775 3.79553 44.2775 3.53306V1.25836C44.2775 0.995899 44.1026 0.820923 43.8401 0.820923Z" fill="white"/>
<circle cx="64.197" cy="13.2479" r="2.25215" fill="#EA5930"/>
<path d="M82.9947 0.820801H80.0201C79.7576 0.820801 79.5827 0.995777 79.5827 1.25824V9.16134C79.5827 10.182 78.562 11.9318 76.4914 11.9318C75.1208 11.9318 73.7501 11.1152 73.7501 8.75306V1.25824C73.7501 0.995777 73.5751 0.820801 73.3127 0.820801H70.3381C70.0756 0.820801 69.9006 0.995777 69.9006 1.25824V9.45296C69.9006 13.2733 72.117 15.4896 75.3249 15.4896C77.133 15.4896 78.5911 14.469 79.5827 13.0691L79.6993 14.6731C79.7285 14.9356 79.8743 15.1105 80.1367 15.1105H82.9947C83.2572 15.1105 83.4321 14.9356 83.4321 14.6731V1.25824C83.4321 0.995777 83.2572 0.820801 82.9947 0.820801Z" fill="#EA5930"/>
<path d="M97.5419 1.25824C97.5419 0.995777 97.3669 0.820801 97.1044 0.820801H85.906C85.6435 0.820801 85.4685 0.995777 85.4685 1.25824V3.53293C85.4685 3.7954 85.6435 3.97037 85.906 3.97037H92.9342L85.6727 11.7277C85.5268 11.8735 85.4685 12.0776 85.4685 12.2817V14.6731C85.4685 14.9356 85.6435 15.1105 85.906 15.1105H97.1044C97.3669 15.1105 97.5419 14.9356 97.5419 14.6731V12.3984C97.5419 12.1359 97.3669 11.961 97.1044 11.961H90.1054L97.3377 4.20368C97.4836 4.05786 97.5419 3.85372 97.5419 3.64958V1.25824Z" fill="#EA5930"/>
</svg>
