<svg width="27" height="27" viewBox="0 0 27 27" fill="none" xmlns="http://www.w3.org/2000/svg">
<path d="M14.2444 0.332625L15.9372 2.22263C16.1986 2.51413 16.606 2.62662 16.9798 2.50962L19.4608 1.73413C20.0185 1.55963 20.6063 1.89912 20.7342 2.46962L21.29 4.95013C21.3745 5.32763 21.6693 5.62263 22.0467 5.70713L24.5307 6.26412C25.0994 6.39162 25.4388 6.97713 25.2673 7.53413L24.5012 10.0231C24.3867 10.3951 24.4982 10.7996 24.787 11.0601L26.6698 12.7576C27.1101 13.1546 27.1101 13.8461 26.6698 14.2431L24.787 15.9406C24.4982 16.2011 24.3862 16.6056 24.5012 16.9776L25.2673 19.4666C25.4388 20.0241 25.0994 20.6091 24.5307 20.7366L22.0467 21.2936C21.6693 21.3781 21.3745 21.6731 21.29 22.0506L20.7342 24.5311C20.6063 25.1016 20.0185 25.4411 19.4608 25.2666L16.9798 24.4911C16.606 24.3741 16.1986 24.4866 15.9372 24.7781L14.2444 26.6681C13.8471 27.1116 13.1529 27.1116 12.7556 26.6681L11.0628 24.7781C10.8014 24.4866 10.394 24.3741 10.0202 24.4911L7.53923 25.2666C6.98147 25.4411 6.39371 25.1016 6.26576 24.5311L5.71 22.0506C5.62553 21.6731 5.33065 21.3781 4.95331 21.2936L2.46935 20.7366C1.90058 20.6091 1.56122 20.0236 1.73265 19.4666L2.49883 16.9776C2.61329 16.6056 2.50183 16.2011 2.21295 15.9406L0.330237 14.2431C-0.110079 13.8461 -0.110079 13.1546 0.330237 12.7576L2.21295 11.0601C2.50183 10.7996 2.61379 10.3951 2.49883 10.0231L1.73265 7.53413C1.56122 6.97663 1.90058 6.39162 2.46935 6.26412L4.95331 5.70713C5.33065 5.62263 5.62553 5.32763 5.71 4.95013L6.26576 2.46962C6.39371 1.89912 6.98147 1.55963 7.53923 1.73413L10.0202 2.50962C10.394 2.62662 10.8014 2.51413 11.0628 2.22263L12.7556 0.332625C13.1524 -0.110875 13.8471 -0.110875 14.2444 0.332625Z" fill="#695CEA"/>
</svg>
