<svg width="16" height="16" viewBox="0 0 16 16" fill="none" xmlns="http://www.w3.org/2000/svg">
<path d="M6.00033 4.66699H4.00033C3.6467 4.66699 3.30756 4.80747 3.05752 5.05752C2.80747 5.30756 2.66699 5.6467 2.66699 6.00033V12.0003C2.66699 12.3539 2.80747 12.6931 3.05752 12.9431C3.30756 13.1932 3.6467 13.3337 4.00033 13.3337H10.0003C10.3539 13.3337 10.6931 13.1932 10.9431 12.9431C11.1932 12.6931 11.3337 12.3539 11.3337 12.0003V10.0003" stroke="#C2C2C2" stroke-width="1.6" stroke-linecap="round" stroke-linejoin="round"/>
<path d="M6 9.99983H8L13.6667 4.33316C13.9319 4.06794 14.0809 3.70823 14.0809 3.33316C14.0809 2.95809 13.9319 2.59838 13.6667 2.33316C13.4014 2.06794 13.0417 1.91895 12.6667 1.91895C12.2916 1.91895 11.9319 2.06794 11.6667 2.33316L6 7.99983V9.99983Z" stroke="#C2C2C2" stroke-width="1.6" stroke-linecap="round" stroke-linejoin="round"/>
<path d="M10.667 3.33301L12.667 5.33301" stroke="#C2C2C2" stroke-width="1.6" stroke-linecap="round" stroke-linejoin="round"/>
</svg>
