<svg width="24" height="24" viewBox="0 0 24 24" fill="none" xmlns="http://www.w3.org/2000/svg">
<path d="M9 11H7.5C5.567 11 4 12.567 4 14.5C4 16.433 5.567 18 7.5 18H16.5C18.433 18 20 16.433 20 14.5C20 12.567 18.433 11 16.5 11H15V13H16.5C17.3284 13 18 13.6716 18 14.5C18 15.3284 17.3284 16 16.5 16H7.5C6.67157 16 6 15.3284 6 14.5C6 13.6716 6.67157 13 7.5 13H9V11Z" fill="#EA5930"/>
<path d="M13 9.73244C13.5978 9.38663 14 8.74028 14 8C14 6.89543 13.1046 6 12 6C10.8954 6 10 6.89543 10 8C10 8.74028 10.4022 9.38663 11 9.73244L11 13C11 13.5523 11.4477 14 12 14C12.5523 14 13 13.5523 13 13L13 9.73244Z" fill="#695CEA"/>
</svg>
