<svg width="20" height="20" viewBox="0 0 20 20" fill="none" xmlns="http://www.w3.org/2000/svg">
<path fill-rule="evenodd" clip-rule="evenodd" d="M17.2388 13.0491L15.9746 11.7849C16.5415 11.2119 17.0626 10.6072 17.5286 10.0029C17.6453 9.85147 17.7532 9.70703 17.8518 9.571C17.7532 9.43497 17.6453 9.29052 17.5286 9.13914C16.9881 8.43818 16.3736 7.73691 15.6994 7.08495C13.8281 5.27529 11.8817 4.20764 10 4.20764C9.53312 4.20764 9.06226 4.27337 8.58955 4.39985L7.17544 2.98573C8.09833 2.61775 9.04091 2.41986 10 2.41986C12.4381 2.41986 14.7695 3.69868 16.9422 5.7998C17.6835 6.51661 18.354 7.28188 18.9444 8.04747C19.3006 8.50945 19.5535 8.87286 19.692 9.08937L20 9.571L19.692 10.0526C19.5535 10.2691 19.3006 10.6325 18.9444 11.0945C18.4338 11.7567 17.8632 12.4186 17.2388 13.0491L17.2388 13.0491ZM14.4744 15.3096C13.0341 16.2131 11.5383 16.7221 10 16.7221C7.56187 16.7221 5.23048 15.4433 3.05778 13.3422C2.31654 12.6254 1.64596 11.8601 1.05564 11.0945C0.699418 10.6325 0.446507 10.2691 0.308035 10.0526L0 9.571L0.308035 9.08937C0.446507 8.87286 0.699418 8.50945 1.05564 8.04747C1.64596 7.28188 2.31654 6.51661 3.05778 5.7998C3.38906 5.47943 3.72403 5.17818 4.06251 4.89766L0.429004 1.26415L1.69316 0L19.571 17.8778L18.3068 19.142L14.4744 15.3096ZM5.33363 6.16878C4.98734 6.44804 4.64271 6.7541 4.30058 7.08495C3.62641 7.73691 3.0119 8.43818 2.47142 9.13914C2.35468 9.29052 2.24682 9.43497 2.1482 9.571C2.24682 9.70703 2.35468 9.85147 2.47142 10.0029C3.0119 10.7038 3.62641 11.4051 4.30058 12.057C6.1719 13.8667 8.11829 14.9343 10 14.9343C11.0442 14.9343 12.1083 14.6056 13.1685 14.0037L11.8164 12.6515C11.284 12.9661 10.6631 13.1466 10 13.1466C8.02527 13.1466 6.42443 11.5457 6.42443 9.571C6.42443 8.9079 6.60494 8.28696 6.91949 7.75464L5.33363 6.16878ZM8.27277 9.10792C8.23327 9.25562 8.21222 9.41085 8.21222 9.571C8.21222 10.5584 9.01263 11.3588 10 11.3588C10.1601 11.3588 10.3154 11.3377 10.4631 11.2982L8.27277 9.10792Z" fill="#92929D"/>
</svg>
