<svg width="28" height="28" viewBox="0 0 28 28" fill="none" xmlns="http://www.w3.org/2000/svg">
<path d="M11.0833 17.0625C11.0833 16.66 11.41 16.3333 11.8125 16.3333H16.1875C16.3809 16.3333 16.5664 16.4102 16.7031 16.5469C16.8398 16.6836 16.9167 16.8691 16.9167 17.0625C16.9167 17.2559 16.8398 17.4414 16.7031 17.5781C16.5664 17.7148 16.3809 17.7917 16.1875 17.7917H11.8125C11.41 17.7917 11.0833 17.465 11.0833 17.0625ZM9.33333 15.1667C9.33333 15.4761 9.21042 15.7728 8.99162 15.9916C8.77283 16.2104 8.47609 16.3333 8.16667 16.3333C7.85725 16.3333 7.5605 16.2104 7.34171 15.9916C7.12292 15.7728 7 15.4761 7 15.1667C7 14.8572 7.12292 14.5605 7.34171 14.3417C7.5605 14.1229 7.85725 14 8.16667 14C8.47609 14 8.77283 14.1229 8.99162 14.3417C9.21042 14.5605 9.33333 14.8572 9.33333 15.1667ZM19.8333 16.3333C20.1428 16.3333 20.4395 16.2104 20.6583 15.9916C20.8771 15.7728 21 15.4761 21 15.1667C21 14.8572 20.8771 14.5605 20.6583 14.3417C20.4395 14.1229 20.1428 14 19.8333 14C19.5239 14 19.2272 14.1229 19.0084 14.3417C18.7896 14.5605 18.6667 14.8572 18.6667 15.1667C18.6667 15.4761 18.7896 15.7728 19.0084 15.9916C19.2272 16.2104 19.5239 16.3333 19.8333 16.3333ZM5.11292 10.6558L5.3655 9.625H4.22917C4.03578 9.625 3.85031 9.54818 3.71357 9.41143C3.57682 9.27469 3.5 9.08922 3.5 8.89583C3.5 8.70245 3.57682 8.51698 3.71357 8.38024C3.85031 8.24349 4.03578 8.16667 4.22917 8.16667H5.7225L6.18508 6.27842C6.37922 5.48585 6.83364 4.78133 7.47559 4.27761C8.11754 3.77388 8.90992 3.50007 9.72592 3.5H18.0717C18.8639 3.50007 19.6345 3.75818 20.267 4.23528C20.8994 4.71238 21.3593 5.38251 21.5769 6.14425L22.1544 8.16667H23.7714C23.8672 8.16667 23.962 8.18553 24.0505 8.22217C24.1389 8.25882 24.2193 8.31253 24.287 8.38024C24.3547 8.44794 24.4084 8.52833 24.4451 8.61679C24.4817 8.70526 24.5006 8.80008 24.5006 8.89583C24.5006 8.99159 24.4817 9.08641 24.4451 9.17487C24.4084 9.26334 24.3547 9.34372 24.287 9.41143C24.2193 9.47914 24.1389 9.53285 24.0505 9.5695C23.962 9.60614 23.8672 9.625 23.7714 9.625H22.5715L22.8632 10.6464C23.3427 10.8198 23.7571 11.1368 24.05 11.5543C24.3429 11.9717 24.5001 12.4692 24.5 12.9792V23.1875C24.5 23.6903 24.3003 24.1725 23.9447 24.5281C23.5892 24.8836 23.107 25.0833 22.6042 25.0833H20.5625C20.0597 25.0833 19.5775 24.8836 19.2219 24.5281C18.8664 24.1725 18.6667 23.6903 18.6667 23.1875V21.2917H9.33333V23.1875C9.33333 23.6903 9.13359 24.1725 8.77806 24.5281C8.42252 24.8836 7.94031 25.0833 7.4375 25.0833H5.39583C4.89303 25.0833 4.41081 24.8836 4.05528 24.5281C3.69974 24.1725 3.5 23.6903 3.5 23.1875V12.9792C3.50006 12.4737 3.65457 11.9803 3.94283 11.565C4.23109 11.1498 4.63934 10.8325 5.11292 10.6558ZM7.60142 6.6255L6.65233 10.5H21.3039L20.174 6.545C20.0434 6.08787 19.7675 5.68573 19.3879 5.39944C19.0084 5.11315 18.5459 4.9583 18.0705 4.95833H9.7265C9.23689 4.95838 8.76145 5.12268 8.37627 5.42494C7.9911 5.7272 7.71846 6.14994 7.602 6.6255H7.60142ZM5.97917 11.9583C5.70843 11.9583 5.44877 12.0659 5.25733 12.2573C5.06588 12.4488 4.95833 12.7084 4.95833 12.9792V19.8333H23.0417V12.9792C23.0417 12.7084 22.9341 12.4488 22.7427 12.2573C22.5512 12.0659 22.2916 11.9583 22.0208 11.9583H5.97917ZM20.125 23.1875C20.125 23.429 20.321 23.625 20.5625 23.625H22.6042C22.7202 23.625 22.8315 23.5789 22.9135 23.4969C22.9956 23.4148 23.0417 23.3035 23.0417 23.1875V21.2917H20.125V23.1875ZM4.95833 21.2917V23.1875C4.95833 23.429 5.15433 23.625 5.39583 23.625H7.4375C7.55353 23.625 7.66481 23.5789 7.74686 23.4969C7.82891 23.4148 7.875 23.3035 7.875 23.1875V21.2917H4.95833Z" fill="#E2E2EA"/>
</svg>
