<svg width="20" height="20" viewBox="0 0 20 20" fill="none" xmlns="http://www.w3.org/2000/svg">
<path d="M6.45833 5C6.29257 5 6.1336 5.06585 6.01639 5.18306C5.89918 5.30027 5.83333 5.45924 5.83333 5.625V9.375C5.83333 9.72 6.11333 10 6.45833 10H11.0417C11.2074 10 11.3664 9.93415 11.4836 9.81694C11.6008 9.69973 11.6667 9.54076 11.6667 9.375V5.625C11.6667 5.45924 11.6008 5.30027 11.4836 5.18306C11.3664 5.06585 11.2074 5 11.0417 5H6.45833ZM7.08333 8.75V6.25H10.4167V8.75H7.08333ZM5.625 2.5C5.01721 2.5 4.43432 2.74144 4.00455 3.17121C3.57478 3.60098 3.33333 4.18388 3.33333 4.79167V17.0833H3.125C2.95924 17.0833 2.80027 17.1492 2.68306 17.2664C2.56585 17.3836 2.5 17.5426 2.5 17.7083C2.5 17.8741 2.56585 18.0331 2.68306 18.1503C2.80027 18.2675 2.95924 18.3333 3.125 18.3333H14.375C14.5408 18.3333 14.6997 18.2675 14.8169 18.1503C14.9342 18.0331 15 17.8741 15 17.7083C15 17.5426 14.9342 17.3836 14.8169 17.2664C14.6997 17.1492 14.5408 17.0833 14.375 17.0833H14.1667V15.5808C14.5154 15.7601 14.9044 15.8467 15.2963 15.8324C15.6882 15.818 16.0698 15.7032 16.4044 15.4988C16.7391 15.2945 17.0157 15.0075 17.2075 14.6655C17.3994 14.3235 17.5001 13.938 17.5 13.5458V8.68083C17.5 8.18499 17.3392 7.70251 17.0417 7.30583L16.125 6.08333C16.0255 5.95073 15.8775 5.86306 15.7134 5.83962C15.5493 5.81617 15.3826 5.85888 15.25 5.95833C15.1174 6.05779 15.0297 6.20585 15.0063 6.36995C14.9828 6.53404 15.0255 6.70073 15.125 6.83333L16.0417 8.05583C16.1767 8.23583 16.25 8.45583 16.25 8.68083V13.5458C16.25 13.6821 16.2232 13.817 16.171 13.9429C16.1189 14.0687 16.0425 14.1831 15.9461 14.2795C15.8498 14.3758 15.7354 14.4522 15.6095 14.5044C15.4837 14.5565 15.3487 14.5833 15.2125 14.5833C15.0763 14.5833 14.9413 14.5565 14.8155 14.5044C14.6896 14.4522 14.5752 14.3758 14.4789 14.2795C14.3825 14.1831 14.3061 14.0687 14.254 13.9429C14.2018 13.817 14.175 13.6821 14.175 13.5458V12.0833C14.1749 12.0496 14.1721 12.0158 14.1667 11.9825V4.79167C14.1667 4.49072 14.1074 4.19272 13.9922 3.91468C13.8771 3.63665 13.7083 3.38401 13.4955 3.17121C13.2827 2.95841 13.03 2.78961 12.752 2.67444C12.4739 2.55928 12.1759 2.5 11.875 2.5H5.625ZM12.9167 17.0833H4.58333V4.79167C4.58333 4.21667 5.05 3.75 5.625 3.75H11.875C12.45 3.75 12.9167 4.21667 12.9167 4.79167V17.0833Z" fill="#92929D"/>
</svg>
