<svg width="20" height="20" viewBox="0 0 20 20" fill="none" xmlns="http://www.w3.org/2000/svg">
<path fill-rule="evenodd" clip-rule="evenodd" d="M5.39616 9.79977C5.39616 9.22817 5.48827 8.68017 5.65266 8.16617L2.7752 5.90137C2.2144 7.07497 1.89844 8.39737 1.89844 9.79977C1.89844 11.201 2.21401 12.5226 2.77404 13.6954L5.64994 11.4262C5.48711 10.9146 5.39616 10.3686 5.39616 9.79977Z" fill="#FBBC05"/>
<path fill-rule="evenodd" clip-rule="evenodd" d="M10.4467 4.6C11.6514 4.6 12.7396 5.04 13.5946 5.76L16.0819 3.2C14.5662 1.84 12.623 1 10.4467 1C7.06787 1 4.16398 2.9916 2.77344 5.9016L5.6509 8.1664C6.31391 6.092 8.20385 4.6 10.4467 4.6Z" fill="#EB4335"/>
<path fill-rule="evenodd" clip-rule="evenodd" d="M10.4467 15C8.20385 15 6.31391 13.508 5.6509 11.4336L2.77344 13.698C4.16398 16.6084 7.06787 18.6 10.4467 18.6C12.5321 18.6 14.5231 17.8368 16.0174 16.4068L13.2861 14.2304C12.5154 14.7308 11.545 15 10.4467 15Z" fill="#34A853"/>
<path fill-rule="evenodd" clip-rule="evenodd" d="M18.6106 9.8002C18.6106 9.2802 18.5329 8.7202 18.4163 8.2002H10.4492V11.6002H15.0351C14.8058 12.7594 14.1817 13.6506 13.2886 14.2306L16.0199 16.407C17.5896 14.9054 18.6106 12.6686 18.6106 9.8002Z" fill="#4285F4"/>
</svg>
