<svg width="28" height="28" viewBox="0 0 28 28" fill="none" xmlns="http://www.w3.org/2000/svg">
<path d="M21.3833 26.2505C20.3158 26.2505 18.8163 25.8644 16.5708 24.6098C13.8403 23.0786 11.7282 21.6649 9.01244 18.9562C6.394 16.3395 5.11979 14.6452 3.33643 11.4001C1.32174 7.73602 1.66518 5.81539 2.04908 4.99453C2.50627 4.01344 3.18111 3.42664 4.05338 2.84422C4.54882 2.51961 5.07312 2.24135 5.61963 2.01297C5.67432 1.98945 5.72518 1.96703 5.77057 1.9468C6.04127 1.82484 6.45143 1.64055 6.97096 1.83742C7.31768 1.96758 7.62721 2.23391 8.11174 2.71242C9.10541 3.69242 10.4633 5.875 10.9642 6.94688C11.3006 7.6693 11.5231 8.14617 11.5237 8.68102C11.5237 9.30719 11.2087 9.79008 10.8264 10.3112C10.7548 10.4091 10.6837 10.5027 10.6148 10.5934C10.1986 11.1403 10.1073 11.2984 10.1674 11.5805C10.2894 12.1477 11.1988 13.8359 12.6935 15.3272C14.1881 16.8185 15.8276 17.6705 16.3969 17.792C16.6911 17.8548 16.8524 17.7597 17.4168 17.3287C17.4978 17.267 17.5809 17.203 17.6678 17.139C18.2508 16.7053 18.7113 16.3985 19.3227 16.3985H19.326C19.8581 16.3985 20.3136 16.6293 21.0683 17.0099C22.0527 17.5065 24.3009 18.8469 25.2869 19.8416C25.7665 20.3251 26.0339 20.6335 26.1646 20.9797C26.3615 21.5009 26.1761 21.9094 26.0553 22.1828C26.035 22.2282 26.0126 22.278 25.9891 22.3332C25.7589 22.8787 25.479 23.4019 25.1529 23.8962C24.5716 24.7657 23.9826 25.4389 22.9993 25.8966C22.4944 26.1355 21.9418 26.2565 21.3833 26.2505Z" fill="#696969"/>
</svg>
