<svg width="24" height="24" viewBox="0 0 24 24" fill="none" xmlns="http://www.w3.org/2000/svg">
<path d="M12.0011 20.0011L5.00108 13.0011C4.60711 12.5743 4.30107 12.0741 4.10042 11.529C3.89977 10.9839 3.80844 10.4047 3.83166 9.8243C3.87854 8.6522 4.38912 7.54673 5.25108 6.75108C6.11303 5.95543 7.25575 5.53478 8.42785 5.58166C9.59996 5.62855 10.7054 6.13913 11.5011 7.00108C11.6491 7.09997 11.8231 7.15275 12.0011 7.15275C12.1791 7.15275 12.3531 7.09997 12.5011 7.00108C13.2967 6.13913 14.4022 5.62855 15.5743 5.58166C16.7464 5.53478 17.8891 5.95543 18.7511 6.75108C19.613 7.54673 20.1236 8.6522 20.1705 9.8243C20.2174 10.9964 19.7967 12.1391 19.0011 13.0011L12.0011 20.0011Z" stroke="#B5B5BE" stroke-width="2" stroke-linecap="round" stroke-linejoin="round"/>
</svg>
