<svg width="16" height="16" viewBox="0 0 16 16" fill="none" xmlns="http://www.w3.org/2000/svg">
<path d="M7.99942 13.3341L3.33275 8.66739C3.07011 8.38286 2.86608 8.04938 2.73231 7.686C2.59854 7.32262 2.53766 6.93645 2.55314 6.54954C2.58439 5.76813 2.92478 5.03115 3.49942 4.50072C4.07405 3.97029 4.83587 3.68985 5.61727 3.72111C6.39867 3.75236 7.13565 4.09275 7.66608 4.66739C7.76475 4.73331 7.88075 4.7685 7.99942 4.7685C8.11808 4.7685 8.23408 4.73331 8.33275 4.66739C8.86318 4.09275 9.60016 3.75236 10.3816 3.72111C11.163 3.68985 11.9248 3.97029 12.4994 4.50072C13.0741 5.03115 13.4144 5.76813 13.4457 6.54954C13.4769 7.33094 13.1965 8.09275 12.6661 8.66739L7.99942 13.3341Z" fill="white" stroke="white" stroke-width="2" stroke-linecap="round" stroke-linejoin="round"/>
</svg>
