<svg width="20" height="20" viewBox="0 0 20 20" fill="none" xmlns="http://www.w3.org/2000/svg">
<path d="M8.0957 7.2334H10.2603C10.6702 7.2334 11.0634 7.39664 11.3533 7.6872C11.6431 7.97777 11.806 8.37187 11.806 8.78279V19H9.64143C9.23148 19 8.83832 18.8368 8.54844 18.5462C8.25856 18.2557 8.0957 17.8616 8.0957 17.4506V7.2334Z" fill="#022F5E"/>
<path d="M11.4905 1.62879C11.2887 1.42534 11.0481 1.2648 10.7829 1.15681C10.5178 1.04881 10.2336 0.995575 9.94749 1.00029C9.66177 0.995788 9.37809 1.04913 9.11343 1.15713C8.84876 1.26512 8.60856 1.42554 8.40722 1.62879C8.19659 1.8334 8.03083 2.07978 7.92053 2.3522C7.81022 2.62462 7.75779 2.9171 7.76657 3.21097C7.7595 3.50138 7.8128 3.79008 7.9231 4.05871C8.03339 4.32734 8.19826 4.57001 8.40722 4.7713C8.60856 4.97454 8.84876 5.13497 9.11343 5.24296C9.37809 5.35096 9.66177 5.4043 9.94749 5.3998C10.2336 5.40451 10.5178 5.35128 10.7829 5.24328C11.0481 5.13528 11.2887 4.97475 11.4905 4.7713C11.6989 4.56978 11.8633 4.32699 11.9731 4.05838C12.083 3.78976 12.1358 3.50118 12.1284 3.21097C12.1375 2.9173 12.0855 2.62494 11.9757 2.35253C11.8659 2.08012 11.7006 1.83363 11.4905 1.62879ZM10.6154 3.87773C10.5281 3.96597 10.424 4.03565 10.3092 4.08261C10.1945 4.12956 10.0714 4.15282 9.94749 4.15099C9.82398 4.15261 9.70142 4.12924 9.58713 4.08229C9.47284 4.03534 9.36916 3.96576 9.28231 3.87773C9.19317 3.79052 9.12294 3.6858 9.07603 3.57013C9.02912 3.45446 9.00654 3.33033 9.00969 3.20551C9.00715 3.08059 9.02955 2.95643 9.07557 2.84031C9.12159 2.7242 9.19031 2.61848 9.27768 2.52937C9.36506 2.44026 9.46932 2.36956 9.58435 2.32143C9.69938 2.2733 9.82284 2.2487 9.94749 2.24909C10.0726 2.24797 10.1966 2.27202 10.3123 2.31983C10.428 2.36763 10.5329 2.43822 10.6208 2.5274C10.7088 2.61658 10.778 2.72255 10.8244 2.83903C10.8707 2.95551 10.8933 3.08013 10.8907 3.20551C10.8935 3.33053 10.8705 3.45478 10.8231 3.57046C10.7758 3.68614 10.705 3.79076 10.6154 3.87773Z" fill="#022F5E"/>
</svg>
