<svg width="132" height="130" viewBox="0 0 132 130" fill="none" xmlns="http://www.w3.org/2000/svg">
<path d="M42.0879 107.776H115.408" stroke="#CDD6E1" stroke-width="2.38568" stroke-miterlimit="10" stroke-linecap="round" stroke-linejoin="round"/>
<path d="M122.566 107.776H129.828" stroke="#CDD6E1" stroke-width="2.38568" stroke-miterlimit="10" stroke-linecap="round" stroke-linejoin="round"/>
<path d="M43.6965 102.207C45.9301 102.207 47.7407 100.396 47.7407 98.1623C47.7407 95.9288 45.9301 94.1182 43.6965 94.1182C41.463 94.1182 39.6523 95.9288 39.6523 98.1623C39.6523 100.396 41.463 102.207 43.6965 102.207Z" fill="#B8BFCD"/>
<path d="M83.2895 85.381C83.3395 91.7719 83.8887 99.8602 84.0884 100.709C84.0384 101.608 82.1412 104.454 80.5934 102.506C79.0456 100.559 75.9002 96.3652 77.3481 88.4766C78.796 80.6379 83.2895 85.381 83.2895 85.381Z" fill="#B8BFCD"/>
<path d="M43.1453 102.156C43.1453 102.206 43.1453 102.306 43.1952 102.356C43.1952 102.406 43.2451 102.506 43.2451 102.556C43.2951 102.606 43.2951 102.706 43.345 102.755C43.3949 102.805 43.4448 102.855 43.4948 102.955C43.7444 103.305 44.1938 103.604 44.6931 103.904C44.7929 103.954 44.9427 104.004 45.0425 104.054C45.0925 104.104 45.1923 104.104 45.2423 104.153C45.2922 104.203 45.392 104.203 45.442 104.253L45.6417 104.303C45.8913 104.403 46.1909 104.503 46.4905 104.553C46.6403 104.603 46.7401 104.603 46.8899 104.653C46.9898 104.653 47.0896 104.703 47.2394 104.703C47.3392 104.703 47.4391 104.753 47.539 104.753C48.3378 104.852 49.0867 104.803 49.7358 104.553C51.9826 103.704 52.8813 101.957 52.8813 101.957C52.8813 101.957 53.4804 102.106 54.4291 102.206C56.2265 102.456 59.2222 102.805 61.8184 102.556C62.6672 102.456 63.5659 102.256 64.5145 102.007C64.8141 101.907 65.1137 101.807 65.4632 101.707C66.0623 101.507 66.6115 101.258 67.2107 101.008C68.8084 100.309 70.3062 99.3604 71.5544 98.3119C71.7042 98.212 71.854 98.0622 72.0038 97.9624C72.7028 97.3133 73.3019 96.6143 73.7513 95.9153C74.65 94.3675 75.8482 93.0694 77.1464 91.8212C79.0936 89.9739 81.3903 88.3762 83.4873 86.6786C84.1363 86.1793 84.7854 85.6301 85.3845 85.1308C87.3317 83.4333 89.0792 81.4361 90.2775 79.1394C91.5756 76.643 91.5756 74.2964 91.3759 71.5504C91.3759 71.4006 91.0763 69.6032 91.1762 69.5532C92.0749 68.9541 92.724 68.1053 93.0735 67.0568C93.8723 64.9598 93.5727 62.2637 92.6241 60.5162C92.5243 60.3165 92.4244 60.1168 92.3245 59.967C91.326 58.2195 90.1277 56.1725 88.7796 54.8244L86.3332 52.3779H65.0638C65.0638 52.3779 64.8141 53.8258 64.4646 55.6233C64.4147 55.773 64.4147 55.9228 64.3648 56.0726C64.3148 56.3722 64.2649 56.6718 64.165 56.9713C64.1151 57.1211 64.1151 57.2709 64.0652 57.4207C64.0652 57.4706 64.0652 57.4706 64.0153 57.5205C63.9653 57.87 63.8655 58.1696 63.8155 58.5191C63.6158 59.5177 63.3662 60.4164 63.0666 61.1653C63.0666 61.2152 63.0167 61.3151 63.0167 61.365C62.8669 61.7644 62.7171 62.1139 62.5673 62.3636C61.3691 64.3108 55.2778 69.9027 51.0339 73.0482C46.79 76.1937 44.8428 81.536 43.7444 90.1736C42.4962 98.7612 42.9456 100.509 43.1453 102.156Z" fill="#EAEEF9"/>
<path d="M81.4924 99.8099C84.3383 99.5103 84.2884 99.8099 85.8861 99.8099C87.4838 99.8099 87.8832 100.609 88.4824 101.358C88.8319 101.857 89.3311 103.305 89.6307 104.353C89.8304 104.953 89.3811 105.502 88.7819 105.552C86.9845 105.552 83.7392 105.602 83.19 105.552C82.3911 105.452 80.6936 105.252 79.9446 104.004C79.695 103.555 79.5452 102.955 79.3954 102.356C79.1957 101.208 79.9446 100.06 81.1429 99.9098L81.4924 99.8099Z" fill="#EAEEF9"/>
<path opacity="0.3" d="M43.1469 102.157C43.2967 103.804 47.3908 105.352 49.6376 104.503C51.9343 103.655 52.783 101.907 52.783 101.907C52.783 101.907 57.7259 102.906 61.7202 102.556C64.7159 102.257 68.76 100.509 71.4062 98.2624L71.0567 90.6733C71.0567 90.6733 70.7572 84.0329 70.4576 81.137C70.208 78.2412 72.5047 78.2911 72.4048 74.5465C72.255 70.8019 73.7529 64.1615 75.7001 58.0702L68.9098 52.9775L64.2665 55.6237C63.8172 58.1201 63.0682 61.2656 62.4192 62.414C61.2209 64.3612 55.1297 69.9531 50.8858 73.0986C46.6419 76.2441 44.6947 81.5864 43.5962 90.224C42.4978 98.7617 42.9472 100.509 43.1469 102.157Z" fill="#BFC8D6"/>
<path opacity="0.4" d="M43.1467 102.155C43.1467 102.205 43.1467 102.305 43.1966 102.355C43.1966 102.405 43.2465 102.505 43.2465 102.555C43.2965 102.605 43.2965 102.705 43.3464 102.755C43.3963 102.805 43.4462 102.854 43.4962 102.954C43.7458 103.304 44.1952 103.603 44.6945 103.903C44.7943 103.953 44.9441 104.003 45.044 104.053C45.0939 104.103 45.1937 104.103 45.2437 104.153C45.2936 104.203 45.3934 104.203 45.4434 104.252L45.6431 104.302C45.8927 104.402 46.1923 104.502 46.4919 104.552C46.6417 104.602 46.7415 104.602 46.8913 104.652C47.5903 104.203 47.9897 103.903 47.9897 103.903C47.9897 103.903 47.9897 103.903 47.6901 102.106C47.5903 101.556 47.4904 100.807 47.3406 99.8088C46.6916 95.6648 47.1409 87.4766 52.683 87.7262C52.0838 83.5322 54.3805 78.8889 56.3777 75.9432C58.4247 73.0473 59.9226 74.645 61.67 76.6422C61.8698 75.7934 60.971 72.3983 59.8726 69.4026C62.1194 72.0987 64.1165 73.0473 69.4588 73.5466C67.0623 71.5495 66.7627 70.501 64.8155 66.1073C67.262 67.2557 72.2548 68.6037 75.2505 69.0031C82.4901 69.9518 88.7311 69.6023 92.9251 67.0559C93.7239 64.959 93.4244 62.2628 92.4757 60.5153C92.3759 60.3156 92.276 60.1159 92.1762 59.9661C88.3317 59.6166 81.7911 59.0674 75.6499 58.5182C71.1564 58.1188 66.8626 57.7194 63.9667 57.4697C63.9667 57.5197 63.9667 57.5197 63.9168 57.5696C63.8669 57.9191 63.767 58.2186 63.7171 58.5681C63.5174 59.5667 63.2677 60.4654 62.9682 61.2143C62.9682 61.2643 62.9182 61.3641 62.9182 61.4141C62.7685 61.8135 62.6187 62.163 62.4689 62.4126C61.2706 64.3598 55.1794 69.9518 50.9355 73.0972C46.6916 76.2427 44.7444 81.585 43.646 90.2226C42.4976 98.7603 42.947 100.508 43.1467 102.155Z" fill="#BFC8D6"/>
<path d="M71.8539 105.102C71.8539 105.102 71.4545 99.0605 71.4045 98.2617C71.3546 97.7125 68.1093 100.309 65.1136 94.7667C62.1179 89.2247 61.6686 88.2261 61.7684 86.8281C60.8697 93.868 63.6657 98.6112 64.2149 101.158C64.7641 103.704 65.2634 103.604 65.2634 103.604L70.3061 104.603L71.8539 105.102Z" fill="#B8BFCD"/>
<path d="M66.8605 101.007C69.7064 100.657 69.6564 101.007 71.2541 101.007C72.8518 101.007 73.2513 101.856 73.8504 102.655C74.1999 103.154 74.6992 104.752 74.9987 105.9C75.1985 106.549 74.7491 107.148 74.15 107.148C72.3525 107.148 68.3583 107.098 67.8091 107.048C67.0102 106.948 66.0616 106.799 65.3626 105.451C65.113 104.951 64.9632 104.302 64.8134 103.653C64.6137 102.405 65.3626 101.207 66.5609 101.007H66.8605Z" fill="#EAEEF9"/>
<path d="M53.8807 101.856C55.1789 102.655 55.9278 104.552 56.3272 105.9C56.5269 106.549 56.0776 107.148 55.4784 107.148C53.681 107.148 49.6868 107.098 49.1376 107.048C45.9921 106.649 45.6426 103.204 48.0391 101.856C49.537 100.957 52.3829 100.907 53.8807 101.856Z" fill="#EAEEF9"/>
<path d="M88.4539 63.0289C88.009 63.4455 87.5076 63.8197 86.9992 64.1444C86.3072 64.5962 85.5587 65.0056 84.8031 65.3657C82.487 66.4528 80.0226 67.208 77.4171 67.3277C75.2636 67.4333 72.9758 67.306 70.8647 66.649C70.1304 66.4512 69.382 66.1546 68.7324 65.8438C64.9904 64.0075 62.8581 62.4962 62.5621 58.302C62.2661 54.1078 62.4571 50.8527 62.4571 50.8527C62.4571 50.4997 62.8385 49.9914 62.9444 49.6736C63.1422 49.2924 63.2835 48.8687 63.4812 48.4875C63.8273 47.732 64.2158 46.92 64.6183 46.2069C65.5082 44.6678 66.631 43.3475 68.0574 42.3874C70.3595 40.8484 73.1486 40.2486 75.8812 39.9594C77.8654 39.7266 79.9201 39.6351 81.9112 40.1578C83.6411 40.617 85.1238 41.4645 86.4511 42.6368C87.8914 43.8938 89.0209 45.4473 90.2846 46.8809C90.2846 46.8809 91.3787 49.9525 92.2679 54.0621C93.1571 58.1716 91.5257 60.1697 88.4539 63.0289Z" fill="#EAEEF9"/>
<path d="M71.8422 56.5227C71.3196 57.1017 70.8322 58.9869 67.9585 58.2875C63.8774 57.2561 63.5532 52.1581 65.4528 50.273C68.8495 46.863 72.9448 47.6402 74.0741 51.312C75.2386 55.231 72.8944 55.4143 71.8422 56.5227Z" fill="#BFC8D6"/>
<path d="M63.8653 44.4489C64.96 42.931 66.5769 43.3054 66.0189 45.0494C65.1076 47.8525 63.2858 49.222 63.1433 59.531C63.1007 61.3527 56.8734 57.652 56.613 51.2336C56.5425 50.0332 57.99 49.5744 57.99 49.5744C58.8586 49.2992 62.1422 46.8636 63.8653 44.4489Z" fill="#989FB0"/>
<path d="M86.4986 61.3417C86.675 62.5774 86.4983 63.8131 86.0463 64.8863C85.446 65.2745 84.7893 65.6204 84.1326 65.9664C82.099 66.9123 79.9241 67.5757 77.7211 67.6884C75.8711 67.8012 73.8305 67.6385 71.9877 67.0946C71.1405 66.106 70.6252 64.9691 70.4347 63.6346C69.8562 59.5815 72.9988 55.8043 77.4473 55.1694C81.8463 54.5415 85.9201 57.2887 86.4986 61.3417Z" fill="#BFC8D6"/>
<path d="M69.5397 56.298C71.1503 56.0681 72.2695 54.5761 72.0397 52.9656C71.8098 51.355 70.3178 50.2357 68.7072 50.4656C67.0966 50.6955 65.9774 52.1875 66.2073 53.798C66.4371 55.4086 67.9291 56.5279 69.5397 56.298Z" fill="white"/>
<path d="M71.7859 53.3043C71.9623 54.54 71.0724 55.7261 69.8368 55.9025C68.6011 56.0788 67.415 55.189 67.2386 53.9533C67.4645 54.1228 67.7328 54.2358 68.0294 54.1935C68.5731 54.1159 69.0039 53.6005 68.9192 53.0074C68.8416 52.4637 68.3333 52.0823 67.7825 52.1105C68.1285 51.7081 68.644 51.4328 69.1877 51.3552C70.4728 51.1717 71.6025 52.0192 71.7859 53.3043Z" fill="#989FB0"/>
<path d="M85.7526 53.9826C87.3632 53.7527 88.4824 52.2607 88.2526 50.6501C88.0227 49.0396 86.5307 47.9203 84.9201 48.1502C83.3095 48.3801 82.1903 49.872 82.4201 51.4826C82.65 53.0932 84.142 54.2125 85.7526 53.9826Z" fill="white"/>
<path d="M82.7581 51.7365C82.9345 52.9722 84.1206 53.862 85.3563 53.6857C86.592 53.5093 87.4818 52.3232 87.3054 51.0875C87.1359 51.3134 86.91 51.497 86.6134 51.5393C86.0697 51.6169 85.5119 51.2426 85.4273 50.6495C85.3497 50.1058 85.731 49.5975 86.2677 49.4704C85.8229 49.1809 85.2509 49.0608 84.7073 49.1384C83.4716 49.3147 82.5747 50.4514 82.7581 51.7365Z" fill="#989FB0"/>
<path d="M77.5167 55.6631C77.1212 55.7195 76.7329 55.8254 76.3516 55.9807C75.8785 56.1995 75.1723 56.5525 75.264 57.195C75.3769 57.9858 77.361 58.4592 77.8552 58.3886C78.3495 58.3181 80.129 57.358 80.0091 56.5177C79.8962 55.7269 79.1195 55.5856 78.4628 55.5785C78.1592 55.5714 77.8062 55.5713 77.5167 55.6631Z" fill="#989FB0"/>
<path d="M78.0318 58.2112L77.8482 57.9852L77.7352 58.2535C77.7352 58.2535 77.8339 60.0046 77.516 60.6048C77.8126 60.9155 78.0597 60.8802 78.1515 60.8167C78.3068 60.8449 78.554 60.8097 78.7023 60.4355C78.3352 59.9835 78.0318 58.2112 78.0318 58.2112Z" fill="#989FB0"/>
<path d="M67.9306 47.1468C67.2669 47.4433 66.702 47.7257 66.2641 48.1916C65.8263 48.6576 65.5155 49.3072 65.4095 49.9779C65.4166 50.0274 65.3672 50.0344 65.3177 50.0415C65.2683 50.0485 65.2613 49.9991 65.2613 49.9991C65.2119 49.6531 65.3037 49.2365 65.4097 48.9188C65.5086 48.5516 65.7134 48.2198 65.9747 47.9303C66.236 47.6409 66.5043 47.4008 66.8291 47.2032C67.161 47.0549 67.5494 46.9491 67.9095 46.9985C67.966 47.0409 68.0224 47.0833 67.9306 47.1468C67.9801 47.1398 67.9801 47.1398 67.9306 47.1468Z" fill="#989FB0"/>
<path d="M84.687 44.7555C85.4072 44.8544 86.0286 44.9675 86.5793 45.2923C87.13 45.6172 87.6101 46.1539 87.8995 46.7682C87.9065 46.8177 87.956 46.8106 88.0054 46.8035C88.0548 46.7965 88.0478 46.7471 88.0478 46.7471C87.9984 46.4011 87.7937 46.0268 87.6031 45.7514C87.4054 45.4266 87.1159 45.1653 86.7841 44.9605C86.4523 44.7557 86.1275 44.6003 85.7603 44.5014C85.4002 44.4519 84.9977 44.4589 84.6659 44.6072C84.6235 44.6637 84.6305 44.7131 84.687 44.7555C84.6376 44.7625 84.687 44.7555 84.687 44.7555Z" fill="#989FB0"/>
<path d="M87.5201 40.5663C86.0445 39.4152 84.597 40.227 85.6206 41.7452C87.2796 44.1815 89.4119 44.9867 92.4328 54.8441C92.9833 56.5811 97.9266 51.286 96.381 45.0511C96.1129 43.8789 94.5948 43.8434 94.5948 43.8434C93.6839 43.8221 89.85 42.4024 87.5201 40.5663Z" fill="#989FB0"/>
<path d="M2.55273 108.897H29.8135C30.6623 108.897 30.8121 110.145 29.9633 110.295C22.2744 111.893 12.9877 112.542 18.33 115.787C27.417 121.279 41.5966 124.075 58.4723 120.93C73.6505 118.134 73.8502 76.9929 74.5492 65.7091C74.699 63.712 76.3466 62.1143 78.3437 62.1143H79.6418C81.7388 62.1143 83.4863 63.8118 83.4863 65.9088V72.699" stroke="#AAB2C2" stroke-width="3.1809" stroke-miterlimit="10" stroke-linecap="round" stroke-linejoin="round"/>
<path d="M83.71 63.099C84.2831 65.5287 82.3055 66.7134 79.6328 67.3439C76.9601 67.9743 74.6614 67.7984 74.0883 65.3686C73.5152 62.9389 75.1948 60.4908 77.8675 59.8603C80.5402 59.2298 83.1369 60.6693 83.71 63.099Z" fill="#989FB0"/>
<path d="M81.1389 85.3803C80.6397 85.3803 80.2402 84.9809 80.2402 84.4816V80.9866C80.2402 80.4873 80.6397 80.0879 81.1389 80.0879C81.6382 80.0879 82.0376 80.4873 82.0376 80.9866V84.4816C82.0376 85.0308 81.6382 85.3803 81.1389 85.3803Z" fill="#989FB0"/>
<path d="M85.7815 85.3803C85.2822 85.3803 84.8828 84.9809 84.8828 84.4816V80.9866C84.8828 80.4873 85.2822 80.0879 85.7815 80.0879C86.2808 80.0879 86.6802 80.4873 86.6802 80.9866V84.4816C86.6802 85.0308 86.2808 85.3803 85.7815 85.3803Z" fill="#989FB0"/>
<path d="M88.1301 81.0373H78.9434V79.9888C78.9434 77.4425 80.9904 73.0488 83.5368 73.0488C86.0831 73.0488 88.1301 77.4425 88.1301 79.9888V81.0373Z" fill="#989FB0"/>
<path d="M126.922 82.7834H108C107.201 82.7834 106.602 82.1343 106.602 81.3854V61.2144C106.602 60.4155 107.251 59.8164 108 59.8164H126.922C127.721 59.8164 128.32 60.4655 128.32 61.2144V81.3854C128.37 82.1343 127.721 82.7834 126.922 82.7834Z" fill="#EAEEF9"/>
<path d="M124.577 70.901C124.577 73.2477 123.429 75.3946 121.682 76.6927H113.144C111.396 75.3946 110.248 73.2976 110.248 70.901C110.248 68.5544 111.396 66.4075 113.144 65.1094H121.682C123.429 66.4574 124.577 68.5544 124.577 70.901Z" fill="#CCD3DE"/>
<path d="M114.739 71.3005C114.389 71.3005 114.09 71.0009 114.09 70.6514V68.5045C114.09 68.155 114.389 67.8555 114.739 67.8555C115.088 67.8555 115.388 68.155 115.388 68.5045V70.6514C115.388 71.0009 115.088 71.3005 114.739 71.3005Z" fill="#989FB0"/>
<path d="M119.981 71.3005C119.632 71.3005 119.332 71.0009 119.332 70.6514V68.5045C119.332 68.155 119.632 67.8555 119.981 67.8555C120.331 67.8555 120.63 68.155 120.63 68.5045V70.6514C120.63 71.0009 120.331 71.3005 119.981 71.3005Z" fill="#989FB0"/>
<path d="M117.985 74.3948H116.687C116.387 74.3948 116.088 74.1452 116.088 73.7957V73.1466C116.088 72.4476 116.637 71.8984 117.336 71.8984C118.035 71.8984 118.584 72.4476 118.584 73.1466V73.7957C118.584 74.0953 118.335 74.3948 117.985 74.3948Z" fill="#989FB0"/>
<path d="M108.9 62.8616C109.368 62.8616 109.748 62.4816 109.748 62.0128C109.748 61.5441 109.368 61.1641 108.9 61.1641C108.431 61.1641 108.051 61.5441 108.051 62.0128C108.051 62.4816 108.431 62.8616 108.9 62.8616Z" fill="#D2DAE7"/>
<path d="M126.122 62.8616C126.591 62.8616 126.971 62.4816 126.971 62.0128C126.971 61.5441 126.591 61.1641 126.122 61.1641C125.653 61.1641 125.273 61.5441 125.273 62.0128C125.273 62.4816 125.653 62.8616 126.122 62.8616Z" fill="#D2DAE7"/>
<path d="M108.9 81.4847C109.368 81.4847 109.748 81.1047 109.748 80.6359C109.748 80.1671 109.368 79.7871 108.9 79.7871C108.431 79.7871 108.051 80.1671 108.051 80.6359C108.051 81.1047 108.431 81.4847 108.9 81.4847Z" fill="#D2DAE7"/>
<path d="M126.122 81.4847C126.591 81.4847 126.971 81.1047 126.971 80.6359C126.971 80.1671 126.591 79.7871 126.122 79.7871C125.653 79.7871 125.273 80.1671 125.273 80.6359C125.273 81.1047 125.653 81.4847 126.122 81.4847Z" fill="#D2DAE7"/>
<path d="M69.2656 6.2002L72.327 7.31859L73.1206 27.3339L71.4577 26.6398L69.2656 6.2002Z" fill="#B8BFCD"/>
<path d="M71.6074 28.915L73.1192 29.6478V31.6146L71.6074 30.9976V28.915Z" fill="#B8BFCD"/>
<path d="M75.6934 16.2656L78.7547 17.2683V30.1491L77.054 29.4549L75.6934 16.2656Z" fill="#B8BFCD"/>
<path d="M77.2012 31.6162L78.7507 32.3104V34.1615L77.2012 33.583V31.6162Z" fill="#B8BFCD"/>
<g style="mix-blend-mode:color">
<path d="M69.2674 6.19922L72.3288 7.31761L73.1224 27.333L71.4595 26.6388L69.2674 6.19922Z" fill="white" fill-opacity="0.35"/>
<path fill-rule="evenodd" clip-rule="evenodd" d="M66.1067 44.118C65.9082 43.2306 64.7273 43.2562 63.8681 44.4477C62.1449 46.8623 58.8613 49.2979 57.9928 49.5732C57.9928 49.5732 56.5452 50.0319 56.6157 51.2323C56.8406 56.7741 61.5137 60.2898 62.8134 59.9742C62.8825 60.2646 62.9642 60.5393 63.0584 60.8001C62.8449 61.4829 62.6287 62.0491 62.4226 62.4138C61.2243 64.361 55.1331 69.9529 50.8892 73.0984C46.6453 76.2439 44.6981 81.5862 43.5996 90.2238C43.4053 91.7344 43.2594 93.0324 43.152 94.155C41.178 94.4227 39.6566 96.1148 39.6566 98.1622C39.6566 100.209 41.177 101.901 43.15 102.169C43.1503 102.213 43.153 102.282 43.1804 102.33C43.196 102.391 43.2168 102.451 43.2425 102.512C43.2469 102.528 43.2499 102.543 43.2499 102.555C43.2541 102.56 43.2583 102.565 43.2619 102.569C43.2792 102.593 43.2895 102.624 43.2998 102.655C43.3102 102.686 43.3205 102.717 43.3381 102.741C43.3417 102.746 43.3457 102.751 43.3501 102.756C43.3713 102.777 43.3926 102.798 43.4138 102.823C43.4331 102.846 43.4525 102.872 43.4718 102.904C43.4811 102.919 43.4903 102.936 43.4995 102.955C43.7491 103.304 44.1989 103.604 44.6982 103.904C44.7481 103.929 44.8105 103.954 44.8729 103.979C44.9353 104.004 44.9977 104.029 45.0477 104.054C45.0726 104.079 45.1101 104.091 45.1475 104.104C45.185 104.116 45.2224 104.129 45.2474 104.154C45.2723 104.179 45.3098 104.191 45.3472 104.203C45.3847 104.216 45.4221 104.228 45.4471 104.253L45.6468 104.303C45.8937 104.402 46.1894 104.501 46.4857 104.551C46.539 105.361 46.9711 106.133 47.7845 106.608H42.0917C41.4467 106.608 40.9238 107.131 40.9238 107.776C40.9238 108.421 41.4467 108.944 42.0917 108.944H67.2086C66.8016 110.033 66.3644 111.063 65.8948 112.024C63.8099 116.288 61.2613 118.833 58.1946 119.397L58.1914 119.398C41.6132 122.488 27.8386 119.71 19.1413 114.454C19.0054 114.372 18.8883 114.296 18.7878 114.227C19.0327 114.128 19.3363 114.024 19.7029 113.916C20.9184 113.56 22.5538 113.24 24.4307 112.902C24.8556 112.826 25.2919 112.749 25.7357 112.67C27.2122 112.409 28.7723 112.132 30.267 111.822C30.868 111.709 31.3848 111.375 31.7173 110.876C32.0376 110.396 32.1314 109.848 32.0766 109.364C31.9672 108.397 31.1778 107.339 29.8179 107.339H2.55711C1.69714 107.339 1 108.036 1 108.896C1 109.756 1.69714 110.453 2.55711 110.453H20.7187C20.0367 110.603 19.3982 110.76 18.8257 110.928C18.128 111.133 17.4592 111.373 16.9038 111.672C16.3944 111.945 15.7266 112.398 15.3927 113.154C14.9857 114.076 15.2602 114.963 15.7281 115.603C16.1512 116.182 16.7977 116.675 17.526 117.117L17.529 117.119C27.0053 122.846 41.5887 125.66 58.7604 122.46C63.2819 121.626 66.4496 117.98 68.6926 113.392C69.3659 112.015 69.9717 110.522 70.5176 108.944H115.411C116.056 108.944 116.579 108.421 116.579 107.776C116.579 107.131 116.056 106.608 115.411 106.608H74.9697C75.061 106.402 75.0826 106.155 75.0042 105.9C74.7046 104.752 74.2054 103.154 73.8559 102.655C73.7869 102.563 73.7205 102.47 73.6547 102.378C73.36 101.967 73.0751 101.569 72.6092 101.309C72.9326 99.8147 73.2214 98.2925 73.4802 96.7608C73.5126 96.5689 73.5445 96.3769 73.576 96.1845C73.6385 96.0949 73.6987 96.0051 73.7564 95.9154C74.6165 94.4341 75.751 93.1815 76.9848 91.9824C76.8961 96.333 78.3069 99.2424 79.5555 101.1C79.384 101.482 79.3226 101.919 79.3986 102.356C79.5484 102.955 79.6982 103.554 79.9478 104.004C80.6889 105.239 82.3589 105.447 83.1678 105.548L83.1932 105.551C83.5615 105.585 85.1426 105.573 86.6863 105.562C87.4443 105.557 88.1932 105.551 88.7851 105.551C89.3843 105.501 89.8336 104.952 89.6339 104.353C89.3343 103.305 88.8351 101.857 88.4856 101.357C88.4161 101.271 88.3492 101.183 88.2829 101.096C87.7778 100.434 87.3013 99.8096 85.8893 99.8096C85.341 99.8096 84.9868 99.7744 84.643 99.7401C84.4277 99.7187 84.2163 99.6977 83.9641 99.686C83.7418 97.3748 83.4027 91.8035 83.3127 86.8235L83.3691 86.7782L83.4924 86.6787C84.0494 86.2502 84.6065 85.7849 85.132 85.346L85.2784 85.2238C85.4226 85.3223 85.5976 85.3797 85.7868 85.3797C86.2861 85.3797 86.6856 85.0302 86.6856 84.481V83.9238C88.1047 82.5076 89.3574 80.9129 90.2826 79.1395C91.5807 76.6431 91.5807 74.2965 91.381 71.5504C91.381 71.5044 91.3528 71.3029 91.3165 71.0443C91.2347 70.4612 91.1121 69.5879 91.1813 69.5533C92.08 68.9542 92.7291 68.1054 93.0786 67.0569C93.8774 64.9599 93.5779 62.2638 92.6292 60.5163C92.5294 60.3167 92.4295 60.1169 92.3297 59.9671C92.1644 59.6779 91.9937 59.3805 91.8177 59.0795C92.4499 57.8405 92.6763 56.4779 92.3962 54.7141L92.4359 54.8433C92.9864 56.5803 97.9297 51.2852 96.3841 45.0503C96.116 43.8781 94.5979 43.8426 94.5979 43.8426C93.687 43.8213 89.8531 42.4016 87.5232 40.5655C86.0477 39.4144 84.6001 40.2262 85.6237 41.7444C85.7383 41.9127 85.8551 42.0731 85.9743 42.2293C84.7716 41.266 83.4398 40.5604 81.9164 40.1561C79.9253 39.6333 77.8705 39.7248 75.8864 39.9576C73.1538 40.2468 70.3646 40.8466 68.0626 42.3856C67.3347 42.8755 66.6858 43.4593 66.1067 44.118ZM66.3632 106.608H56.2981C56.3895 106.402 56.4111 106.155 56.3327 105.9C55.9822 104.717 55.3626 103.111 54.3389 102.196L54.4342 102.206C56.2316 102.456 59.2273 102.805 61.8235 102.556C62.6465 102.459 63.5164 102.268 64.4332 102.029C64.5623 102.494 64.685 102.821 64.7946 103.052C64.779 103.249 64.7864 103.45 64.8189 103.654C64.9686 104.303 65.1184 104.952 65.3681 105.451C65.665 106.023 66.0069 106.38 66.3632 106.608Z" fill="white" fill-opacity="0.35"/>
<path d="M122.569 106.608C121.924 106.608 121.402 107.131 121.402 107.776C121.402 108.421 121.924 108.944 122.569 108.944H129.831C130.476 108.944 130.999 108.421 130.999 107.776C130.999 107.131 130.476 106.608 129.831 106.608H122.569Z" fill="white" fill-opacity="0.35"/>
<path d="M108.004 82.7831H126.927C127.725 82.7831 128.374 82.1341 128.325 81.3852V61.2142C128.325 60.4652 127.725 59.8162 126.927 59.8162H108.004C107.255 59.8162 106.606 60.4153 106.606 61.2142V81.3852C106.606 82.1341 107.205 82.7831 108.004 82.7831Z" fill="white" fill-opacity="0.35"/>
<path d="M73.1224 29.6466L71.6107 28.9139V30.9964L73.1224 31.6134V29.6466Z" fill="white" fill-opacity="0.35"/>
<path d="M75.694 16.265L78.7553 17.2677V30.1484L77.0546 29.4543L75.694 16.265Z" fill="white" fill-opacity="0.35"/>
<path d="M78.7524 32.3087L77.2029 31.6146V33.5814L78.7524 34.1599V32.3087Z" fill="white" fill-opacity="0.35"/>
</g>
</svg>
