<svg width="24" height="24" viewBox="0 0 24 24" fill="none" xmlns="http://www.w3.org/2000/svg">
<rect width="24" height="24" rx="6" fill="#EA5930"/>
<path d="M4.64258 15.286C4.67324 15.1518 4.69623 15.0177 4.73838 14.8836C4.91849 14.3088 5.27489 13.8681 5.79223 13.5577C5.84971 13.5232 5.9072 13.458 5.93785 13.3967C6.33257 12.4961 6.71579 11.5917 7.122 10.695C7.45157 9.96307 8.03022 9.57986 8.83881 9.57219C9.46346 9.56453 10.0919 9.57219 10.7166 9.56836C10.82 9.56836 10.8507 9.60285 10.8775 9.69865C10.9657 10.0167 11.0653 10.3271 11.1649 10.6414C11.1803 10.6874 11.1994 10.7295 11.2224 10.7908C11.1573 10.7908 11.1075 10.7908 11.0538 10.7908C10.341 10.7908 9.62824 10.7947 8.91546 10.7908C8.57823 10.787 8.35596 10.9288 8.22567 11.2392C7.96124 11.8638 7.68533 12.4808 7.41324 13.1055C7.39791 13.1438 7.38642 13.1821 7.36343 13.2472C7.43624 13.2472 7.48989 13.2472 7.54354 13.2472C9.37915 13.2472 11.2148 13.2472 13.0504 13.2511C13.1424 13.2511 13.2458 13.2894 13.3225 13.343C13.8436 13.7301 14.3878 14.0673 14.9856 14.3203C15.434 14.5119 15.89 14.5234 16.3346 14.3241C16.6335 14.19 16.9247 14.0328 17.216 13.8757C17.2888 13.8374 17.3348 13.8297 17.3999 13.891C17.8329 14.3088 18.0935 14.8108 18.105 15.4086C18.1242 16.2287 18.1203 17.0526 18.1089 17.8765C18.0974 18.6161 17.58 19.2024 16.8519 19.3366C16.8289 19.3404 16.8097 19.3519 16.7868 19.3634C16.6526 19.3634 16.5185 19.3634 16.3844 19.3634C16.3614 19.3557 16.3422 19.3404 16.3192 19.3366C15.5873 19.1986 15.0814 18.6085 15.0584 17.8612C15.0546 17.7539 15.0584 17.6427 15.0584 17.5354C12.5982 17.5354 10.1609 17.5354 7.71215 17.5354C7.71215 17.6274 7.71215 17.7156 7.71215 17.7999C7.70066 18.5088 7.29061 19.0836 6.64681 19.2867C6.55867 19.3174 6.46286 19.3366 6.37472 19.3596C6.2406 19.3596 6.10647 19.3596 5.97234 19.3596C5.94169 19.3481 5.91103 19.3366 5.88037 19.3289C5.30938 19.1948 4.92233 18.8499 4.72689 18.2942C4.69623 18.2099 4.67707 18.1218 4.65407 18.0375C4.64258 17.1216 4.64258 16.2057 4.64258 15.286ZM7.71599 15.079C7.50522 15.079 7.29445 15.0752 7.08751 15.079C6.74261 15.0867 6.47819 15.3549 6.47819 15.6922C6.47819 16.0217 6.73878 16.29 7.07984 16.2977C7.49372 16.3053 7.91143 16.3053 8.3253 16.2977C8.66637 16.2938 8.92312 16.0294 8.92312 15.6922C8.92312 15.3511 8.66637 15.0905 8.31764 15.079C8.11836 15.0752 7.91909 15.079 7.71599 15.079ZM15.0469 16.2977C15.2577 16.2977 15.4685 16.3015 15.6754 16.2977C16.0165 16.2862 16.2694 16.0256 16.2694 15.6883C16.2694 15.3549 16.0127 15.0867 15.6754 15.0829C15.2615 15.0752 14.8438 15.0752 14.43 15.0829C14.0889 15.0867 13.8283 15.3549 13.8283 15.6845C13.8245 16.0217 14.0889 16.29 14.4338 16.2977C14.6369 16.3015 14.84 16.2977 15.0469 16.2977Z" fill="white"/>
<path d="M19.3155 7.58405C19.3155 8.07073 19.3423 8.56125 19.3116 9.04411C19.258 9.87186 18.9207 10.5923 18.4111 11.2361C17.7328 12.0983 16.8629 12.7192 15.878 13.1867C15.7477 13.248 15.6097 13.2633 15.4756 13.1982C14.3528 12.6693 13.3832 11.9566 12.682 10.9142C12.2221 10.2321 11.9845 9.47714 11.9883 8.64939C11.9922 7.85996 11.9883 7.07054 11.9883 6.28494C11.9883 6.00519 12.0918 5.85957 12.3524 5.77143C13.3871 5.41887 14.4218 5.07014 15.4564 4.71758C15.5982 4.66776 15.7324 4.6716 15.8742 4.71758C16.905 5.07014 17.932 5.41887 18.9629 5.7676C19.235 5.85957 19.3346 6.00519 19.3346 6.29261C19.3346 6.72181 19.3346 7.15101 19.3346 7.58405C19.3269 7.58405 19.3193 7.58405 19.3155 7.58405ZM15.422 8.99046C15.2112 8.81034 15.0157 8.63406 14.8088 8.47311C14.5444 8.26617 14.1842 8.30833 13.9696 8.55742C13.7511 8.81418 13.7741 9.18206 14.027 9.40816C14.3834 9.7224 14.7398 10.029 15.1039 10.3317C15.3913 10.5693 15.7554 10.5272 15.993 10.2397C16.1156 10.0903 16.2305 9.94083 16.3493 9.78755C16.7824 9.23955 17.2116 8.69155 17.6408 8.13971C17.8631 7.8523 17.8477 7.51507 17.6063 7.28514C17.338 7.03221 16.9357 7.06287 16.6981 7.36178C16.311 7.84847 15.9278 8.33899 15.5446 8.82567C15.5101 8.88315 15.4679 8.93297 15.422 8.99046Z" fill="white"/>
</svg>
