<svg width="47" height="20" viewBox="0 0 47 20" fill="none" xmlns="http://www.w3.org/2000/svg">
<path d="M3.35228 8.72765V15.1946H0.858694C0.632545 15.1936 0.415824 15.1052 0.255211 14.9483C0.0945987 14.7914 0.00294773 14.5786 0 14.3557L0 1.67685C0 1.45339 0.0900742 1.23909 0.250407 1.08108C0.41074 0.923069 0.628199 0.834301 0.854944 0.834301H3.34478V7.19037L7.12828 1.64729C7.30841 1.39149 7.54982 1.18346 7.83109 1.04164C8.11235 0.899822 8.42479 0.828603 8.74067 0.834301H11.4592L6.43833 7.68185L12.2092 15.1835H9.20939C8.90785 15.1837 8.61051 15.1138 8.34145 14.9796C8.0724 14.8454 7.8392 14.6507 7.66075 14.4112L3.37478 8.72395C3.37478 8.72395 3.35228 8.72026 3.35228 8.72765Z" fill="#1B9684"/>
<path d="M31.6191 14.2034C31.2491 14.5735 30.8196 14.8806 30.3479 15.1125C29.8299 15.3468 29.2641 15.4606 28.6943 15.445C28.0506 15.4458 27.4132 15.3202 26.8194 15.0755C26.2463 14.8436 25.7337 14.4874 25.3195 14.0334C24.8763 13.5357 24.5396 12.9551 24.3295 12.3261C24.0721 11.5689 23.9454 10.7744 23.9546 9.97588C23.9508 9.2284 24.0776 8.48587 24.3295 7.78082C24.5466 7.15497 24.8825 6.57556 25.3195 6.07355C25.7321 5.60139 26.2439 5.22314 26.8194 4.96493C27.4088 4.70446 28.0483 4.57213 28.6943 4.57692C29.2519 4.56655 29.8062 4.66449 30.3254 4.86516C30.7989 5.05795 31.2362 5.32778 31.6191 5.66336V5.6338C31.6191 5.41294 31.7078 5.20107 31.8659 5.04455C32.0241 4.88804 32.2387 4.79962 32.4628 4.79864H34.9526V15.2012H32.4703C32.3587 15.2012 32.2481 15.1794 32.1451 15.1372C32.042 15.095 31.9484 15.0332 31.8697 14.9552C31.791 14.8773 31.7286 14.7848 31.6862 14.683C31.6439 14.5813 31.6223 14.4723 31.6228 14.3623L31.6191 14.2034ZM29.4817 12.7252C29.809 12.7411 30.1354 12.6788 30.4331 12.5437C30.7308 12.4086 30.991 12.2046 31.1916 11.9492C31.6117 11.385 31.8258 10.6974 31.799 9.99805C31.8527 9.26599 31.6146 8.54216 31.1353 7.98037C30.921 7.75567 30.6609 7.57825 30.372 7.45979C30.0831 7.34132 29.772 7.28448 29.4592 7.29303C29.1344 7.27586 28.8103 7.33647 28.5145 7.46969C28.2186 7.6029 27.96 7.80475 27.7606 8.05797C27.3463 8.6203 27.1363 9.30371 27.1644 9.99805C27.1341 10.7012 27.3484 11.3935 27.7718 11.9603C27.9727 12.2157 28.2328 12.4198 28.5303 12.5555C28.8279 12.6912 29.1542 12.7545 29.4817 12.74V12.7252Z" fill="#737F8F"/>
<path d="M35.0158 16.7975C35.2858 16.901 35.5557 17.0007 35.837 17.0968C36.1377 17.1965 36.4534 17.2453 36.7707 17.2409C37.2399 17.2525 37.7056 17.1577 38.1318 16.9638C38.5718 16.7152 38.9099 16.3231 39.088 15.8552L39.4255 15.1161L35.9382 5.95891C35.8904 5.83201 35.8745 5.69559 35.8918 5.5613C35.9091 5.42701 35.9591 5.29884 36.0376 5.18774C36.1161 5.07664 36.2207 4.9859 36.3424 4.92328C36.4642 4.86066 36.5996 4.82801 36.7369 4.82813H38.9305L41.0004 10.859L42.8753 5.39352C42.9317 5.22882 43.0391 5.0857 43.1824 4.98429C43.3256 4.88287 43.4976 4.82826 43.674 4.82813H46.355L41.9678 16.2025C41.5852 17.2746 40.9414 18.2377 40.0929 19.0073C39.2221 19.6959 38.1258 20.0468 37.0106 19.994C36.499 19.996 35.989 19.9364 35.492 19.8166C34.9959 19.6924 34.5126 19.5229 34.0483 19.3103L35.0158 16.7975Z" fill="#737F8F"/>
<path d="M23.8125 3.38333C23.5771 2.85722 23.2232 2.39088 22.7775 2.01974C22.2967 1.62615 21.7427 1.32867 21.1464 1.14393C20.459 0.929518 19.7412 0.824726 19.0203 0.833519H14.7418C14.5161 0.833519 14.2996 0.921897 14.1399 1.07921C13.9803 1.23653 13.8906 1.44989 13.8906 1.67237V3.4942H18.7653C19.374 3.45667 19.9741 3.65115 20.4414 4.03742C20.6362 4.21245 20.7904 4.42689 20.8933 4.66607C20.9962 4.90525 21.0454 5.16351 21.0377 5.42319C21.0524 5.96723 20.8552 6.49619 20.4864 6.90134C20.263 7.11469 19.9958 7.27849 19.7028 7.38174C19.4099 7.48499 19.0979 7.52531 18.7878 7.5H13.9131V14.3586C13.9131 14.5821 14.0032 14.7964 14.1635 14.9544C14.3239 15.1124 14.5413 15.2012 14.7681 15.2012H17.2654V10.072H19.1103C19.8091 10.0798 20.5045 9.97497 21.1689 9.76157C21.7648 9.56982 22.313 9.25627 22.7775 8.84142C23.24 8.4167 23.5979 7.89341 23.8237 7.31153C24.0838 6.63552 24.2111 5.91694 24.1987 5.19407C24.2024 4.57026 24.0707 3.95288 23.8125 3.38333Z" fill="#737F8F"/>
<path d="M18.81 6.51781C19.3795 6.51781 19.8412 6.06283 19.8412 5.50158C19.8412 4.94033 19.3795 4.48535 18.81 4.48535C18.2405 4.48535 17.7788 4.94033 17.7788 5.50158C17.7788 6.06283 18.2405 6.51781 18.81 6.51781Z" fill="#1B9684"/>
</svg>
