<svg width="98" height="16" viewBox="0 0 98 16" fill="none" xmlns="http://www.w3.org/2000/svg">
<path d="M14.7089 0.820792H12.0259C11.7634 0.820792 11.6176 0.995768 11.5885 1.25823L11.501 2.59972C10.422 1.37488 8.96382 0.5 7.15573 0.5C3.16042 0.5 0.244141 3.82456 0.244141 7.99484C0.244141 12.1651 3.16042 15.4897 7.15573 15.4897C9.02214 15.4897 10.4511 14.644 11.4718 13.4483L11.5885 14.6731C11.6176 14.9356 11.7634 15.1106 12.0259 15.1106H14.7089C14.9714 15.1106 15.1463 14.9356 15.1463 14.6731V1.25823C15.1463 0.995768 14.9714 0.820792 14.7089 0.820792ZM7.62233 11.9901C5.49344 11.9901 3.94782 10.2695 3.94782 7.96568C3.94782 5.69098 5.49344 3.99954 7.62233 3.99954C9.72205 3.99954 11.2677 5.80763 11.2677 7.96568C11.2677 10.1237 9.72205 11.9901 7.62233 11.9901Z" fill="#171725"/>
<path d="M30.7171 0.821289H27.7425C27.4801 0.821289 27.3051 0.996265 27.3051 1.25873V9.16184C27.3051 10.1825 26.2844 11.9323 24.2138 11.9323C22.8432 11.9323 21.4725 11.1158 21.4725 8.75357V1.25873C21.4725 0.996265 21.2976 0.821289 21.0351 0.821289H18.0605C17.798 0.821289 17.623 0.996265 17.623 1.25873V9.45347C17.623 13.2738 19.8394 15.4902 23.0473 15.4902C24.8554 15.4902 26.3136 14.4695 27.3051 13.0697L27.4217 14.6736C27.4509 14.9361 27.5967 15.1111 27.8592 15.1111H30.7171C30.9796 15.1111 31.1546 14.9361 31.1546 14.6736V1.25873C31.1546 0.996265 30.9796 0.821289 30.7171 0.821289Z" fill="#171725"/>
<path d="M52.423 15.4897C56.5349 15.4897 59.8303 12.1943 59.8303 7.99484C59.8303 3.7954 56.5349 0.5 52.423 0.5C48.311 0.5 45.0156 3.7954 45.0156 7.99484C45.0156 12.1943 48.311 15.4897 52.423 15.4897ZM52.423 11.9318C50.3524 11.9318 48.7193 10.2987 48.7193 7.99484C48.7193 5.69098 50.3524 4.05786 52.423 4.05786C54.4644 4.05786 56.1267 5.69098 56.1267 7.99484C56.1267 10.2987 54.4644 11.9318 52.423 11.9318Z" fill="#171725"/>
<path d="M43.8413 0.821289H40.6598H33.6288C33.3664 0.821289 33.1914 0.996265 33.1914 1.25873V3.53343C33.1914 3.79589 33.3664 3.97087 33.6288 3.97087H36.8103V14.6736C36.8103 14.9361 36.9853 15.1111 37.2478 15.1111H40.2224C40.4848 15.1111 40.6598 14.9361 40.6598 14.6736V3.97087H43.8413C44.1038 3.97087 44.2788 3.79589 44.2788 3.53343V1.25873C44.2788 0.996265 44.1038 0.821289 43.8413 0.821289Z" fill="#171725"/>
<circle cx="64.1975" cy="13.2482" r="2.25215" fill="#EA5930"/>
<path d="M82.9945 0.821289H80.0199C79.7574 0.821289 79.5824 0.996265 79.5824 1.25873V9.16183C79.5824 10.1825 78.5617 11.9323 76.4912 11.9323C75.1205 11.9323 73.7499 11.1157 73.7499 8.75355V1.25873C73.7499 0.996265 73.5749 0.821289 73.3124 0.821289H70.3378C70.0754 0.821289 69.9004 0.996265 69.9004 1.25873V9.45345C69.9004 13.2738 72.1168 15.4901 75.3247 15.4901C77.1327 15.4901 78.5909 14.4694 79.5824 13.0696L79.6991 14.6736C79.7282 14.936 79.874 15.111 80.1365 15.111H82.9945C83.2569 15.111 83.4319 14.936 83.4319 14.6736V1.25873C83.4319 0.996265 83.2569 0.821289 82.9945 0.821289Z" fill="#EA5930"/>
<path d="M97.5416 1.25873C97.5416 0.996265 97.3667 0.821289 97.1042 0.821289H85.9057C85.6432 0.821289 85.4683 0.996265 85.4683 1.25873V3.53342C85.4683 3.79589 85.6432 3.97086 85.9057 3.97086H92.9339L85.6724 11.7281C85.5266 11.874 85.4683 12.0781 85.4683 12.2822V14.6736C85.4683 14.936 85.6432 15.111 85.9057 15.111H97.1042C97.3667 15.111 97.5416 14.936 97.5416 14.6736V12.3989C97.5416 12.1364 97.3667 11.9614 97.1042 11.9614H90.1051L97.3375 4.20416C97.4833 4.05835 97.5416 3.85421 97.5416 3.65007V1.25873Z" fill="#EA5930"/>
</svg>
