<svg width="32" height="29" viewBox="0 0 32 29" fill="none" xmlns="http://www.w3.org/2000/svg">
<path opacity="0.3" d="M16.0004 28.5267L2.29799 14.8243C1.52681 13.9888 0.92773 13.0097 0.534963 11.9427C0.142195 10.8757 -0.0365709 9.74184 0.00887143 8.60578C0.100646 6.3114 1.1001 4.14746 2.78736 2.58999C4.47462 1.03252 6.71148 0.209096 9.00585 0.300871C11.3002 0.392646 13.4642 1.3921 15.0216 3.07936C15.3113 3.27293 15.652 3.37625 16.0004 3.37625C16.3488 3.37625 16.6894 3.27293 16.9791 3.07936C18.5366 1.3921 20.7005 0.392646 22.9949 0.300871C25.2893 0.209096 27.5261 1.03252 29.2134 2.58999C30.9007 4.14746 31.9001 6.3114 31.9919 8.60578C32.0837 10.9002 31.2602 13.137 29.7028 14.8243L16.0004 28.5267Z" fill="#EA5930"/>
</svg>
