<svg width="44" height="39" viewBox="0 0 44 39" fill="none" xmlns="http://www.w3.org/2000/svg">
<path d="M21.599 27.9396L13.3776 19.7182C12.9149 19.2169 12.5555 18.6294 12.3198 17.9892C12.0841 17.349 11.9769 16.6687 12.0042 15.9871C12.0592 14.6105 12.6589 13.3121 13.6712 12.3776C14.6836 11.4431 16.0257 10.9491 17.4023 11.0042C18.7789 11.0592 20.0773 11.6589 21.0118 12.6712C21.1856 12.7874 21.39 12.8494 21.599 12.8494C21.8081 12.8494 22.0124 12.7874 22.1863 12.6712C23.1207 11.6589 24.4191 11.0592 25.7957 11.0042C27.1723 10.9491 28.5144 11.4431 29.5268 12.3776C30.5391 13.3121 31.1388 14.6105 31.1939 15.9871C31.2489 17.3637 30.7549 18.7058 29.8204 19.7182L21.599 27.9396Z" fill="#EA5930" stroke="#EA5930" stroke-width="2" stroke-linecap="round" stroke-linejoin="round"/>
<path opacity="0.2" d="M21.9986 38.8214L3.15716 19.9799C2.09675 18.8311 1.27299 17.4847 0.732915 16.0176C0.19284 14.5505 -0.0529724 12.9913 0.00951301 11.4292C0.135708 8.2743 1.51 5.29877 3.83007 3.15717C6.15014 1.01557 9.22593 -0.116672 12.3808 0.00952268C15.5357 0.135718 18.5112 1.51001 20.6528 3.83008C21.0512 4.09625 21.5195 4.23832 21.9986 4.23832C22.4777 4.23832 22.9461 4.09625 23.3445 3.83008C25.4861 1.51001 28.4616 0.135718 31.6165 0.00952268C34.7713 -0.116672 37.8471 1.01557 40.1672 3.15717C42.4873 5.29877 43.8616 8.2743 43.9878 11.4292C44.1139 14.5841 42.9817 17.6599 40.8401 19.9799L21.9986 38.8214Z" fill="#EA5930"/>
<path opacity="0.3" d="M22.0004 33.5267L8.29799 19.8243C7.52681 18.9888 6.92773 18.0097 6.53496 16.9427C6.1422 15.8757 5.96343 14.7418 6.00887 13.6058C6.10065 11.3114 7.1001 9.14746 8.78736 7.58999C10.4746 6.03252 12.7115 5.2091 15.0059 5.30087C17.3002 5.39265 19.4642 6.3921 21.0216 8.07936C21.3113 8.27293 21.652 8.37625 22.0004 8.37625C22.3488 8.37625 22.6894 8.27293 22.9791 8.07936C24.5366 6.3921 26.7005 5.39265 28.9949 5.30087C31.2893 5.2091 33.5261 6.03252 35.2134 7.58999C36.9007 9.14746 37.9001 11.3114 37.9919 13.6058C38.0837 15.9002 37.2602 18.137 35.7028 19.8243L22.0004 33.5267Z" fill="#EA5930"/>
</svg>
