<svg width="22" height="19" viewBox="0 0 22 19" fill="none" xmlns="http://www.w3.org/2000/svg">
<path d="M10.599 17.9396L2.37762 9.71816C1.91491 9.21689 1.55546 8.6294 1.3198 7.98922C1.08414 7.34904 0.976886 6.66871 1.00415 5.98708C1.05922 4.61046 1.65888 3.3121 2.67124 2.37762C3.68359 1.44314 5.0257 0.94909 6.40232 1.00416C7.77893 1.05922 9.07729 1.65889 10.0118 2.67124C10.1856 2.78738 10.39 2.84937 10.599 2.84937C10.8081 2.84937 11.0124 2.78738 11.1863 2.67124C12.1207 1.65889 13.4191 1.05922 14.7957 1.00416C16.1723 0.94909 17.5144 1.44314 18.5268 2.37762C19.5391 3.3121 20.1388 4.61046 20.1939 5.98708C20.2489 7.3637 19.7549 8.70581 18.8204 9.71816L10.599 17.9396Z" fill="#EA5930" stroke="#EA5930" stroke-width="2" stroke-linecap="round" stroke-linejoin="round"/>
</svg>
