<svg width="28" height="28" viewBox="0 0 28 28" fill="none" xmlns="http://www.w3.org/2000/svg">
<path d="M14.0016 23.9865L4.40995 14.3948C3.87013 13.81 3.45078 13.1246 3.17584 12.3777C2.9009 11.6308 2.77577 10.8371 2.80758 10.0419C2.87182 8.43584 3.57143 6.92108 4.75251 5.83086C5.93359 4.74063 7.49938 4.16424 9.10544 4.22848C10.7115 4.29272 12.2262 4.99234 13.3165 6.17341C13.5193 6.30891 13.7577 6.38124 14.0016 6.38124C14.2455 6.38124 14.4839 6.30891 14.6867 6.17341C15.7769 4.99234 17.2917 4.29272 18.8977 4.22848C20.5038 4.16424 22.0696 4.74063 23.2507 5.83086C24.4317 6.92108 25.1314 8.43584 25.1956 10.0419C25.2598 11.6479 24.6834 13.2137 23.5932 14.3948L14.0016 23.9865Z" stroke="white" stroke-width="2" stroke-linecap="round" stroke-linejoin="round"/>
</svg>
