<svg width="98" height="15" viewBox="0 0 98 15" fill="none" xmlns="http://www.w3.org/2000/svg">
<path d="M14.4647 0.320792H11.7818C11.5193 0.320792 11.3735 0.495768 11.3443 0.758233L11.2568 2.09972C10.1778 0.874885 8.71968 0 6.91158 0C2.91628 0 0 3.32456 0 7.49484C0 11.6651 2.91628 14.9897 6.91158 14.9897C8.778 14.9897 10.207 14.144 11.2277 12.9483L11.3443 14.1731C11.3735 14.4356 11.5193 14.6106 11.7818 14.6106H14.4647C14.7272 14.6106 14.9022 14.4356 14.9022 14.1731V0.758233C14.9022 0.495768 14.7272 0.320792 14.4647 0.320792ZM7.37819 11.4901C5.2493 11.4901 3.70368 9.76954 3.70368 7.46568C3.70368 5.19098 5.2493 3.49954 7.37819 3.49954C9.47791 3.49954 11.0235 5.30763 11.0235 7.46568C11.0235 9.62372 9.47791 11.4901 7.37819 11.4901Z" fill="white"/>
<path d="M30.473 0.321289H27.4984C27.2359 0.321289 27.061 0.496265 27.061 0.758731V8.66184C27.061 9.68254 26.0403 11.4323 23.9697 11.4323C22.599 11.4323 21.2284 10.6158 21.2284 8.25357V0.758731C21.2284 0.496265 21.0534 0.321289 20.791 0.321289H17.8163C17.5539 0.321289 17.3789 0.496265 17.3789 0.758731V8.95347C17.3789 12.7738 19.5953 14.9902 22.8032 14.9902C24.6113 14.9902 26.0694 13.9695 27.061 12.5697L27.1776 14.1736C27.2068 14.4361 27.3526 14.6111 27.615 14.6111H30.473C30.7355 14.6111 30.9104 14.4361 30.9104 14.1736V0.758731C30.9104 0.496265 30.7355 0.321289 30.473 0.321289Z" fill="white"/>
<path d="M52.1788 14.9897C56.2908 14.9897 59.5862 11.6943 59.5862 7.49484C59.5862 3.2954 56.2908 0 52.1788 0C48.0669 0 44.7715 3.2954 44.7715 7.49484C44.7715 11.6943 48.0669 14.9897 52.1788 14.9897ZM52.1788 11.4318C50.1083 11.4318 48.4752 9.7987 48.4752 7.49484C48.4752 5.19098 50.1083 3.55786 52.1788 3.55786C54.2202 3.55786 55.8825 5.19098 55.8825 7.49484C55.8825 9.7987 54.2202 11.4318 52.1788 11.4318Z" fill="white"/>
<path d="M43.5972 0.321289H40.4157H33.3847C33.1222 0.321289 32.9473 0.496265 32.9473 0.758731V3.03343C32.9473 3.29589 33.1222 3.47087 33.3847 3.47087H36.5662V14.1736C36.5662 14.4361 36.7412 14.6111 37.0036 14.6111H39.9782C40.2407 14.6111 40.4157 14.4361 40.4157 14.1736V3.47087H43.5972C43.8596 3.47087 44.0346 3.29589 44.0346 3.03343V0.758731C44.0346 0.496265 43.8596 0.321289 43.5972 0.321289Z" fill="white"/>
<circle cx="63.9533" cy="12.7482" r="2.25215" fill="white"/>
<path d="M82.7503 0.321289H79.7757C79.5132 0.321289 79.3383 0.496265 79.3383 0.758729V8.66183C79.3383 9.68252 78.3176 11.4323 76.247 11.4323C74.8764 11.4323 73.5057 10.6157 73.5057 8.25355V0.758729C73.5057 0.496265 73.3308 0.321289 73.0683 0.321289H70.0937C69.8312 0.321289 69.6562 0.496265 69.6562 0.758729V8.95345C69.6562 12.7738 71.8726 14.9901 75.0805 14.9901C76.8886 14.9901 78.3467 13.9694 79.3383 12.5696L79.4549 14.1736C79.4841 14.436 79.6299 14.611 79.8924 14.611H82.7503C83.0128 14.611 83.1878 14.436 83.1878 14.1736V0.758729C83.1878 0.496265 83.0128 0.321289 82.7503 0.321289Z" fill="white"/>
<path d="M97.2975 0.758729C97.2975 0.496265 97.1225 0.321289 96.8601 0.321289H85.6616C85.3991 0.321289 85.2241 0.496265 85.2241 0.758729V3.03342C85.2241 3.29589 85.3991 3.47086 85.6616 3.47086H92.6898L85.4283 11.2281C85.2825 11.374 85.2241 11.5781 85.2241 11.7822V14.1736C85.2241 14.436 85.3991 14.611 85.6616 14.611H96.8601C97.1225 14.611 97.2975 14.436 97.2975 14.1736V11.8989C97.2975 11.6364 97.1225 11.4614 96.8601 11.4614H89.861L97.0934 3.70416C97.2392 3.55835 97.2975 3.35421 97.2975 3.15007V0.758729Z" fill="white"/>
</svg>
