<svg width="24" height="24" viewBox="0 0 24 24" fill="none" xmlns="http://www.w3.org/2000/svg">
<path fill-rule="evenodd" clip-rule="evenodd" d="M21 12.0002C21 12.4775 20.8104 12.9354 20.4728 13.2729C20.1352 13.6105 19.6774 13.8001 19.2 13.8001C18.7227 13.8001 18.2648 13.6105 17.9273 13.2729C17.5897 12.9354 17.4001 12.4775 17.4001 12.0002C17.4001 11.5228 17.5897 11.0649 17.9273 10.7274C18.2648 10.3898 18.7227 10.2002 19.2 10.2002C19.6774 10.2002 20.1352 10.3898 20.4728 10.7274C20.8104 11.0649 21 11.5228 21 12.0002ZM13.8002 12.0002C13.8002 12.4775 13.6105 12.9354 13.273 13.2729C12.9354 13.6105 12.4776 13.8001 12.0002 13.8001C11.5228 13.8001 11.065 13.6105 10.7274 13.2729C10.3899 12.9354 10.2002 12.4775 10.2002 12.0002C10.2002 11.5228 10.3899 11.0649 10.7274 10.7274C11.065 10.3898 11.5228 10.2002 12.0002 10.2002C12.4776 10.2002 12.9354 10.3898 13.273 10.7274C13.6105 11.0649 13.8002 11.5228 13.8002 12.0002ZM6.60032 12.0002C6.60032 12.4775 6.41068 12.9354 6.07313 13.2729C5.73557 13.6105 5.27774 13.8001 4.80036 13.8001C4.32298 13.8001 3.86516 13.6105 3.5276 13.2729C3.19004 12.9354 3.0004 12.4775 3.0004 12.0002C3.0004 11.5228 3.19004 11.0649 3.5276 10.7274C3.86516 10.3898 4.32298 10.2002 4.80036 10.2002C5.27774 10.2002 5.73557 10.3898 6.07313 10.7274C6.41068 11.0649 6.60032 11.5228 6.60032 12.0002Z" fill="white"/>
</svg>
