<svg width="67" height="20" viewBox="0 0 67 20" fill="none" xmlns="http://www.w3.org/2000/svg">
<path d="M10.9783 2.23917C10.7437 1.86453 10.4377 1.53826 10.0773 1.27837C9.71328 1.03288 9.31446 0.841858 8.89377 0.711501C8.43669 0.564 7.96476 0.465747 7.48622 0.418459C6.92619 0.364614 6.36374 0.338959 5.80106 0.341595H0.93065C0.817753 0.331076 0.703863 0.343014 0.595728 0.376701C0.487594 0.410388 0.387413 0.465139 0.301122 0.537711C0.21483 0.610282 0.144182 0.699198 0.0933639 0.799191C0.0425455 0.899184 0.0125899 1.00822 0.00527176 1.11984C0.00527176 1.11984 0.00527176 1.14866 0.00527176 1.16308V8.96474C0.680516 10.3939 1.80186 11.5723 3.20513 12.3275V10.7614C3.19444 10.6406 3.20802 10.5189 3.24509 10.4032C3.28216 10.2876 3.34199 10.1802 3.42116 10.0874C3.50033 9.99462 3.59728 9.91811 3.70647 9.86231C3.81565 9.8065 3.93492 9.77248 4.05745 9.7622H5.51858C7.5122 9.7622 9.03339 9.35066 10.0822 8.52758C11.1309 7.7045 11.6634 6.48428 11.6796 4.86694C11.6814 4.40085 11.6258 3.93628 11.5141 3.4834C11.4027 3.04351 11.2219 2.62364 10.9783 2.23917ZM8.12425 6.25049C7.95439 6.53878 7.70191 6.7711 7.39856 6.91824C7.06986 7.07309 6.71472 7.16597 6.35142 7.19207C5.95236 7.24109 5.55056 7.26515 5.14843 7.26413H3.74575C3.40969 7.26413 3.20026 6.99511 3.20026 6.60118V3.38251C3.19542 3.31189 3.20645 3.24109 3.23258 3.17517C3.25871 3.10924 3.29929 3.04983 3.35141 3.00118C3.40353 2.95252 3.4659 2.91583 3.53407 2.89372C3.60224 2.87161 3.67453 2.86464 3.74575 2.87329H5.14843C5.603 2.87329 6.03159 2.8861 6.43422 2.91172C6.79304 2.92871 7.14522 3.01351 7.47161 3.16153C7.77192 3.29341 8.02244 3.5153 8.18756 3.79566C8.37403 4.17158 8.45955 4.58841 8.43595 5.00626C8.44542 5.43937 8.33784 5.86716 8.12425 6.24569V6.25049ZM3.21 12.7983C2.00894 12.3709 0.915731 11.6925 0.00527176 10.8095V14.5806C-0.00492754 14.6524 -0.000295359 14.7256 0.0188899 14.7956C0.0380751 14.8656 0.0714172 14.9311 0.116912 14.9881C0.162407 15.0451 0.219115 15.0924 0.283627 15.1272C0.348139 15.162 0.419123 15.1836 0.492313 15.1907H2.69374C3.27819 15.1907 3.21 14.5758 3.21 14.5758V12.7983ZM33.465 4.449H31.5655C31.3843 4.4373 31.2046 4.48924 31.0584 4.59563C30.9123 4.70201 30.8089 4.85598 30.7668 5.03028L28.5605 11.0256C28.5605 11.0256 26.6123 5.56352 26.4662 5.14077C26.4252 4.94571 26.3178 4.77032 26.1619 4.64365C26.0061 4.51697 25.811 4.4466 25.609 4.44419H23.8605C23.2371 4.44419 23.2371 4.92459 23.3199 5.11195C23.4027 5.2993 25.7941 11.7655 26.7292 14.2395C26.8765 14.5441 26.9798 14.8675 27.0361 15.2003C26.9754 15.5288 26.8496 15.8422 26.6659 16.1227C26.5948 16.2415 26.5133 16.3541 26.4224 16.4589C28.2244 15.9305 30.3187 14.0041 31.3707 11.924C32.4325 9.0416 33.8303 5.19842 33.8936 5.00146C33.9618 4.6988 33.9618 4.449 33.465 4.449ZM25.0002 17.045C24.8373 17.0407 24.6747 17.0279 24.5132 17.0066C24.3135 16.9778 23.9336 17.0066 23.9336 17.3429V18.7841C23.9336 19.3365 24.2063 19.375 24.3476 19.4134C24.7987 19.511 25.2593 19.5593 25.721 19.5575C26.2667 19.5717 26.8084 19.4615 27.3039 19.2356C27.7573 19.0098 28.1598 18.6961 28.4874 18.3133C28.859 17.8943 29.1733 17.4292 29.4226 16.9297C29.6921 16.3981 29.9486 15.8104 30.1921 15.1667L30.4746 14.4028C29.9096 14.9553 27.416 17.2756 25.0002 17.045ZM22.1267 6.17363C22.0232 5.93087 21.8819 5.70557 21.7078 5.50587C21.5318 5.32089 21.3321 5.15939 21.1136 5.02548C20.8777 4.86698 20.6264 4.73182 20.3636 4.62194C20.096 4.51965 19.8208 4.43774 19.5405 4.37694C19.2197 4.30694 18.8941 4.26038 18.5664 4.23762C18.2157 4.20239 17.8229 4.18478 17.3878 4.18478C14.485 4.18478 12.8323 5.08793 12.4297 6.89422C12.4125 6.96155 12.4103 7.03175 12.4233 7.09998C12.4363 7.16822 12.4641 7.23287 12.5048 7.28949C12.5456 7.3461 12.5982 7.39334 12.6593 7.42794C12.7203 7.46254 12.7882 7.48369 12.8583 7.48992H14.6457C15.1328 7.48992 15.1328 7.34099 15.3178 6.92785C15.399 6.70293 15.5445 6.50602 15.7367 6.36098C16.1934 6.0702 16.7335 5.93364 17.2758 5.97186C17.7814 5.92088 18.2893 6.04485 18.7125 6.32255C19.0353 6.61977 19.2261 7.03067 19.2434 7.4659C19.2434 8.06159 19.0583 8.45552 18.3083 8.45552C16.5306 8.39307 14.6214 8.59003 13.545 9.20013C13.0152 9.51916 12.5802 9.97068 12.2843 10.5089C11.9883 11.0472 11.8419 11.653 11.8599 12.2651C11.8476 12.7418 11.9459 13.215 12.1472 13.6486C12.3368 14.0254 12.6118 14.3542 12.9508 14.6094C13.3067 14.8957 13.7175 15.1081 14.1587 15.2339C14.6571 15.367 15.1717 15.4317 15.688 15.4261C16.3826 15.4367 17.0745 15.3395 17.7384 15.1379C18.3252 14.9007 18.8799 14.5925 19.3895 14.2203V14.5566C19.3895 14.888 19.4918 15.1859 19.8766 15.1859H21.9465C22.3653 15.1859 22.4627 14.8929 22.4627 14.5277V8.23934C22.4652 7.84711 22.4376 7.45526 22.3799 7.06717C22.334 6.75999 22.2489 6.45977 22.1267 6.17363ZM19.297 12.3515C19.297 12.3515 18.7612 13.4565 16.8618 13.4565C16.4063 13.4771 15.956 13.3543 15.576 13.1058C15.4087 12.9777 15.2766 12.8104 15.1915 12.6191C15.1065 12.4278 15.0712 12.2186 15.0889 12.0105C15.068 11.7309 15.1336 11.4517 15.2771 11.2098C15.4206 10.9679 15.6353 10.7747 15.8926 10.6557C16.6609 10.3646 17.4808 10.229 18.3034 10.257C18.4293 10.2383 18.5578 10.2467 18.6801 10.2816C18.8024 10.3165 18.9155 10.3771 19.0118 10.4593C19.108 10.5415 19.1851 10.6432 19.2377 10.7576C19.2903 10.8719 19.3172 10.9962 19.3165 11.1217L19.297 12.3515Z" fill="#333333"/>
<path d="M66.6331 8.31218C66.8731 8.69286 67.0003 9.13217 67.0003 9.58043C67.0003 10.0287 66.8731 10.468 66.6331 10.8487C66.1461 11.5789 63.4917 14.3748 62.615 15.2731C61.8553 16.0514 60.8276 16.8392 59.8097 16.8392H38.7257C35.8716 16.8392 35.7012 15.8784 35.7012 13.7359V4.99743C35.7012 2.80202 36.3587 2.16309 38.3117 2.16309H59.8584C60.8666 2.16309 61.7676 2.67231 62.7806 3.70036C63.6671 4.57949 66.2825 7.79335 66.6331 8.31218Z" fill="#33CCCC"/>
<path d="M40.4883 5.53686V5.48402C40.4883 5.20058 40.4883 4.92676 40.0012 4.92676H38.2333C37.8193 4.92676 37.7998 5.14774 37.7998 5.49363V7.79954C38.4972 6.8419 39.4197 6.06546 40.4883 5.53686Z" fill="white"/>
<path d="M52.3279 13.8738V13.7489V8.18585C52.3279 5.85752 51.2857 4.69336 49.2011 4.69336C48.6209 4.70014 48.0542 4.86651 47.5647 5.17376C47.0253 5.50562 46.5434 5.92086 46.1376 6.40358C45.954 5.88184 45.597 5.43662 45.1246 5.14013C44.5874 4.84807 43.9793 4.70684 43.3664 4.73179C42.465 4.73514 41.5899 5.0324 40.8776 5.57729C40.7218 5.73102 37.7946 7.97928 37.7946 10.3236V13.8834C37.7946 13.9939 37.7362 14.4262 38.2281 14.4262H40.0642C40.6341 14.4262 40.5805 14.0563 40.5805 13.9026V8.13781C40.8873 7.72947 41.5156 6.75427 42.553 6.75427C42.719 6.73937 42.8859 6.76848 43.0366 6.83859C43.1873 6.90869 43.3163 7.01724 43.4102 7.153C43.6185 7.56315 43.7094 8.02156 43.6732 8.4789V12.9706V13.893C43.6732 14.0035 43.6148 14.4358 44.1067 14.4358H45.9233C46.4932 14.4358 46.4396 14.0659 46.4396 13.9122V13.7873V8.1186C46.7708 7.71026 47.4137 6.73505 48.4121 6.73505C48.58 6.7215 48.7485 6.75111 48.9013 6.821C49.0541 6.89088 49.186 6.99865 49.2839 7.13378C49.4956 7.5429 49.5883 8.0018 49.5518 8.45968V12.9514V13.8738C49.5518 13.9843 49.4934 14.4166 49.9853 14.4166H51.8214C52.3961 14.3878 52.3279 14.0227 52.3279 13.8738Z" fill="white"/>
<path d="M62.4541 11.6069C62.142 12.4344 61.5703 13.1421 60.8222 13.6268C60.0741 14.1116 59.1886 14.3481 58.2947 14.3019C55.4894 14.3019 53.6191 12.4188 53.6191 9.59402C53.6191 6.76928 55.5673 4.79004 58.1973 4.79004C60.8273 4.79004 62.5807 6.58673 62.6927 9.48353C62.6927 9.85344 62.6002 10.1801 62.1277 10.1801H56.1761C56.2151 11.7318 56.97 12.5821 58.3142 12.5821C58.6711 12.5909 59.0231 12.4988 59.3286 12.3166C59.6341 12.1345 59.8804 11.8698 60.0383 11.554C60.1005 11.4647 60.1843 11.392 60.2821 11.3425C60.3798 11.293 60.4886 11.2683 60.5984 11.2706H62.1326C62.1786 11.2685 62.2246 11.2766 62.267 11.2943C62.3094 11.3121 62.3472 11.339 62.3777 11.3732C62.4081 11.4073 62.4303 11.4478 62.4427 11.4916C62.4551 11.5354 62.4573 11.5814 62.4492 11.6261L62.4541 11.6069ZM58.2071 6.58192C57.0917 6.58192 56.3368 7.34576 56.1712 8.6044H60.165C60.0627 7.50429 59.4588 6.58192 58.2071 6.58192Z" fill="white"/>
</svg>
