<svg width="48" height="48" viewBox="0 0 48 48" fill="none" xmlns="http://www.w3.org/2000/svg">
<path d="M33.1348 28.9678H15.1738" stroke="#92929D" stroke-width="1.4" stroke-miterlimit="10"/>
<path d="M8.57279 28.9677H5.30218C4.53848 28.9677 3.91797 28.3482 3.91797 27.5835V25.001C3.91797 22.8352 5.6731 21.0801 7.83792 21.0801H38.0967C41.6885 21.0801 44.6011 23.9917 44.6011 27.5835V28.9677H39.7345" stroke="#92929D" stroke-width="1.4" stroke-miterlimit="10"/>
<path d="M5.57859 25.0557H3.91992V27.0385H5.57859C6.12651 27.0385 6.57101 26.595 6.57101 26.0471C6.57101 25.4992 6.12651 25.0557 5.57859 25.0557Z" stroke="#92929D" stroke-width="1.4" stroke-miterlimit="10"/>
<path d="M43.2847 24.6551H40.3631C39.2255 24.6551 38.3027 23.7333 38.3027 22.5947H40.6664C41.9104 22.5947 42.9924 23.4469 43.2847 24.6551Z" stroke="#92929D" stroke-width="1.4" stroke-miterlimit="10"/>
<path d="M25.2587 16.86H18.0662C16.5198 16.86 15.0461 17.5073 14.001 18.6459L11.7676 21.0803H31.246L28.2399 18.0901C27.4474 17.3025 26.3754 16.86 25.2587 16.86Z" stroke="#92929D" stroke-width="1.4" stroke-miterlimit="10"/>
<path d="M21.8379 16.86V21.0802" stroke="#92929D" stroke-width="1.4" stroke-miterlimit="10"/>
<path d="M21.8379 17.1591V21.3793" stroke="#92929D" stroke-width="1.4" stroke-miterlimit="10"/>
<path d="M21.8387 28.9372H17.168V21.2981L29.7253 21.1738C29.7253 25.5293 26.1942 28.9372 21.8387 28.9372Z" stroke="#92929D" stroke-width="1.4" stroke-miterlimit="10"/>
<path d="M15.2248 28.6809C15.2248 30.5186 13.7352 32.0092 11.8986 32.0092C10.0609 32.0092 8.57227 30.5186 8.57227 28.6809C8.57227 26.8432 10.0609 25.3546 11.8986 25.3546C13.7352 25.3546 15.2248 26.8432 15.2248 28.6809Z" stroke="#92929D" stroke-width="1.4" stroke-miterlimit="10"/>
<path d="M39.7873 28.6809C39.7873 30.5186 38.2977 32.0092 36.4601 32.0092C34.6234 32.0092 33.1348 30.5186 33.1348 28.6809C33.1348 26.8432 34.6234 25.3546 36.4601 25.3546C38.2977 25.3546 39.7873 26.8432 39.7873 28.6809Z" stroke="#92929D" stroke-width="1.4" stroke-miterlimit="10"/>
<path d="M6.51594 17.2617C4.17594 17.2617 1.83594 17.2617 1.83594 17.2617" stroke="#92929D" stroke-width="1.4" stroke-linecap="round"/>
<path d="M9.69953 14.5659C9.69953 14.5659 7.35953 14.5659 5.01953 14.5659" stroke="#92929D" stroke-width="1.4" stroke-linecap="round"/>
</svg>
