<svg width="32" height="32" viewBox="0 0 32 32" fill="none" xmlns="http://www.w3.org/2000/svg">
<rect width="32" height="32" rx="16" fill="#F1B747"/>
<path d="M15.855 8.7998C15.5007 8.7998 15.1767 9.1009 15.2004 9.45435L15.5277 18.2907C15.5277 18.3775 15.5622 18.4608 15.6236 18.5221C15.6849 18.5835 15.7682 18.618 15.855 18.618C15.9418 18.618 16.025 18.5835 16.0864 18.5221C16.1478 18.4608 16.1823 18.3775 16.1823 18.2907L16.5095 9.45435C16.5333 9.1009 16.2093 8.7998 15.855 8.7998Z" stroke="white" stroke-width="2" stroke-linecap="round" stroke-linejoin="round"/>
<path d="M15.8538 23.1997C16.2153 23.1997 16.5083 22.9067 16.5083 22.5452C16.5083 22.1837 16.2153 21.8906 15.8538 21.8906C15.4923 21.8906 15.1992 22.1837 15.1992 22.5452C15.1992 22.9067 15.4923 23.1997 15.8538 23.1997Z" stroke="white" stroke-width="2" stroke-linecap="round" stroke-linejoin="round"/>
</svg>
