<svg width="153" height="158" viewBox="0 0 153 158" fill="none" xmlns="http://www.w3.org/2000/svg">
<path d="M76.0132 135.105C108.605 135.105 135.026 108.594 135.026 75.891C135.026 43.1879 108.605 16.6768 76.0132 16.6768C43.4211 16.6768 17 43.1879 17 75.891C17 108.594 43.4211 135.105 76.0132 135.105Z" fill="#EAEEF9"/>
<path d="M143.227 26.1886C144.002 25.4784 144.056 24.2726 143.348 23.4954C142.64 22.7182 141.439 22.6639 140.664 23.3742C139.89 24.0844 139.836 25.2902 140.543 26.0674C141.251 26.8446 142.453 26.8989 143.227 26.1886Z" fill="#EAEEF9"/>
<path opacity="0.3" d="M111.702 48.5119C113.8 48.5119 115.502 46.8049 115.502 44.6993C115.502 42.5937 113.8 40.8867 111.702 40.8867C109.603 40.8867 107.902 42.5937 107.902 44.6993C107.902 46.8049 109.603 48.5119 111.702 48.5119Z" fill="#AAB2C5"/>
<g filter="url(#filter0_d_10324_29756)">
<path d="M86.0945 53.5191C85.6204 56.0478 83.5658 58.4185 80.879 59.0506C78.8245 59.5248 76.7699 59.0506 75.3475 57.9443V76.2775H58.2787C58.9109 75.0131 59.0689 73.7488 58.9109 72.3264C58.5948 69.1655 55.908 66.6368 52.9052 66.3207C48.796 65.8465 45.161 69.0074 45.161 73.1166C45.161 74.2229 45.319 75.3292 45.7932 76.1194H26.5117V40.8755C26.5117 33.6055 32.3594 27.7578 39.7875 27.7578H75.1894V46.091C76.4538 45.3008 77.7182 44.8266 79.1406 44.8266C83.4078 45.4588 86.8847 49.0938 86.0945 53.5191Z" fill="url(#paint0_linear_10324_29756)"/>
</g>
<g filter="url(#filter1_d_10324_29756)">
<path d="M63.8084 99.3529C63.1763 103.62 66.4952 107.255 70.7624 107.255C72.5009 107.255 74.0813 106.623 75.3457 105.675V124.64H39.9437C32.6737 124.64 26.668 118.634 26.668 111.522V76.1203H45.7914C45.3172 75.1721 45.1592 74.2238 45.1592 72.9594C45.3172 69.6405 47.8459 66.7957 51.0068 66.3216C55.274 65.8474 58.9091 69.0083 58.9091 73.1175C58.9091 74.2238 58.751 75.1721 58.2769 76.1203H75.0296V95.0857C73.6072 93.8213 71.7107 93.1891 69.6561 93.5052C66.6532 93.8213 64.2826 96.35 63.8084 99.3529Z" fill="url(#paint1_linear_10324_29756)"/>
</g>
<g filter="url(#filter2_d_10324_29756)">
<path d="M124.026 76.1196V111.206C124.026 118.476 118.02 124.323 110.75 124.323H75.3481V105.358C74.0838 106.464 72.5033 106.938 70.7648 106.938C66.6557 106.938 63.4948 103.303 63.8109 99.0361C64.285 95.8752 66.8137 93.5045 69.6585 93.0304C71.7131 92.8724 73.7677 93.5045 75.032 94.6109V75.6455H95.4198C94.7876 76.5938 94.6295 77.7001 94.6295 78.8064C94.6295 82.7575 98.1065 86.0765 102.374 85.6023C105.535 85.2862 108.221 82.5995 108.537 79.5966C108.696 78.1742 108.379 76.9099 107.905 75.6455L124.026 76.1196Z" fill="url(#paint2_linear_10324_29756)"/>
</g>
<path d="M138.881 61.738L123.235 59.0512C123.551 60.3156 123.709 61.5799 123.235 62.8443C122.287 65.8471 119.442 67.9017 116.281 67.7437C112.172 67.4276 109.169 63.7925 109.801 59.8414C109.959 58.7351 110.433 57.7868 111.066 56.9966L90.8359 53.3616L93.9968 35.1865C95.2612 36.4508 97.1577 37.2411 99.3703 37.2411C102.215 37.083 104.586 35.3445 105.376 32.8158C106.956 28.7067 104.27 24.2814 100.003 23.6492C98.5801 23.3331 97.1577 23.6492 95.8934 24.1234L99.0543 5.94824L133.824 11.9539C141.094 13.2183 145.835 20.0142 144.571 27.1262L138.881 61.738Z" fill="url(#paint3_linear_10324_29756)"/>
<path d="M146.474 75.0659L151.728 73.4822C152.109 73.3717 152.109 72.8192 151.728 72.7087L146.474 71.125C146.339 71.0881 146.24 70.9899 146.204 70.8549L144.62 65.6126C144.509 65.232 143.957 65.232 143.846 65.6126L142.263 70.8549C142.226 70.9899 142.128 71.0881 141.993 71.125L136.75 72.7087C136.37 72.8192 136.37 73.3717 136.75 73.4822L142.005 75.0659C142.14 75.1027 142.238 75.201 142.275 75.336L143.859 80.5906C143.969 80.9712 144.522 80.9712 144.632 80.5906L146.216 75.336C146.24 75.201 146.339 75.1027 146.474 75.0659Z" fill="#AAB2C5"/>
<path d="M134.851 29.0913L141.387 27.1215C141.86 26.9841 141.86 26.297 141.387 26.1595L134.851 24.1897C134.683 24.1439 134.561 24.0217 134.515 23.8538L132.545 17.3335C132.408 16.8602 131.721 16.8602 131.583 17.3335L129.614 23.8538C129.568 24.0217 129.446 24.1439 129.278 24.1897L122.757 26.1595C122.284 26.297 122.284 26.9841 122.757 27.1215L129.293 29.0913C129.461 29.1372 129.583 29.2593 129.629 29.4273L131.599 35.9628C131.736 36.4362 132.423 36.4362 132.561 35.9628L134.53 29.4273C134.561 29.2593 134.683 29.1372 134.851 29.0913Z" fill="white"/>
<path d="M87.3376 6.88995L90.6217 5.90019C90.8595 5.83114 90.8595 5.48588 90.6217 5.41682L87.3376 4.42707C87.2532 4.40405 87.1918 4.34267 87.1688 4.25827L86.1789 0.982097C86.1099 0.744249 85.7646 0.744249 85.6955 0.982097L84.7057 4.25827C84.6827 4.34267 84.6213 4.40405 84.5369 4.42707L81.2604 5.41682C81.0226 5.48588 81.0226 5.83114 81.2604 5.90019L84.5445 6.88995C84.6289 6.91297 84.6903 6.97435 84.7133 7.05875L85.7032 10.3426C85.7722 10.5804 86.1175 10.5804 86.1866 10.3426L87.1764 7.05875C87.1918 6.97435 87.2532 6.91297 87.3376 6.88995Z" fill="#AAB2C5"/>
<g style="mix-blend-mode:color">
<path d="M90.6235 5.90019L87.3394 6.88995C87.255 6.91297 87.1936 6.97435 87.1783 7.05875L86.1884 10.3426C86.1194 10.5804 85.7741 10.5804 85.705 10.3426L84.7152 7.05875C84.6922 6.97435 84.6308 6.91297 84.5464 6.88995L81.2623 5.90019C81.0244 5.83114 81.0244 5.48588 81.2623 5.41682L84.5387 4.42707C84.6231 4.40405 84.6845 4.34267 84.7075 4.25827L85.6973 0.982097C85.7664 0.744249 86.1117 0.744249 86.1808 0.982097L87.1706 4.25827C87.1936 4.34267 87.255 4.40405 87.3394 4.42707L90.6235 5.41682C90.8614 5.48588 90.8614 5.83114 90.6235 5.90019Z" fill="#696974"/>
<path d="M138.881 61.7383L133.077 60.7417C134.349 65.5771 135.026 70.6546 135.026 75.8909C135.026 88.7352 130.951 100.624 124.026 110.327V111.206C124.026 118.476 118.021 124.324 110.751 124.324H109.973C100.37 131.116 88.6558 135.105 76.0132 135.105C63.5684 135.105 52.0233 131.24 42.5052 124.641H39.9464C32.6763 124.641 26.6706 118.635 26.6706 111.523V108.384C20.557 99.0558 17 87.8902 17 75.8909C17 63.9955 20.4957 52.9194 26.5125 43.6403V40.8761C26.5125 33.606 32.3601 27.7584 39.7882 27.7584H41.6322C51.3135 20.7835 63.1854 16.6767 76.0132 16.6767C83.2344 16.6767 90.1527 17.9781 96.5478 20.36L99.0542 5.94859L133.824 11.9543C141.094 13.2186 145.835 20.0146 144.571 27.1266L138.881 61.7383Z" fill="#696974"/>
<path d="M151.728 73.4821L146.473 75.0658C146.338 75.1026 146.24 75.2009 146.215 75.3359L144.631 80.5905C144.521 80.9711 143.968 80.9711 143.858 80.5905L142.274 75.3359C142.237 75.2009 142.139 75.1026 142.004 75.0658L136.75 73.4821C136.369 73.3716 136.369 72.8191 136.75 72.7086L141.992 71.1249C142.127 71.0881 142.225 70.9898 142.262 70.8548L143.846 65.6125C143.956 65.2319 144.509 65.2319 144.619 65.6125L146.203 70.8548C146.24 70.9898 146.338 71.0881 146.473 71.1249L151.728 72.7086C152.108 72.8191 152.108 73.3716 151.728 73.4821Z" fill="#696974"/>
</g>
<path d="M138.881 61.7389L123.235 59.0522C123.551 60.3165 123.709 61.5809 123.235 62.8453C122.287 65.8481 119.442 67.9027 116.281 67.7446C112.172 67.4285 109.169 63.7935 109.801 59.8424C109.959 58.7361 110.433 57.7878 111.066 56.9976L90.8359 53.3626L93.9968 35.1875C95.2612 36.4518 97.1577 37.242 99.3703 37.242C102.215 37.084 104.586 35.3455 105.376 32.8168C106.956 28.7076 104.27 24.2824 100.003 23.6502C98.5801 23.3341 97.1577 23.6502 95.8934 24.1243L99.0543 5.94922L133.824 11.9549C141.094 13.2193 145.835 20.0152 144.571 27.1272L138.881 61.7389Z" fill="url(#paint4_linear_10324_29756)"/>
<defs>
<filter id="filter0_d_10324_29756" x="4.51172" y="16.7578" width="103.695" height="92.5195" filterUnits="userSpaceOnUse" color-interpolation-filters="sRGB">
<feFlood flood-opacity="0" result="BackgroundImageFix"/>
<feColorMatrix in="SourceAlpha" type="matrix" values="0 0 0 0 0 0 0 0 0 0 0 0 0 0 0 0 0 0 127 0" result="hardAlpha"/>
<feOffset dy="11"/>
<feGaussianBlur stdDeviation="11"/>
<feColorMatrix type="matrix" values="0 0 0 0 0.397708 0 0 0 0 0.47749 0 0 0 0 0.575 0 0 0 0.27 0"/>
<feBlend mode="normal" in2="BackgroundImageFix" result="effect1_dropShadow_10324_29756"/>
<feBlend mode="normal" in="SourceGraphic" in2="effect1_dropShadow_10324_29756" result="shape"/>
</filter>
<filter id="filter1_d_10324_29756" x="4.66797" y="55.2744" width="92.6758" height="102.365" filterUnits="userSpaceOnUse" color-interpolation-filters="sRGB">
<feFlood flood-opacity="0" result="BackgroundImageFix"/>
<feColorMatrix in="SourceAlpha" type="matrix" values="0 0 0 0 0 0 0 0 0 0 0 0 0 0 0 0 0 0 127 0" result="hardAlpha"/>
<feOffset dy="11"/>
<feGaussianBlur stdDeviation="11"/>
<feColorMatrix type="matrix" values="0 0 0 0 0.397708 0 0 0 0 0.47749 0 0 0 0 0.575 0 0 0 0.27 0"/>
<feBlend mode="normal" in2="BackgroundImageFix" result="effect1_dropShadow_10324_29756"/>
<feBlend mode="normal" in="SourceGraphic" in2="effect1_dropShadow_10324_29756" result="shape"/>
</filter>
<filter id="filter2_d_10324_29756" x="41.7891" y="64.6455" width="104.238" height="92.6777" filterUnits="userSpaceOnUse" color-interpolation-filters="sRGB">
<feFlood flood-opacity="0" result="BackgroundImageFix"/>
<feColorMatrix in="SourceAlpha" type="matrix" values="0 0 0 0 0 0 0 0 0 0 0 0 0 0 0 0 0 0 127 0" result="hardAlpha"/>
<feOffset dy="11"/>
<feGaussianBlur stdDeviation="11"/>
<feColorMatrix type="matrix" values="0 0 0 0 0.397708 0 0 0 0 0.47749 0 0 0 0 0.575 0 0 0 0.27 0"/>
<feBlend mode="normal" in2="BackgroundImageFix" result="effect1_dropShadow_10324_29756"/>
<feBlend mode="normal" in="SourceGraphic" in2="effect1_dropShadow_10324_29756" result="shape"/>
</filter>
<linearGradient id="paint0_linear_10324_29756" x1="56.34" y1="26.6355" x2="56.34" y2="76.8006" gradientUnits="userSpaceOnUse">
<stop stop-color="#FDFEFF"/>
<stop offset="0.9964" stop-color="#ECF0F5"/>
</linearGradient>
<linearGradient id="paint1_linear_10324_29756" x1="50.991" y1="64.9244" x2="50.991" y2="125.269" gradientUnits="userSpaceOnUse">
<stop stop-color="#FDFEFF"/>
<stop offset="0.9964" stop-color="#ECF0F5"/>
</linearGradient>
<linearGradient id="paint2_linear_10324_29756" x1="93.8878" y1="74.5195" x2="93.8878" y2="124.848" gradientUnits="userSpaceOnUse">
<stop stop-color="#FDFEFF"/>
<stop offset="0.9964" stop-color="#ECF0F5"/>
</linearGradient>
<linearGradient id="paint3_linear_10324_29756" x1="90.8112" y1="36.8569" x2="144.785" y2="36.8569" gradientUnits="userSpaceOnUse">
<stop stop-color="#B0BACC"/>
<stop offset="1" stop-color="#969EAE"/>
</linearGradient>
<linearGradient id="paint4_linear_10324_29756" x1="90.8112" y1="36.8579" x2="144.785" y2="36.8579" gradientUnits="userSpaceOnUse">
<stop stop-color="#F7905C"/>
<stop offset="1" stop-color="#F25E1E"/>
</linearGradient>
</defs>
</svg>
