<svg width="24" height="24" viewBox="0 0 24 24" fill="none" xmlns="http://www.w3.org/2000/svg">
<rect width="24" height="24" rx="6" fill="#EA5930"/>
<path d="M17.9615 7.85924C17.9615 7.20297 17.4305 6.66602 16.7742 6.66602H7.22838C6.57211 6.66602 6.03516 7.20297 6.03516 7.85924V15.0186C6.03516 15.6749 6.57211 16.2118 7.22838 16.2118H15.581L17.2449 17.8758C17.5116 18.1425 17.9668 17.9534 17.9668 17.5763L17.9615 7.85924ZM12.5973 14.422H9.61424C9.28491 14.422 9.01763 14.1547 9.01763 13.8254C9.01763 13.4961 9.28491 13.2288 9.61424 13.2288H12.5973C12.9266 13.2288 13.1939 13.4961 13.1939 13.8254C13.1939 14.1547 12.9266 14.422 12.5973 14.422ZM14.3872 12.0355H9.61424C9.28491 12.0355 9.01763 11.7683 9.01763 11.4389C9.01763 11.1096 9.28491 10.8423 9.61424 10.8423H14.3872C14.7165 10.8423 14.9838 11.1096 14.9838 11.4389C14.9838 11.7683 14.7165 12.0355 14.3872 12.0355ZM14.3872 9.64909H9.61424C9.28491 9.64909 9.01763 9.3818 9.01763 9.05247C9.01763 8.72314 9.28491 8.45586 9.61424 8.45586H14.3872C14.7165 8.45586 14.9838 8.72314 14.9838 9.05247C14.9838 9.3818 14.7165 9.64909 14.3872 9.64909Z" fill="white"/>
</svg>
