<svg width="28" height="28" viewBox="0 0 28 28" fill="none" xmlns="http://www.w3.org/2000/svg">
<path d="M25.206 19.6051C25.1666 19.6445 25.1131 19.6667 25.0573 19.6667C25.0016 19.6667 24.9481 19.6445 24.9086 19.6051C24.8692 19.5657 24.8471 19.5122 24.8471 19.4564C24.8471 19.4007 24.8692 19.3472 24.9086 19.3078C24.9086 19.3078 24.9087 19.3078 24.9087 19.3078C24.9481 19.2683 25.0016 19.2462 25.0573 19.2462C25.1131 19.2462 25.1666 19.2683 25.206 19.3078C25.2454 19.3472 25.2676 19.4007 25.2676 19.4564C25.2676 19.5122 25.2454 19.5657 25.206 19.6051Z" fill="#92929D" stroke="#92929D" stroke-width="2"/>
<path d="M22.1076 21.5134V19.6667H24.5087L24.606 19.819C24.4748 20.0125 24.2909 20.2474 24.0479 20.482C23.6157 20.8994 22.9909 21.324 22.1076 21.5134ZM17.3076 19.6051C17.2681 19.6445 17.2146 19.6667 17.1589 19.6667C17.1031 19.6667 17.0496 19.6445 17.0102 19.6051C16.9708 19.5657 16.9486 19.5122 16.9486 19.4564C16.9486 19.4007 16.9708 19.3472 17.0102 19.3078C17.0102 19.3078 17.0102 19.3078 17.0102 19.3078C17.0496 19.2683 17.1031 19.2462 17.1589 19.2462C17.2146 19.2462 17.2681 19.2683 17.3076 19.3078C17.347 19.3472 17.3691 19.4007 17.3691 19.4564C17.3691 19.5122 17.347 19.5657 17.3076 19.6051Z" fill="#92929D" stroke="#92929D" stroke-width="2"/>
<path d="M20.1084 19.6667V21.5134C19.2251 21.324 18.6003 20.8995 18.1681 20.4821C17.9251 20.2474 17.7412 20.0125 17.61 19.819L17.7073 19.6667H20.1084Z" fill="#92929D" stroke="#92929D" stroke-width="2"/>
<path d="M13.0565 4.89052C13.3066 4.64048 13.6457 4.5 13.9993 4.5C14.353 4.5 14.6921 4.64048 14.9422 4.89052C15.1922 5.14057 15.3327 5.47971 15.3327 5.83333C15.3327 6.18696 15.1922 6.52609 14.9422 6.77614C14.6921 7.02619 14.353 7.16667 13.9993 7.16667C13.6457 7.16667 13.3066 7.02619 13.0565 6.77614C12.8065 6.52609 12.666 6.18695 12.666 5.83333C12.666 5.47971 12.8065 5.14057 13.0565 4.89052Z" fill="#92929D" stroke="#92929D" stroke-width="2"/>
<path d="M14 6.03839C17.9487 6.03839 17.9487 9.19184 22.6872 9.19184Z" fill="#92929D"/>
<path d="M14 6.03839C17.9487 6.03839 17.9487 9.19184 22.6872 9.19184" stroke="#92929D" stroke-width="2" stroke-miterlimit="10" stroke-linecap="round" stroke-linejoin="round"/>
<path d="M5.89353 19.6667V21.5134C5.01022 21.324 4.38542 20.8994 3.95322 20.482C3.71022 20.2474 3.52637 20.0125 3.39511 19.819L3.49246 19.6667H5.89353ZM10.9909 19.6051C10.9515 19.6445 10.898 19.6667 10.8422 19.6667C10.7865 19.6667 10.733 19.6445 10.6936 19.6051C10.6541 19.5657 10.632 19.5122 10.632 19.4564C10.632 19.4007 10.6541 19.3472 10.6936 19.3078C10.733 19.2683 10.7865 19.2462 10.8422 19.2462C10.898 19.2462 10.9515 19.2683 10.9909 19.3078C11.0304 19.3472 11.0525 19.4007 11.0525 19.4564C11.0525 19.5122 11.0304 19.5657 10.9909 19.6051Z" fill="#92929D" stroke="#92929D" stroke-width="2"/>
<path d="M7.89062 21.5134V19.6667H10.2917L10.389 19.819C10.2578 20.0125 10.0739 20.2474 9.83094 20.482C9.39874 20.8994 8.77394 21.324 7.89062 21.5134Z" fill="#92929D" stroke="#92929D" stroke-width="2"/>
<path d="M14.0016 6.03839C10.0529 6.03839 10.0529 9.19184 5.31445 9.19184Z" fill="#92929D"/>
<path d="M14.0016 6.03839C10.0529 6.03839 10.0529 9.19184 5.31445 9.19184" stroke="#92929D" stroke-width="2" stroke-miterlimit="10" stroke-linecap="round" stroke-linejoin="round"/>
<mask id="path-11-inside-1_1985_59807" fill="white">
<path fill-rule="evenodd" clip-rule="evenodd" d="M21.1101 11.4996L19.0781 17.0863H17.3983L20.3685 8.91876C20.4815 8.60681 20.7776 8.39911 21.1101 8.39911C21.4426 8.39911 21.7387 8.60681 21.8517 8.91876L24.8219 17.0863H23.1421L21.1101 11.4996ZM2.38756 18.8971C2.53567 18.749 2.73654 18.6658 2.94599 18.6658C3.15545 18.6658 3.35632 18.749 3.50443 18.8971C3.65253 19.0452 3.73574 19.2461 3.73574 19.4555C3.73574 19.665 3.65253 19.8658 3.50443 20.014C3.35632 20.1621 3.15545 20.2453 2.94599 20.2453C2.73654 20.2453 2.53567 20.1621 2.38756 20.014C2.23945 19.8658 2.15625 19.665 2.15625 19.4555C2.15625 19.2461 2.23945 19.0452 2.38756 18.8971ZM6.89343 11.4996L8.92544 17.0863H10.6052L7.635 8.91876C7.52207 8.60681 7.22592 8.39911 6.89343 8.39911C6.56095 8.39911 6.2648 8.60681 6.15187 8.91876L3.18164 17.0863H4.86142L6.89343 11.4996Z"/>
</mask>
<path fill-rule="evenodd" clip-rule="evenodd" d="M21.1101 11.4996L19.0781 17.0863H17.3983L20.3685 8.91876C20.4815 8.60681 20.7776 8.39911 21.1101 8.39911C21.4426 8.39911 21.7387 8.60681 21.8517 8.91876L24.8219 17.0863H23.1421L21.1101 11.4996ZM2.38756 18.8971C2.53567 18.749 2.73654 18.6658 2.94599 18.6658C3.15545 18.6658 3.35632 18.749 3.50443 18.8971C3.65253 19.0452 3.73574 19.2461 3.73574 19.4555C3.73574 19.665 3.65253 19.8658 3.50443 20.014C3.35632 20.1621 3.15545 20.2453 2.94599 20.2453C2.73654 20.2453 2.53567 20.1621 2.38756 20.014C2.23945 19.8658 2.15625 19.665 2.15625 19.4555C2.15625 19.2461 2.23945 19.0452 2.38756 18.8971ZM6.89343 11.4996L8.92544 17.0863H10.6052L7.635 8.91876C7.52207 8.60681 7.22592 8.39911 6.89343 8.39911C6.56095 8.39911 6.2648 8.60681 6.15187 8.91876L3.18164 17.0863H4.86142L6.89343 11.4996Z" fill="#92929D"/>
<path d="M19.0781 17.0863V19.0863H20.4788L20.9576 17.7699L19.0781 17.0863ZM21.1101 11.4996L22.9896 10.816L21.1101 5.64857L19.2306 10.816L21.1101 11.4996ZM17.3983 17.0863L15.5187 16.4028L14.5428 19.0863H17.3983V17.0863ZM20.3685 8.91876L22.2481 9.60229L22.2491 9.59957L20.3685 8.91876ZM21.8517 8.91876L19.9711 9.59956L19.9721 9.60229L21.8517 8.91876ZM24.8219 17.0863V19.0863H27.6774L26.7015 16.4028L24.8219 17.0863ZM23.1421 17.0863L21.2626 17.7699L21.7414 19.0863H23.1421V17.0863ZM2.38756 18.8971L0.973347 17.4829L0.973343 17.4829L2.38756 18.8971ZM3.50443 18.8971L4.91865 17.4829L4.91864 17.4829L3.50443 18.8971ZM3.50443 20.014L4.91864 21.4282L4.91864 21.4282L3.50443 20.014ZM2.38756 20.014L3.80177 18.5997L2.38756 20.014ZM8.92544 17.0863L7.04591 17.7699L7.52471 19.0863H8.92544V17.0863ZM6.89343 11.4996L8.77297 10.816L6.89343 5.64857L5.0139 10.816L6.89343 11.4996ZM10.6052 17.0863V19.0863H13.4607L12.4848 16.4028L10.6052 17.0863ZM7.635 8.91876L5.75444 9.59957L5.75543 9.60229L7.635 8.91876ZM6.15187 8.91876L8.03144 9.60229L8.03242 9.59957L6.15187 8.91876ZM3.18164 17.0863L1.30207 16.4028L0.32617 19.0863H3.18164V17.0863ZM4.86142 17.0863V19.0863H6.26216L6.74096 17.7699L4.86142 17.0863ZM20.9576 17.7699L22.9896 12.1833L19.2306 10.816L17.1986 16.4027L20.9576 17.7699ZM17.3983 19.0863H19.0781V15.0863H17.3983V19.0863ZM18.489 8.23523L15.5187 16.4028L19.2779 17.7698L22.2481 9.60229L18.489 8.23523ZM21.1101 6.39911C19.9368 6.39911 18.888 7.13306 18.488 8.23795L22.2491 9.59957C22.075 10.0806 21.6184 10.3991 21.1101 10.3991V6.39911ZM23.7322 8.23796C23.3322 7.13305 22.2834 6.39911 21.1101 6.39911V10.3991C20.6018 10.3991 20.1452 10.0806 19.9711 9.59956L23.7322 8.23796ZM26.7015 16.4028L23.7312 8.23523L19.9721 9.60229L22.9423 17.7698L26.7015 16.4028ZM23.1421 19.0863H24.8219V15.0863H23.1421V19.0863ZM19.2306 12.1833L21.2626 17.7699L25.0216 16.4027L22.9896 10.816L19.2306 12.1833ZM2.94599 16.6658C2.20611 16.6658 1.49653 16.9597 0.973347 17.4829L3.80177 20.3113C3.5748 20.5383 3.26697 20.6658 2.94599 20.6658V16.6658ZM4.91864 17.4829C4.39546 16.9597 3.68588 16.6658 2.94599 16.6658V20.6658C2.62502 20.6658 2.31718 20.5383 2.09021 20.3113L4.91864 17.4829ZM5.73574 19.4555C5.73574 18.7156 5.44182 18.0061 4.91865 17.4829L2.09021 20.3113C1.86325 20.0843 1.73574 19.7765 1.73574 19.4555H5.73574ZM4.91864 21.4282C5.44182 20.905 5.73574 20.1954 5.73574 19.4555H1.73574C1.73574 19.1345 1.86324 18.8267 2.09021 18.5997L4.91864 21.4282ZM2.94599 22.2453C3.68588 22.2453 4.39546 21.9513 4.91864 21.4282L2.09021 18.5997C2.31718 18.3728 2.62502 18.2453 2.94599 18.2453V22.2453ZM0.973347 21.4282C1.49653 21.9513 2.20611 22.2453 2.94599 22.2453V18.2453C3.26697 18.2453 3.5748 18.3728 3.80177 18.5997L0.973347 21.4282ZM0.15625 19.4555C0.15625 20.1954 0.450167 20.905 0.973347 21.4282L3.80177 18.5997C4.02874 18.8267 4.15625 19.1345 4.15625 19.4555H0.15625ZM0.973343 17.4829C0.450169 18.0061 0.15625 18.7156 0.15625 19.4555H4.15625C4.15625 19.7765 4.02874 20.0843 3.80178 20.3113L0.973343 17.4829ZM10.805 16.4027L8.77297 10.816L5.0139 12.1833L7.04591 17.7699L10.805 16.4027ZM10.6052 15.0863H8.92544V19.0863H10.6052V15.0863ZM5.75543 9.60229L8.72566 17.7698L12.4848 16.4028L9.51457 8.23523L5.75543 9.60229ZM6.89343 10.3991C6.38512 10.3991 5.92858 10.0806 5.75445 9.59957L9.51556 8.23795C9.11556 7.13305 8.06672 6.39911 6.89343 6.39911V10.3991ZM8.03242 9.59957C7.85829 10.0806 7.40175 10.3991 6.89343 10.3991V6.39911C5.72015 6.39911 4.67131 7.13305 4.27131 8.23795L8.03242 9.59957ZM5.06121 17.7698L8.03144 9.60229L4.27229 8.23523L1.30207 16.4028L5.06121 17.7698ZM4.86142 15.0863H3.18164V19.0863H4.86142V15.0863ZM5.0139 10.816L2.98189 16.4027L6.74096 17.7699L8.77297 12.1833L5.0139 10.816Z" fill="#92929D" mask="url(#path-11-inside-1_1985_59807)"/>
</svg>
