<svg width="24" height="24" viewBox="0 0 24 24" fill="none" xmlns="http://www.w3.org/2000/svg">
<mask id="path-1-inside-1_1506_38336" fill="white">
<path d="M21.4777 16C21.2982 16 21.126 16.0713 20.999 16.1983C20.8721 16.3252 20.8008 16.4974 20.8008 16.6769C20.8008 16.8565 20.8721 17.0286 20.999 17.1556C21.126 17.2825 21.2982 17.3538 21.4777 17.3538C21.6572 17.3538 21.8294 17.2825 21.9564 17.1556C22.0833 17.0286 22.1546 16.8565 22.1546 16.6769C22.1546 16.4974 22.0833 16.3252 21.9564 16.1983C21.8294 16.0713 21.6572 16 21.4777 16Z"/>
</mask>
<path d="M21.4777 16C21.2982 16 21.126 16.0713 20.999 16.1983C20.8721 16.3252 20.8008 16.4974 20.8008 16.6769C20.8008 16.8565 20.8721 17.0286 20.999 17.1556C21.126 17.2825 21.2982 17.3538 21.4777 17.3538C21.6572 17.3538 21.8294 17.2825 21.9564 17.1556C22.0833 17.0286 22.1546 16.8565 22.1546 16.6769C22.1546 16.4974 22.0833 16.3252 21.9564 16.1983C21.8294 16.0713 21.6572 16 21.4777 16Z" fill="#B5B5BE"/>
<path d="M21.4777 14C20.7677 14 20.0869 14.282 19.5848 14.7841L22.4133 17.6125C22.1651 17.8606 21.8286 18 21.4777 18V14ZM19.5848 14.7841C19.0828 15.2861 18.8008 15.967 18.8008 16.6769H22.8008C22.8008 17.0278 22.6614 17.3643 22.4133 17.6125L19.5848 14.7841ZM18.8008 16.6769C18.8008 17.3869 19.0828 18.0678 19.5848 18.5698L22.4133 15.7414C22.6614 15.9895 22.8008 16.326 22.8008 16.6769H18.8008ZM19.5848 18.5698C20.0869 19.0718 20.7677 19.3538 21.4777 19.3538V15.3538C21.8286 15.3538 22.1651 15.4932 22.4133 15.7414L19.5848 18.5698ZM21.4777 19.3538C22.1877 19.3538 22.8686 19.0718 23.3706 18.5698L20.5421 15.7414C20.7903 15.4932 21.1268 15.3538 21.4777 15.3538V19.3538ZM23.3706 18.5698C23.8726 18.0678 24.1546 17.3869 24.1546 16.6769H20.1546C20.1546 16.326 20.294 15.9895 20.5421 15.7414L23.3706 18.5698ZM24.1546 16.6769C24.1546 15.967 23.8726 15.2861 23.3706 14.7841L20.5421 17.6125C20.294 17.3643 20.1546 17.0278 20.1546 16.6769H24.1546ZM23.3706 14.7841C22.8686 14.282 22.1877 14 21.4777 14V18C21.1268 18 20.7903 17.8606 20.5421 17.6125L23.3706 14.7841Z" fill="#B5B5BE" mask="url(#path-1-inside-1_1506_38336)"/>
<path d="M19.0928 18.2587V17H20.9082C20.8071 17.1388 20.6766 17.2961 20.5138 17.4533C20.1885 17.7675 19.7297 18.0877 19.0928 18.2587ZM14.9366 16.9054C14.876 16.966 14.7939 17 14.7082 17C14.6225 17 14.5403 16.966 14.4797 16.9054C14.4191 16.8448 14.3851 16.7626 14.3851 16.6769C14.3851 16.5912 14.4191 16.5091 14.4797 16.4485C14.4797 16.4485 14.4797 16.4485 14.4797 16.4485C14.5403 16.3879 14.6225 16.3538 14.7082 16.3538C14.7939 16.3538 14.876 16.3879 14.9366 16.4485C14.9972 16.5091 15.0312 16.5912 15.0312 16.6769C15.0312 16.7626 14.9972 16.8448 14.9366 16.9054Z" fill="#B5B5BE" stroke="#B5B5BE" stroke-width="2"/>
<path d="M17.0923 17V18.2587C16.4554 18.0877 15.9967 17.7675 15.6713 17.4533C15.5086 17.2961 15.3781 17.1388 15.277 17H17.0923Z" fill="#B5B5BE" stroke="#B5B5BE" stroke-width="2"/>
<path d="M11.2929 4.29289C11.4804 4.10536 11.7348 4 12 4C12.2652 4 12.5196 4.10536 12.7071 4.29289C12.8946 4.48043 13 4.73478 13 5C13 5.26522 12.8946 5.51957 12.7071 5.70711C12.5196 5.89464 12.2652 6 12 6C11.7348 6 11.4804 5.89464 11.2929 5.70711C11.1054 5.51957 11 5.26522 11 5C11 4.73478 11.1054 4.48043 11.2929 4.29289Z" fill="#B5B5BE" stroke="#B5B5BE" stroke-width="2"/>
<path d="M12 5.17578C15.3846 5.17578 15.3846 7.87873 19.4462 7.87873L12 5.17578Z" fill="#B5B5BE"/>
<path d="M12 5.17578C15.3846 5.17578 15.3846 7.87873 19.4462 7.87873" stroke="#B5B5BE" stroke-width="2" stroke-miterlimit="10" stroke-linecap="round" stroke-linejoin="round"/>
<path d="M4.90874 17V18.2587C4.2718 18.0877 3.81306 17.7675 3.48771 17.4533C3.32498 17.2961 3.19447 17.1388 3.09337 17H4.90874Z" fill="#B5B5BE" stroke="#B5B5BE" stroke-width="2"/>
<path d="M6.90625 18.2587V17H8.72162C8.62052 17.1388 8.49001 17.2961 8.32728 17.4533C8.00193 17.7675 7.5432 18.0877 6.90625 18.2587Z" fill="#B5B5BE" stroke="#B5B5BE" stroke-width="2"/>
<path d="M12.0008 5.17578C8.61623 5.17578 8.61623 7.87873 4.55469 7.87873L12.0008 5.17578Z" fill="#B5B5BE"/>
<path d="M12.0008 5.17578C8.61623 5.17578 8.61623 7.87873 4.55469 7.87873" stroke="#B5B5BE" stroke-width="2" stroke-miterlimit="10" stroke-linecap="round" stroke-linejoin="round"/>
<mask id="path-12-inside-2_1506_38336" fill="white">
<path fill-rule="evenodd" clip-rule="evenodd" d="M18.0938 9.85682L16.3521 14.6454H14.9123L17.4582 7.64463C17.555 7.37725 17.8088 7.19922 18.0938 7.19922C18.3788 7.19922 18.6326 7.37725 18.7294 7.64463L21.2754 14.6454H19.8355L18.0938 9.85682ZM2.04592 16.1975C2.17287 16.0705 2.34505 15.9992 2.52458 15.9992C2.70411 15.9992 2.87629 16.0705 3.00324 16.1975C3.13018 16.3244 3.2015 16.4966 3.2015 16.6761C3.2015 16.8557 3.13018 17.0279 3.00324 17.1548C2.87629 17.2817 2.70411 17.3531 2.52458 17.3531C2.34505 17.3531 2.17287 17.2817 2.04592 17.1548C1.91897 17.0279 1.84766 16.8557 1.84766 16.6761C1.84766 16.4966 1.91897 16.3244 2.04592 16.1975ZM5.9081 9.85682L7.64982 14.6454H9.08964L6.54373 7.64463C6.44693 7.37725 6.19308 7.19922 5.9081 7.19922C5.62312 7.19922 5.36927 7.37725 5.27247 7.64463L2.72656 14.6454H4.16638L5.9081 9.85682Z"/>
</mask>
<path fill-rule="evenodd" clip-rule="evenodd" d="M18.0938 9.85682L16.3521 14.6454H14.9123L17.4582 7.64463C17.555 7.37725 17.8088 7.19922 18.0938 7.19922C18.3788 7.19922 18.6326 7.37725 18.7294 7.64463L21.2754 14.6454H19.8355L18.0938 9.85682ZM2.04592 16.1975C2.17287 16.0705 2.34505 15.9992 2.52458 15.9992C2.70411 15.9992 2.87629 16.0705 3.00324 16.1975C3.13018 16.3244 3.2015 16.4966 3.2015 16.6761C3.2015 16.8557 3.13018 17.0279 3.00324 17.1548C2.87629 17.2817 2.70411 17.3531 2.52458 17.3531C2.34505 17.3531 2.17287 17.2817 2.04592 17.1548C1.91897 17.0279 1.84766 16.8557 1.84766 16.6761C1.84766 16.4966 1.91897 16.3244 2.04592 16.1975ZM5.9081 9.85682L7.64982 14.6454H9.08964L6.54373 7.64463C6.44693 7.37725 6.19308 7.19922 5.9081 7.19922C5.62312 7.19922 5.36927 7.37725 5.27247 7.64463L2.72656 14.6454H4.16638L5.9081 9.85682Z" fill="#B5B5BE"/>
<path d="M16.3521 14.6454V16.6454H17.7528L18.2316 15.329L16.3521 14.6454ZM18.0938 9.85682L19.9733 9.17318L18.0938 4.00575L16.2143 9.17318L18.0938 9.85682ZM14.9123 14.6454L13.0327 13.9618L12.0568 16.6454H14.9123V14.6454ZM17.4582 7.64463L19.3378 8.32817L19.3387 8.32544L17.4582 7.64463ZM18.7294 7.64463L16.8489 8.32544L16.8499 8.32816L18.7294 7.64463ZM21.2754 14.6454V16.6454H24.1308L23.1549 13.9618L21.2754 14.6454ZM19.8355 14.6454L17.956 15.329L18.4348 16.6454H19.8355V14.6454ZM2.04592 16.1975L3.46013 17.6117L3.46014 17.6117L2.04592 16.1975ZM3.00324 16.1975L1.58902 17.6117L1.58902 17.6117L3.00324 16.1975ZM3.00324 17.1548L4.41745 18.569H4.41745L3.00324 17.1548ZM2.04592 17.1548L3.46013 15.7406L2.04592 17.1548ZM7.64982 14.6454L5.77029 15.329L6.24909 16.6454H7.64982V14.6454ZM5.9081 9.85682L7.78763 9.17318L5.9081 4.00575L4.02857 9.17318L5.9081 9.85682ZM9.08964 14.6454V16.6454H11.9451L10.9692 13.9618L9.08964 14.6454ZM6.54373 7.64463L4.66317 8.32544L4.66416 8.32816L6.54373 7.64463ZM5.27247 7.64463L7.15204 8.32816L7.15303 8.32544L5.27247 7.64463ZM2.72656 14.6454L0.846992 13.9618L-0.128908 16.6454H2.72656V14.6454ZM4.16638 14.6454V16.6454H5.56711L6.04591 15.329L4.16638 14.6454ZM18.2316 15.329L19.9733 10.5405L16.2143 9.17318L14.4726 13.9617L18.2316 15.329ZM14.9123 16.6454H16.3521V12.6454H14.9123V16.6454ZM15.5786 6.9611L13.0327 13.9618L16.7918 15.3289L19.3378 8.32816L15.5786 6.9611ZM18.0938 5.19922C16.968 5.19922 15.9615 5.90349 15.5776 6.96383L19.3387 8.32544C19.1485 8.85101 18.6496 9.19922 18.0938 9.19922V5.19922ZM20.61 6.96383C20.2261 5.90349 19.2196 5.19922 18.0938 5.19922V9.19922C17.538 9.19922 17.0392 8.85101 16.8489 8.32544L20.61 6.96383ZM23.1549 13.9618L20.609 6.9611L16.8499 8.32816L19.3958 15.3289L23.1549 13.9618ZM19.8355 16.6454H21.2754V12.6454H19.8355V16.6454ZM16.2143 10.5405L17.956 15.329L21.7151 13.9617L19.9733 9.17318L16.2143 10.5405ZM2.52458 13.9992C1.81462 13.9992 1.13373 14.2812 0.631705 14.7833L3.46014 17.6117C3.21201 17.8598 2.87548 17.9992 2.52458 17.9992V13.9992ZM4.41745 14.7833C3.91543 14.2812 3.23454 13.9992 2.52458 13.9992V17.9992C2.17368 17.9992 1.83715 17.8598 1.58902 17.6117L4.41745 14.7833ZM5.2015 16.6761C5.2015 15.9662 4.91947 15.2853 4.41745 14.7833L1.58902 17.6117C1.3409 17.3636 1.2015 17.027 1.2015 16.6761H5.2015ZM4.41745 18.569C4.91947 18.067 5.2015 17.3861 5.2015 16.6761H1.2015C1.2015 16.3252 1.3409 15.9887 1.58902 15.7406L4.41745 18.569ZM2.52458 19.3531C3.23454 19.3531 3.91543 19.071 4.41745 18.569L1.58902 15.7406C1.83715 15.4925 2.17368 15.3531 2.52458 15.3531V19.3531ZM0.631711 18.569C1.13373 19.071 1.81461 19.3531 2.52458 19.3531V15.3531C2.87548 15.3531 3.21201 15.4925 3.46013 15.7406L0.631711 18.569ZM-0.152344 16.6761C-0.152344 17.3861 0.129686 18.067 0.631711 18.569L3.46013 15.7406C3.70826 15.9887 3.84766 16.3252 3.84766 16.6761H-0.152344ZM0.631711 14.7833C0.129688 15.2853 -0.152344 15.9662 -0.152344 16.6761H3.84766C3.84766 17.027 3.70826 17.3636 3.46013 17.6117L0.631711 14.7833ZM9.52936 13.9617L7.78763 9.17318L4.02857 10.5405L5.77029 15.329L9.52936 13.9617ZM9.08964 12.6454H7.64982V16.6454H9.08964V12.6454ZM4.66416 8.32816L7.21007 15.3289L10.9692 13.9618L8.4233 6.9611L4.66416 8.32816ZM5.9081 9.19922C5.35229 9.19922 4.85344 8.85101 4.66317 8.32544L8.42429 6.96383C8.04042 5.90349 7.03388 5.19922 5.9081 5.19922V9.19922ZM7.15303 8.32544C6.96276 8.85101 6.46392 9.19922 5.9081 9.19922V5.19922C4.78232 5.19922 3.77578 5.90349 3.39191 6.96382L7.15303 8.32544ZM4.60613 15.3289L7.15204 8.32816L3.3929 6.9611L0.846992 13.9618L4.60613 15.3289ZM4.16638 12.6454H2.72656V16.6454H4.16638V12.6454ZM4.02857 9.17318L2.28684 13.9617L6.04591 15.329L7.78763 10.5405L4.02857 9.17318Z" fill="#B5B5BE" mask="url(#path-12-inside-2_1506_38336)"/>
</svg>
