<svg width="24" height="24" viewBox="0 0 24 24" fill="none" xmlns="http://www.w3.org/2000/svg">
<path d="M3 7C3 7.55228 3.44772 8 4 8C4.55228 8 5 7.55228 5 7H3ZM6 4V3V4ZM8 5C8.55228 5 9 4.55228 9 4C9 3.44772 8.55228 3 8 3V5ZM5 17C5 16.4477 4.55228 16 4 16C3.44772 16 3 16.4477 3 17H5ZM4 18H3H4ZM8 21C8.55228 21 9 20.5523 9 20C9 19.4477 8.55228 19 8 19V21ZM16 3C15.4477 3 15 3.44772 15 4C15 4.55228 15.4477 5 16 5V3ZM18 4V3V4ZM19 7C19 7.55228 19.4477 8 20 8C20.5523 8 21 7.55228 21 7H19ZM16 19C15.4477 19 15 19.4477 15 20C15 20.5523 15.4477 21 16 21V19ZM21 17C21 16.4477 20.5523 16 20 16C19.4477 16 19 16.4477 19 17H21ZM5 7V6H3V7H5ZM5 6C5 5.73478 5.10536 5.48043 5.29289 5.29289L3.87868 3.87868C3.31607 4.44129 3 5.20435 3 6H5ZM5.29289 5.29289C5.48043 5.10536 5.73478 5 6 5V3C5.20435 3 4.44129 3.31607 3.87868 3.87868L5.29289 5.29289ZM6 5H8V3H6V5ZM3 17V18H5V17H3ZM3 18C3 18.7956 3.31607 19.5587 3.87868 20.1213L5.29289 18.7071C5.10536 18.5196 5 18.2652 5 18H3ZM3.87868 20.1213C4.44129 20.6839 5.20435 21 6 21V19C5.73478 19 5.48043 18.8946 5.29289 18.7071L3.87868 20.1213ZM6 21H8V19H6V21ZM16 5H18V3H16V5ZM18 5C18.2652 5 18.5196 5.10536 18.7071 5.29289L20.1213 3.87868C19.5587 3.31607 18.7956 3 18 3V5ZM18.7071 5.29289C18.8946 5.48043 19 5.73478 19 6H21C21 5.20435 20.6839 4.44129 20.1213 3.87868L18.7071 5.29289ZM19 6V7H21V6H19ZM16 21H18V19H16V21ZM18 21C18.7957 21 19.5587 20.6839 20.1213 20.1213L18.7071 18.7071C18.5196 18.8946 18.2652 19 18 19V21ZM20.1213 20.1213C20.6839 19.5587 21 18.7957 21 18H19C19 18.2652 18.8946 18.5196 18.7071 18.7071L20.1213 20.1213ZM21 18V17H19V18H21Z" fill="#EA5930"/>
<path d="M5 12H19" stroke="#EA5930" stroke-width="2" stroke-linecap="round" stroke-linejoin="round"/>
</svg>
