<svg width="20" height="20" viewBox="0 0 20 20" fill="none" xmlns="http://www.w3.org/2000/svg">
<path d="M10 17.5C14.1421 17.5 17.5 14.1421 17.5 10C17.5 5.85786 14.1421 2.5 10 2.5C5.85786 2.5 2.5 5.85786 2.5 10C2.5 14.1421 5.85786 17.5 10 17.5Z" stroke="#92929D" stroke-width="1.5" stroke-linecap="round" stroke-linejoin="round"/>
<path d="M7.5 8.3335H7.51" stroke="#92929D" stroke-width="1.5" stroke-linecap="round" stroke-linejoin="round"/>
<path d="M12.5 8.3335H12.51" stroke="#92929D" stroke-width="1.5" stroke-linecap="round" stroke-linejoin="round"/>
<path d="M7.91797 12.7084C8.18953 12.4313 8.51368 12.2111 8.87141 12.0608C9.22914 11.9104 9.61327 11.833 10.0013 11.833C10.3893 11.833 10.7735 11.9104 11.1312 12.0608C11.4889 12.2111 11.8131 12.4313 12.0846 12.7084" stroke="#92929D" stroke-width="1.5" stroke-linecap="round" stroke-linejoin="round"/>
</svg>
