<svg width="44" height="39" viewBox="0 0 44 39" fill="none" xmlns="http://www.w3.org/2000/svg">
<path opacity="0.2" d="M21.9986 38.8214L3.15716 19.9799C2.09675 18.8311 1.27299 17.4847 0.732915 16.0176C0.19284 14.5505 -0.0529724 12.9913 0.00951301 11.4292C0.135708 8.2743 1.51 5.29877 3.83007 3.15717C6.15014 1.01557 9.22593 -0.116672 12.3808 0.00952268C15.5357 0.135718 18.5112 1.51001 20.6528 3.83008C21.0512 4.09625 21.5195 4.23832 21.9986 4.23832C22.4777 4.23832 22.9461 4.09625 23.3445 3.83008C25.4861 1.51001 28.4616 0.135718 31.6165 0.00952268C34.7713 -0.116672 37.8471 1.01557 40.1672 3.15717C42.4873 5.29877 43.8616 8.2743 43.9878 11.4292C44.1139 14.5841 42.9817 17.6599 40.8401 19.9799L21.9986 38.8214Z" fill="#EA5930"/>
</svg>
