<svg width="28" height="28" viewBox="0 0 28 28" fill="none" xmlns="http://www.w3.org/2000/svg">
<path d="M6.80039 20.3996C8.12587 20.3996 9.20039 19.3251 9.20039 17.9996C9.20039 16.6741 8.12587 15.5996 6.80039 15.5996C5.47491 15.5996 4.40039 16.6741 4.40039 17.9996C4.40039 19.3251 5.47491 20.3996 6.80039 20.3996Z" stroke="#B5B5BE" stroke-width="1.5" stroke-linecap="round" stroke-linejoin="round"/>
<path d="M19.5992 20.3996C20.9247 20.3996 21.9992 19.3251 21.9992 17.9996C21.9992 16.6741 20.9247 15.5996 19.5992 15.5996C18.2737 15.5996 17.1992 16.6741 17.1992 17.9996C17.1992 19.3251 18.2737 20.3996 19.5992 20.3996Z" stroke="#B5B5BE" stroke-width="1.5" stroke-linecap="round" stroke-linejoin="round"/>
<path d="M23.5996 14.8008H25.1996" stroke="#B5B5BE" stroke-width="1.5" stroke-linecap="round" stroke-linejoin="round"/>
<path d="M4.40039 12.3984H20.4004" stroke="#B5B5BE" stroke-width="1.5" stroke-linecap="round" stroke-linejoin="round"/>
<path d="M11.5992 7.59961L9.19922 12.3996" stroke="#B5B5BE" stroke-width="1.5" stroke-linecap="round" stroke-linejoin="round"/>
<path d="M22 17.9996H25.2C25.68 17.9996 26 17.6796 26 17.1996V15.5996C26 13.8396 24.56 12.3996 22.8 12.3996H20.4L17.36 8.71961C16.72 7.99961 15.84 7.59961 14.88 7.59961H8.8C7.6 7.59961 6.48 8.31961 5.92 9.35961L4.4 12.3996H3.6C2.72 12.3996 2 13.1196 2 13.9996V17.1996C2 17.6796 2.32 17.9996 2.8 17.9996H4.4" stroke="#B5B5BE" stroke-width="1.5" stroke-linecap="round" stroke-linejoin="round"/>
<path d="M9.19922 18H17.1992" stroke="#B5B5BE" stroke-width="1.5" stroke-linecap="round" stroke-linejoin="round"/>
</svg>
