<svg width="24" height="24" viewBox="0 0 24 24" fill="none" xmlns="http://www.w3.org/2000/svg">
<rect width="24" height="24" rx="6" fill="#EA5930"/>
<path fill-rule="evenodd" clip-rule="evenodd" d="M12.5036 11.7581H7.55065C7.55065 11.7581 8.24378 10.4638 8.49003 9.99503C8.54441 9.89151 8.64878 9.82914 8.76316 9.82914H11.1301C11.0948 9.39253 11.2396 8.94342 11.5643 8.60936C11.5866 8.58642 11.6094 8.56436 11.6327 8.54317H8.57503C8.05628 8.54317 7.60002 8.86466 7.41252 9.35976L6.12501 11.7581H5.62501C5.28125 11.7581 5 12.0474 5 12.4011V15.616C5 15.9697 5.28125 16.259 5.62501 16.259H6.46113C6.81283 17.0187 7.56647 17.5449 8.43741 17.5449C9.30834 17.5449 10.062 17.0187 10.4137 16.259H12.7113C13.063 17.0187 13.8166 17.5449 14.6876 17.5449C15.5585 17.5449 16.3122 17.0187 16.6639 16.259H18.1251C18.4689 16.259 18.7501 15.9697 18.7501 15.616V14.0986C18.7501 13.1791 18.1189 12.3882 17.2439 12.2082L16.2572 12.0041L15.5606 12.7207C14.9748 13.3233 14.0251 13.3233 13.4393 12.7207L12.5036 11.7581ZM8.43741 14.33C7.92053 14.33 7.4999 14.7627 7.4999 15.2945C7.4999 15.8262 7.92053 16.2589 8.43741 16.2589C8.95429 16.2589 9.37492 15.8262 9.37492 15.2945C9.37492 14.7627 8.95429 14.33 8.43741 14.33ZM13.7501 15.2945C13.7501 14.7627 14.1707 14.33 14.6876 14.33C15.2045 14.33 15.6251 14.7627 15.6251 15.2945C15.6251 15.8262 15.2045 16.2589 14.6876 16.2589C14.1707 16.2589 13.7501 15.8262 13.7501 15.2945Z" fill="white"/>
<path d="M13.9696 12.1751C14.2625 12.4764 14.7374 12.4764 15.0303 12.1751L18.7803 8.31718C19.0732 8.01585 19.0732 7.52731 18.7803 7.22599C18.6705 7.113 18.5351 7.04237 18.3932 7.01412C18.3479 7.00509 18.3019 7.00039 18.2559 7.00002C18.11 6.99886 17.9638 7.04122 17.8373 7.12712C17.7957 7.15537 17.7563 7.18833 17.7197 7.22599L14.5 10.5383L13.1553 9.15495C12.8624 8.85363 12.3875 8.85363 12.0946 9.15495C11.9163 9.33844 11.8465 9.59136 11.8854 9.82914C11.9103 9.98184 11.9801 10.1283 12.0946 10.2461L13.9696 12.1751Z" fill="white"/>
</svg>
