<svg width="128" height="52" viewBox="0 0 128 52" fill="none" xmlns="http://www.w3.org/2000/svg">
<g opacity="0.7">
<g clip-path="url(#clip0_1506_37941)">
<path opacity="0.5" d="M50.426 13.9062L50.7049 14.8666L50.426 13.9062ZM72.426 30.3281L72.686 31.2937L72.426 30.3281ZM16.5991 58.8207C15.4416 52.4687 17.9015 43.2357 23.7706 34.6503C29.6156 26.1 38.748 18.3391 50.7049 14.8666L50.1471 12.9459C37.6785 16.5671 28.1842 24.65 22.1195 33.5216C16.0788 42.358 13.3461 52.1251 14.6315 59.1793L16.5991 58.8207ZM50.7049 14.8666C74.2413 8.03105 88.2572 0.827721 96.4123 -5.2575C100.491 -8.30104 103.121 -11.0774 104.739 -13.4049C106.34 -15.7084 107.001 -17.6467 107.001 -19H105.001C105.001 -18.2204 104.582 -16.683 103.096 -14.5465C101.628 -12.434 99.1641 -9.80635 95.2162 -6.86043C87.3178 -0.966726 73.5463 6.15026 50.1471 12.9459L50.7049 14.8666ZM38.5995 75.8229C37.4113 69.2183 37.909 60.2532 42.6828 51.8765C47.4423 43.5251 56.5151 35.6476 72.686 31.2937L72.166 29.3625C55.562 33.8329 46.0081 42.0023 40.9452 50.8862C35.8967 59.7449 35.3765 69.2036 36.6311 76.1771L38.5995 75.8229ZM72.686 31.2937C93.8208 25.6034 107.833 18.3036 116.585 11.8406C120.96 8.61032 124.031 5.58103 126.02 3.05581C127.013 1.79395 127.747 0.645235 128.236 -0.351357C128.715 -1.32602 129.001 -2.23675 129.001 -3H127.001C127.001 -2.68318 126.865 -2.09635 126.441 -1.23296C126.028 -0.391512 125.378 0.638298 124.448 1.81845C122.591 4.17727 119.657 7.08596 115.397 10.2317C106.881 16.5207 93.1059 23.7247 72.166 29.3625L72.686 31.2937Z" fill="white"/>
<path opacity="0.3" d="M20 45L38.5 51M29 29.5L45.5 41M44.5 19L56.5 33M62 13L70 28M77.5 7.5L86.5 23M91 0L101 16M105.5 -8.5L116.5 7.5" stroke="white" stroke-width="4"/>
<g opacity="0.2" clip-path="url(#clip1_1506_37941)">
<path d="M72.5571 44.7457L64.9231 49.5569C64.6597 49.7229 64.3112 49.6439 64.1453 49.3805L59.9355 42.7008C59.7695 42.4374 59.8485 42.0889 60.1119 41.9229L67.7459 37.1117C68.0092 36.9458 68.3577 37.0248 68.5237 37.2882L72.7335 43.9679C72.8995 44.2313 72.8204 44.5797 72.5571 44.7457Z" stroke="white" stroke-width="2" stroke-miterlimit="10"/>
<path d="M63.6992 42.3281L66.1048 46.1451L68.2419 42.1317L63.6992 42.3281Z" fill="white"/>
</g>
<g opacity="0.2" clip-path="url(#clip2_1506_37941)">
<path d="M51.5065 8.5667L46.8412 11.5069C46.6802 11.6084 46.4673 11.5601 46.3658 11.3991L43.7931 7.31697C43.6917 7.15602 43.74 6.94306 43.901 6.84163L48.5663 3.9014C48.7272 3.79996 48.9402 3.84826 49.0416 4.00921L51.6143 8.09135C51.7157 8.25231 51.6674 8.46526 51.5065 8.5667Z" stroke="white" stroke-miterlimit="10"/>
<path d="M46.0938 7.08887L47.5639 9.42152L48.8699 6.96884L46.0938 7.08887Z" fill="white"/>
</g>
<g opacity="0.2" clip-path="url(#clip3_1506_37941)">
<path d="M11.7879 40.1425L6.00327 43.7882C5.8037 43.914 5.53965 43.8541 5.41388 43.6545L2.22395 38.593C2.09817 38.3934 2.15806 38.1294 2.35763 38.0036L8.14221 34.358C8.34178 34.2322 8.60583 34.2921 8.7316 34.4916L11.9215 39.5531C12.0473 39.7527 11.9874 40.0168 11.7879 40.1425Z" stroke="white" stroke-width="1.4" stroke-miterlimit="10"/>
<path d="M5.07617 38.3105L6.89899 41.2028L8.51834 38.1617L5.07617 38.3105Z" fill="white"/>
</g>
</g>
</g>
<defs>
<clipPath id="clip0_1506_37941">
<rect width="128" height="52" fill="white"/>
</clipPath>
<clipPath id="clip1_1506_37941">
<rect width="13.5354" height="13.5354" fill="white" transform="translate(57 41.2168) rotate(-32.2205)"/>
</clipPath>
<clipPath id="clip2_1506_37941">
<rect width="8.27179" height="8.27179" fill="white" transform="translate(42 6.41016) rotate(-32.2205)"/>
</clipPath>
<clipPath id="clip3_1506_37941">
<rect width="10.2563" height="10.2563" fill="white" transform="translate(0 37.4688) rotate(-32.2205)"/>
</clipPath>
</defs>
</svg>
