<svg width="20" height="20" viewBox="0 0 20 20" fill="none" xmlns="http://www.w3.org/2000/svg">
<path d="M4.16667 6.66629H11.25C11.637 6.67369 12.0185 6.57312 12.3515 6.37586C12.6846 6.17859 12.9561 5.89243 13.1356 5.54948C13.3151 5.20652 13.3956 4.82033 13.3678 4.43423C13.3401 4.04812 13.2054 3.67737 12.9788 3.36356C12.7521 3.04975 12.4425 2.80529 12.0847 2.6576C11.7269 2.50991 11.335 2.46482 10.953 2.52741C10.571 2.59 10.214 2.75778 9.92202 3.01193C9.63005 3.26608 9.41465 3.59656 9.3 3.96629M2.5 9.99962H15.4167C15.8037 9.99221 16.1851 10.0928 16.5182 10.29C16.8513 10.4873 17.1228 10.7735 17.3023 11.1164C17.4818 11.4594 17.5622 11.8456 17.5345 12.2317C17.5068 12.6178 17.3721 12.9885 17.1454 13.3023C16.9188 13.6162 16.6092 13.8606 16.2514 14.0083C15.8936 14.156 15.5017 14.2011 15.1197 14.1385C14.7377 14.0759 14.3807 13.9081 14.0887 13.654C13.7967 13.3998 13.5813 13.0693 13.4667 12.6996M3.33333 13.333H7.91667C8.30369 13.3255 8.68513 13.4261 9.01819 13.6234C9.35126 13.8206 9.62277 14.1068 9.80229 14.4498C9.9818 14.7927 10.0622 15.1789 10.0345 15.565C10.0068 15.9511 9.87208 16.3219 9.64544 16.6357C9.4188 16.9495 9.10921 17.1939 8.75139 17.3416C8.39358 17.4893 8.00169 17.5344 7.61968 17.4718C7.23768 17.4092 6.88067 17.2415 6.58869 16.9873C6.29671 16.7332 6.08132 16.4027 5.96667 16.033" stroke="#92929D" stroke-width="1.5" stroke-linecap="round" stroke-linejoin="round"/>
</svg>
