<svg width="40" height="36" viewBox="0 0 40 36" fill="none" xmlns="http://www.w3.org/2000/svg">
<rect width="40" height="36" rx="4" fill="#F1F1F5"/>
<path d="M12.4199 9.79753H11.0668C10.9345 9.79753 10.8609 9.88577 10.8462 10.0181L10.8021 10.6947C10.2579 10.077 9.52254 9.63574 8.61068 9.63574C6.59575 9.63574 5.125 11.3124 5.125 13.4156C5.125 15.5187 6.59575 17.1954 8.61068 17.1954C9.55196 17.1954 10.2726 16.7689 10.7874 16.1659L10.8462 16.7836C10.8609 16.916 10.9345 17.0042 11.0668 17.0042H12.4199C12.5523 17.0042 12.6405 16.916 12.6405 16.7836V10.0181C12.6405 9.88577 12.5523 9.79753 12.4199 9.79753ZM8.846 15.4305C7.77235 15.4305 6.99285 14.5628 6.99285 13.4009C6.99285 12.2537 7.77235 11.4006 8.846 11.4006C9.90494 11.4006 10.6844 12.3125 10.6844 13.4009C10.6844 14.4892 9.90494 15.4305 8.846 15.4305Z" fill="#92929D"/>
<path d="M20.4904 9.79785H18.9902C18.8579 9.79785 18.7696 9.8861 18.7696 10.0185V14.0042C18.7696 14.519 18.2548 15.4014 17.2106 15.4014C16.5194 15.4014 15.8281 14.9896 15.8281 13.7983V10.0185C15.8281 9.8861 15.7399 9.79785 15.6075 9.79785H14.1073C13.975 9.79785 13.8867 9.8861 13.8867 10.0185V14.1513C13.8867 16.078 15.0045 17.1957 16.6223 17.1957C17.5342 17.1957 18.2696 16.681 18.7696 15.975L18.8284 16.7839C18.8431 16.9163 18.9167 17.0045 19.0491 17.0045H20.4904C20.6228 17.0045 20.711 16.9163 20.711 16.7839V10.0185C20.711 9.8861 20.6228 9.79785 20.4904 9.79785Z" fill="#92929D"/>
<path d="M31.4388 17.1954C33.5126 17.1954 35.1745 15.5335 35.1745 13.4156C35.1745 11.2977 33.5126 9.63574 31.4388 9.63574C29.3651 9.63574 27.7031 11.2977 27.7031 13.4156C27.7031 15.5335 29.3651 17.1954 31.4388 17.1954ZM31.4388 15.4011C30.3946 15.4011 29.571 14.5775 29.571 13.4156C29.571 12.2537 30.3946 11.4301 31.4388 11.4301C32.4684 11.4301 33.3067 12.2537 33.3067 13.4156C33.3067 14.5775 32.4684 15.4011 31.4388 15.4011Z" fill="#92929D"/>
<path d="M27.1132 9.79785H25.5087H21.9628C21.8304 9.79785 21.7422 9.8861 21.7422 10.0185V11.1656C21.7422 11.298 21.8304 11.3863 21.9628 11.3863H23.5673V16.7839C23.5673 16.9163 23.6555 17.0045 23.7879 17.0045H25.2881C25.4204 17.0045 25.5087 16.9163 25.5087 16.7839V11.3863H27.1132C27.2456 11.3863 27.3338 11.298 27.3338 11.1656V10.0185C27.3338 9.8861 27.2456 9.79785 27.1132 9.79785Z" fill="#92929D"/>
<circle cx="6.13581" cy="26.0255" r="1.13581" fill="#92929D"/>
<path d="M15.6115 19.7578H14.1113C13.9789 19.7578 13.8907 19.8461 13.8907 19.9784V23.9641C13.8907 24.4789 13.3759 25.3614 12.3317 25.3614C11.6404 25.3614 10.9492 24.9495 10.9492 23.7582V19.9784C10.9492 19.8461 10.861 19.7578 10.7286 19.7578H9.22842C9.09606 19.7578 9.00781 19.8461 9.00781 19.9784V24.1112C9.00781 26.0379 10.1256 27.1557 11.7434 27.1557C12.6553 27.1557 13.3906 26.6409 13.8907 25.9349L13.9495 26.7439C13.9642 26.8762 14.0378 26.9645 14.1701 26.9645H15.6115C15.7438 26.9645 15.8321 26.8762 15.8321 26.7439V19.9784C15.8321 19.8461 15.7438 19.7578 15.6115 19.7578Z" fill="#92929D"/>
<path d="M22.948 19.9784C22.948 19.8461 22.8597 19.7578 22.7273 19.7578H17.0797C16.9473 19.7578 16.8591 19.8461 16.8591 19.9784V21.1256C16.8591 21.258 16.9473 21.3462 17.0797 21.3462H20.6242L16.962 25.2584C16.8885 25.3319 16.8591 25.4349 16.8591 25.5378V26.7439C16.8591 26.8762 16.9473 26.9645 17.0797 26.9645H22.7273C22.8597 26.9645 22.948 26.8762 22.948 26.7439V25.5967C22.948 25.4643 22.8597 25.3761 22.7273 25.3761H19.1976L22.845 21.4639C22.9185 21.3903 22.948 21.2874 22.948 21.1844V19.9784Z" fill="#92929D"/>
</svg>
