<svg width="28" height="28" viewBox="0 0 28 28" fill="none" xmlns="http://www.w3.org/2000/svg">
<g clip-path="url(#clip0_7866_56156)">
<path d="M5.83333 8.16699H7C7.61884 8.16699 8.21233 7.92116 8.64992 7.48357C9.0875 7.04599 9.33333 6.4525 9.33333 5.83366C9.33333 5.52424 9.45625 5.22749 9.67504 5.0087C9.89383 4.78991 10.1906 4.66699 10.5 4.66699H17.5C17.8094 4.66699 18.1062 4.78991 18.325 5.0087C18.5437 5.22749 18.6667 5.52424 18.6667 5.83366C18.6667 6.4525 18.9125 7.04599 19.3501 7.48357C19.7877 7.92116 20.3812 8.16699 21 8.16699H22.1667C22.7855 8.16699 23.379 8.41282 23.8166 8.85041C24.2542 9.28799 24.5 9.88149 24.5 10.5003V21.0003C24.5 21.6192 24.2542 22.2127 23.8166 22.6502C23.379 23.0878 22.7855 23.3337 22.1667 23.3337H5.83333C5.21449 23.3337 4.621 23.0878 4.18342 22.6502C3.74583 22.2127 3.5 21.6192 3.5 21.0003V10.5003C3.5 9.88149 3.74583 9.28799 4.18342 8.85041C4.621 8.41282 5.21449 8.16699 5.83333 8.16699" stroke="#695CEA" stroke-width="2" stroke-linecap="round" stroke-linejoin="round"/>
<path d="M14 18.667C15.933 18.667 17.5 17.1 17.5 15.167C17.5 13.234 15.933 11.667 14 11.667C12.067 11.667 10.5 13.234 10.5 15.167C10.5 17.1 12.067 18.667 14 18.667Z" stroke="#695CEA" stroke-width="2" stroke-linecap="round" stroke-linejoin="round"/>
</g>
<defs>
<clipPath id="clip0_7866_56156">
<rect width="28" height="28" fill="white"/>
</clipPath>
</defs>
</svg>
