<svg width="250" height="123" viewBox="0 0 250 123" fill="none" xmlns="http://www.w3.org/2000/svg">
<path d="M125 3.5C146.248 3.5 163.5 20.7519 163.5 42C163.5 63.2482 146.248 80.5 125 80.5C103.752 80.5 86.5 63.2482 86.5 42C86.5 20.7519 103.752 3.5 125 3.5Z" fill="#2FCB82"/>
<path d="M142.966 29.6895L117.874 54.7814L104.93 41.8372" stroke="white" stroke-width="6" stroke-linecap="round" stroke-linejoin="round"/>
<path d="M8.802 105.22L6.264 111.376V111.358H6.21L3.042 105.22H0.162L5.166 114.274C4.86 115.228 4.392 115.768 3.618 115.768C3.24 115.768 2.808 115.66 2.286 115.39L1.44 117.55C1.944 117.928 2.988 118.162 3.726 118.162C5.886 118.162 6.552 116.614 7.38 114.706L11.574 105.22H8.802ZM15.7141 118.162C17.5861 118.162 18.7921 117.496 19.5481 116.56L18.0181 115.084C17.5501 115.66 16.8481 116.038 15.9481 116.038C14.5441 116.038 13.5721 115.066 13.5721 113.608C13.5721 112.168 14.5261 111.178 15.9481 111.178C16.7761 111.178 17.4961 111.538 17.9641 112.114L19.5121 110.656C18.5941 109.576 17.1541 109.072 15.7861 109.072C13.0681 109.072 11.1781 110.908 11.1781 113.626C11.1781 116.326 13.0861 118.162 15.7141 118.162ZM22.5419 109.198C22.5419 110.584 22.5239 112.546 22.3439 113.842C22.1639 115.102 21.7319 115.984 20.8859 115.984C20.7059 115.984 20.5979 115.966 20.4539 115.93L20.3279 117.946C20.5979 118.054 21.0119 118.108 21.3539 118.108C23.2619 118.108 24.1259 116.812 24.4679 114.742C24.6299 113.716 24.7199 112.528 24.7739 111.196H26.8079V118H29.1839V109.198H22.5419ZM32.5718 121.564H34.9658L39.6998 109.198H37.3058L35.3078 114.598H35.2718L33.1298 109.198H30.6098L34.1378 117.46L32.5718 121.564ZM41.1602 118H43.5182V111.196H47.3522V109.198H41.1602V118ZM52.4264 118.162C53.5784 118.162 54.4604 117.73 55.0724 116.938L55.1084 116.956V118H57.3584V109.198H55.0004V110.206L54.9644 110.224C54.3344 109.468 53.3984 109.072 52.3724 109.072C50.0144 109.072 48.2324 110.962 48.2324 113.626C48.2324 116.344 50.0144 118.162 52.4264 118.162ZM52.8764 116.038C51.5444 116.038 50.6264 115.048 50.6264 113.644C50.6264 112.132 51.5984 111.178 52.8764 111.178C54.1364 111.178 55.1084 112.222 55.1084 113.644C55.1084 115.084 54.0824 116.038 52.8764 116.038ZM65.2847 121.564H67.6787L72.4127 109.198H70.0187L68.0207 114.598H67.9847L65.8427 109.198H63.3227L66.8507 117.46L65.2847 121.564ZM77.5188 118.162C79.3908 118.162 80.5968 117.496 81.3528 116.56L79.8228 115.084C79.3548 115.66 78.6528 116.038 77.7528 116.038C76.3488 116.038 75.3768 115.066 75.3768 113.608C75.3768 112.168 76.3308 111.178 77.7528 111.178C78.5808 111.178 79.3008 111.538 79.7688 112.114L81.3168 110.656C80.3988 109.576 78.9588 109.072 77.5908 109.072C74.8728 109.072 72.9828 110.908 72.9828 113.626C72.9828 116.326 74.8908 118.162 77.5188 118.162ZM82.9786 118H85.3366V111.196H88.4686V118H90.8266V109.198H82.9786V118ZM101.346 113.518C101.346 110.944 99.6183 109.072 97.1343 109.072C94.5243 109.072 92.6703 110.908 92.6703 113.59C92.6703 116.344 94.5783 118.162 97.2783 118.162C99.2403 118.162 100.374 117.442 101.112 116.488L99.5823 115.066C99.1143 115.642 98.4303 116.056 97.4403 116.056C96.2523 116.056 95.4063 115.426 95.1183 114.364H101.292C101.31 114.22 101.346 113.806 101.346 113.518ZM97.1163 111.124C98.1423 111.124 98.7723 111.736 99.0063 112.672H95.1363C95.4063 111.664 96.1623 111.124 97.1163 111.124ZM103.122 118H115.578V109.198H113.238V116.002H110.52V109.198H108.198V116.002H105.48V109.198H103.122V118ZM117.889 118H120.247V114.67H123.631V118H126.007V109.198H123.631V112.726H120.247V109.198H117.889V118ZM132.524 118.162C135.26 118.162 137.186 116.29 137.186 113.608C137.186 110.908 135.26 109.072 132.524 109.072C129.716 109.072 127.844 110.98 127.844 113.608C127.844 116.236 129.716 118.162 132.524 118.162ZM132.524 116.038C131.174 116.038 130.238 114.976 130.238 113.608C130.238 112.222 131.156 111.178 132.524 111.178C133.82 111.178 134.792 112.168 134.792 113.608C134.792 115.048 133.784 116.038 132.524 116.038ZM143.658 118H146.016V111.196H149.148V118H151.506V109.198H143.658V118ZM158.03 118.162C160.766 118.162 162.692 116.29 162.692 113.608C162.692 110.908 160.766 109.072 158.03 109.072C155.222 109.072 153.35 110.98 153.35 113.608C153.35 116.236 155.222 118.162 158.03 118.162ZM158.03 116.038C156.68 116.038 155.744 114.976 155.744 113.608C155.744 112.222 156.662 111.178 158.03 111.178C159.326 111.178 160.298 112.168 160.298 113.608C160.298 115.048 159.29 116.038 158.03 116.038ZM173.802 115.984H172.272V109.198H165.864C165.864 110.674 165.81 112.06 165.558 113.374C165.396 114.274 165.126 115.156 164.712 115.984H163.326L163.308 120.322H165.27L165.378 118H171.714L171.84 120.322H173.802V115.984ZM167.016 115.984C167.304 115.39 167.52 114.742 167.682 114.076C167.898 113.14 168.006 112.15 168.078 111.178H169.95V115.984H167.016ZM175.352 118H177.692V115.57L178.772 114.328L181.238 118H183.956L180.5 112.978L183.758 109.198H180.95L177.728 113.068H177.692V109.198H175.352V118ZM186.493 109.198C186.493 110.584 186.475 112.546 186.295 113.842C186.115 115.102 185.683 115.984 184.837 115.984C184.657 115.984 184.549 115.966 184.405 115.93L184.279 117.946C184.549 118.054 184.963 118.108 185.305 118.108C187.213 118.108 188.077 116.812 188.419 114.742C188.581 113.716 188.671 112.528 188.725 111.196H190.759V118H193.135V109.198H186.493ZM203.597 109.072C201.257 109.072 199.601 110.566 199.259 112.744H197.765V109.198H195.389V118H197.765V114.652H199.277C199.691 116.758 201.311 118.162 203.597 118.162C206.315 118.162 208.151 116.29 208.151 113.608C208.151 110.908 206.315 109.072 203.597 109.072ZM203.615 116.038C202.373 116.038 201.473 115.012 201.473 113.608C201.473 112.186 202.355 111.178 203.615 111.178C204.875 111.178 205.757 112.168 205.757 113.608C205.757 115.048 204.857 116.038 203.615 116.038ZM214.967 109.198V112.996C214.481 113.23 213.869 113.356 213.293 113.356C212.465 113.356 211.835 113.14 211.835 111.754V109.198H209.477V112.24C209.477 114.364 210.503 115.372 212.591 115.372C213.347 115.372 214.319 115.156 214.967 114.85V118H217.325V109.198H214.967ZM227.856 113.518C227.856 110.944 226.128 109.072 223.644 109.072C221.034 109.072 219.18 110.908 219.18 113.59C219.18 116.344 221.088 118.162 223.788 118.162C225.75 118.162 226.884 117.442 227.622 116.488L226.092 115.066C225.624 115.642 224.94 116.056 223.95 116.056C222.762 116.056 221.916 115.426 221.628 114.364H227.802C227.82 114.22 227.856 113.806 227.856 113.518ZM223.626 111.124C224.652 111.124 225.282 111.736 225.516 112.672H221.646C221.916 111.664 222.672 111.124 223.626 111.124ZM229.686 118H232.044V114.67H235.428V118H237.804V109.198H235.428V112.726H232.044V109.198H229.686V118ZM243.817 118.162C244.969 118.162 245.851 117.73 246.463 116.938L246.499 116.956V118H248.749V109.198H246.391V110.206L246.355 110.224C245.725 109.468 244.789 109.072 243.763 109.072C241.405 109.072 239.623 110.962 239.623 113.626C239.623 116.344 241.405 118.162 243.817 118.162ZM244.267 116.038C242.935 116.038 242.017 115.048 242.017 113.644C242.017 112.132 242.989 111.178 244.267 111.178C245.527 111.178 246.499 112.222 246.499 113.644C246.499 115.084 245.473 116.038 244.267 116.038Z" fill="#171725"/>
</svg>
