<svg width="268" height="123" viewBox="0 0 268 123" fill="none" xmlns="http://www.w3.org/2000/svg">
<g clip-path="url(#clip0_7091_55367)">
<mask id="mask0_7091_55367" style="mask-type:alpha" maskUnits="userSpaceOnUse" x="92" y="0" width="84" height="84">
<path d="M176 0H92V84H176V0Z" fill="white"/>
</mask>
<g mask="url(#mask0_7091_55367)">
<path d="M133.996 5.25391C154.287 5.25391 170.746 21.7127 170.746 42.0039C170.746 62.282 154.287 78.7539 133.996 78.7539C113.718 78.7539 97.2461 62.282 97.2461 42.0039C97.2461 21.7127 113.718 5.25391 133.996 5.25391Z" fill="#F44336"/>
<path d="M149.709 28.3772C149.709 28.3772 130.64 47.3359 119.079 58.832" stroke="white" stroke-width="6" stroke-linecap="round" stroke-linejoin="round"/>
<path d="M149.592 58.3647C149.592 58.3647 130.633 39.2964 119.137 27.7354" stroke="white" stroke-width="6" stroke-linecap="round" stroke-linejoin="round"/>
</g>
</g>
<path d="M1.886 118H4.442V112.996H9.662V118H12.2V105.22H9.662V110.746H4.442V105.22H1.886V118ZM22.9381 113.518C22.9381 110.944 21.2101 109.072 18.7261 109.072C16.1161 109.072 14.2621 110.908 14.2621 113.59C14.2621 116.344 16.1701 118.162 18.8701 118.162C20.8321 118.162 21.9661 117.442 22.7041 116.488L21.1741 115.066C20.7061 115.642 20.0221 116.056 19.0321 116.056C17.8441 116.056 16.9981 115.426 16.7101 114.364H22.8841C22.9021 114.22 22.9381 113.806 22.9381 113.518ZM18.7081 111.124C19.7341 111.124 20.3641 111.736 20.5981 112.672H16.7281C16.9981 111.664 17.7541 111.124 18.7081 111.124ZM30.4527 121.564H32.8467L37.5807 109.198H35.1867L33.1887 114.598H33.1527L31.0107 109.198H28.4907L32.0187 117.46L30.4527 121.564ZM47.7399 115.984H46.2099V109.198H39.8019C39.8019 110.674 39.7479 112.06 39.4959 113.374C39.3339 114.274 39.0639 115.156 38.6499 115.984H37.2639L37.2459 120.322H39.2079L39.3159 118H45.6519L45.7779 120.322H47.7399V115.984ZM40.9539 115.984C41.2419 115.39 41.4579 114.742 41.6199 114.076C41.8359 113.14 41.9439 112.15 42.0159 111.178H43.8879V115.984H40.9539ZM52.6979 118.162C53.8499 118.162 54.7319 117.73 55.3439 116.938L55.3799 116.956V118H57.6299V109.198H55.2719V110.206L55.2359 110.224C54.6059 109.468 53.6699 109.072 52.6439 109.072C50.2859 109.072 48.5039 110.962 48.5039 113.626C48.5039 116.344 50.2859 118.162 52.6979 118.162ZM53.1479 116.038C51.8159 116.038 50.8979 115.048 50.8979 113.644C50.8979 112.132 51.8699 111.178 53.1479 111.178C54.4079 111.178 55.3799 112.222 55.3799 113.644C55.3799 115.084 54.3539 116.038 53.1479 116.038ZM61.2392 109.198C61.2392 110.584 61.2212 112.546 61.0412 113.842C60.8612 115.102 60.4292 115.984 59.5832 115.984C59.4032 115.984 59.2952 115.966 59.1512 115.93L59.0252 117.946C59.2952 118.054 59.7092 118.108 60.0512 118.108C61.9592 118.108 62.8232 116.812 63.1652 114.742C63.3272 113.716 63.4172 112.528 63.4712 111.196H65.5052V118H67.8812V109.198H61.2392ZM74.4011 118.162C77.1371 118.162 79.0631 116.29 79.0631 113.608C79.0631 110.908 77.1371 109.072 74.4011 109.072C71.5931 109.072 69.7211 110.98 69.7211 113.608C69.7211 116.236 71.5931 118.162 74.4011 118.162ZM74.4011 116.038C73.0511 116.038 72.1151 114.976 72.1151 113.608C72.1151 112.222 73.0331 111.178 74.4011 111.178C75.6971 111.178 76.6691 112.168 76.6691 113.608C76.6691 115.048 75.6611 116.038 74.4011 116.038ZM84.9622 118.162C86.8342 118.162 88.0402 117.496 88.7962 116.56L87.2662 115.084C86.7982 115.66 86.0962 116.038 85.1962 116.038C83.7922 116.038 82.8202 115.066 82.8202 113.608C82.8202 112.168 83.7742 111.178 85.1962 111.178C86.0242 111.178 86.7442 111.538 87.2122 112.114L88.7602 110.656C87.8422 109.576 86.4022 109.072 85.0342 109.072C82.3162 109.072 80.4262 110.908 80.4262 113.626C80.4262 116.326 82.3342 118.162 84.9622 118.162ZM90.422 118H94.094C96.902 118 97.91 116.704 97.91 114.814C97.91 112.96 96.956 111.736 94.184 111.736H92.762V109.198H90.422V118ZM92.69 116.074V113.608H94.058C94.994 113.608 95.498 113.986 95.498 114.85C95.498 115.66 94.994 116.074 94.022 116.074H92.69ZM104.221 118H106.579V111.196H109.711V118H112.069V109.198H104.221V118ZM114.399 121.564H116.757V117.028L116.793 117.01C117.405 117.748 118.269 118.162 119.367 118.162C121.815 118.162 123.597 116.344 123.597 113.626C123.597 110.962 121.815 109.072 119.439 109.072C118.359 109.072 117.423 109.468 116.793 110.206H116.757V109.198H114.399V121.564ZM118.953 116.038C117.657 116.038 116.649 115.084 116.649 113.644C116.649 112.222 117.585 111.178 118.935 111.178C120.195 111.178 121.203 112.132 121.203 113.644C121.203 115.048 120.267 116.038 118.953 116.038ZM129.649 118.162C132.385 118.162 134.311 116.29 134.311 113.608C134.311 110.908 132.385 109.072 129.649 109.072C126.841 109.072 124.969 110.98 124.969 113.608C124.969 116.236 126.841 118.162 129.649 118.162ZM129.649 116.038C128.299 116.038 127.363 114.976 127.363 113.608C127.363 112.222 128.281 111.178 129.649 111.178C130.945 111.178 131.917 112.168 131.917 113.608C131.917 115.048 130.909 116.038 129.649 116.038ZM136.16 118H138.428L142.046 112.654H142.082V118H144.422V109.198H142.19L138.536 114.796H138.5V109.198H136.16V118ZM149.874 118.162C152.34 118.162 153.816 117.172 153.816 115.516C153.816 114.4 153.024 113.626 151.908 113.338V113.32C152.898 112.942 153.366 112.114 153.366 111.286C153.366 109.882 151.998 109.072 149.784 109.072C148.254 109.072 146.958 109.54 146.4 109.846L147.3 111.646C148.02 111.286 148.884 111.106 149.694 111.106C150.432 111.106 151.026 111.268 151.026 111.916C151.026 112.42 150.612 112.69 149.676 112.69H148.164V114.454H149.982C150.9 114.454 151.404 114.688 151.404 115.228C151.404 115.84 150.774 116.146 149.784 116.146C148.812 116.146 147.678 115.876 146.814 115.282L146.148 117.28C146.976 117.784 148.128 118.162 149.874 118.162ZM155.602 118H160.12C162.73 118 163.576 116.902 163.576 115.462C163.576 114.382 162.874 113.626 161.668 113.374V113.338C162.748 112.978 163.126 112.276 163.126 111.34C163.126 109.954 162.1 109.198 159.868 109.198H155.602V118ZM157.888 112.744V111.052H159.724C160.336 111.052 160.804 111.268 160.804 111.88C160.804 112.474 160.444 112.744 159.58 112.744H157.888ZM157.888 116.146V114.346H159.922C160.75 114.346 161.182 114.616 161.182 115.21C161.182 115.858 160.786 116.146 159.868 116.146H157.888ZM173.495 113.518C173.495 110.944 171.767 109.072 169.283 109.072C166.673 109.072 164.819 110.908 164.819 113.59C164.819 116.344 166.727 118.162 169.427 118.162C171.389 118.162 172.523 117.442 173.261 116.488L171.731 115.066C171.263 115.642 170.579 116.056 169.589 116.056C168.401 116.056 167.555 115.426 167.267 114.364H173.441C173.459 114.22 173.495 113.806 173.495 113.518ZM169.265 111.124C170.291 111.124 170.921 111.736 171.155 112.672H167.285C167.555 111.664 168.311 111.124 169.265 111.124ZM179.374 118.162C181.246 118.162 182.452 117.496 183.208 116.56L181.678 115.084C181.21 115.66 180.508 116.038 179.608 116.038C178.204 116.038 177.232 115.066 177.232 113.608C177.232 112.168 178.186 111.178 179.608 111.178C180.436 111.178 181.156 111.538 181.624 112.114L183.172 110.656C182.254 109.576 180.814 109.072 179.446 109.072C176.728 109.072 174.838 110.908 174.838 113.626C174.838 116.326 176.746 118.162 179.374 118.162ZM186.67 118H189.028V111.196H191.62V109.198H184.096V111.196H186.67V118ZM193.219 118H195.487L199.105 112.654H199.141V118H201.481V109.198H199.249L195.595 114.796H195.559V109.198H193.219V118ZM212.635 118.162C215.371 118.162 217.297 116.29 217.297 113.608C217.297 110.908 215.371 109.072 212.635 109.072C209.827 109.072 207.955 110.98 207.955 113.608C207.955 116.236 209.827 118.162 212.635 118.162ZM212.635 116.038C211.285 116.038 210.349 114.976 210.349 113.608C210.349 112.222 211.267 111.178 212.635 111.178C213.931 111.178 214.903 112.168 214.903 113.608C214.903 115.048 213.895 116.038 212.635 116.038ZM219.147 118H221.505V111.196H224.637V118H226.995V109.198H219.147V118ZM230.692 109.198C230.692 110.584 230.674 112.546 230.494 113.842C230.314 115.102 229.882 115.984 229.036 115.984C228.856 115.984 228.748 115.966 228.604 115.93L228.478 117.946C228.748 118.054 229.162 118.108 229.504 118.108C231.412 118.108 232.276 116.812 232.618 114.742C232.78 113.716 232.87 112.528 232.924 111.196H234.958V118H237.334V109.198H230.692ZM243.35 118.162C244.502 118.162 245.384 117.73 245.996 116.938L246.032 116.956V118H248.282V109.198H245.924V110.206L245.888 110.224C245.258 109.468 244.322 109.072 243.296 109.072C240.938 109.072 239.156 110.962 239.156 113.626C239.156 116.344 240.938 118.162 243.35 118.162ZM243.8 116.038C242.468 116.038 241.55 115.048 241.55 113.644C241.55 112.132 242.522 111.178 243.8 111.178C245.06 111.178 246.032 112.222 246.032 113.644C246.032 115.084 245.006 116.038 243.8 116.038ZM252.36 118H254.718V111.196H257.31V109.198H249.786V111.196H252.36V118ZM259.97 121.564H262.364L267.098 109.198H264.704L262.706 114.598H262.67L260.528 109.198H258.008L261.536 117.46L259.97 121.564Z" fill="#171725"/>
<defs>
<clipPath id="clip0_7091_55367">
<rect width="84" height="84" fill="white" transform="translate(92)"/>
</clipPath>
</defs>
</svg>
