<svg width="44" height="24" viewBox="0 0 44 24" fill="none" xmlns="http://www.w3.org/2000/svg">
<path d="M11.3978 2C11.0323 2 10.7527 2.25806 10.7527 2.58065V5.72043C10.7527 6.04301 11.0323 6.30108 11.3978 6.30108C11.7634 6.30108 12.043 6.04301 12.043 5.72043V2.58065C12.043 2.25806 11.7634 2 11.3978 2ZM4.94624 3.72043C4.58064 3.72043 4.30107 3.97849 4.30107 4.30108V19.2473C4.30107 19.5699 4.58064 19.828 4.94624 19.828C5.31183 19.828 5.5914 19.5699 5.5914 19.2473V4.30108C5.5914 3.97849 5.31183 3.72043 4.94624 3.72043ZM2.15054 10.3441C2.15054 10 2.43011 9.74194 2.7957 9.74194C3.16129 9.74194 3.44086 10 3.44086 10.3441V16.4516C3.44086 16.7957 3.16129 17.0538 2.7957 17.0538C2.43011 17.0538 2.15054 16.7957 2.15054 16.4516V10.3441ZM0.645161 12.3226C0.27957 12.3226 0 12.5806 0 12.9032V15.1613C0 15.4839 0.27957 15.7419 0.645161 15.7419C1.01075 15.7419 1.29032 15.4839 1.29032 15.1613V12.9032C1.29032 12.5806 1.01075 12.3226 0.645161 12.3226ZM7.09677 22C7.46236 22 7.74193 21.7419 7.74193 21.4194V18.2796C7.74193 17.957 7.46236 17.6989 7.09677 17.6989C6.73118 17.6989 6.45161 17.957 6.45161 18.2796V21.4194C6.45161 21.7419 6.73118 22 7.09677 22ZM6.45161 6.47312C6.45161 6.12903 6.73118 5.87097 7.09677 5.87097C7.46236 5.87097 7.74193 6.12903 7.74193 6.47312V14.7527C7.74193 15.0968 7.46236 15.3548 7.09677 15.3548C6.73118 15.3548 6.45161 15.0968 6.45161 14.7527V6.47312ZM18.4946 11.0968C18.4946 11.4194 18.2151 11.6774 17.8495 11.6774C17.4839 11.6774 17.2043 11.4194 17.2043 11.0968V8.8172C17.2043 8.49462 17.4839 8.23656 17.8495 8.23656C18.2151 8.23656 18.4946 8.49462 18.4946 8.8172V11.0968ZM15.6989 14.2581C16.0645 14.2581 16.3441 14 16.3441 13.6559V7.54839C16.3441 7.2043 16.0645 6.94624 15.6989 6.94624C15.3333 6.94624 15.0538 7.2043 15.0538 7.54839V13.6559C15.0538 14 15.3333 14.2581 15.6989 14.2581ZM14.1935 19.6989C14.1935 20.0215 13.914 20.2796 13.5484 20.2796C13.1828 20.2796 12.9032 20.0215 12.9032 19.6989V4.73118C12.9032 4.4086 13.1828 4.15054 13.5484 4.15054C13.914 4.15054 14.1935 4.4086 14.1935 4.73118V19.6989ZM11.3978 18.129C11.7634 18.129 12.043 17.871 12.043 17.5269V9.26882C12.043 8.92473 11.7634 8.66667 11.3978 8.66667C11.0323 8.66667 10.7527 8.92473 10.7527 9.26882V17.5484C10.7527 17.871 11.0323 18.129 11.3978 18.129ZM9.89247 19.871C9.89247 20.2151 9.6129 20.4946 9.24731 20.4946C8.88172 20.4946 8.60215 20.2151 8.60215 19.871V14.6667C8.60215 14.3226 8.88172 14.043 9.24731 14.043C9.6129 14.043 9.89247 14.3226 9.89247 14.6667V19.871ZM9.24731 4.15054C8.88172 4.15054 8.60215 4.43011 8.60215 4.77419V10C8.60215 10.3441 8.88172 10.6237 9.24731 10.6237C9.6129 10.6237 9.89247 10.3441 9.89247 10V4.77419C9.89247 4.43011 9.6129 4.15054 9.24731 4.15054Z" fill="#FFDD2A"/>
<path d="M23.4415 10.0689C23.4415 9.76781 23.2049 9.53125 22.9038 9.53125C22.6028 9.53125 22.3662 9.76781 22.3662 10.0689V12.3269C22.3662 13.6388 23.42 14.6925 24.7318 14.6925C26.0436 14.6925 27.0974 13.6388 27.0974 12.3269V10.0689C27.0974 9.76781 26.8608 9.53125 26.5598 9.53125C26.2587 9.53125 26.0221 9.76781 26.0221 10.0689V12.3269C26.0221 13.0366 25.4415 13.6173 24.7318 13.6173C24.0221 13.6173 23.4415 13.0366 23.4415 12.3269V10.0689Z" fill="#313678"/>
<path d="M30.3226 9.53125C29.8495 9.53125 29.3979 9.68179 29.0108 9.96136C28.9678 9.7248 28.7527 9.53125 28.4947 9.53125C28.1936 9.53125 27.957 9.76781 27.957 10.0689V15.8753C27.957 16.1764 28.1936 16.413 28.4947 16.413C28.7957 16.413 29.0323 16.1764 29.0323 15.8753V14.2839C29.3979 14.542 29.8495 14.6925 30.3226 14.6925C31.6345 14.6925 32.6882 13.5312 32.6882 12.1119C32.6882 10.6925 31.6345 9.53125 30.3226 9.53125ZM30.3226 13.6173C29.6129 13.6173 29.0323 12.9506 29.0323 12.1119C29.0323 11.2732 29.6129 10.6065 30.3226 10.6065C31.0323 10.6065 31.6129 11.2732 31.6129 12.1119C31.6129 12.9506 31.0323 13.6173 30.3226 13.6173Z" fill="#313678"/>
<path d="M37.7416 9.53125C37.4836 9.53125 37.2685 9.70329 37.2255 9.96136C36.8599 9.68179 36.4083 9.53125 35.9137 9.53125C34.6019 9.53125 33.5481 10.6925 33.5481 12.1119C33.5481 13.5312 34.6019 14.6925 35.9137 14.6925C36.3868 14.6925 36.8384 14.542 37.2255 14.2624C37.2685 14.499 37.4836 14.6925 37.7416 14.6925C38.0427 14.6925 38.2793 14.456 38.2793 14.1549V10.0689C38.2793 9.76781 38.0427 9.53125 37.7416 9.53125ZM35.9137 13.6173C35.204 13.6173 34.6234 12.9506 34.6234 12.1119C34.6234 11.2732 35.204 10.6065 35.9137 10.6065C36.6234 10.6065 37.204 11.2732 37.204 12.1119C37.204 12.9506 36.6234 13.6173 35.9137 13.6173Z" fill="#313678"/>
<path d="M40.2149 10.0689C40.2149 9.76781 39.9784 9.53125 39.6773 9.53125C39.3762 9.53125 39.1396 9.76781 39.1396 10.0689V12.542C39.1396 13.7248 40.1074 14.6925 41.2902 14.6925H41.7203C42.1074 14.6925 42.473 14.585 42.7956 14.413V14.4775C42.7956 14.714 42.7095 14.9076 42.559 15.0581C42.387 15.2087 42.0644 15.3377 41.5052 15.3377C40.8171 15.3377 40.473 15.1226 40.344 15.0366C40.344 15.0366 40.3224 15.0366 40.3224 15.0151C40.0859 14.8431 39.7633 14.8646 39.5698 15.1011C39.3762 15.3377 39.4192 15.6818 39.6558 15.8538C39.8278 15.9614 39.9784 16.0689 40.1719 16.1549C40.4945 16.2839 40.9246 16.413 41.5052 16.413C42.2364 16.413 42.8386 16.2409 43.2472 15.8753C43.6773 15.5097 43.8708 14.9936 43.8708 14.4775V12.542V10.0689C43.8708 9.76781 43.6343 9.53125 43.3332 9.53125C43.0321 9.53125 42.7956 9.76781 42.7956 10.0689V12.3269C42.7956 13.0366 42.2149 13.6173 41.5052 13.6173C40.7956 13.6173 40.2149 13.0366 40.2149 12.3269V10.0689Z" fill="#313678"/>
</svg>
