<svg width="174" height="123" viewBox="0 0 174 123" fill="none" xmlns="http://www.w3.org/2000/svg">
<g clip-path="url(#clip0_7095_55422)">
<mask id="mask0_7095_55422" style="mask-type:alpha" maskUnits="userSpaceOnUse" x="45" y="0" width="84" height="84">
<path d="M129 0H45V84H129V0Z" fill="white"/>
</mask>
<g mask="url(#mask0_7095_55422)">
<path d="M87.6563 1.53467C109.748 1.53467 127.684 19.4711 127.684 41.5623C127.684 63.6536 109.748 81.59 87.6563 81.59C65.5651 81.59 47.6287 63.6536 47.6287 41.5623C47.6287 19.4711 65.5651 1.53467 87.6563 1.53467Z" fill="#FFC007"/>
<path d="M91.1562 13.3154V41.3154C91.1562 43.2471 89.5879 44.8154 87.6562 44.8154C85.7246 44.8154 84.1562 43.2471 84.1562 41.3154V13.3154C84.1562 11.3838 85.7246 9.81543 87.6562 9.81543C89.5879 9.81543 91.1562 11.3838 91.1562 13.3154Z" fill="white"/>
<path d="M108.826 44.8199L87.8279 45.1145C85.8964 45.1416 84.3062 43.5954 84.2791 41.6639C84.2521 39.7325 85.7982 38.1423 87.7297 38.1152L108.728 37.8206C110.659 37.7935 112.249 39.3397 112.276 41.2711C112.303 43.2026 110.757 44.7928 108.826 44.8199Z" fill="white"/>
</g>
</g>
<path d="M7.88 118.162C11.624 118.162 14.378 115.498 14.378 111.61C14.378 107.704 11.624 105.058 7.88 105.058C4.01 105.058 1.364 107.812 1.364 111.61C1.364 115.408 4.01 118.162 7.88 118.162ZM7.88 115.786C5.576 115.786 3.992 113.932 3.992 111.61C3.992 109.288 5.576 107.434 7.88 107.434C10.076 107.434 11.732 109.198 11.732 111.61C11.732 114.022 10.076 115.786 7.88 115.786ZM16.418 118H18.776V111.196H21.908V118H24.266V109.198H16.418V118ZM27.9638 109.198C27.9638 110.584 27.9458 112.546 27.7658 113.842C27.5858 115.102 27.1538 115.984 26.3078 115.984C26.1278 115.984 26.0198 115.966 25.8758 115.93L25.7498 117.946C26.0198 118.054 26.4338 118.108 26.7758 118.108C28.6838 118.108 29.5478 116.812 29.8898 114.742C30.0518 113.716 30.1418 112.528 30.1958 111.196H32.2298V118H34.6058V109.198H27.9638ZM40.6217 118.162C41.7737 118.162 42.6557 117.73 43.2677 116.938L43.3037 116.956V118H45.5537V109.198H43.1957V110.206L43.1597 110.224C42.5297 109.468 41.5937 109.072 40.5677 109.072C38.2097 109.072 36.4277 110.962 36.4277 113.626C36.4277 116.344 38.2097 118.162 40.6217 118.162ZM41.0717 116.038C39.7397 116.038 38.8217 115.048 38.8217 113.644C38.8217 112.132 39.7937 111.178 41.0717 111.178C42.3317 111.178 43.3037 112.222 43.3037 113.644C43.3037 115.084 42.2777 116.038 41.0717 116.038ZM49.631 118H51.989V111.196H54.581V109.198H47.057V111.196H49.631V118ZM59.6237 118.162C60.7757 118.162 61.6577 117.73 62.2697 116.938L62.3057 116.956V118H64.5557V109.198H62.1977V110.206L62.1617 110.224C61.5317 109.468 60.5957 109.072 59.5697 109.072C57.2117 109.072 55.4297 110.962 55.4297 113.626C55.4297 116.344 57.2117 118.162 59.6237 118.162ZM60.0737 116.038C58.7417 116.038 57.8237 115.048 57.8237 113.644C57.8237 112.132 58.7957 111.178 60.0737 111.178C61.3337 111.178 62.3057 112.222 62.3057 113.644C62.3057 115.084 61.2797 116.038 60.0737 116.038ZM71.42 118H75.938C78.548 118 79.394 116.902 79.394 115.462C79.394 114.382 78.692 113.626 77.486 113.374V113.338C78.566 112.978 78.944 112.276 78.944 111.34C78.944 109.954 77.918 109.198 75.686 109.198H71.42V118ZM73.706 112.744V111.052H75.542C76.154 111.052 76.622 111.268 76.622 111.88C76.622 112.474 76.262 112.744 75.398 112.744H73.706ZM73.706 116.146V114.346H75.74C76.568 114.346 77 114.616 77 115.21C77 115.858 76.604 116.146 75.686 116.146H73.706ZM89.9929 118.162C92.7289 118.162 94.6549 116.29 94.6549 113.608C94.6549 110.908 92.7289 109.072 89.9929 109.072C87.1849 109.072 85.3129 110.98 85.3129 113.608C85.3129 116.236 87.1849 118.162 89.9929 118.162ZM89.9929 116.038C88.6429 116.038 87.7069 114.976 87.7069 113.608C87.7069 112.222 88.6249 111.178 89.9929 111.178C91.2889 111.178 92.2609 112.168 92.2609 113.608C92.2609 115.048 91.2529 116.038 89.9929 116.038ZM94.9519 118H97.5799L99.8479 114.454L100.712 115.426V118H102.962V115.444L103.808 114.49L106.076 118H108.722L105.464 113.23L108.524 109.198H105.86L102.998 113.194H102.962V109.198H100.712V113.104L100.676 113.122L97.7599 109.198H95.0419L98.1739 113.23L94.9519 118ZM110.109 118H112.377L115.995 112.654H116.031V118H118.371V109.198H116.139L112.485 114.796H112.449V109.198H110.109V118ZM130.357 115.984H128.827V109.198H122.419C122.419 110.674 122.365 112.06 122.113 113.374C121.951 114.274 121.681 115.156 121.267 115.984H119.881L119.863 120.322H121.825L121.933 118H128.269L128.395 120.322H130.357V115.984ZM123.571 115.984C123.859 115.39 124.075 114.742 124.237 114.076C124.453 113.14 124.561 112.15 124.633 111.178H126.505V115.984H123.571ZM135.315 118.162C136.467 118.162 137.349 117.73 137.961 116.938L137.997 116.956V118H140.247V109.198H137.889V110.206L137.853 110.224C137.223 109.468 136.287 109.072 135.261 109.072C132.903 109.072 131.121 110.962 131.121 113.626C131.121 116.344 132.903 118.162 135.315 118.162ZM135.765 116.038C134.433 116.038 133.515 115.048 133.515 113.644C133.515 112.132 134.487 111.178 135.765 111.178C137.025 111.178 137.997 112.222 137.997 113.644C137.997 115.084 136.971 116.038 135.765 116.038ZM142.488 118H144.846V114.67H148.23V118H150.606V109.198H148.23V112.726H144.846V109.198H142.488V118ZM152.93 118H155.198L158.816 112.654H158.852V118H161.192V109.198H158.96L155.306 114.796H155.27V109.198H152.93V118ZM163.529 118H165.797L169.415 112.654H169.451V118H171.791V109.198H169.559L165.905 114.796H165.869V109.198H163.529V118Z" fill="#171725"/>
<defs>
<clipPath id="clip0_7095_55422">
<rect width="84" height="84" fill="white" transform="translate(45)"/>
</clipPath>
</defs>
</svg>
