<svg width="12" height="11" viewBox="0 0 12 11" fill="none" xmlns="http://www.w3.org/2000/svg">
<path d="M1.91686 10.0833H10.0835C10.2739 10.082 10.461 10.0341 10.6286 9.94381C10.7962 9.85355 10.9391 9.72364 11.045 9.56544C11.1508 9.40724 11.2164 9.22554 11.2359 9.03619C11.2554 8.84684 11.2282 8.65559 11.1569 8.47914L7.01519 1.3333C6.9143 1.15095 6.7664 0.998953 6.58688 0.893111C6.40736 0.787268 6.20276 0.731445 5.99436 0.731445C5.78596 0.731445 5.58136 0.787268 5.40184 0.893111C5.22231 0.998953 5.07442 1.15095 4.97352 1.3333L0.831859 8.47914C0.761825 8.65155 0.734053 8.83823 0.750863 9.02356C0.767673 9.2089 0.828577 9.38753 0.928489 9.54454C1.0284 9.70154 1.16442 9.83237 1.3252 9.92609C1.48598 10.0198 1.66684 10.0737 1.85269 10.0833M6.00019 4.24997V5.41664V4.24997ZM6.00019 7.74997V7.7558V7.74997Z" stroke="white" stroke-width="1.4" stroke-linecap="round" stroke-linejoin="round"/>
</svg>
