<svg width="8" height="12" viewBox="0 0 8 12" fill="none" xmlns="http://www.w3.org/2000/svg">
<path d="M7.20711 10.2929C7.59763 10.6834 7.59763 11.3166 7.20711 11.7071C6.81658 12.0976 6.18342 12.0976 5.79289 11.7071L7.20711 10.2929ZM1.5 6L0.792894 6.70711C0.402369 6.31658 0.402369 5.68342 0.792894 5.29289L1.5 6ZM5.79289 0.292893C6.18342 -0.0976315 6.81658 -0.0976314 7.20711 0.292893C7.59763 0.683417 7.59763 1.31658 7.20711 1.70711L5.79289 0.292893ZM5.79289 11.7071L0.792894 6.70711L2.20711 5.29289L7.20711 10.2929L5.79289 11.7071ZM0.792894 5.29289L5.79289 0.292893L7.20711 1.70711L2.20711 6.70711L0.792894 5.29289Z" fill="#92929D"/>
</svg>
