<svg width="28" height="20" viewBox="0 0 28 20" fill="none" xmlns="http://www.w3.org/2000/svg">
<path opacity="0.4" d="M9.8 14.2822C9.24621 14.2822 8.70486 14.4464 8.2444 14.7541C7.78394 15.0618 7.42506 15.4991 7.21314 16.0107C7.00121 16.5223 6.94576 17.0853 7.0538 17.6285C7.16184 18.1716 7.42851 18.6705 7.8201 19.0621C8.21169 19.4537 8.7106 19.7204 9.25374 19.8284C9.79689 19.9365 10.3599 19.881 10.8715 19.6691C11.3831 19.4572 11.8204 19.0983 12.1281 18.6378C12.4358 18.1774 12.6 17.636 12.6 17.0822C12.6 16.3396 12.305 15.6274 11.7799 15.1023C11.2548 14.5772 10.5426 14.2822 9.8 14.2822ZM2.8 14.2822C2.24621 14.2822 1.70486 14.4464 1.2444 14.7541C0.783947 15.0618 0.425064 15.4991 0.213138 16.0107C0.00121319 16.5223 -0.0542361 17.0853 0.0538024 17.6285C0.161841 18.1716 0.428515 18.6705 0.820102 19.0621C1.21169 19.4537 1.7106 19.7204 2.25375 19.8284C2.79689 19.9365 3.35988 19.881 3.87151 19.6691C4.38315 19.4572 4.82045 19.0983 5.12811 18.6378C5.43578 18.1774 5.6 17.636 5.6 17.0822C5.6 16.3396 5.305 15.6274 4.7799 15.1023C4.2548 14.5772 3.54261 14.2822 2.8 14.2822ZM23.1 14.2822C22.5462 14.2822 22.0049 14.4464 21.5444 14.7541C21.0839 15.0618 20.7251 15.4991 20.5131 16.0107C20.3012 16.5223 20.2458 17.0853 20.3538 17.6285C20.4618 18.1716 20.7285 18.6705 21.1201 19.0621C21.5117 19.4537 22.0106 19.7204 22.5537 19.8284C23.0969 19.9365 23.6599 19.881 24.1715 19.6691C24.6831 19.4572 25.1204 19.0983 25.4281 18.6378C25.7358 18.1774 25.9 17.636 25.9 17.0822C25.9 16.3396 25.605 15.6274 25.0799 15.1023C24.5548 14.5772 23.8426 14.2822 23.1 14.2822Z" fill="#EA5930"/>
<path d="M27.1819 9.2641L24.6225 6.70473C24.3621 6.44484 24.053 6.23883 23.713 6.09845C23.3729 5.95807 23.0085 5.88608 22.6406 5.8866H21V1.68223C21 1.31092 20.8525 0.954828 20.59 0.692277C20.3274 0.429726 19.9713 0.282227 19.6 0.282227H1.4C1.0287 0.282227 0.672602 0.429726 0.410051 0.692277C0.1475 0.954828 0 1.31092 0 1.68223L0 13.9545C0.448703 13.552 0.978881 13.251 1.55442 13.0719C2.12997 12.8927 2.73736 12.8397 3.33522 12.9165C3.93309 12.9933 4.50739 13.198 5.019 13.5167C5.53062 13.8354 5.96754 14.2607 6.3 14.7635C6.73128 14.1129 7.33533 13.5954 8.04436 13.2689C8.7534 12.9425 9.53936 12.8202 10.3141 12.9156C11.0888 13.011 11.8216 13.3204 12.4302 13.8091C13.0389 14.2978 13.4993 14.9464 13.7598 15.6822H19.1411C19.4308 14.8637 19.967 14.155 20.6761 13.6538C21.3851 13.1526 22.2321 12.8834 23.1004 12.8834C23.9688 12.8834 24.8157 13.1526 25.5248 13.6538C26.2338 14.155 26.7701 14.8637 27.0598 15.6822H27.3C27.4857 15.6822 27.6637 15.6085 27.795 15.4772C27.9263 15.3459 28 15.1679 28 14.9822V11.2416C28.0004 10.8744 27.9284 10.5107 27.788 10.1713C27.6476 9.83198 27.4416 9.52368 27.1819 9.2641ZM21 10.0822V7.98223H22.6406C22.7325 7.9821 22.8236 8.0002 22.9084 8.0355C22.9933 8.0708 23.0703 8.12258 23.135 8.18785L25.0294 10.0822H21Z" fill="#EA5930"/>
</svg>
