<svg width="28" height="28" viewBox="0 0 28 28" fill="none" xmlns="http://www.w3.org/2000/svg">
<path opacity="0.4" d="M6.3003 16.8135C5.60806 16.8135 4.93137 17.0198 4.3558 17.4062C3.78023 17.7927 3.33162 18.342 3.06672 18.9847C2.80181 19.6274 2.7325 20.3345 2.86755 21.0168C3.00259 21.6991 3.33594 22.3258 3.82542 22.8176C4.31491 23.3095 4.93855 23.6445 5.61748 23.7802C6.29641 23.9159 7.00015 23.8463 7.63969 23.5801C8.27923 23.3139 8.82586 22.8631 9.21044 22.2847C9.59503 21.7063 9.8003 21.0263 9.8003 20.3306C9.8003 19.8688 9.70977 19.4114 9.53388 18.9847C9.35799 18.558 9.10018 18.1702 8.77517 17.8436C8.45017 17.517 8.06433 17.258 7.63969 17.0812C7.21505 16.9044 6.75992 16.8135 6.3003 16.8135ZM21.7003 16.8135C21.0081 16.8135 20.3314 17.0198 19.7558 17.4062C19.1802 17.7927 18.7316 18.342 18.4667 18.9847C18.2018 19.6274 18.1325 20.3345 18.2676 21.0168C18.4026 21.6991 18.7359 22.3258 19.2254 22.8176C19.7149 23.3095 20.3386 23.6445 21.0175 23.7802C21.6964 23.9159 22.4002 23.8463 23.0397 23.5801C23.6792 23.3139 24.2259 22.8631 24.6104 22.2847C24.995 21.7063 25.2003 21.0263 25.2003 20.3306C25.2003 19.3978 24.8316 18.5032 24.1752 17.8436C23.5188 17.184 22.6286 16.8135 21.7003 16.8135Z" fill="#EA5930"/>
<path d="M0.7 19.6278H1.44987C1.61763 18.4554 2.20035 17.383 3.09118 16.6073C3.98202 15.8316 5.12126 15.4046 6.3 15.4046C7.47874 15.4046 8.61798 15.8316 9.50882 16.6073C10.3997 17.383 10.9824 18.4554 11.1501 19.6278H16.8499C17.0176 18.4554 17.6003 17.383 18.4912 16.6073C19.382 15.8316 20.5213 15.4046 21.7 15.4046C22.8787 15.4046 24.018 15.8316 24.9088 16.6073C25.7997 17.383 26.3824 18.4554 26.5501 19.6278H27.3C27.4857 19.6278 27.6637 19.5537 27.795 19.4218C27.9263 19.2899 28 19.111 28 18.9244V15.4072C28 14.2879 27.5575 13.2144 26.7698 12.4228C25.9822 11.6313 24.9139 11.1867 23.8 11.1867H23.1L18.3409 5.20749C18.0784 4.878 17.7454 4.61208 17.3668 4.42943C16.9881 4.24678 16.5734 4.15208 16.1534 4.15234H6.79569C6.23611 4.15236 5.68937 4.32087 5.226 4.63613C4.76263 4.95139 4.40389 5.39893 4.19606 5.92103L2.1 11.286C1.50006 11.4405 0.968214 11.791 0.588081 12.2823C0.207948 12.7737 0.00108113 13.378 0 14.0004L0 18.9244C0 19.111 0.0737498 19.2899 0.205025 19.4218C0.336301 19.5537 0.514348 19.6278 0.7 19.6278ZM12.25 6.96607H16.1542L19.5125 11.1867H12.25V6.96607ZM6.79569 6.96607H10.15V11.1867H5.11569L6.79569 6.96607Z" fill="#EA5930"/>
</svg>
