<svg width="24" height="24" viewBox="0 0 24 24" fill="none" xmlns="http://www.w3.org/2000/svg">
<path d="M5 12H3L12 3L21 12H19" fill="#695CEA"/>
<path d="M5 12H3L12 3L21 12H19" stroke="#695CEA" stroke-width="2" stroke-linecap="round" stroke-linejoin="round"/>
<path d="M5 12V19C5 19.5304 5.21071 20.0391 5.58579 20.4142C5.96086 20.7893 6.46957 21 7 21H17C17.5304 21 18.0391 20.7893 18.4142 20.4142C18.7893 20.0391 19 19.5304 19 19V12" fill="#695CEA"/>
<path d="M5 12V19C5 19.5304 5.21071 20.0391 5.58579 20.4142C5.96086 20.7893 6.46957 21 7 21H17C17.5304 21 18.0391 20.7893 18.4142 20.4142C18.7893 20.0391 19 19.5304 19 19V12" stroke="#695CEA" stroke-width="2" stroke-linecap="round" stroke-linejoin="round"/>
<path d="M10 21V17.25C10 16.9185 10.1405 16.6005 10.3905 16.3661C10.6406 16.1317 10.9797 16 11.3333 16H12.6667C13.0203 16 13.3594 16.1317 13.6095 16.3661C13.8595 16.6005 14 16.9185 14 17.25V21" fill="white"/>
<path fill-rule="evenodd" clip-rule="evenodd" d="M11.3333 17C11.2249 17 11.1328 17.041 11.0745 17.0957C11.0184 17.1483 11 17.2053 11 17.25V20H13V17.25C13 17.2053 12.9816 17.1483 12.9255 17.0957C12.8672 17.041 12.7751 17 12.6667 17H11.3333ZM9.70658 15.6366C10.1484 15.2224 10.7346 15 11.3333 15H12.6667C13.2654 15 13.8516 15.2224 14.2934 15.6366C14.7374 16.0528 15 16.6317 15 17.25V22C14 22 14.5523 22 14 22H10C9.44772 22 9.5 22 9 22V17.25C9 16.6317 9.2626 16.0528 9.70658 15.6366Z" fill="white"/>
</svg>
