<svg width="24" height="24" viewBox="0 0 24 24" fill="none" xmlns="http://www.w3.org/2000/svg">
    <g clip-path="url(#clip0_14112_4911)">
        <path fill-rule="evenodd" clip-rule="evenodd" d="M3 12H5V19C5 19.5304 5.21071 20.0391 5.58579 20.4142C5.96086 20.7893 6.46957 21 7 21H8V16C8 14.8954 8.89543 14 10 14H14C15.1046 14 16 14.8954 16 16V21H17C17.5304 21 18.0391 20.7893 18.4142 20.4142C18.7893 20.0391 19 19.5304 19 19V12H21L12 3L3 12Z" fill="#7B61FF"/>
        <path d="M5 12H6C6 11.4477 5.55228 11 5 11V12ZM3 12L2.29289 11.2929C2.0069 11.5789 1.92134 12.009 2.07612 12.3827C2.2309 12.7564 2.59554 13 3 13V12ZM8 21V22C8.55228 22 9 21.5523 9 21H8ZM16 21H15C15 21.5523 15.4477 22 16 22V21ZM19 12V11C18.4477 11 18 11.4477 18 12H19ZM21 12V13C21.4045 13 21.7691 12.7564 21.9239 12.3827C22.0787 12.009 21.9931 11.5789 21.7071 11.2929L21 12ZM12 3L12.7071 2.29289C12.3166 1.90237 11.6834 1.90237 11.2929 2.29289L12 3ZM5 11H3V13H5V11ZM6 19V12H4V19H6ZM6.29289 19.7071C6.10536 19.5196 6 19.2652 6 19H4C4 19.7957 4.31607 20.5587 4.87868 21.1213L6.29289 19.7071ZM7 20C6.73478 20 6.48043 19.8946 6.29289 19.7071L4.87868 21.1213C5.44129 21.6839 6.20435 22 7 22V20ZM8 20H7V22H8V20ZM9 21V16H7V21H9ZM9 16C9 15.4477 9.44772 15 10 15V13C8.34315 13 7 14.3431 7 16H9ZM10 15H14V13H10V15ZM14 15C14.5523 15 15 15.4477 15 16H17C17 14.3431 15.6569 13 14 13V15ZM15 16V21H17V16H15ZM17 20H16V22H17V20ZM17.7071 19.7071C17.5196 19.8946 17.2652 20 17 20V22C17.7956 22 18.5587 21.6839 19.1213 21.1213L17.7071 19.7071ZM18 19C18 19.2652 17.8946 19.5196 17.7071 19.7071L19.1213 21.1213C19.6839 20.5587 20 19.7957 20 19H18ZM18 12V19H20V12H18ZM21 11H19V13H21V11ZM11.2929 3.70711L20.2929 12.7071L21.7071 11.2929L12.7071 2.29289L11.2929 3.70711ZM3.70711 12.7071L12.7071 3.70711L11.2929 2.29289L2.29289 11.2929L3.70711 12.7071Z" fill="#7B61FF"/>
    </g>
    <defs>
        <clipPath id="clip0_14112_4911">
            <rect width="24" height="24" fill="white"/>
        </clipPath>
    </defs>
</svg>
