<svg width="24" height="24" viewBox="0 0 24 24" fill="none" xmlns="http://www.w3.org/2000/svg">
<path d="M5 12H3L12 3L21 12H19" stroke="#696974" stroke-width="2" stroke-linecap="round" stroke-linejoin="round"/>
<path d="M5 12V19C5 19.5304 5.21071 20.0391 5.58579 20.4142C5.96086 20.7893 6.46957 21 7 21H17C17.5304 21 18.0391 20.7893 18.4142 20.4142C18.7893 20.0391 19 19.5304 19 19V12" stroke="#696974" stroke-width="2" stroke-linecap="round" stroke-linejoin="round"/>
<path d="M10.043 20.9998V17.2792C10.043 16.9503 10.1805 16.6349 10.4252 16.4023C10.67 16.1697 11.0019 16.0391 11.348 16.0391H12.6531C12.9992 16.0391 13.3312 16.1697 13.5759 16.4023C13.8206 16.6349 13.9581 16.9503 13.9581 17.2792V20.9998" stroke="#696974" stroke-width="2" stroke-linecap="round" stroke-linejoin="round"/>
</svg>
